<svg width="135" height="45" viewBox="0 0 135 45" fill="none" xmlns="http://www.w3.org/2000/svg">
<rect width="135" height="45" rx="5" fill="#EBF3FE"/>
<g clip-path="url(#clip0_17862_123633)">
<path d="M27 15.5V29.5" stroke="#1EA4FF" stroke-width="2" stroke-linecap="round" stroke-linejoin="round"/>
<path d="M20 22.5H34" stroke="#1EA4FF" stroke-width="2" stroke-linecap="round" stroke-linejoin="round"/>
</g>
<path d="M50.9996 28.16C50.701 28.16 50.4823 28.112 50.3436 28.016C50.205 27.9307 50.1196 27.8133 50.0876 27.664C50.0556 27.5147 50.0396 27.3493 50.0396 27.168V17.936C50.0396 17.5733 50.109 17.3227 50.2476 17.184C50.397 17.0453 50.6636 16.976 51.0476 16.976H57.2876C57.469 16.976 57.629 16.9973 57.7676 17.04C57.917 17.072 58.0343 17.1573 58.1196 17.296C58.205 17.424 58.2476 17.6427 58.2476 17.952C58.2476 18.2507 58.1996 18.4693 58.1036 18.608C58.0183 18.7467 57.901 18.832 57.7516 18.864C57.613 18.896 57.453 18.912 57.2716 18.912H51.9756V21.6H55.6236C55.805 21.6 55.9596 21.6213 56.0876 21.664C56.2156 21.696 56.317 21.7707 56.3916 21.888C56.4663 22.0053 56.5036 22.2027 56.5036 22.48C56.5036 22.7467 56.4663 22.944 56.3916 23.072C56.317 23.1893 56.2103 23.264 56.0716 23.296C55.933 23.3173 55.773 23.328 55.5916 23.328H51.9756V26.208H57.2876C57.469 26.208 57.629 26.2293 57.7676 26.272C57.917 26.304 58.0343 26.3893 58.1196 26.528C58.205 26.6667 58.2476 26.8853 58.2476 27.184C58.2476 27.4827 58.1996 27.7013 58.1036 27.84C58.0183 27.9787 57.901 28.064 57.7516 28.096C57.613 28.1387 57.453 28.16 57.2716 28.16H50.9996ZM60.6506 28.144C60.3626 28.144 60.1493 28.1013 60.0106 28.016C59.8826 27.9307 59.8026 27.8133 59.7706 27.664C59.7386 27.5147 59.7226 27.3547 59.7226 27.184V21.2C59.7226 21.0293 59.7386 20.8747 59.7706 20.736C59.8026 20.5973 59.888 20.4853 60.0266 20.4C60.1653 20.3147 60.384 20.272 60.6826 20.272C60.992 20.272 61.216 20.336 61.3546 20.464C61.504 20.592 61.5786 20.7947 61.5786 21.072L61.4346 21.52C61.488 21.4027 61.5786 21.2747 61.7066 21.136C61.8346 20.9973 61.9893 20.8587 62.1706 20.72C62.3626 20.5813 62.576 20.4693 62.8106 20.384C63.0453 20.2987 63.2906 20.256 63.5466 20.256C63.8986 20.256 64.2186 20.3147 64.5066 20.432C64.8053 20.5493 65.0666 20.72 65.2906 20.944C65.5253 21.168 65.728 21.44 65.8986 21.76C66.08 21.4827 66.2826 21.232 66.5066 21.008C66.7306 20.7733 66.992 20.592 67.2906 20.464C67.5893 20.3253 67.9253 20.256 68.2986 20.256C68.9173 20.256 69.4346 20.4107 69.8506 20.72C70.2773 21.0293 70.5973 21.472 70.8106 22.048C71.0346 22.6133 71.1466 23.2907 71.1466 24.08V27.184C71.1466 27.3653 71.1253 27.5307 71.0826 27.68C71.0506 27.8187 70.9653 27.9307 70.8266 28.016C70.6986 28.1013 70.4853 28.144 70.1866 28.144C69.888 28.144 69.6693 28.096 69.5306 28C69.392 27.9147 69.3066 27.8027 69.2746 27.664C69.2426 27.5147 69.2266 27.3493 69.2266 27.168V24.064C69.2266 23.6693 69.1786 23.328 69.0826 23.04C68.9866 22.752 68.8426 22.528 68.6506 22.368C68.4693 22.208 68.2293 22.128 67.9306 22.128C67.6106 22.128 67.3333 22.208 67.0986 22.368C66.8746 22.5173 66.6986 22.736 66.5706 23.024C66.4426 23.312 66.3786 23.664 66.3786 24.08V27.2C66.3786 27.3813 66.352 27.552 66.2986 27.712C66.2453 27.8613 66.1386 27.9733 65.9786 28.048C65.8293 28.1333 65.6106 28.1653 65.3226 28.144C65.056 28.1333 64.8586 28.08 64.7306 27.984C64.6133 27.888 64.5386 27.7707 64.5066 27.632C64.4853 27.4827 64.4746 27.328 64.4746 27.168V24.064C64.4746 23.6693 64.4266 23.328 64.3306 23.04C64.2346 22.7413 64.0906 22.5173 63.8986 22.368C63.7173 22.208 63.472 22.128 63.1626 22.128C62.832 22.128 62.5493 22.2133 62.3146 22.384C62.0906 22.5547 61.92 22.784 61.8026 23.072C61.6853 23.36 61.6266 23.6907 61.6266 24.064V27.2C61.6266 27.3707 61.6053 27.5307 61.5626 27.68C61.5306 27.8293 61.4453 27.9413 61.3066 28.016C61.1786 28.1013 60.96 28.144 60.6506 28.144ZM76.8019 28.048C76.2792 28.048 75.8099 27.952 75.3939 27.76C74.9885 27.5573 74.6419 27.28 74.3539 26.928C74.0765 26.5653 73.8632 26.1493 73.7139 25.68C73.5752 25.2107 73.5059 24.704 73.5059 24.16C73.5165 23.616 73.5965 23.1093 73.7459 22.64C73.8952 22.16 74.1085 21.744 74.3859 21.392C74.6739 21.04 75.0205 20.7627 75.4259 20.56C75.8312 20.3573 76.2899 20.256 76.8019 20.256C77.2925 20.256 77.7512 20.3573 78.1779 20.56C78.6152 20.7627 78.9992 21.0453 79.3299 21.408C79.6712 21.7707 79.9379 22.192 80.1299 22.672C80.3219 23.1413 80.4179 23.648 80.4179 24.192C80.4179 24.7467 80.3219 25.2587 80.1299 25.728C79.9379 26.1973 79.6765 26.608 79.3459 26.96C79.0152 27.3013 78.6312 27.568 78.1939 27.76C77.7565 27.952 77.2925 28.048 76.8019 28.048ZM73.6019 31.376C73.3139 31.376 73.1005 31.3333 72.9619 31.248C72.8232 31.1627 72.7379 31.0507 72.7059 30.912C72.6739 30.7733 72.6579 30.6133 72.6579 30.432V21.232C72.6579 21.0507 72.6739 20.8907 72.7059 20.752C72.7379 20.6133 72.8179 20.5013 72.9459 20.416C73.0845 20.32 73.2979 20.272 73.5859 20.272C73.8632 20.272 74.0819 20.3147 74.2419 20.4C74.4019 20.4853 74.5085 20.6293 74.5619 20.832V30.416C74.5725 30.5973 74.5565 30.7573 74.5139 30.896C74.4819 31.0453 74.3965 31.1627 74.2579 31.248C74.1192 31.3333 73.9005 31.376 73.6019 31.376ZM76.5459 26.256C76.9192 26.256 77.2552 26.1707 77.5539 26C77.8525 25.8187 78.0872 25.5733 78.2579 25.264C78.4392 24.944 78.5299 24.5867 78.5299 24.192C78.5299 23.7867 78.4392 23.4293 78.2579 23.12C78.0872 22.8107 77.8525 22.5707 77.5539 22.4C77.2552 22.2187 76.9192 22.128 76.5459 22.128C76.1832 22.128 75.8525 22.2187 75.5539 22.4C75.2552 22.5813 75.0152 22.8267 74.8339 23.136C74.6632 23.4347 74.5779 23.7867 74.5779 24.192C74.5779 24.5867 74.6632 24.944 74.8339 25.264C75.0152 25.5733 75.2552 25.8187 75.5539 26C75.8525 26.1707 76.1832 26.256 76.5459 26.256ZM84.5215 28.16C84.1268 28.16 83.7748 28.1333 83.4655 28.08C83.1668 28.0267 82.9055 27.936 82.6815 27.808C82.4682 27.68 82.2922 27.5093 82.1535 27.296C82.0148 27.072 81.9082 26.8 81.8335 26.48C81.7695 26.16 81.7375 25.776 81.7375 25.328V17.616C81.7375 17.4347 81.7535 17.2747 81.7855 17.136C81.8282 16.9867 81.9135 16.8693 82.0415 16.784C82.1802 16.688 82.3988 16.64 82.6975 16.64C82.9962 16.64 83.2095 16.6827 83.3375 16.768C83.4762 16.8533 83.5615 16.9707 83.5935 17.12C83.6362 17.2587 83.6575 17.4187 83.6575 17.6V25.248C83.6575 25.4507 83.6682 25.6213 83.6895 25.76C83.7215 25.888 83.7695 25.9947 83.8335 26.08C83.9082 26.1547 83.9988 26.208 84.1055 26.24C84.2228 26.272 84.3615 26.288 84.5215 26.288C84.6602 26.288 84.7828 26.304 84.8895 26.336C85.0068 26.368 85.0975 26.448 85.1615 26.576C85.2362 26.704 85.2735 26.912 85.2735 27.2C85.2735 27.4987 85.2362 27.7173 85.1615 27.856C85.0975 27.9947 85.0068 28.08 84.8895 28.112C84.7722 28.144 84.6495 28.16 84.5215 28.16ZM90.1058 28.256C89.5938 28.256 89.0924 28.16 88.6018 27.968C88.1218 27.7653 87.6844 27.4827 87.2898 27.12C86.9058 26.7573 86.5964 26.3307 86.3618 25.84C86.1378 25.3493 86.0258 24.8107 86.0258 24.224C86.0258 23.6587 86.1324 23.1307 86.3458 22.64C86.5591 22.1493 86.8524 21.7173 87.2258 21.344C87.5991 20.9707 88.0258 20.6827 88.5058 20.48C88.9964 20.2667 89.5191 20.16 90.0738 20.16C90.8204 20.16 91.4978 20.3413 92.1058 20.704C92.7138 21.056 93.1991 21.536 93.5618 22.144C93.9244 22.752 94.1058 23.44 94.1058 24.208C94.1058 24.816 93.9938 25.3707 93.7698 25.872C93.5458 26.3627 93.2418 26.7893 92.8578 27.152C92.4738 27.504 92.0418 27.776 91.5618 27.968C91.0924 28.16 90.6071 28.256 90.1058 28.256ZM90.0738 26.368C90.4258 26.368 90.7618 26.2827 91.0818 26.112C91.4124 25.9307 91.6791 25.6747 91.8818 25.344C92.0951 25.0133 92.2018 24.624 92.2018 24.176C92.2018 23.76 92.1058 23.392 91.9138 23.072C91.7324 22.752 91.4818 22.5013 91.1618 22.32C90.8418 22.1387 90.4738 22.048 90.0578 22.048C89.6631 22.048 89.3058 22.144 88.9858 22.336C88.6658 22.5173 88.4098 22.7733 88.2178 23.104C88.0364 23.424 87.9457 23.7867 87.9457 24.192C87.9457 24.64 88.0471 25.0293 88.2498 25.36C88.4524 25.68 88.7138 25.9307 89.0338 26.112C89.3644 26.2827 89.7111 26.368 90.0738 26.368ZM96.8629 31.312C96.5215 31.1627 96.3242 30.992 96.2709 30.8C96.2175 30.6187 96.2655 30.3733 96.4149 30.064L100.543 20.816C100.692 20.4747 100.852 20.272 101.023 20.208C101.194 20.1333 101.455 20.1707 101.807 20.32C102.138 20.4693 102.33 20.6347 102.383 20.816C102.447 20.9973 102.41 21.2427 102.271 21.552L98.1109 30.848C97.9722 31.1893 97.8175 31.3867 97.6469 31.44C97.4762 31.504 97.2149 31.4613 96.8629 31.312ZM98.3509 27.392L94.6549 21.712C94.4629 21.424 94.3829 21.184 94.4149 20.992C94.4575 20.8 94.6282 20.6133 94.9269 20.432C95.2575 20.2293 95.5135 20.1493 95.6949 20.192C95.8869 20.2347 96.0789 20.4053 96.2709 20.704L99.1989 25.264L98.3509 27.392ZM107.374 28.256C106.681 28.256 106.073 28.144 105.55 27.92C105.038 27.696 104.606 27.392 104.254 27.008C103.913 26.6133 103.652 26.176 103.47 25.696C103.3 25.2053 103.214 24.6987 103.214 24.176C103.214 23.408 103.39 22.7253 103.742 22.128C104.094 21.5307 104.58 21.0613 105.198 20.72C105.828 20.3787 106.548 20.208 107.358 20.208C107.934 20.208 108.441 20.2987 108.878 20.48C109.316 20.6613 109.678 20.9013 109.966 21.2C110.265 21.488 110.489 21.808 110.638 22.16C110.798 22.512 110.878 22.8533 110.878 23.184C110.878 23.7493 110.74 24.16 110.462 24.416C110.196 24.672 109.86 24.8 109.454 24.8H105.23C105.241 25.1627 105.353 25.4773 105.566 25.744C105.79 26.0107 106.068 26.2187 106.398 26.368C106.74 26.5067 107.086 26.576 107.438 26.576C107.705 26.576 107.94 26.56 108.142 26.528C108.356 26.496 108.537 26.4587 108.686 26.416C108.836 26.3627 108.964 26.3093 109.07 26.256C109.188 26.2027 109.294 26.1547 109.39 26.112C109.486 26.0693 109.577 26.0427 109.662 26.032C109.78 26.0213 109.897 26.048 110.014 26.112C110.132 26.176 110.228 26.288 110.302 26.448C110.366 26.5547 110.409 26.656 110.43 26.752C110.462 26.8373 110.478 26.9227 110.478 27.008C110.478 27.2213 110.35 27.424 110.094 27.616C109.838 27.7973 109.476 27.9467 109.006 28.064C108.548 28.192 108.004 28.256 107.374 28.256ZM105.23 23.664H108.51C108.692 23.664 108.83 23.6373 108.926 23.584C109.022 23.52 109.07 23.392 109.07 23.2C109.07 22.9547 108.996 22.736 108.846 22.544C108.697 22.3413 108.494 22.1867 108.238 22.08C107.982 21.9627 107.684 21.904 107.342 21.904C106.948 21.904 106.59 21.984 106.27 22.144C105.95 22.2933 105.694 22.5013 105.502 22.768C105.321 23.0347 105.23 23.3333 105.23 23.664ZM115.999 28.256C115.306 28.256 114.698 28.144 114.175 27.92C113.663 27.696 113.231 27.392 112.879 27.008C112.538 26.6133 112.277 26.176 112.095 25.696C111.925 25.2053 111.839 24.6987 111.839 24.176C111.839 23.408 112.015 22.7253 112.367 22.128C112.719 21.5307 113.205 21.0613 113.823 20.72C114.453 20.3787 115.173 20.208 115.983 20.208C116.559 20.208 117.066 20.2987 117.503 20.48C117.941 20.6613 118.303 20.9013 118.591 21.2C118.89 21.488 119.114 21.808 119.263 22.16C119.423 22.512 119.503 22.8533 119.503 23.184C119.503 23.7493 119.365 24.16 119.087 24.416C118.821 24.672 118.485 24.8 118.079 24.8H113.855C113.866 25.1627 113.978 25.4773 114.191 25.744C114.415 26.0107 114.693 26.2187 115.023 26.368C115.365 26.5067 115.711 26.576 116.063 26.576C116.33 26.576 116.565 26.56 116.767 26.528C116.981 26.496 117.162 26.4587 117.311 26.416C117.461 26.3627 117.589 26.3093 117.695 26.256C117.813 26.2027 117.919 26.1547 118.015 26.112C118.111 26.0693 118.202 26.0427 118.287 26.032C118.405 26.0213 118.522 26.048 118.639 26.112C118.757 26.176 118.853 26.288 118.927 26.448C118.991 26.5547 119.034 26.656 119.055 26.752C119.087 26.8373 119.103 26.9227 119.103 27.008C119.103 27.2213 118.975 27.424 118.719 27.616C118.463 27.7973 118.101 27.9467 117.631 28.064C117.173 28.192 116.629 28.256 115.999 28.256ZM113.855 23.664H117.135C117.317 23.664 117.455 23.6373 117.551 23.584C117.647 23.52 117.695 23.392 117.695 23.2C117.695 22.9547 117.621 22.736 117.471 22.544C117.322 22.3413 117.119 22.1867 116.863 22.08C116.607 21.9627 116.309 21.904 115.967 21.904C115.573 21.904 115.215 21.984 114.895 22.144C114.575 22.2933 114.319 22.5013 114.127 22.768C113.946 23.0347 113.855 23.3333 113.855 23.664Z" fill="#1EA4FF"/>
<defs>
<clipPath id="clip0_17862_123633">
<rect width="24" height="24" fill="white" transform="translate(15 10.5)"/>
</clipPath>
</defs>
</svg>
