<svg width="148" height="45" viewBox="0 0 148 45" fill="none" xmlns="http://www.w3.org/2000/svg">
<rect width="148" height="45" rx="5" fill="#EBF3FE"/>
<g clip-path="url(#clip0_17864_123651)">
<path d="M27 15.5V29.5" stroke="#1EA4FF" stroke-width="2" stroke-linecap="round" stroke-linejoin="round"/>
<path d="M20 22.5H34" stroke="#1EA4FF" stroke-width="2" stroke-linecap="round" stroke-linejoin="round"/>
</g>
<path d="M60.2416 26.8C60.3483 27.0027 60.4016 27.184 60.4016 27.344C60.4123 27.4933 60.3696 27.6267 60.2736 27.744C60.1776 27.8507 60.0176 27.9627 59.7936 28.08C59.4523 28.24 59.1856 28.2827 58.9936 28.208C58.8123 28.1333 58.6416 27.9253 58.4816 27.584L54.9136 20.048L51.3616 27.584C51.2016 27.9147 51.0256 28.112 50.8336 28.176C50.6416 28.2507 50.375 28.2133 50.0336 28.064C49.8203 27.9573 49.6603 27.8453 49.5536 27.728C49.4576 27.6107 49.415 27.472 49.4256 27.312C49.447 27.1413 49.5163 26.9387 49.6336 26.704L54.0336 17.536C54.119 17.3653 54.2416 17.232 54.4016 17.136C54.5723 17.0293 54.7483 16.976 54.9296 16.976C55.0576 16.976 55.175 16.9973 55.2816 17.04C55.3883 17.0827 55.4843 17.1467 55.5696 17.232C55.6656 17.3173 55.7456 17.424 55.8096 17.552L60.2416 26.8ZM52.0656 25.248L52.8336 23.6H57.0096L57.7776 25.248H52.0656ZM64.1459 28.144C63.6552 28.144 63.1912 28.0427 62.7539 27.84C62.3165 27.6373 61.9325 27.36 61.6019 27.008C61.2712 26.6453 61.0099 26.224 60.8179 25.744C60.6259 25.2533 60.5299 24.7307 60.5299 24.176C60.5299 23.6427 60.6259 23.1413 60.8179 22.672C61.0099 22.192 61.2712 21.776 61.6019 21.424C61.9432 21.0613 62.3325 20.7787 62.7699 20.576C63.2072 20.3733 63.6659 20.272 64.1459 20.272C64.6579 20.272 65.1165 20.3733 65.5219 20.576C65.9272 20.7787 66.2685 21.0613 66.5459 21.424C66.8339 21.776 67.0525 22.192 67.2019 22.672C67.3512 23.1413 67.4312 23.648 67.4419 24.192C67.4419 24.736 67.3672 25.248 67.2179 25.728C67.0792 26.1973 66.8659 26.6133 66.5779 26.976C66.3005 27.3387 65.9539 27.6267 65.5379 27.84C65.1325 28.0427 64.6685 28.144 64.1459 28.144ZM64.4019 26.272C64.7752 26.272 65.1059 26.1867 65.3939 26.016C65.6925 25.8347 65.9272 25.5893 66.0979 25.28C66.2792 24.9707 66.3699 24.6187 66.3699 24.224C66.3699 23.8187 66.2792 23.4613 66.0979 23.152C65.9272 22.8427 65.6925 22.5973 65.3939 22.416C65.1059 22.2347 64.7752 22.144 64.4019 22.144C64.0285 22.144 63.6925 22.2347 63.3939 22.416C63.0952 22.5867 62.8552 22.832 62.6739 23.152C62.5032 23.4613 62.4179 23.8187 62.4179 24.224C62.4179 24.6187 62.5032 24.9707 62.6739 25.28C62.8552 25.5893 63.0952 25.8347 63.3939 26.016C63.7032 26.1867 64.0392 26.272 64.4019 26.272ZM67.3619 28.144C67.0632 28.144 66.8445 28.096 66.7059 28C66.5672 27.8933 66.4765 27.728 66.4339 27.504V17.648C66.4339 17.4667 66.4445 17.3067 66.4659 17.168C66.4979 17.0187 66.5779 16.9013 66.7059 16.816C66.8445 16.72 67.0579 16.672 67.3459 16.672C67.6552 16.672 67.8739 16.7147 68.0019 16.8C68.1299 16.8853 68.2099 17.0027 68.2419 17.152C68.2845 17.2907 68.3059 17.4507 68.3059 17.632V27.168C68.3059 27.3493 68.2899 27.5147 68.2579 27.664C68.2259 27.8133 68.1405 27.9307 68.0019 28.016C67.8739 28.1013 67.6605 28.144 67.3619 28.144ZM73.349 28.144C72.8583 28.144 72.3943 28.0427 71.957 27.84C71.5197 27.6373 71.1357 27.36 70.805 27.008C70.4743 26.6453 70.213 26.224 70.021 25.744C69.829 25.2533 69.733 24.7307 69.733 24.176C69.733 23.6427 69.829 23.1413 70.021 22.672C70.213 22.192 70.4743 21.776 70.805 21.424C71.1463 21.0613 71.5357 20.7787 71.973 20.576C72.4103 20.3733 72.869 20.272 73.349 20.272C73.861 20.272 74.3197 20.3733 74.725 20.576C75.1303 20.7787 75.4717 21.0613 75.749 21.424C76.037 21.776 76.2557 22.192 76.405 22.672C76.5543 23.1413 76.6343 23.648 76.645 24.192C76.645 24.736 76.5703 25.248 76.421 25.728C76.2823 26.1973 76.069 26.6133 75.781 26.976C75.5037 27.3387 75.157 27.6267 74.741 27.84C74.3357 28.0427 73.8717 28.144 73.349 28.144ZM73.605 26.272C73.9783 26.272 74.309 26.1867 74.597 26.016C74.8957 25.8347 75.1303 25.5893 75.301 25.28C75.4823 24.9707 75.573 24.6187 75.573 24.224C75.573 23.8187 75.4823 23.4613 75.301 23.152C75.1303 22.8427 74.8957 22.5973 74.597 22.416C74.309 22.2347 73.9783 22.144 73.605 22.144C73.2317 22.144 72.8957 22.2347 72.597 22.416C72.2983 22.5867 72.0583 22.832 71.877 23.152C71.7063 23.4613 71.621 23.8187 71.621 24.224C71.621 24.6187 71.7063 24.9707 71.877 25.28C72.0583 25.5893 72.2983 25.8347 72.597 26.016C72.9063 26.1867 73.2423 26.272 73.605 26.272ZM76.565 28.144C76.2663 28.144 76.0477 28.096 75.909 28C75.7703 27.8933 75.6797 27.728 75.637 27.504V17.648C75.637 17.4667 75.6477 17.3067 75.669 17.168C75.701 17.0187 75.781 16.9013 75.909 16.816C76.0477 16.72 76.261 16.672 76.549 16.672C76.8583 16.672 77.077 16.7147 77.205 16.8C77.333 16.8853 77.413 17.0027 77.445 17.152C77.4877 17.2907 77.509 17.4507 77.509 17.632V27.168C77.509 27.3493 77.493 27.5147 77.461 27.664C77.429 27.8133 77.3437 27.9307 77.205 28.016C77.077 28.1013 76.8637 28.144 76.565 28.144ZM88.5689 28.224C88.0462 28.224 87.5182 28.1493 86.9849 28C86.4515 27.84 85.9395 27.6053 85.4489 27.296C84.9582 26.976 84.5209 26.5867 84.1369 26.128C83.7635 25.6587 83.4649 25.12 83.2409 24.512C83.0169 23.8933 82.9049 23.2107 82.9049 22.464C82.9049 21.728 83.0169 21.0667 83.2409 20.48C83.4649 19.8827 83.7635 19.36 84.1369 18.912C84.5209 18.464 84.9529 18.0907 85.4329 17.792C85.9235 17.4933 86.4355 17.2693 86.9689 17.12C87.5129 16.96 88.0515 16.8747 88.5849 16.864C89.1289 16.864 89.5982 16.9227 89.9929 17.04C90.3875 17.1573 90.7075 17.2853 90.9529 17.424C91.1982 17.552 91.3635 17.6427 91.4489 17.696C91.6195 17.8027 91.7795 17.9253 91.9289 18.064C92.0889 18.192 92.1742 18.352 92.1849 18.544C92.1955 18.672 92.1795 18.7893 92.1369 18.896C92.0942 18.992 92.0355 19.0933 91.9609 19.2C91.8329 19.3813 91.7049 19.5147 91.5769 19.6C91.4489 19.6853 91.3209 19.728 91.1929 19.728C91.0755 19.728 90.9635 19.696 90.8569 19.632C90.7609 19.568 90.6382 19.488 90.4889 19.392C90.4249 19.3493 90.3075 19.2853 90.1369 19.2C89.9769 19.104 89.7582 19.0187 89.4809 18.944C89.2142 18.8693 88.8889 18.832 88.5049 18.832C88.0462 18.832 87.5982 18.912 87.1609 19.072C86.7235 19.232 86.3289 19.472 85.9769 19.792C85.6355 20.1013 85.3635 20.4907 85.1609 20.96C84.9582 21.4187 84.8569 21.9467 84.8569 22.544C84.8569 23.1413 84.9582 23.6747 85.1609 24.144C85.3635 24.6027 85.6355 24.992 85.9769 25.312C86.3289 25.6213 86.7235 25.856 87.1609 26.016C87.5982 26.176 88.0462 26.256 88.5049 26.256C88.8675 26.256 89.1769 26.224 89.4329 26.16C89.6995 26.0853 89.9235 26 90.1049 25.904C90.2969 25.7973 90.4409 25.7173 90.5369 25.664C90.6542 25.5893 90.7662 25.52 90.8729 25.456C90.9795 25.392 91.0915 25.36 91.2089 25.36C91.3369 25.36 91.4595 25.4027 91.5769 25.488C91.7049 25.5733 91.8275 25.712 91.9449 25.904C92.0195 26.0213 92.0782 26.1333 92.1209 26.24C92.1635 26.3467 92.1795 26.4587 92.1689 26.576C92.1582 26.768 92.0729 26.9333 91.9129 27.072C91.7635 27.2 91.6035 27.312 91.4329 27.408C91.3475 27.4613 91.1822 27.5573 90.9369 27.696C90.7022 27.824 90.3875 27.9413 89.9929 28.048C89.5982 28.1653 89.1235 28.224 88.5689 28.224ZM97.2933 28.256C96.7813 28.256 96.2799 28.16 95.7893 27.968C95.3093 27.7653 94.8719 27.4827 94.4773 27.12C94.0933 26.7573 93.7839 26.3307 93.5493 25.84C93.3253 25.3493 93.2133 24.8107 93.2133 24.224C93.2133 23.6587 93.3199 23.1307 93.5333 22.64C93.7466 22.1493 94.0399 21.7173 94.4133 21.344C94.7866 20.9707 95.2133 20.6827 95.6933 20.48C96.1839 20.2667 96.7066 20.16 97.2613 20.16C98.0079 20.16 98.6853 20.3413 99.2933 20.704C99.9013 21.056 100.387 21.536 100.749 22.144C101.112 22.752 101.293 23.44 101.293 24.208C101.293 24.816 101.181 25.3707 100.957 25.872C100.733 26.3627 100.429 26.7893 100.045 27.152C99.6613 27.504 99.2293 27.776 98.7493 27.968C98.2799 28.16 97.7946 28.256 97.2933 28.256ZM97.2613 26.368C97.6133 26.368 97.9493 26.2827 98.2693 26.112C98.5999 25.9307 98.8666 25.6747 99.0693 25.344C99.2826 25.0133 99.3893 24.624 99.3893 24.176C99.3893 23.76 99.2933 23.392 99.1013 23.072C98.9199 22.752 98.6693 22.5013 98.3493 22.32C98.0293 22.1387 97.6613 22.048 97.2453 22.048C96.8506 22.048 96.4933 22.144 96.1733 22.336C95.8533 22.5173 95.5973 22.7733 95.4053 23.104C95.2239 23.424 95.1332 23.7867 95.1332 24.192C95.1332 24.64 95.2346 25.0293 95.4373 25.36C95.6399 25.68 95.9013 25.9307 96.2213 26.112C96.5519 26.2827 96.8986 26.368 97.2613 26.368ZM105.815 28.144C105.324 28.144 104.871 28.0587 104.455 27.888C104.049 27.7067 103.692 27.4507 103.383 27.12C103.073 26.7893 102.833 26.3947 102.663 25.936C102.492 25.4773 102.407 24.9707 102.407 24.416V21.232C102.407 21.0507 102.423 20.8907 102.455 20.752C102.487 20.6027 102.572 20.4853 102.711 20.4C102.849 20.3147 103.063 20.272 103.351 20.272C103.66 20.272 103.879 20.3147 104.007 20.4C104.145 20.4853 104.231 20.6027 104.263 20.752C104.295 20.9013 104.311 21.0667 104.311 21.248V24.416C104.311 24.8 104.375 25.1307 104.503 25.408C104.641 25.6853 104.839 25.904 105.095 26.064C105.351 26.2133 105.665 26.288 106.039 26.288C106.423 26.288 106.748 26.2133 107.015 26.064C107.292 25.904 107.505 25.6853 107.655 25.408C107.804 25.12 107.879 24.7893 107.879 24.416V21.216C107.879 21.0347 107.895 20.8747 107.927 20.736C107.959 20.5867 108.044 20.4747 108.183 20.4C108.321 20.3147 108.54 20.272 108.839 20.272C109.137 20.272 109.351 20.3147 109.479 20.4C109.607 20.4853 109.687 20.6027 109.719 20.752C109.761 20.9013 109.783 21.0613 109.783 21.232V27.232C109.783 27.392 109.761 27.5413 109.719 27.68C109.687 27.8187 109.601 27.9307 109.463 28.016C109.335 28.1013 109.121 28.144 108.823 28.144C108.609 28.144 108.439 28.1173 108.311 28.064C108.193 28.0213 108.103 27.9627 108.039 27.888C107.985 27.8027 107.948 27.7173 107.927 27.632C107.916 27.5467 107.911 27.4613 107.911 27.376L108.039 26.944C107.975 27.04 107.879 27.1573 107.751 27.296C107.623 27.424 107.463 27.5573 107.271 27.696C107.089 27.824 106.876 27.9307 106.631 28.016C106.385 28.1013 106.113 28.144 105.815 28.144ZM112.307 28.16C112.019 28.16 111.806 28.112 111.667 28.016C111.539 27.9307 111.459 27.8133 111.427 27.664C111.395 27.5147 111.379 27.3493 111.379 27.168V21.232C111.379 21.04 111.395 20.8747 111.427 20.736C111.459 20.5867 111.539 20.4747 111.667 20.4C111.806 20.3147 112.025 20.272 112.323 20.272C112.611 20.272 112.819 20.3093 112.947 20.384C113.086 20.4587 113.171 20.5547 113.203 20.672C113.246 20.7787 113.267 20.8853 113.267 20.992L113.139 21.28C113.193 21.1947 113.267 21.0933 113.363 20.976C113.459 20.848 113.587 20.7253 113.747 20.608C113.907 20.48 114.099 20.3787 114.323 20.304C114.547 20.2187 114.814 20.176 115.123 20.176C115.251 20.176 115.385 20.192 115.523 20.224C115.673 20.2453 115.817 20.2827 115.955 20.336C116.105 20.3787 116.238 20.4373 116.355 20.512C116.473 20.5867 116.563 20.6773 116.627 20.784C116.691 20.88 116.723 20.992 116.723 21.12C116.723 21.4613 116.638 21.7493 116.467 21.984C116.297 22.2187 116.094 22.336 115.859 22.336C115.699 22.336 115.582 22.32 115.507 22.288C115.433 22.256 115.369 22.2187 115.315 22.176C115.273 22.1333 115.203 22.096 115.107 22.064C115.022 22.032 114.883 22.016 114.691 22.016C114.531 22.016 114.366 22.0427 114.195 22.096C114.035 22.1493 113.886 22.2293 113.747 22.336C113.609 22.4427 113.497 22.5813 113.411 22.752C113.326 22.912 113.283 23.0987 113.283 23.312V27.2C113.283 27.3813 113.267 27.5467 113.235 27.696C113.203 27.8347 113.118 27.9467 112.979 28.032C112.841 28.1173 112.617 28.16 112.307 28.16ZM120.334 28.256C120.056 28.256 119.763 28.224 119.454 28.16C119.144 28.1067 118.846 28.0267 118.558 27.92C118.27 27.8027 118.019 27.6693 117.806 27.52C117.603 27.36 117.475 27.184 117.422 26.992C117.379 26.8853 117.363 26.784 117.374 26.688C117.384 26.5813 117.416 26.4747 117.47 26.368C117.523 26.2507 117.603 26.1333 117.71 26.016C117.806 25.8987 117.902 25.8347 117.998 25.824C118.104 25.8027 118.238 25.8347 118.398 25.92C118.536 25.9733 118.686 26.0427 118.846 26.128C119.016 26.2133 119.187 26.2987 119.358 26.384C119.539 26.4693 119.72 26.5387 119.902 26.592C120.094 26.6453 120.28 26.672 120.462 26.672C120.856 26.672 121.171 26.608 121.406 26.48C121.64 26.3413 121.758 26.1493 121.758 25.904C121.758 25.7653 121.72 25.6427 121.646 25.536C121.571 25.4293 121.47 25.344 121.342 25.28C121.224 25.2053 121.08 25.1413 120.91 25.088C120.75 25.024 120.574 24.9707 120.382 24.928C120.2 24.8747 120.008 24.816 119.806 24.752C119.539 24.6773 119.272 24.5867 119.006 24.48C118.739 24.3733 118.499 24.2347 118.286 24.064C118.083 23.8933 117.918 23.68 117.79 23.424C117.662 23.168 117.598 22.848 117.598 22.464C117.598 21.984 117.71 21.5787 117.934 21.248C118.168 20.9067 118.504 20.6453 118.942 20.464C119.379 20.2827 119.907 20.192 120.526 20.192C120.739 20.192 120.942 20.208 121.134 20.24C121.336 20.272 121.528 20.32 121.71 20.384C121.902 20.4373 122.083 20.5067 122.254 20.592C122.435 20.6773 122.606 20.7733 122.766 20.88C123.032 21.0293 123.171 21.2053 123.182 21.408C123.192 21.6 123.118 21.808 122.958 22.032C122.84 22.1813 122.723 22.288 122.606 22.352C122.488 22.4053 122.366 22.4053 122.238 22.352C122.067 22.2667 121.88 22.176 121.678 22.08C121.486 21.9733 121.283 21.8827 121.07 21.808C120.867 21.7333 120.654 21.696 120.43 21.696C120.216 21.696 120.024 21.728 119.854 21.792C119.683 21.856 119.555 21.9467 119.47 22.064C119.384 22.1813 119.342 22.32 119.342 22.48C119.342 22.6293 119.384 22.752 119.47 22.848C119.555 22.944 119.667 23.024 119.806 23.088C119.944 23.152 120.11 23.2107 120.302 23.264C120.494 23.3067 120.696 23.3493 120.91 23.392C121.208 23.456 121.512 23.536 121.822 23.632C122.131 23.728 122.414 23.8613 122.67 24.032C122.936 24.2027 123.15 24.432 123.31 24.72C123.47 24.9973 123.55 25.36 123.55 25.808C123.55 26.5867 123.262 27.1893 122.686 27.616C122.12 28.0427 121.336 28.256 120.334 28.256ZM128.749 28.256C128.056 28.256 127.448 28.144 126.925 27.92C126.413 27.696 125.981 27.392 125.629 27.008C125.288 26.6133 125.027 26.176 124.845 25.696C124.675 25.2053 124.589 24.6987 124.589 24.176C124.589 23.408 124.765 22.7253 125.117 22.128C125.469 21.5307 125.955 21.0613 126.573 20.72C127.203 20.3787 127.923 20.208 128.733 20.208C129.309 20.208 129.816 20.2987 130.253 20.48C130.691 20.6613 131.053 20.9013 131.341 21.2C131.64 21.488 131.864 21.808 132.013 22.16C132.173 22.512 132.253 22.8533 132.253 23.184C132.253 23.7493 132.115 24.16 131.837 24.416C131.571 24.672 131.235 24.8 130.829 24.8H126.605C126.616 25.1627 126.728 25.4773 126.941 25.744C127.165 26.0107 127.443 26.2187 127.773 26.368C128.115 26.5067 128.461 26.576 128.813 26.576C129.08 26.576 129.315 26.56 129.517 26.528C129.731 26.496 129.912 26.4587 130.061 26.416C130.211 26.3627 130.339 26.3093 130.445 26.256C130.563 26.2027 130.669 26.1547 130.765 26.112C130.861 26.0693 130.952 26.0427 131.037 26.032C131.155 26.0213 131.272 26.048 131.389 26.112C131.507 26.176 131.603 26.288 131.677 26.448C131.741 26.5547 131.784 26.656 131.805 26.752C131.837 26.8373 131.853 26.9227 131.853 27.008C131.853 27.2213 131.725 27.424 131.469 27.616C131.213 27.7973 130.851 27.9467 130.381 28.064C129.923 28.192 129.379 28.256 128.749 28.256ZM126.605 23.664H129.885C130.067 23.664 130.205 23.6373 130.301 23.584C130.397 23.52 130.445 23.392 130.445 23.2C130.445 22.9547 130.371 22.736 130.221 22.544C130.072 22.3413 129.869 22.1867 129.613 22.08C129.357 21.9627 129.059 21.904 128.717 21.904C128.323 21.904 127.965 21.984 127.645 22.144C127.325 22.2933 127.069 22.5013 126.877 22.768C126.696 23.0347 126.605 23.3333 126.605 23.664Z" fill="#1EA4FF"/>
<defs>
<clipPath id="clip0_17864_123651">
<rect width="24" height="24" fill="white" transform="translate(15 10.5)"/>
</clipPath>
</defs>
</svg>
