<svg width="224" height="45" viewBox="0 0 224 45" fill="none" xmlns="http://www.w3.org/2000/svg">
<rect width="224" height="45" rx="5" fill="#EBF3FE"/>
<g clip-path="url(#clip0_16827_123366)">
<path d="M27 15.5V29.5" stroke="#1EA4FF" stroke-width="2" stroke-linecap="round" stroke-linejoin="round"/>
<path d="M20 22.5H34" stroke="#1EA4FF" stroke-width="2" stroke-linecap="round" stroke-linejoin="round"/>
</g>
<path d="M60.0385 26.8C60.1452 27.0027 60.1985 27.184 60.1985 27.344C60.2092 27.4933 60.1665 27.6267 60.0705 27.744C59.9745 27.8507 59.8145 27.9627 59.5905 28.08C59.2492 28.24 58.9825 28.2827 58.7905 28.208C58.6092 28.1333 58.4385 27.9253 58.2785 27.584L54.7105 20.048L51.1585 27.584C50.9985 27.9147 50.8225 28.112 50.6305 28.176C50.4385 28.2507 50.1718 28.2133 49.8305 28.064C49.6172 27.9573 49.4572 27.8453 49.3505 27.728C49.2545 27.6107 49.2118 27.472 49.2225 27.312C49.2438 27.1413 49.3132 26.9387 49.4305 26.704L53.8305 17.536C53.9158 17.3653 54.0385 17.232 54.1985 17.136C54.3692 17.0293 54.5452 16.976 54.7265 16.976C54.8545 16.976 54.9718 16.9973 55.0785 17.04C55.1852 17.0827 55.2812 17.1467 55.3665 17.232C55.4625 17.3173 55.5425 17.424 55.6065 17.552L60.0385 26.8ZM51.8625 25.248L52.6305 23.6H56.8065L57.5745 25.248H51.8625ZM63.9427 28.144C63.4521 28.144 62.9881 28.0427 62.5508 27.84C62.1134 27.6373 61.7294 27.36 61.3988 27.008C61.0681 26.6453 60.8068 26.224 60.6148 25.744C60.4228 25.2533 60.3268 24.7307 60.3268 24.176C60.3268 23.6427 60.4228 23.1413 60.6148 22.672C60.8068 22.192 61.0681 21.776 61.3988 21.424C61.7401 21.0613 62.1294 20.7787 62.5668 20.576C63.0041 20.3733 63.4628 20.272 63.9427 20.272C64.4548 20.272 64.9134 20.3733 65.3188 20.576C65.7241 20.7787 66.0654 21.0613 66.3428 21.424C66.6308 21.776 66.8494 22.192 66.9988 22.672C67.1481 23.1413 67.2281 23.648 67.2388 24.192C67.2388 24.736 67.1641 25.248 67.0148 25.728C66.8761 26.1973 66.6628 26.6133 66.3748 26.976C66.0974 27.3387 65.7508 27.6267 65.3348 27.84C64.9294 28.0427 64.4654 28.144 63.9427 28.144ZM64.1988 26.272C64.5721 26.272 64.9028 26.1867 65.1908 26.016C65.4894 25.8347 65.7241 25.5893 65.8948 25.28C66.0761 24.9707 66.1668 24.6187 66.1668 24.224C66.1668 23.8187 66.0761 23.4613 65.8948 23.152C65.7241 22.8427 65.4894 22.5973 65.1908 22.416C64.9028 22.2347 64.5721 22.144 64.1988 22.144C63.8254 22.144 63.4894 22.2347 63.1908 22.416C62.8921 22.5867 62.6521 22.832 62.4708 23.152C62.3001 23.4613 62.2148 23.8187 62.2148 24.224C62.2148 24.6187 62.3001 24.9707 62.4708 25.28C62.6521 25.5893 62.8921 25.8347 63.1908 26.016C63.5001 26.1867 63.8361 26.272 64.1988 26.272ZM67.1588 28.144C66.8601 28.144 66.6414 28.096 66.5028 28C66.3641 27.8933 66.2734 27.728 66.2308 27.504V17.648C66.2308 17.4667 66.2414 17.3067 66.2628 17.168C66.2948 17.0187 66.3748 16.9013 66.5028 16.816C66.6414 16.72 66.8548 16.672 67.1428 16.672C67.4521 16.672 67.6708 16.7147 67.7987 16.8C67.9268 16.8853 68.0068 17.0027 68.0388 17.152C68.0814 17.2907 68.1028 17.4507 68.1028 17.632V27.168C68.1028 27.3493 68.0868 27.5147 68.0548 27.664C68.0228 27.8133 67.9374 27.9307 67.7987 28.016C67.6708 28.1013 67.4574 28.144 67.1588 28.144ZM73.1459 28.144C72.6552 28.144 72.1912 28.0427 71.7539 27.84C71.3165 27.6373 70.9325 27.36 70.6019 27.008C70.2712 26.6453 70.0099 26.224 69.8179 25.744C69.6259 25.2533 69.5299 24.7307 69.5299 24.176C69.5299 23.6427 69.6259 23.1413 69.8179 22.672C70.0099 22.192 70.2712 21.776 70.6019 21.424C70.9432 21.0613 71.3325 20.7787 71.7699 20.576C72.2072 20.3733 72.6659 20.272 73.1459 20.272C73.6579 20.272 74.1165 20.3733 74.5219 20.576C74.9272 20.7787 75.2685 21.0613 75.5459 21.424C75.8339 21.776 76.0525 22.192 76.2019 22.672C76.3512 23.1413 76.4312 23.648 76.4419 24.192C76.4419 24.736 76.3672 25.248 76.2179 25.728C76.0792 26.1973 75.8659 26.6133 75.5779 26.976C75.3005 27.3387 74.9539 27.6267 74.5379 27.84C74.1325 28.0427 73.6685 28.144 73.1459 28.144ZM73.4019 26.272C73.7752 26.272 74.1059 26.1867 74.3939 26.016C74.6925 25.8347 74.9272 25.5893 75.0979 25.28C75.2792 24.9707 75.3699 24.6187 75.3699 24.224C75.3699 23.8187 75.2792 23.4613 75.0979 23.152C74.9272 22.8427 74.6925 22.5973 74.3939 22.416C74.1059 22.2347 73.7752 22.144 73.4019 22.144C73.0285 22.144 72.6925 22.2347 72.3939 22.416C72.0952 22.5867 71.8552 22.832 71.6739 23.152C71.5032 23.4613 71.4179 23.8187 71.4179 24.224C71.4179 24.6187 71.5032 24.9707 71.6739 25.28C71.8552 25.5893 72.0952 25.8347 72.3939 26.016C72.7032 26.1867 73.0392 26.272 73.4019 26.272ZM76.3619 28.144C76.0632 28.144 75.8445 28.096 75.7059 28C75.5672 27.8933 75.4765 27.728 75.4339 27.504V17.648C75.4339 17.4667 75.4445 17.3067 75.4659 17.168C75.4979 17.0187 75.5779 16.9013 75.7059 16.816C75.8445 16.72 76.0579 16.672 76.3459 16.672C76.6552 16.672 76.8739 16.7147 77.0019 16.8C77.1299 16.8853 77.2099 17.0027 77.2419 17.152C77.2845 17.2907 77.3059 17.4507 77.3059 17.632V27.168C77.3059 27.3493 77.2899 27.5147 77.2579 27.664C77.2259 27.8133 77.1405 27.9307 77.0019 28.016C76.8739 28.1013 76.6605 28.144 76.3619 28.144ZM87.6778 28.24C86.9311 28.24 86.2644 28.1067 85.6778 27.84C85.1018 27.5627 84.6164 27.184 84.2218 26.704C83.8271 26.2133 83.5284 25.6587 83.3258 25.04C83.1231 24.4107 83.0218 23.744 83.0218 23.04V17.936C83.0218 17.7547 83.0378 17.5947 83.0698 17.456C83.1124 17.3067 83.1978 17.1893 83.3258 17.104C83.4644 17.008 83.6884 16.96 83.9978 16.96C84.3071 16.96 84.5258 17.008 84.6538 17.104C84.7924 17.1893 84.8778 17.3067 84.9098 17.456C84.9524 17.5947 84.9738 17.76 84.9738 17.952V23.04C84.9738 23.6267 85.0698 24.1707 85.2618 24.672C85.4644 25.1627 85.7684 25.5573 86.1738 25.856C86.5791 26.1547 87.0964 26.304 87.7258 26.304C88.2911 26.304 88.7764 26.1707 89.1818 25.904C89.5871 25.6373 89.8964 25.2587 90.1098 24.768C90.3338 24.2773 90.4458 23.696 90.4458 23.024V17.856C90.4458 17.6853 90.4618 17.536 90.4938 17.408C90.5364 17.28 90.6271 17.1733 90.7658 17.088C90.9044 17.0027 91.1231 16.96 91.4218 16.96C91.7311 16.96 91.9498 17.008 92.0778 17.104C92.2164 17.1893 92.3018 17.3067 92.3338 17.456C92.3658 17.6053 92.3818 17.7707 92.3818 17.952V23.072C92.3818 23.776 92.2804 24.4427 92.0778 25.072C91.8751 25.6907 91.5711 26.24 91.1658 26.72C90.7604 27.1893 90.2644 27.5627 89.6778 27.84C89.1018 28.1067 88.4351 28.24 87.6778 28.24ZM96.568 28.256C96.2907 28.256 95.9973 28.224 95.688 28.16C95.3787 28.1067 95.08 28.0267 94.792 27.92C94.504 27.8027 94.2533 27.6693 94.04 27.52C93.8373 27.36 93.7093 27.184 93.656 26.992C93.6133 26.8853 93.5973 26.784 93.608 26.688C93.6187 26.5813 93.6507 26.4747 93.704 26.368C93.7573 26.2507 93.8373 26.1333 93.944 26.016C94.04 25.8987 94.136 25.8347 94.232 25.824C94.3387 25.8027 94.472 25.8347 94.632 25.92C94.7707 25.9733 94.92 26.0427 95.08 26.128C95.2507 26.2133 95.4213 26.2987 95.592 26.384C95.7733 26.4693 95.9547 26.5387 96.136 26.592C96.328 26.6453 96.5147 26.672 96.696 26.672C97.0907 26.672 97.4053 26.608 97.64 26.48C97.8747 26.3413 97.992 26.1493 97.992 25.904C97.992 25.7653 97.9547 25.6427 97.88 25.536C97.8053 25.4293 97.704 25.344 97.576 25.28C97.4587 25.2053 97.3147 25.1413 97.144 25.088C96.984 25.024 96.808 24.9707 96.616 24.928C96.4347 24.8747 96.2427 24.816 96.04 24.752C95.7733 24.6773 95.5067 24.5867 95.24 24.48C94.9733 24.3733 94.7333 24.2347 94.52 24.064C94.3173 23.8933 94.152 23.68 94.024 23.424C93.896 23.168 93.832 22.848 93.832 22.464C93.832 21.984 93.944 21.5787 94.168 21.248C94.4027 20.9067 94.7387 20.6453 95.176 20.464C95.6133 20.2827 96.1413 20.192 96.76 20.192C96.9733 20.192 97.176 20.208 97.368 20.24C97.5707 20.272 97.7627 20.32 97.944 20.384C98.136 20.4373 98.3173 20.5067 98.488 20.592C98.6693 20.6773 98.84 20.7733 99 20.88C99.2667 21.0293 99.4053 21.2053 99.416 21.408C99.4267 21.6 99.352 21.808 99.192 22.032C99.0747 22.1813 98.9573 22.288 98.84 22.352C98.7227 22.4053 98.6 22.4053 98.472 22.352C98.3013 22.2667 98.1147 22.176 97.912 22.08C97.72 21.9733 97.5173 21.8827 97.304 21.808C97.1013 21.7333 96.888 21.696 96.664 21.696C96.4507 21.696 96.2587 21.728 96.088 21.792C95.9173 21.856 95.7893 21.9467 95.704 22.064C95.6187 22.1813 95.576 22.32 95.576 22.48C95.576 22.6293 95.6187 22.752 95.704 22.848C95.7893 22.944 95.9013 23.024 96.04 23.088C96.1787 23.152 96.344 23.2107 96.536 23.264C96.728 23.3067 96.9307 23.3493 97.144 23.392C97.4427 23.456 97.7467 23.536 98.056 23.632C98.3653 23.728 98.648 23.8613 98.904 24.032C99.1707 24.2027 99.384 24.432 99.544 24.72C99.704 24.9973 99.784 25.36 99.784 25.808C99.784 26.5867 99.496 27.1893 98.92 27.616C98.3547 28.0427 97.5707 28.256 96.568 28.256ZM104.984 28.256C104.29 28.256 103.682 28.144 103.16 27.92C102.648 27.696 102.216 27.392 101.864 27.008C101.522 26.6133 101.261 26.176 101.08 25.696C100.909 25.2053 100.824 24.6987 100.824 24.176C100.824 23.408 101 22.7253 101.352 22.128C101.704 21.5307 102.189 21.0613 102.808 20.72C103.437 20.3787 104.157 20.208 104.968 20.208C105.544 20.208 106.05 20.2987 106.488 20.48C106.925 20.6613 107.288 20.9013 107.576 21.2C107.874 21.488 108.098 21.808 108.248 22.16C108.408 22.512 108.488 22.8533 108.488 23.184C108.488 23.7493 108.349 24.16 108.072 24.416C107.805 24.672 107.469 24.8 107.064 24.8H102.84C102.85 25.1627 102.962 25.4773 103.176 25.744C103.4 26.0107 103.677 26.2187 104.008 26.368C104.349 26.5067 104.696 26.576 105.048 26.576C105.314 26.576 105.549 26.56 105.752 26.528C105.965 26.496 106.146 26.4587 106.296 26.416C106.445 26.3627 106.573 26.3093 106.68 26.256C106.797 26.2027 106.904 26.1547 107 26.112C107.096 26.0693 107.186 26.0427 107.272 26.032C107.389 26.0213 107.506 26.048 107.624 26.112C107.741 26.176 107.837 26.288 107.912 26.448C107.976 26.5547 108.018 26.656 108.04 26.752C108.072 26.8373 108.088 26.9227 108.088 27.008C108.088 27.2213 107.96 27.424 107.704 27.616C107.448 27.7973 107.085 27.9467 106.616 28.064C106.157 28.192 105.613 28.256 104.984 28.256ZM102.84 23.664H106.12C106.301 23.664 106.44 23.6373 106.536 23.584C106.632 23.52 106.68 23.392 106.68 23.2C106.68 22.9547 106.605 22.736 106.456 22.544C106.306 22.3413 106.104 22.1867 105.848 22.08C105.592 21.9627 105.293 21.904 104.952 21.904C104.557 21.904 104.2 21.984 103.88 22.144C103.56 22.2933 103.304 22.5013 103.112 22.768C102.93 23.0347 102.84 23.3333 102.84 23.664ZM110.745 28.16C110.457 28.16 110.243 28.112 110.105 28.016C109.977 27.9307 109.897 27.8133 109.865 27.664C109.833 27.5147 109.817 27.3493 109.817 27.168V21.232C109.817 21.04 109.833 20.8747 109.865 20.736C109.897 20.5867 109.977 20.4747 110.105 20.4C110.243 20.3147 110.462 20.272 110.761 20.272C111.049 20.272 111.257 20.3093 111.385 20.384C111.523 20.4587 111.609 20.5547 111.641 20.672C111.683 20.7787 111.705 20.8853 111.705 20.992L111.577 21.28C111.63 21.1947 111.705 21.0933 111.801 20.976C111.897 20.848 112.025 20.7253 112.185 20.608C112.345 20.48 112.537 20.3787 112.761 20.304C112.985 20.2187 113.251 20.176 113.561 20.176C113.689 20.176 113.822 20.192 113.961 20.224C114.11 20.2453 114.254 20.2827 114.393 20.336C114.542 20.3787 114.675 20.4373 114.793 20.512C114.91 20.5867 115.001 20.6773 115.065 20.784C115.129 20.88 115.161 20.992 115.161 21.12C115.161 21.4613 115.075 21.7493 114.905 21.984C114.734 22.2187 114.531 22.336 114.297 22.336C114.137 22.336 114.019 22.32 113.945 22.288C113.87 22.256 113.806 22.2187 113.753 22.176C113.71 22.1333 113.641 22.096 113.545 22.064C113.459 22.032 113.321 22.016 113.129 22.016C112.969 22.016 112.803 22.0427 112.633 22.096C112.473 22.1493 112.323 22.2293 112.185 22.336C112.046 22.4427 111.934 22.5813 111.849 22.752C111.763 22.912 111.721 23.0987 111.721 23.312V27.2C111.721 27.3813 111.705 27.5467 111.673 27.696C111.641 27.8347 111.555 27.9467 111.417 28.032C111.278 28.1173 111.054 28.16 110.745 28.16ZM125.85 28.224C125.05 28.224 124.314 28.0853 123.642 27.808C122.97 27.52 122.389 27.1147 121.898 26.592C121.407 26.0693 121.029 25.456 120.762 24.752C120.495 24.0373 120.362 23.248 120.362 22.384C120.362 21.5733 120.501 20.832 120.778 20.16C121.055 19.488 121.445 18.9067 121.946 18.416C122.447 17.9147 123.039 17.5253 123.722 17.248C124.415 16.9707 125.173 16.832 125.994 16.832C126.335 16.832 126.687 16.864 127.05 16.928C127.413 16.9813 127.765 17.072 128.106 17.2C128.447 17.3173 128.746 17.4667 129.002 17.648C129.205 17.776 129.375 17.9093 129.514 18.048C129.663 18.176 129.743 18.3253 129.754 18.496C129.765 18.592 129.749 18.6987 129.706 18.816C129.663 18.9227 129.599 19.0347 129.514 19.152C129.397 19.3333 129.269 19.4667 129.13 19.552C129.002 19.6373 128.874 19.68 128.746 19.68C128.671 19.68 128.581 19.6533 128.474 19.6C128.367 19.536 128.223 19.4507 128.042 19.344C127.903 19.248 127.722 19.1573 127.498 19.072C127.274 18.9867 127.029 18.9173 126.762 18.864C126.495 18.8107 126.218 18.784 125.93 18.784C125.215 18.784 124.586 18.9333 124.042 19.232C123.498 19.5307 123.071 19.9573 122.762 20.512C122.463 21.056 122.314 21.696 122.314 22.432C122.314 23.1893 122.469 23.856 122.778 24.432C123.087 25.008 123.509 25.4613 124.042 25.792C124.586 26.112 125.21 26.272 125.914 26.272C126.159 26.272 126.405 26.256 126.65 26.224C126.906 26.192 127.151 26.144 127.386 26.08C127.631 26.016 127.855 25.936 128.058 25.84V23.312H125.786C125.637 23.312 125.498 23.296 125.37 23.264C125.253 23.232 125.157 23.1573 125.082 23.04C125.018 22.9227 124.986 22.7307 124.986 22.464C124.986 22.1867 125.023 21.9893 125.098 21.872C125.173 21.7547 125.269 21.68 125.386 21.648C125.514 21.616 125.653 21.6 125.802 21.6H129.066C129.343 21.6 129.546 21.648 129.674 21.744C129.802 21.84 129.887 21.9627 129.93 22.112C129.973 22.2507 129.994 22.4107 129.994 22.592V26.32C129.994 26.5333 129.887 26.752 129.674 26.976C129.471 27.2 129.183 27.408 128.81 27.6C128.565 27.728 128.282 27.84 127.962 27.936C127.653 28.0213 127.317 28.0907 126.954 28.144C126.602 28.1973 126.234 28.224 125.85 28.224ZM132.825 28.16C132.537 28.16 132.323 28.112 132.185 28.016C132.046 27.9307 131.961 27.8187 131.929 27.68C131.897 27.5307 131.881 27.3653 131.881 27.184V21.232C131.881 21.0613 131.897 20.9067 131.929 20.768C131.971 20.6187 132.057 20.5013 132.185 20.416C132.323 20.3307 132.542 20.288 132.841 20.288C133.139 20.288 133.353 20.3307 133.481 20.416C133.619 20.5013 133.705 20.6187 133.737 20.768C133.769 20.9173 133.785 21.0827 133.785 21.264V27.2C133.785 27.3813 133.769 27.5467 133.737 27.696C133.705 27.8347 133.619 27.9467 133.481 28.032C133.353 28.1173 133.134 28.16 132.825 28.16ZM132.825 18.736C132.515 18.736 132.286 18.6933 132.137 18.608C131.998 18.512 131.907 18.384 131.865 18.224C131.833 18.064 131.817 17.888 131.817 17.696C131.817 17.4933 131.833 17.3173 131.865 17.168C131.907 17.0187 132.003 16.9013 132.153 16.816C132.302 16.72 132.531 16.672 132.841 16.672C133.161 16.672 133.39 16.72 133.529 16.816C133.667 16.912 133.758 17.04 133.801 17.2C133.843 17.3493 133.865 17.5253 133.865 17.728C133.865 17.9093 133.843 18.08 133.801 18.24C133.758 18.4 133.667 18.5227 133.529 18.608C133.39 18.6933 133.155 18.736 132.825 18.736ZM139.103 28.192C138.879 28.192 138.692 28.1547 138.543 28.08C138.394 28.0053 138.276 27.8827 138.191 27.712L135.279 21.616C135.119 21.296 135.076 21.04 135.151 20.848C135.226 20.656 135.418 20.4853 135.727 20.336C136.047 20.176 136.303 20.1227 136.495 20.176C136.687 20.2293 136.858 20.4267 137.007 20.768L139.103 25.68L141.167 20.864C141.316 20.512 141.487 20.2933 141.679 20.208C141.871 20.112 142.148 20.1547 142.511 20.336C142.874 20.5173 143.066 20.72 143.087 20.944C143.108 21.1573 143.05 21.4027 142.911 21.68L140.015 27.712C139.93 27.872 139.812 27.9893 139.663 28.064C139.514 28.1493 139.327 28.192 139.103 28.192ZM147.671 28.256C146.978 28.256 146.37 28.144 145.847 27.92C145.335 27.696 144.903 27.392 144.551 27.008C144.21 26.6133 143.949 26.176 143.767 25.696C143.597 25.2053 143.511 24.6987 143.511 24.176C143.511 23.408 143.687 22.7253 144.039 22.128C144.391 21.5307 144.877 21.0613 145.495 20.72C146.125 20.3787 146.845 20.208 147.655 20.208C148.231 20.208 148.738 20.2987 149.175 20.48C149.613 20.6613 149.975 20.9013 150.263 21.2C150.562 21.488 150.786 21.808 150.935 22.16C151.095 22.512 151.175 22.8533 151.175 23.184C151.175 23.7493 151.037 24.16 150.759 24.416C150.493 24.672 150.157 24.8 149.751 24.8H145.527C145.538 25.1627 145.65 25.4773 145.863 25.744C146.087 26.0107 146.365 26.2187 146.695 26.368C147.037 26.5067 147.383 26.576 147.735 26.576C148.002 26.576 148.237 26.56 148.439 26.528C148.653 26.496 148.834 26.4587 148.983 26.416C149.133 26.3627 149.261 26.3093 149.367 26.256C149.485 26.2027 149.591 26.1547 149.687 26.112C149.783 26.0693 149.874 26.0427 149.959 26.032C150.077 26.0213 150.194 26.048 150.311 26.112C150.429 26.176 150.525 26.288 150.599 26.448C150.663 26.5547 150.706 26.656 150.727 26.752C150.759 26.8373 150.775 26.9227 150.775 27.008C150.775 27.2213 150.647 27.424 150.391 27.616C150.135 27.7973 149.773 27.9467 149.303 28.064C148.845 28.192 148.301 28.256 147.671 28.256ZM145.527 23.664H148.807C148.989 23.664 149.127 23.6373 149.223 23.584C149.319 23.52 149.367 23.392 149.367 23.2C149.367 22.9547 149.293 22.736 149.143 22.544C148.994 22.3413 148.791 22.1867 148.535 22.08C148.279 21.9627 147.981 21.904 147.639 21.904C147.245 21.904 146.887 21.984 146.567 22.144C146.247 22.2933 145.991 22.5013 145.799 22.768C145.618 23.0347 145.527 23.3333 145.527 23.664ZM153.432 28.16C153.144 28.16 152.931 28.112 152.792 28.016C152.664 27.9307 152.584 27.8133 152.552 27.664C152.52 27.5147 152.504 27.3493 152.504 27.168V21.232C152.504 21.04 152.52 20.8747 152.552 20.736C152.584 20.5867 152.664 20.4747 152.792 20.4C152.931 20.3147 153.15 20.272 153.448 20.272C153.736 20.272 153.944 20.3093 154.072 20.384C154.211 20.4587 154.296 20.5547 154.328 20.672C154.371 20.7787 154.392 20.8853 154.392 20.992L154.264 21.28C154.318 21.1947 154.392 21.0933 154.488 20.976C154.584 20.848 154.712 20.7253 154.872 20.608C155.032 20.48 155.224 20.3787 155.448 20.304C155.672 20.2187 155.939 20.176 156.248 20.176C156.376 20.176 156.51 20.192 156.648 20.224C156.798 20.2453 156.942 20.2827 157.08 20.336C157.23 20.3787 157.363 20.4373 157.48 20.512C157.598 20.5867 157.688 20.6773 157.752 20.784C157.816 20.88 157.848 20.992 157.848 21.12C157.848 21.4613 157.763 21.7493 157.592 21.984C157.422 22.2187 157.219 22.336 156.984 22.336C156.824 22.336 156.707 22.32 156.632 22.288C156.558 22.256 156.494 22.2187 156.44 22.176C156.398 22.1333 156.328 22.096 156.232 22.064C156.147 22.032 156.008 22.016 155.816 22.016C155.656 22.016 155.491 22.0427 155.32 22.096C155.16 22.1493 155.011 22.2293 154.872 22.336C154.734 22.4427 154.622 22.5813 154.536 22.752C154.451 22.912 154.408 23.0987 154.408 23.312V27.2C154.408 27.3813 154.392 27.5467 154.36 27.696C154.328 27.8347 154.243 27.9467 154.104 28.032C153.966 28.1173 153.742 28.16 153.432 28.16ZM166.81 28.112C166.596 28.112 166.426 28.0747 166.298 28C166.17 27.9147 166.074 27.8187 166.01 27.712C165.956 27.6053 165.919 27.5147 165.898 27.44L162.762 18.256C162.655 17.9147 162.639 17.6587 162.714 17.488C162.788 17.3067 163.007 17.1573 163.37 17.04C163.615 16.9547 163.812 16.9173 163.962 16.928C164.111 16.9387 164.234 17.0027 164.33 17.12C164.436 17.2267 164.527 17.3973 164.602 17.632L166.906 24.608L168.97 17.696C169.002 17.5893 169.044 17.4827 169.098 17.376C169.162 17.2587 169.258 17.1627 169.386 17.088C169.514 17.0133 169.69 16.976 169.914 16.976C170.17 16.976 170.362 17.0187 170.49 17.104C170.618 17.1893 170.708 17.2853 170.762 17.392C170.826 17.488 170.868 17.5787 170.89 17.664L172.954 24.656L175.274 17.648C175.348 17.4027 175.434 17.2213 175.53 17.104C175.636 16.9867 175.77 16.9227 175.93 16.912C176.09 16.8907 176.287 16.9227 176.522 17.008C176.767 17.0933 176.943 17.1893 177.05 17.296C177.156 17.392 177.21 17.52 177.21 17.68C177.21 17.8293 177.172 18.0213 177.098 18.256L173.978 27.456C173.956 27.52 173.914 27.6053 173.85 27.712C173.796 27.8187 173.706 27.9147 173.578 28C173.45 28.0747 173.274 28.112 173.05 28.112C172.826 28.112 172.65 28.064 172.522 27.968C172.394 27.872 172.298 27.7653 172.234 27.648C172.17 27.5307 172.127 27.4453 172.106 27.392L169.93 20.352L167.754 27.376C167.732 27.4507 167.69 27.5467 167.626 27.664C167.572 27.7813 167.482 27.888 167.354 27.984C167.226 28.0693 167.044 28.112 166.81 28.112ZM183.72 28.128C183.411 28.128 183.181 28.0693 183.032 27.952C182.883 27.8347 182.808 27.6747 182.808 27.472L182.92 26.944C182.835 27.0827 182.691 27.248 182.488 27.44C182.285 27.6213 182.019 27.7867 181.688 27.936C181.357 28.0747 180.957 28.144 180.488 28.144C179.987 28.144 179.512 28.0427 179.064 27.84C178.627 27.6267 178.237 27.3387 177.896 26.976C177.565 26.6027 177.299 26.1813 177.096 25.712C176.904 25.232 176.808 24.72 176.808 24.176C176.808 23.6533 176.904 23.1627 177.096 22.704C177.299 22.2347 177.571 21.8187 177.912 21.456C178.253 21.0933 178.643 20.8107 179.08 20.608C179.528 20.3947 179.997 20.288 180.488 20.288C180.925 20.288 181.293 20.3467 181.592 20.464C181.901 20.5813 182.163 20.7307 182.376 20.912C182.589 21.0827 182.765 21.264 182.904 21.456L182.808 20.992C182.808 20.7573 182.883 20.5813 183.032 20.464C183.181 20.336 183.416 20.272 183.736 20.272C184.035 20.272 184.248 20.32 184.376 20.416C184.504 20.5013 184.584 20.624 184.616 20.784C184.648 20.9333 184.664 21.104 184.664 21.296V27.152C184.664 27.3333 184.648 27.4987 184.616 27.648C184.584 27.7973 184.499 27.9147 184.36 28C184.232 28.0853 184.019 28.128 183.72 28.128ZM180.776 26.272C181.139 26.272 181.464 26.1813 181.752 26C182.04 25.8187 182.269 25.5733 182.44 25.264C182.621 24.944 182.712 24.592 182.712 24.208C182.712 23.792 182.621 23.4293 182.44 23.12C182.259 22.8107 182.019 22.5707 181.72 22.4C181.432 22.2187 181.107 22.128 180.744 22.128C180.349 22.128 179.997 22.224 179.688 22.416C179.379 22.5973 179.133 22.848 178.952 23.168C178.781 23.4773 178.696 23.8293 178.696 24.224C178.696 24.608 178.787 24.9547 178.968 25.264C179.149 25.5733 179.395 25.8187 179.704 26C180.024 26.1813 180.381 26.272 180.776 26.272ZM192.798 28.144C192.424 28.144 192.088 28.1067 191.79 28.032C191.502 27.9573 191.246 27.8453 191.022 27.696C190.798 27.536 190.611 27.344 190.462 27.12C190.312 26.896 190.2 26.6347 190.126 26.336C190.051 26.0267 190.014 25.6853 190.014 25.312V17.6C190.014 17.4187 190.03 17.2587 190.062 17.12C190.094 16.9707 190.179 16.8533 190.318 16.768C190.456 16.6827 190.675 16.64 190.974 16.64C191.262 16.64 191.475 16.6827 191.614 16.768C191.752 16.8533 191.838 16.9707 191.87 17.12C191.912 17.2587 191.934 17.4133 191.934 17.584V25.36C191.934 25.5093 191.95 25.6373 191.982 25.744C192.014 25.8507 192.062 25.9413 192.126 26.016C192.2 26.0907 192.291 26.144 192.398 26.176C192.515 26.208 192.648 26.224 192.798 26.224C193.043 26.224 193.235 26.256 193.374 26.32C193.512 26.384 193.614 26.4853 193.678 26.624C193.742 26.7627 193.774 26.9493 193.774 27.184C193.774 27.408 193.736 27.5947 193.661 27.744C193.598 27.8827 193.491 27.984 193.342 28.048C193.203 28.112 193.022 28.144 192.798 28.144ZM188.75 28.144C188.398 28.144 188.083 28.1067 187.806 28.032C187.528 27.968 187.288 27.8613 187.086 27.712C186.883 27.5627 186.712 27.376 186.574 27.152C186.446 26.928 186.35 26.6667 186.286 26.368C186.222 26.0587 186.19 25.7067 186.19 25.312V17.6C186.19 17.4187 186.206 17.2587 186.238 17.12C186.27 16.9707 186.355 16.8533 186.493 16.768C186.632 16.6827 186.846 16.64 187.134 16.64C187.432 16.64 187.646 16.6827 187.774 16.768C187.912 16.8533 187.998 16.9707 188.03 17.12C188.072 17.2587 188.094 17.4133 188.094 17.584V25.36C188.094 25.5627 188.12 25.728 188.174 25.856C188.238 25.984 188.318 26.08 188.414 26.144C188.51 26.1973 188.622 26.224 188.75 26.224C188.952 26.224 189.112 26.256 189.23 26.32C189.347 26.384 189.427 26.4853 189.47 26.624C189.523 26.7627 189.549 26.9493 189.549 27.184C189.549 27.408 189.523 27.5947 189.47 27.744C189.416 27.8827 189.331 27.984 189.214 28.048C189.096 28.112 188.942 28.144 188.75 28.144ZM198.812 28.256C198.119 28.256 197.511 28.144 196.988 27.92C196.476 27.696 196.044 27.392 195.692 27.008C195.351 26.6133 195.089 26.176 194.908 25.696C194.737 25.2053 194.652 24.6987 194.652 24.176C194.652 23.408 194.828 22.7253 195.18 22.128C195.532 21.5307 196.017 21.0613 196.636 20.72C197.265 20.3787 197.985 20.208 198.796 20.208C199.372 20.208 199.879 20.2987 200.316 20.48C200.753 20.6613 201.116 20.9013 201.404 21.2C201.703 21.488 201.927 21.808 202.076 22.16C202.236 22.512 202.316 22.8533 202.316 23.184C202.316 23.7493 202.177 24.16 201.9 24.416C201.633 24.672 201.297 24.8 200.892 24.8H196.668C196.679 25.1627 196.791 25.4773 197.004 25.744C197.228 26.0107 197.505 26.2187 197.836 26.368C198.177 26.5067 198.524 26.576 198.876 26.576C199.143 26.576 199.377 26.56 199.58 26.528C199.793 26.496 199.975 26.4587 200.124 26.416C200.273 26.3627 200.401 26.3093 200.508 26.256C200.625 26.2027 200.732 26.1547 200.828 26.112C200.924 26.0693 201.015 26.0427 201.1 26.032C201.217 26.0213 201.335 26.048 201.452 26.112C201.569 26.176 201.665 26.288 201.74 26.448C201.804 26.5547 201.847 26.656 201.868 26.752C201.9 26.8373 201.916 26.9227 201.916 27.008C201.916 27.2213 201.788 27.424 201.532 27.616C201.276 27.7973 200.913 27.9467 200.444 28.064C199.985 28.192 199.441 28.256 198.812 28.256ZM196.668 23.664H199.948C200.129 23.664 200.268 23.6373 200.364 23.584C200.46 23.52 200.508 23.392 200.508 23.2C200.508 22.9547 200.433 22.736 200.284 22.544C200.135 22.3413 199.932 22.1867 199.676 22.08C199.42 21.9627 199.121 21.904 198.78 21.904C198.385 21.904 198.028 21.984 197.708 22.144C197.388 22.2933 197.132 22.5013 196.94 22.768C196.759 23.0347 196.668 23.3333 196.668 23.664ZM207.361 28.16C206.838 28.16 206.39 28.1067 206.017 28C205.643 27.8933 205.339 27.728 205.105 27.504C204.87 27.28 204.694 26.992 204.577 26.64C204.47 26.2773 204.417 25.8507 204.417 25.36V18.576C204.417 18.384 204.433 18.2187 204.465 18.08C204.507 17.9413 204.593 17.8347 204.721 17.76C204.859 17.6747 205.073 17.632 205.361 17.632C205.659 17.632 205.873 17.6747 206.001 17.76C206.139 17.8453 206.225 17.9627 206.257 18.112C206.299 18.2507 206.321 18.4053 206.321 18.576V25.296C206.321 25.52 206.337 25.7013 206.369 25.84C206.411 25.9787 206.47 26.0853 206.545 26.16C206.63 26.224 206.737 26.272 206.865 26.304C207.003 26.3253 207.169 26.336 207.361 26.336C207.563 26.336 207.734 26.352 207.873 26.384C208.022 26.416 208.134 26.496 208.209 26.624C208.283 26.7413 208.321 26.9387 208.321 27.216C208.321 27.5147 208.273 27.7333 208.177 27.872C208.091 28 207.974 28.08 207.825 28.112C207.686 28.144 207.531 28.16 207.361 28.16ZM203.761 20.432L205.409 20.448L207.617 20.384C207.798 20.384 207.958 20.4053 208.097 20.448C208.246 20.48 208.363 20.5653 208.449 20.704C208.534 20.832 208.577 21.0453 208.577 21.344C208.577 21.6213 208.534 21.8293 208.449 21.968C208.363 22.1067 208.251 22.1973 208.113 22.24C207.974 22.272 207.814 22.288 207.633 22.288L205.489 22.256L203.713 22.272C203.446 22.2613 203.259 22.1867 203.153 22.048C203.057 21.8987 203.009 21.6587 203.009 21.328C203.009 21.0187 203.067 20.7947 203.185 20.656C203.313 20.5067 203.505 20.432 203.761 20.432Z" fill="#1EA4FF"/>
<defs>
<clipPath id="clip0_16827_123366">
<rect width="24" height="24" fill="white" transform="translate(15 10.5)"/>
</clipPath>
</defs>
</svg>
