<svg width="137" height="45" viewBox="0 0 137 45" fill="none" xmlns="http://www.w3.org/2000/svg">
<rect width="137" height="45" rx="5" fill="#1EA4FF"/>
<path d="M24.5469 14.1426C24.7295 14.1646 24.9003 14.2489 25.0303 14.3818C25.16 14.5147 25.2422 14.6886 25.2637 14.875L25.2695 14.9727V18.3184L25.2734 18.4434C25.3028 18.8415 25.4713 19.2162 25.7471 19.499C26.0228 19.7816 26.3881 19.955 26.7773 19.9863L26.9063 19.9912H30.1787L30.2744 19.9971C30.457 20.0191 30.6278 20.1034 30.7578 20.2363C30.8875 20.3692 30.9697 20.5431 30.9912 20.7295L30.9971 20.8271V23.9541H25.9063C25.5046 23.9541 25.1788 24.2801 25.1787 24.6816C25.1789 25.0831 25.5047 25.4092 25.9063 25.4092H30.9971V28.3545C30.997 28.9944 30.7576 29.6106 30.3281 30.0762C29.8987 30.5416 29.3113 30.8218 28.6865 30.8594L28.543 30.8633H20.3604C19.7345 30.8632 19.1322 30.6185 18.6768 30.1797C18.2215 29.7408 17.947 29.1406 17.9102 28.502L17.9063 28.3545V16.6455C17.9062 16.0056 18.1458 15.3895 18.5752 14.9238C19.0047 14.4583 19.5919 14.1782 20.2168 14.1406L20.3604 14.1367H24.4512L24.5469 14.1426ZM31.9053 21.6582C32.1697 21.3559 32.6284 21.3254 32.9307 21.5898L35.8398 24.1348C35.9977 24.2729 36.0889 24.4729 36.0889 24.6826C36.0886 24.892 35.9975 25.0916 35.8398 25.2295L32.9307 27.7754C32.6284 28.0391 32.1695 28.008 31.9053 27.7061C31.641 27.4039 31.6718 26.9452 31.9736 26.6807L33.4258 25.4092H30.998V23.9541H33.4258L31.9736 22.6836C31.6716 22.4192 31.6412 21.9605 31.9053 21.6582ZM25.9961 14.999C25.996 14.6811 26.3806 14.5215 26.6055 14.7461L30.3867 18.5273C30.6115 18.7521 30.4525 19.1364 30.1348 19.1367H26.3545C26.1575 19.1367 25.9973 18.9772 25.9971 18.7803L25.9961 14.999Z" fill="white"/>
<path d="M51.0893 28.144C50.8119 28.144 50.6039 28.096 50.4653 28C50.3266 27.9147 50.2359 27.7973 50.1933 27.648C50.1506 27.4987 50.1293 27.3387 50.1293 27.168V17.92C50.1293 17.7493 50.1453 17.5947 50.1773 17.456C50.2199 17.3067 50.3106 17.1893 50.4493 17.104C50.5879 17.008 50.8066 16.96 51.1053 16.96L54.1133 16.976C54.8919 16.976 55.6066 17.1093 56.2573 17.376C56.9186 17.6427 57.4893 18.0213 57.9693 18.512C58.4493 19.0027 58.8173 19.5893 59.0733 20.272C59.3399 20.944 59.4733 21.6853 59.4733 22.496C59.4733 23.328 59.3399 24.0907 59.0733 24.784C58.8066 25.4773 58.4333 26.0747 57.9533 26.576C57.4733 27.0773 56.9026 27.4667 56.2413 27.744C55.5906 28.0107 54.8653 28.144 54.0653 28.144H51.0893ZM52.0653 26.208H54.1133C54.7959 26.208 55.3933 26.0587 55.9053 25.76C56.4173 25.4507 56.8119 25.024 57.0893 24.48C57.3773 23.936 57.5213 23.3013 57.5213 22.576C57.5213 21.84 57.3773 21.2 57.0893 20.656C56.8119 20.1013 56.4119 19.6747 55.8893 19.376C55.3773 19.0667 54.7799 18.912 54.0973 18.912H52.0653V26.208ZM64.6683 28.256C64.1563 28.256 63.6549 28.16 63.1643 27.968C62.6843 27.7653 62.2469 27.4827 61.8523 27.12C61.4683 26.7573 61.1589 26.3307 60.9243 25.84C60.7003 25.3493 60.5883 24.8107 60.5883 24.224C60.5883 23.6587 60.6949 23.1307 60.9083 22.64C61.1216 22.1493 61.4149 21.7173 61.7883 21.344C62.1616 20.9707 62.5883 20.6827 63.0683 20.48C63.5589 20.2667 64.0816 20.16 64.6363 20.16C65.3829 20.16 66.0603 20.3413 66.6683 20.704C67.2763 21.056 67.7616 21.536 68.1243 22.144C68.4869 22.752 68.6683 23.44 68.6683 24.208C68.6683 24.816 68.5563 25.3707 68.3323 25.872C68.1083 26.3627 67.8043 26.7893 67.4203 27.152C67.0363 27.504 66.6043 27.776 66.1243 27.968C65.6549 28.16 65.1696 28.256 64.6683 28.256ZM64.6363 26.368C64.9883 26.368 65.3243 26.2827 65.6443 26.112C65.9749 25.9307 66.2416 25.6747 66.4443 25.344C66.6576 25.0133 66.7643 24.624 66.7643 24.176C66.7643 23.76 66.6683 23.392 66.4763 23.072C66.2949 22.752 66.0443 22.5013 65.7243 22.32C65.4043 22.1387 65.0363 22.048 64.6203 22.048C64.2256 22.048 63.8683 22.144 63.5483 22.336C63.2283 22.5173 62.9723 22.7733 62.7803 23.104C62.5989 23.424 62.5082 23.7867 62.5082 24.192C62.5082 24.64 62.6096 25.0293 62.8123 25.36C63.0149 25.68 63.2763 25.9307 63.5963 26.112C63.9269 26.2827 64.2736 26.368 64.6363 26.368ZM72.4933 28.144C72.2799 28.144 72.1093 28.1013 71.9813 28.016C71.8639 27.9413 71.7733 27.8453 71.7093 27.728C71.6559 27.6107 71.6079 27.504 71.5653 27.408L69.2133 21.456C69.1493 21.2533 69.1173 21.0827 69.1173 20.944C69.1279 20.8053 69.1813 20.688 69.2773 20.592C69.3839 20.4853 69.5386 20.3947 69.7413 20.32C70.0826 20.1813 70.3493 20.144 70.5413 20.208C70.7439 20.272 70.8933 20.4533 70.9893 20.752L72.5093 24.784L73.8853 20.928C73.9173 20.832 73.9653 20.7307 74.0293 20.624C74.0933 20.5173 74.1839 20.4267 74.3013 20.352C74.4293 20.2667 74.5999 20.224 74.8133 20.224C75.0373 20.224 75.2133 20.2667 75.3413 20.352C75.4693 20.4267 75.5653 20.5173 75.6293 20.624C75.7039 20.7307 75.7519 20.832 75.7733 20.928L77.1493 24.816L78.6053 20.896C78.7333 20.5653 78.8933 20.3467 79.0853 20.24C79.2773 20.1333 79.5386 20.144 79.8693 20.272C80.1679 20.4 80.3706 20.56 80.4773 20.752C80.5839 20.9333 80.5733 21.1733 80.4453 21.472L78.0773 27.408C78.0346 27.5147 77.9813 27.6267 77.9173 27.744C77.8639 27.8507 77.7733 27.9413 77.6453 28.016C77.5279 28.1013 77.3679 28.144 77.1653 28.144C76.9519 28.144 76.7813 28.1067 76.6533 28.032C76.5359 27.968 76.4453 27.8773 76.3813 27.76C76.3173 27.6427 76.2639 27.52 76.2213 27.392L74.8293 23.44L73.4373 27.392C73.3733 27.5413 73.3146 27.6747 73.2613 27.792C73.2079 27.9093 73.1226 27.9947 73.0052 28.048C72.8879 28.112 72.7173 28.144 72.4933 28.144ZM82.6354 28.144C82.3474 28.144 82.134 28.096 81.9954 28C81.8674 27.9147 81.7874 27.8027 81.7554 27.664C81.7234 27.5147 81.7074 27.3493 81.7074 27.168V21.184C81.7074 21.0133 81.7234 20.8587 81.7554 20.72C81.7874 20.5813 81.8727 20.4747 82.0114 20.4C82.15 20.3147 82.3634 20.272 82.6514 20.272C82.9074 20.272 83.0994 20.304 83.2274 20.368C83.3554 20.432 83.4407 20.512 83.4834 20.608C83.526 20.704 83.5474 20.8 83.5474 20.896C83.558 20.992 83.5687 21.0667 83.5794 21.12L83.5154 21.632C83.5794 21.4613 83.686 21.296 83.8354 21.136C83.9847 20.976 84.166 20.832 84.3794 20.704C84.5927 20.5653 84.822 20.4587 85.0674 20.384C85.3234 20.2987 85.5847 20.256 85.8514 20.256C86.3527 20.256 86.8007 20.3467 87.1954 20.528C87.59 20.7093 87.926 20.9653 88.2034 21.296C88.4914 21.6267 88.71 22.0213 88.8594 22.48C89.0087 22.928 89.0834 23.4347 89.0834 24V27.184C89.0834 27.3653 89.062 27.5307 89.0194 27.68C88.9874 27.8187 88.9074 27.9307 88.7794 28.016C88.6514 28.1013 88.4327 28.144 88.1234 28.144C87.8247 28.144 87.606 28.096 87.4674 28C87.3287 27.9147 87.2434 27.8027 87.2114 27.664C87.1794 27.5147 87.1634 27.3493 87.1634 27.168V23.984C87.1634 23.6 87.094 23.2693 86.9554 22.992C86.8274 22.7147 86.6354 22.5013 86.3794 22.352C86.134 22.2027 85.8194 22.128 85.4354 22.128C85.062 22.128 84.7367 22.208 84.4594 22.368C84.182 22.5173 83.9687 22.7307 83.8194 23.008C83.67 23.2853 83.5954 23.6107 83.5954 23.984V27.184C83.5954 27.3653 83.5794 27.5307 83.5474 27.68C83.5154 27.8187 83.43 27.9307 83.2914 28.016C83.1634 28.1013 82.9447 28.144 82.6354 28.144ZM93.3965 28.16C93.0018 28.16 92.6498 28.1333 92.3405 28.08C92.0418 28.0267 91.7805 27.936 91.5565 27.808C91.3432 27.68 91.1672 27.5093 91.0285 27.296C90.8898 27.072 90.7832 26.8 90.7085 26.48C90.6445 26.16 90.6125 25.776 90.6125 25.328V17.616C90.6125 17.4347 90.6285 17.2747 90.6605 17.136C90.7032 16.9867 90.7885 16.8693 90.9165 16.784C91.0552 16.688 91.2738 16.64 91.5725 16.64C91.8712 16.64 92.0845 16.6827 92.2125 16.768C92.3512 16.8533 92.4365 16.9707 92.4685 17.12C92.5112 17.2587 92.5325 17.4187 92.5325 17.6V25.248C92.5325 25.4507 92.5432 25.6213 92.5645 25.76C92.5965 25.888 92.6445 25.9947 92.7085 26.08C92.7832 26.1547 92.8738 26.208 92.9805 26.24C93.0978 26.272 93.2365 26.288 93.3965 26.288C93.5352 26.288 93.6578 26.304 93.7645 26.336C93.8818 26.368 93.9725 26.448 94.0365 26.576C94.1112 26.704 94.1485 26.912 94.1485 27.2C94.1485 27.4987 94.1112 27.7173 94.0365 27.856C93.9725 27.9947 93.8818 28.08 93.7645 28.112C93.6472 28.144 93.5245 28.16 93.3965 28.16ZM98.9808 28.256C98.4688 28.256 97.9674 28.16 97.4768 27.968C96.9968 27.7653 96.5594 27.4827 96.1648 27.12C95.7808 26.7573 95.4714 26.3307 95.2368 25.84C95.0128 25.3493 94.9008 24.8107 94.9008 24.224C94.9008 23.6587 95.0074 23.1307 95.2208 22.64C95.4341 22.1493 95.7274 21.7173 96.1008 21.344C96.4741 20.9707 96.9008 20.6827 97.3808 20.48C97.8714 20.2667 98.3941 20.16 98.9488 20.16C99.6954 20.16 100.373 20.3413 100.981 20.704C101.589 21.056 102.074 21.536 102.437 22.144C102.799 22.752 102.981 23.44 102.981 24.208C102.981 24.816 102.869 25.3707 102.645 25.872C102.421 26.3627 102.117 26.7893 101.733 27.152C101.349 27.504 100.917 27.776 100.437 27.968C99.9674 28.16 99.4821 28.256 98.9808 28.256ZM98.9488 26.368C99.3008 26.368 99.6368 26.2827 99.9568 26.112C100.287 25.9307 100.554 25.6747 100.757 25.344C100.97 25.0133 101.077 24.624 101.077 24.176C101.077 23.76 100.981 23.392 100.789 23.072C100.607 22.752 100.357 22.5013 100.037 22.32C99.7168 22.1387 99.3488 22.048 98.9328 22.048C98.5381 22.048 98.1808 22.144 97.8608 22.336C97.5408 22.5173 97.2848 22.7733 97.0928 23.104C96.9114 23.424 96.8207 23.7867 96.8207 24.192C96.8207 24.64 96.9221 25.0293 97.1248 25.36C97.3274 25.68 97.5888 25.9307 97.9088 26.112C98.2394 26.2827 98.5861 26.368 98.9488 26.368ZM110.798 28.128C110.489 28.128 110.26 28.0693 110.11 27.952C109.961 27.8347 109.886 27.6747 109.886 27.472L109.998 26.944C109.913 27.0827 109.769 27.248 109.566 27.44C109.364 27.6213 109.097 27.7867 108.766 27.936C108.436 28.0747 108.036 28.144 107.566 28.144C107.065 28.144 106.59 28.0427 106.142 27.84C105.705 27.6267 105.316 27.3387 104.974 26.976C104.644 26.6027 104.377 26.1813 104.174 25.712C103.982 25.232 103.886 24.72 103.886 24.176C103.886 23.6533 103.982 23.1627 104.174 22.704C104.377 22.2347 104.649 21.8187 104.99 21.456C105.332 21.0933 105.721 20.8107 106.158 20.608C106.606 20.3947 107.076 20.288 107.566 20.288C108.004 20.288 108.372 20.3467 108.67 20.464C108.98 20.5813 109.241 20.7307 109.454 20.912C109.668 21.0827 109.844 21.264 109.982 21.456L109.886 20.992C109.886 20.7573 109.961 20.5813 110.11 20.464C110.26 20.336 110.494 20.272 110.814 20.272C111.113 20.272 111.326 20.32 111.454 20.416C111.582 20.5013 111.662 20.624 111.694 20.784C111.726 20.9333 111.742 21.104 111.742 21.296V27.152C111.742 27.3333 111.726 27.4987 111.694 27.648C111.662 27.7973 111.577 27.9147 111.438 28C111.31 28.0853 111.097 28.128 110.798 28.128ZM107.854 26.272C108.217 26.272 108.542 26.1813 108.83 26C109.118 25.8187 109.348 25.5733 109.518 25.264C109.7 24.944 109.79 24.592 109.79 24.208C109.79 23.792 109.7 23.4293 109.518 23.12C109.337 22.8107 109.097 22.5707 108.798 22.4C108.51 22.2187 108.185 22.128 107.822 22.128C107.428 22.128 107.076 22.224 106.766 22.416C106.457 22.5973 106.212 22.848 106.03 23.168C105.86 23.4773 105.774 23.8293 105.774 24.224C105.774 24.608 105.865 24.9547 106.046 25.264C106.228 25.5733 106.473 25.8187 106.782 26C107.102 26.1813 107.46 26.272 107.854 26.272ZM116.74 28.144C116.249 28.144 115.785 28.0427 115.348 27.84C114.91 27.6373 114.526 27.36 114.196 27.008C113.865 26.6453 113.604 26.224 113.412 25.744C113.22 25.2533 113.124 24.7307 113.124 24.176C113.124 23.6427 113.22 23.1413 113.412 22.672C113.604 22.192 113.865 21.776 114.196 21.424C114.537 21.0613 114.926 20.7787 115.364 20.576C115.801 20.3733 116.26 20.272 116.74 20.272C117.252 20.272 117.71 20.3733 118.116 20.576C118.521 20.7787 118.862 21.0613 119.14 21.424C119.428 21.776 119.646 22.192 119.796 22.672C119.945 23.1413 120.025 23.648 120.036 24.192C120.036 24.736 119.961 25.248 119.812 25.728C119.673 26.1973 119.46 26.6133 119.172 26.976C118.894 27.3387 118.548 27.6267 118.132 27.84C117.726 28.0427 117.262 28.144 116.74 28.144ZM116.996 26.272C117.369 26.272 117.7 26.1867 117.988 26.016C118.286 25.8347 118.521 25.5893 118.692 25.28C118.873 24.9707 118.964 24.6187 118.964 24.224C118.964 23.8187 118.873 23.4613 118.692 23.152C118.521 22.8427 118.286 22.5973 117.988 22.416C117.7 22.2347 117.369 22.144 116.996 22.144C116.622 22.144 116.286 22.2347 115.988 22.416C115.689 22.5867 115.449 22.832 115.268 23.152C115.097 23.4613 115.012 23.8187 115.012 24.224C115.012 24.6187 115.097 24.9707 115.268 25.28C115.449 25.5893 115.689 25.8347 115.988 26.016C116.297 26.1867 116.633 26.272 116.996 26.272ZM119.956 28.144C119.657 28.144 119.438 28.096 119.3 28C119.161 27.8933 119.07 27.728 119.028 27.504V17.648C119.028 17.4667 119.038 17.3067 119.06 17.168C119.092 17.0187 119.172 16.9013 119.3 16.816C119.438 16.72 119.652 16.672 119.94 16.672C120.249 16.672 120.468 16.7147 120.596 16.8C120.724 16.8853 120.804 17.0027 120.836 17.152C120.878 17.2907 120.9 17.4507 120.9 17.632V27.168C120.9 27.3493 120.884 27.5147 120.852 27.664C120.82 27.8133 120.734 27.9307 120.596 28.016C120.468 28.1013 120.254 28.144 119.956 28.144Z" fill="white"/>
</svg>
