<svg width="112" height="45" viewBox="0 0 112 45" fill="none" xmlns="http://www.w3.org/2000/svg">
<rect width="112" height="45" rx="5" fill="#10B981"/>
<path d="M29.6416 14.5059C29.8241 14.528 29.9941 14.6123 30.124 14.7451C30.2539 14.878 30.3358 15.0517 30.3574 15.2383L30.3633 15.3359V18.6816L30.3682 18.8076C30.3975 19.2057 30.5652 19.5795 30.8408 19.8623C31.1165 20.1451 31.4818 20.3183 31.8711 20.3496L32 20.3545H35.2725L35.3682 20.3604C35.5508 20.3824 35.7215 20.4667 35.8516 20.5996C35.9814 20.7324 36.0634 20.9063 36.085 21.0928L36.0908 21.1904V28.7178C36.0909 29.3578 35.8514 29.9738 35.4219 30.4395C34.9924 30.9051 34.4052 31.1851 33.7803 31.2227L33.6367 31.2275H25.4541C24.8282 31.2275 24.2259 30.9828 23.7705 30.5439C23.315 30.1049 23.0406 29.5041 23.0039 28.8652L23 28.7178V25.7822H17.7246C17.3244 25.782 17 25.4569 17 25.0566C17.0002 24.6565 17.3245 24.3322 17.7246 24.332H23V25.7734H25.6963L24.2451 27.0439C23.9431 27.3084 23.9125 27.7671 24.1768 28.0693C24.4411 28.3712 24.8999 28.4025 25.2021 28.1387L28.1113 25.5928C28.2688 25.4549 28.3601 25.2552 28.3604 25.0459C28.3603 24.8364 28.2689 24.6361 28.1113 24.498L25.2021 21.9531C24.8999 21.6888 24.4412 21.7194 24.1768 22.0215C23.9125 22.3237 23.9431 22.7824 24.2451 23.0469L25.6982 24.3184H23V17.0088C23 16.369 23.2396 15.7536 23.6689 15.2881C24.0985 14.8224 24.6855 14.5415 25.3105 14.5039L25.4541 14.5H29.5459L29.6416 14.5059ZM30.9961 15.3623C30.996 15.0443 31.3806 14.8847 31.6055 15.1094L35.3867 18.8906C35.6115 19.1154 35.4525 19.4997 35.1348 19.5H31.3545C31.1575 19.5 30.9973 19.3405 30.9971 19.1436L30.9961 15.3623Z" fill="white"/>
<path d="M51.1436 28.16C50.8449 28.16 50.6262 28.112 50.4876 28.016C50.3489 27.9307 50.2636 27.8133 50.2316 27.664C50.1996 27.5147 50.1836 27.3493 50.1836 27.168V17.936C50.1836 17.7653 50.1996 17.6053 50.2316 17.456C50.2742 17.3067 50.3596 17.1893 50.4876 17.104C50.6262 17.0187 50.8502 16.976 51.1596 16.976C51.4582 16.976 51.6716 17.0187 51.7996 17.104C51.9382 17.1893 52.0236 17.3067 52.0556 17.456C52.0982 17.6053 52.1196 17.7707 52.1196 17.952V27.184C52.1196 27.3653 52.0982 27.5307 52.0556 27.68C52.0236 27.8187 51.9382 27.9307 51.7996 28.016C51.6609 28.112 51.4422 28.16 51.1436 28.16ZM54.6897 28.144C54.4017 28.144 54.1884 28.1013 54.0497 28.016C53.9217 27.9307 53.8417 27.8133 53.8097 27.664C53.7777 27.5147 53.7617 27.3547 53.7617 27.184V21.2C53.7617 21.0293 53.7777 20.8747 53.8097 20.736C53.8417 20.5973 53.927 20.4853 54.0657 20.4C54.2044 20.3147 54.423 20.272 54.7217 20.272C55.031 20.272 55.255 20.336 55.3937 20.464C55.543 20.592 55.6177 20.7947 55.6177 21.072L55.4737 21.52C55.527 21.4027 55.6177 21.2747 55.7457 21.136C55.8737 20.9973 56.0284 20.8587 56.2097 20.72C56.4017 20.5813 56.615 20.4693 56.8497 20.384C57.0844 20.2987 57.3297 20.256 57.5857 20.256C57.9377 20.256 58.2577 20.3147 58.5457 20.432C58.8444 20.5493 59.1057 20.72 59.3297 20.944C59.5644 21.168 59.767 21.44 59.9377 21.76C60.119 21.4827 60.3217 21.232 60.5457 21.008C60.7697 20.7733 61.031 20.592 61.3297 20.464C61.6284 20.3253 61.9644 20.256 62.3377 20.256C62.9564 20.256 63.4737 20.4107 63.8897 20.72C64.3164 21.0293 64.6364 21.472 64.8497 22.048C65.0737 22.6133 65.1857 23.2907 65.1857 24.08V27.184C65.1857 27.3653 65.1644 27.5307 65.1217 27.68C65.0897 27.8187 65.0044 27.9307 64.8657 28.016C64.7377 28.1013 64.5244 28.144 64.2257 28.144C63.927 28.144 63.7084 28.096 63.5697 28C63.431 27.9147 63.3457 27.8027 63.3137 27.664C63.2817 27.5147 63.2657 27.3493 63.2657 27.168V24.064C63.2657 23.6693 63.2177 23.328 63.1217 23.04C63.0257 22.752 62.8817 22.528 62.6897 22.368C62.5084 22.208 62.2684 22.128 61.9697 22.128C61.6497 22.128 61.3724 22.208 61.1377 22.368C60.9137 22.5173 60.7377 22.736 60.6097 23.024C60.4817 23.312 60.4177 23.664 60.4177 24.08V27.2C60.4177 27.3813 60.391 27.552 60.3377 27.712C60.2844 27.8613 60.1777 27.9733 60.0177 28.048C59.8684 28.1333 59.6497 28.1653 59.3617 28.144C59.095 28.1333 58.8977 28.08 58.7697 27.984C58.6524 27.888 58.5777 27.7707 58.5457 27.632C58.5244 27.4827 58.5137 27.328 58.5137 27.168V24.064C58.5137 23.6693 58.4657 23.328 58.3697 23.04C58.2737 22.7413 58.1297 22.5173 57.9377 22.368C57.7564 22.208 57.511 22.128 57.2017 22.128C56.871 22.128 56.5884 22.2133 56.3537 22.384C56.1297 22.5547 55.959 22.784 55.8417 23.072C55.7244 23.36 55.6657 23.6907 55.6657 24.064V27.2C55.6657 27.3707 55.6444 27.5307 55.6017 27.68C55.5697 27.8293 55.4844 27.9413 55.3457 28.016C55.2177 28.1013 54.999 28.144 54.6897 28.144ZM70.8409 28.048C70.3183 28.048 69.8489 27.952 69.4329 27.76C69.0276 27.5573 68.6809 27.28 68.3929 26.928C68.1156 26.5653 67.9023 26.1493 67.7529 25.68C67.6143 25.2107 67.5449 24.704 67.5449 24.16C67.5556 23.616 67.6356 23.1093 67.7849 22.64C67.9343 22.16 68.1476 21.744 68.4249 21.392C68.7129 21.04 69.0596 20.7627 69.4649 20.56C69.8703 20.3573 70.3289 20.256 70.8409 20.256C71.3316 20.256 71.7903 20.3573 72.2169 20.56C72.6543 20.7627 73.0383 21.0453 73.3689 21.408C73.7103 21.7707 73.9769 22.192 74.1689 22.672C74.3609 23.1413 74.4569 23.648 74.4569 24.192C74.4569 24.7467 74.3609 25.2587 74.1689 25.728C73.9769 26.1973 73.7156 26.608 73.3849 26.96C73.0543 27.3013 72.6703 27.568 72.2329 27.76C71.7956 27.952 71.3316 28.048 70.8409 28.048ZM67.6409 31.376C67.3529 31.376 67.1396 31.3333 67.0009 31.248C66.8623 31.1627 66.7769 31.0507 66.7449 30.912C66.7129 30.7733 66.6969 30.6133 66.6969 30.432V21.232C66.6969 21.0507 66.7129 20.8907 66.7449 20.752C66.7769 20.6133 66.8569 20.5013 66.9849 20.416C67.1236 20.32 67.3369 20.272 67.6249 20.272C67.9023 20.272 68.1209 20.3147 68.2809 20.4C68.4409 20.4853 68.5476 20.6293 68.6009 20.832V30.416C68.6116 30.5973 68.5956 30.7573 68.5529 30.896C68.5209 31.0453 68.4356 31.1627 68.2969 31.248C68.1583 31.3333 67.9396 31.376 67.6409 31.376ZM70.5849 26.256C70.9583 26.256 71.2943 26.1707 71.5929 26C71.8916 25.8187 72.1263 25.5733 72.2969 25.264C72.4783 24.944 72.5689 24.5867 72.5689 24.192C72.5689 23.7867 72.4783 23.4293 72.2969 23.12C72.1263 22.8107 71.8916 22.5707 71.5929 22.4C71.2943 22.2187 70.9583 22.128 70.5849 22.128C70.2223 22.128 69.8916 22.2187 69.5929 22.4C69.2943 22.5813 69.0543 22.8267 68.8729 23.136C68.7023 23.4347 68.6169 23.7867 68.6169 24.192C68.6169 24.5867 68.7023 24.944 68.8729 25.264C69.0543 25.5733 69.2943 25.8187 69.5929 26C69.8916 26.1707 70.2223 26.256 70.5849 26.256ZM79.4886 28.256C78.9766 28.256 78.4752 28.16 77.9846 27.968C77.5046 27.7653 77.0672 27.4827 76.6726 27.12C76.2886 26.7573 75.9792 26.3307 75.7446 25.84C75.5206 25.3493 75.4086 24.8107 75.4086 24.224C75.4086 23.6587 75.5152 23.1307 75.7286 22.64C75.9419 22.1493 76.2352 21.7173 76.6086 21.344C76.9819 20.9707 77.4086 20.6827 77.8886 20.48C78.3792 20.2667 78.9019 20.16 79.4566 20.16C80.2032 20.16 80.8806 20.3413 81.4886 20.704C82.0966 21.056 82.5819 21.536 82.9446 22.144C83.3072 22.752 83.4886 23.44 83.4886 24.208C83.4886 24.816 83.3766 25.3707 83.1526 25.872C82.9286 26.3627 82.6246 26.7893 82.2406 27.152C81.8566 27.504 81.4246 27.776 80.9446 27.968C80.4752 28.16 79.9899 28.256 79.4886 28.256ZM79.4566 26.368C79.8086 26.368 80.1446 26.2827 80.4646 26.112C80.7952 25.9307 81.0619 25.6747 81.2646 25.344C81.4779 25.0133 81.5846 24.624 81.5846 24.176C81.5846 23.76 81.4886 23.392 81.2966 23.072C81.1152 22.752 80.8646 22.5013 80.5446 22.32C80.2246 22.1387 79.8566 22.048 79.4406 22.048C79.0459 22.048 78.6886 22.144 78.3686 22.336C78.0486 22.5173 77.7926 22.7733 77.6006 23.104C77.4192 23.424 77.3286 23.7867 77.3286 24.192C77.3286 24.64 77.4299 25.0293 77.6326 25.36C77.8352 25.68 78.0966 25.9307 78.4166 26.112C78.7472 26.2827 79.0939 26.368 79.4566 26.368ZM85.6901 28.16C85.4021 28.16 85.1887 28.112 85.0501 28.016C84.9221 27.9307 84.8421 27.8133 84.8101 27.664C84.7781 27.5147 84.7621 27.3493 84.7621 27.168V21.232C84.7621 21.04 84.7781 20.8747 84.8101 20.736C84.8421 20.5867 84.9221 20.4747 85.0501 20.4C85.1887 20.3147 85.4074 20.272 85.7061 20.272C85.9941 20.272 86.2021 20.3093 86.3301 20.384C86.4687 20.4587 86.5541 20.5547 86.5861 20.672C86.6287 20.7787 86.6501 20.8853 86.6501 20.992L86.5221 21.28C86.5754 21.1947 86.6501 21.0933 86.7461 20.976C86.8421 20.848 86.9701 20.7253 87.1301 20.608C87.2901 20.48 87.4821 20.3787 87.7061 20.304C87.9301 20.2187 88.1967 20.176 88.5061 20.176C88.6341 20.176 88.7674 20.192 88.9061 20.224C89.0554 20.2453 89.1994 20.2827 89.3381 20.336C89.4874 20.3787 89.6207 20.4373 89.7381 20.512C89.8554 20.5867 89.9461 20.6773 90.0101 20.784C90.0741 20.88 90.1061 20.992 90.1061 21.12C90.1061 21.4613 90.0207 21.7493 89.8501 21.984C89.6794 22.2187 89.4767 22.336 89.2421 22.336C89.0821 22.336 88.9647 22.32 88.8901 22.288C88.8154 22.256 88.7514 22.2187 88.6981 22.176C88.6554 22.1333 88.5861 22.096 88.4901 22.064C88.4047 22.032 88.2661 22.016 88.0741 22.016C87.9141 22.016 87.7487 22.0427 87.5781 22.096C87.4181 22.1493 87.2687 22.2293 87.1301 22.336C86.9914 22.4427 86.8794 22.5813 86.7941 22.752C86.7087 22.912 86.6661 23.0987 86.6661 23.312V27.2C86.6661 27.3813 86.6501 27.5467 86.6181 27.696C86.5861 27.8347 86.5007 27.9467 86.3621 28.032C86.2234 28.1173 85.9994 28.16 85.6901 28.16ZM95.0716 28.16C94.5489 28.16 94.1009 28.1067 93.7276 28C93.3542 27.8933 93.0502 27.728 92.8156 27.504C92.5809 27.28 92.4049 26.992 92.2876 26.64C92.1809 26.2773 92.1276 25.8507 92.1276 25.36V18.576C92.1276 18.384 92.1436 18.2187 92.1756 18.08C92.2182 17.9413 92.3036 17.8347 92.4316 17.76C92.5702 17.6747 92.7836 17.632 93.0716 17.632C93.3702 17.632 93.5836 17.6747 93.7116 17.76C93.8502 17.8453 93.9356 17.9627 93.9676 18.112C94.0102 18.2507 94.0316 18.4053 94.0316 18.576V25.296C94.0316 25.52 94.0476 25.7013 94.0796 25.84C94.1222 25.9787 94.1809 26.0853 94.2556 26.16C94.3409 26.224 94.4476 26.272 94.5756 26.304C94.7142 26.3253 94.8796 26.336 95.0716 26.336C95.2742 26.336 95.4449 26.352 95.5836 26.384C95.7329 26.416 95.8449 26.496 95.9196 26.624C95.9942 26.7413 96.0316 26.9387 96.0316 27.216C96.0316 27.5147 95.9836 27.7333 95.8876 27.872C95.8022 28 95.6849 28.08 95.5356 28.112C95.3969 28.144 95.2422 28.16 95.0716 28.16ZM91.4716 20.432L93.1196 20.448L95.3276 20.384C95.5089 20.384 95.6689 20.4053 95.8076 20.448C95.9569 20.48 96.0742 20.5653 96.1596 20.704C96.2449 20.832 96.2876 21.0453 96.2876 21.344C96.2876 21.6213 96.2449 21.8293 96.1596 21.968C96.0742 22.1067 95.9622 22.1973 95.8236 22.24C95.6849 22.272 95.5249 22.288 95.3436 22.288L93.1996 22.256L91.4236 22.272C91.1569 22.2613 90.9702 22.1867 90.8636 22.048C90.7676 21.8987 90.7196 21.6587 90.7196 21.328C90.7196 21.0187 90.7782 20.7947 90.8956 20.656C91.0236 20.5067 91.2156 20.432 91.4716 20.432Z" fill="white"/>
</svg>
