<svg width="118" height="45" viewBox="0 0 118 45" fill="none" xmlns="http://www.w3.org/2000/svg">
<rect width="118" height="45" rx="5" fill="#EBF3FE"/>
<g clip-path="url(#clip0_17862_123643)">
<path d="M27 15.5V29.5" stroke="#1EA4FF" stroke-width="2" stroke-linecap="round" stroke-linejoin="round"/>
<path d="M20 22.5H34" stroke="#1EA4FF" stroke-width="2" stroke-linecap="round" stroke-linejoin="round"/>
</g>
<path d="M51.1994 28.144C50.922 28.144 50.714 28.1013 50.5754 28.016C50.4367 27.9307 50.346 27.8133 50.3034 27.664C50.2714 27.5147 50.2554 27.3493 50.2554 27.168V17.936C50.2554 17.7653 50.2714 17.6107 50.3034 17.472C50.346 17.3227 50.4367 17.2053 50.5754 17.12C50.714 17.024 50.9327 16.976 51.2314 16.976C51.4554 16.976 51.6207 16.992 51.7274 17.024C51.8447 17.0453 51.9354 17.0827 51.9994 17.136C52.0634 17.1787 52.1274 17.2373 52.1914 17.312L56.0954 22.768H55.7274L59.6474 17.296C59.722 17.2107 59.7967 17.1467 59.8714 17.104C59.946 17.0613 60.042 17.0293 60.1594 17.008C60.2767 16.9867 60.4314 16.976 60.6234 16.976C60.9114 16.976 61.1247 17.024 61.2634 17.12C61.402 17.2053 61.4874 17.3227 61.5194 17.472C61.562 17.6213 61.5834 17.7867 61.5834 17.968V27.2C61.5834 27.36 61.562 27.5147 61.5194 27.664C61.4874 27.8133 61.402 27.9307 61.2634 28.016C61.1247 28.1013 60.906 28.144 60.6074 28.144C60.3194 28.144 60.106 28.096 59.9674 28C59.8287 27.9147 59.738 27.7973 59.6954 27.648C59.6634 27.4987 59.6474 27.3387 59.6474 27.168V20.304L56.7354 24.512C56.7034 24.5547 56.6554 24.6133 56.5914 24.688C56.5274 24.752 56.442 24.8107 56.3354 24.864C56.2287 24.9173 56.0847 24.944 55.9034 24.944C55.7327 24.944 55.594 24.9173 55.4874 24.864C55.3807 24.8107 55.2954 24.752 55.2314 24.688C55.178 24.624 55.1247 24.56 55.0714 24.496L52.1754 20.304V27.2C52.1754 27.36 52.154 27.5147 52.1114 27.664C52.0794 27.8133 51.994 27.9307 51.8554 28.016C51.7167 28.1013 51.498 28.144 51.1994 28.144ZM66.9183 28.256C66.4063 28.256 65.9049 28.16 65.4143 27.968C64.9343 27.7653 64.4969 27.4827 64.1023 27.12C63.7183 26.7573 63.4089 26.3307 63.1743 25.84C62.9503 25.3493 62.8383 24.8107 62.8383 24.224C62.8383 23.6587 62.9449 23.1307 63.1583 22.64C63.3716 22.1493 63.6649 21.7173 64.0383 21.344C64.4116 20.9707 64.8383 20.6827 65.3183 20.48C65.8089 20.2667 66.3316 20.16 66.8863 20.16C67.6329 20.16 68.3103 20.3413 68.9183 20.704C69.5263 21.056 70.0116 21.536 70.3743 22.144C70.7369 22.752 70.9183 23.44 70.9183 24.208C70.9183 24.816 70.8063 25.3707 70.5823 25.872C70.3583 26.3627 70.0543 26.7893 69.6703 27.152C69.2863 27.504 68.8543 27.776 68.3743 27.968C67.9049 28.16 67.4196 28.256 66.9183 28.256ZM66.8863 26.368C67.2383 26.368 67.5743 26.2827 67.8943 26.112C68.2249 25.9307 68.4916 25.6747 68.6943 25.344C68.9076 25.0133 69.0143 24.624 69.0143 24.176C69.0143 23.76 68.9183 23.392 68.7263 23.072C68.5449 22.752 68.2943 22.5013 67.9743 22.32C67.6543 22.1387 67.2863 22.048 66.8703 22.048C66.4756 22.048 66.1183 22.144 65.7983 22.336C65.4783 22.5173 65.2223 22.7733 65.0303 23.104C64.8489 23.424 64.7582 23.7867 64.7582 24.192C64.7582 24.64 64.8596 25.0293 65.0623 25.36C65.2649 25.68 65.5263 25.9307 65.8463 26.112C66.1769 26.2827 66.5236 26.368 66.8863 26.368ZM75.5677 28.144C75.0771 28.144 74.6131 28.0427 74.1758 27.84C73.7384 27.6373 73.3544 27.36 73.0238 27.008C72.6931 26.6453 72.4318 26.224 72.2398 25.744C72.0478 25.2533 71.9518 24.7307 71.9518 24.176C71.9518 23.6427 72.0478 23.1413 72.2398 22.672C72.4318 22.192 72.6931 21.776 73.0238 21.424C73.3651 21.0613 73.7544 20.7787 74.1918 20.576C74.6291 20.3733 75.0878 20.272 75.5677 20.272C76.0798 20.272 76.5384 20.3733 76.9438 20.576C77.3491 20.7787 77.6904 21.0613 77.9678 21.424C78.2558 21.776 78.4744 22.192 78.6238 22.672C78.7731 23.1413 78.8531 23.648 78.8638 24.192C78.8638 24.736 78.7891 25.248 78.6398 25.728C78.5011 26.1973 78.2878 26.6133 77.9998 26.976C77.7224 27.3387 77.3758 27.6267 76.9598 27.84C76.5544 28.0427 76.0904 28.144 75.5677 28.144ZM75.8238 26.272C76.1971 26.272 76.5278 26.1867 76.8158 26.016C77.1144 25.8347 77.3491 25.5893 77.5198 25.28C77.7011 24.9707 77.7918 24.6187 77.7918 24.224C77.7918 23.8187 77.7011 23.4613 77.5198 23.152C77.3491 22.8427 77.1144 22.5973 76.8158 22.416C76.5278 22.2347 76.1971 22.144 75.8238 22.144C75.4504 22.144 75.1144 22.2347 74.8158 22.416C74.5171 22.5867 74.2771 22.832 74.0958 23.152C73.9251 23.4613 73.8398 23.8187 73.8398 24.224C73.8398 24.6187 73.9251 24.9707 74.0958 25.28C74.2771 25.5893 74.5171 25.8347 74.8158 26.016C75.1251 26.1867 75.4611 26.272 75.8238 26.272ZM78.7838 28.144C78.4851 28.144 78.2664 28.096 78.1278 28C77.9891 27.8933 77.8984 27.728 77.8558 27.504V17.648C77.8558 17.4667 77.8664 17.3067 77.8878 17.168C77.9198 17.0187 77.9998 16.9013 78.1278 16.816C78.2664 16.72 78.4798 16.672 78.7678 16.672C79.0771 16.672 79.2958 16.7147 79.4237 16.8C79.5518 16.8853 79.6318 17.0027 79.6638 17.152C79.7064 17.2907 79.7278 17.4507 79.7278 17.632V27.168C79.7278 27.3493 79.7118 27.5147 79.6798 27.664C79.6478 27.8133 79.5624 27.9307 79.4237 28.016C79.2958 28.1013 79.0824 28.144 78.7838 28.144ZM84.6429 28.144C84.1522 28.144 83.6989 28.0587 83.2829 27.888C82.8775 27.7067 82.5202 27.4507 82.2109 27.12C81.9015 26.7893 81.6615 26.3947 81.4909 25.936C81.3202 25.4773 81.2349 24.9707 81.2349 24.416V21.232C81.2349 21.0507 81.2509 20.8907 81.2829 20.752C81.3149 20.6027 81.4002 20.4853 81.5389 20.4C81.6775 20.3147 81.8909 20.272 82.1789 20.272C82.4882 20.272 82.7069 20.3147 82.8349 20.4C82.9735 20.4853 83.0589 20.6027 83.0909 20.752C83.1229 20.9013 83.1389 21.0667 83.1389 21.248V24.416C83.1389 24.8 83.2029 25.1307 83.3309 25.408C83.4695 25.6853 83.6669 25.904 83.9229 26.064C84.1789 26.2133 84.4935 26.288 84.8669 26.288C85.2509 26.288 85.5762 26.2133 85.8429 26.064C86.1202 25.904 86.3335 25.6853 86.4829 25.408C86.6322 25.12 86.7069 24.7893 86.7069 24.416V21.216C86.7069 21.0347 86.7229 20.8747 86.7549 20.736C86.7869 20.5867 86.8722 20.4747 87.0109 20.4C87.1495 20.3147 87.3682 20.272 87.6669 20.272C87.9655 20.272 88.1789 20.3147 88.3069 20.4C88.4349 20.4853 88.5149 20.6027 88.5469 20.752C88.5895 20.9013 88.6109 21.0613 88.6109 21.232V27.232C88.6109 27.392 88.5895 27.5413 88.5469 27.68C88.5149 27.8187 88.4295 27.9307 88.2909 28.016C88.1629 28.1013 87.9495 28.144 87.6509 28.144C87.4375 28.144 87.2669 28.1173 87.1389 28.064C87.0215 28.0213 86.9309 27.9627 86.8669 27.888C86.8135 27.8027 86.7762 27.7173 86.7549 27.632C86.7442 27.5467 86.7389 27.4613 86.7389 27.376L86.8669 26.944C86.8029 27.04 86.7069 27.1573 86.5789 27.296C86.4509 27.424 86.2909 27.5573 86.0989 27.696C85.9175 27.824 85.7042 27.9307 85.4589 28.016C85.2135 28.1013 84.9415 28.144 84.6429 28.144ZM92.9434 28.16C92.5487 28.16 92.1967 28.1333 91.8874 28.08C91.5887 28.0267 91.3274 27.936 91.1034 27.808C90.89 27.68 90.714 27.5093 90.5754 27.296C90.4367 27.072 90.33 26.8 90.2554 26.48C90.1914 26.16 90.1594 25.776 90.1594 25.328V17.616C90.1594 17.4347 90.1754 17.2747 90.2074 17.136C90.25 16.9867 90.3354 16.8693 90.4634 16.784C90.602 16.688 90.8207 16.64 91.1194 16.64C91.418 16.64 91.6314 16.6827 91.7594 16.768C91.898 16.8533 91.9834 16.9707 92.0154 17.12C92.058 17.2587 92.0794 17.4187 92.0794 17.6V25.248C92.0794 25.4507 92.09 25.6213 92.1114 25.76C92.1434 25.888 92.1914 25.9947 92.2554 26.08C92.33 26.1547 92.4207 26.208 92.5274 26.24C92.6447 26.272 92.7834 26.288 92.9434 26.288C93.082 26.288 93.2047 26.304 93.3114 26.336C93.4287 26.368 93.5194 26.448 93.5834 26.576C93.658 26.704 93.6954 26.912 93.6954 27.2C93.6954 27.4987 93.658 27.7173 93.5834 27.856C93.5194 27.9947 93.4287 28.08 93.3114 28.112C93.194 28.144 93.0714 28.16 92.9434 28.16ZM98.6556 28.256C97.9623 28.256 97.3543 28.144 96.8316 27.92C96.3196 27.696 95.8876 27.392 95.5356 27.008C95.1943 26.6133 94.933 26.176 94.7516 25.696C94.581 25.2053 94.4956 24.6987 94.4956 24.176C94.4956 23.408 94.6716 22.7253 95.0236 22.128C95.3756 21.5307 95.861 21.0613 96.4796 20.72C97.109 20.3787 97.829 20.208 98.6396 20.208C99.2156 20.208 99.7223 20.2987 100.16 20.48C100.597 20.6613 100.96 20.9013 101.248 21.2C101.546 21.488 101.77 21.808 101.92 22.16C102.08 22.512 102.16 22.8533 102.16 23.184C102.16 23.7493 102.021 24.16 101.744 24.416C101.477 24.672 101.141 24.8 100.736 24.8H96.5116C96.5223 25.1627 96.6343 25.4773 96.8476 25.744C97.0716 26.0107 97.349 26.2187 97.6796 26.368C98.021 26.5067 98.3676 26.576 98.7196 26.576C98.9863 26.576 99.221 26.56 99.4236 26.528C99.637 26.496 99.8183 26.4587 99.9676 26.416C100.117 26.3627 100.245 26.3093 100.352 26.256C100.469 26.2027 100.576 26.1547 100.672 26.112C100.768 26.0693 100.858 26.0427 100.944 26.032C101.061 26.0213 101.178 26.048 101.296 26.112C101.413 26.176 101.509 26.288 101.584 26.448C101.648 26.5547 101.69 26.656 101.712 26.752C101.744 26.8373 101.76 26.9227 101.76 27.008C101.76 27.2213 101.632 27.424 101.376 27.616C101.12 27.7973 100.757 27.9467 100.288 28.064C99.829 28.192 99.285 28.256 98.6556 28.256ZM96.5116 23.664H99.7916C99.973 23.664 100.112 23.6373 100.208 23.584C100.304 23.52 100.352 23.392 100.352 23.2C100.352 22.9547 100.277 22.736 100.128 22.544C99.9783 22.3413 99.7756 22.1867 99.5196 22.08C99.2636 21.9627 98.965 21.904 98.6236 21.904C98.229 21.904 97.8716 21.984 97.5516 22.144C97.2316 22.2933 96.9756 22.5013 96.7836 22.768C96.6023 23.0347 96.5116 23.3333 96.5116 23.664Z" fill="#1EA4FF"/>
<defs>
<clipPath id="clip0_17862_123643">
<rect width="24" height="24" fill="white" transform="translate(15 10.5)"/>
</clipPath>
</defs>
</svg>
