<svg width="150" height="45" viewBox="0 0 150 45" fill="none" xmlns="http://www.w3.org/2000/svg">
<rect width="150" height="45" rx="5" fill="#EBF3FE"/>
<g clip-path="url(#clip0_17223_123211)">
<path d="M27 15.5V29.5" stroke="#1EA4FF" stroke-width="2" stroke-linecap="round" stroke-linejoin="round"/>
<path d="M20 22.5H34" stroke="#1EA4FF" stroke-width="2" stroke-linecap="round" stroke-linejoin="round"/>
</g>
<path d="M50.917 28.144C50.629 28.144 50.4157 28.096 50.277 28C50.149 27.9147 50.0637 27.7973 50.021 27.648C49.989 27.4987 49.973 27.3387 49.973 27.168V17.888C49.973 17.728 49.9943 17.5787 50.037 17.44C50.0797 17.3013 50.1703 17.1893 50.309 17.104C50.4583 17.0187 50.677 16.976 50.965 16.976C51.285 16.976 51.5037 17.0133 51.621 17.088C51.749 17.152 51.8663 17.248 51.973 17.376L57.317 24.848V17.888C57.317 17.728 57.3383 17.5787 57.381 17.44C57.4237 17.3013 57.5143 17.1893 57.653 17.104C57.7917 17.0187 58.005 16.976 58.293 16.976C58.5917 16.976 58.805 17.024 58.933 17.12C59.0717 17.2053 59.157 17.3227 59.189 17.472C59.2317 17.6213 59.253 17.7867 59.253 17.968V27.184C59.253 27.3547 59.2263 27.5147 59.173 27.664C59.1303 27.8027 59.0343 27.9147 58.885 28C58.7463 28.096 58.5277 28.144 58.229 28.144C57.9943 28.144 57.8077 28.1227 57.669 28.08C57.541 28.0373 57.4237 27.9467 57.317 27.808L51.893 20.352V27.184C51.893 27.3547 51.8717 27.5147 51.829 27.664C51.797 27.8027 51.7117 27.9147 51.573 28C51.4343 28.096 51.2157 28.144 50.917 28.144ZM64.89 28.256C64.1967 28.256 63.5887 28.144 63.066 27.92C62.554 27.696 62.122 27.392 61.77 27.008C61.4287 26.6133 61.1673 26.176 60.986 25.696C60.8153 25.2053 60.73 24.6987 60.73 24.176C60.73 23.408 60.906 22.7253 61.258 22.128C61.61 21.5307 62.0953 21.0613 62.714 20.72C63.3433 20.3787 64.0633 20.208 64.874 20.208C65.45 20.208 65.9567 20.2987 66.394 20.48C66.8313 20.6613 67.194 20.9013 67.482 21.2C67.7807 21.488 68.0047 21.808 68.154 22.16C68.314 22.512 68.394 22.8533 68.394 23.184C68.394 23.7493 68.2553 24.16 67.978 24.416C67.7113 24.672 67.3753 24.8 66.97 24.8H62.746C62.7567 25.1627 62.8687 25.4773 63.082 25.744C63.306 26.0107 63.5833 26.2187 63.914 26.368C64.2553 26.5067 64.602 26.576 64.954 26.576C65.2207 26.576 65.4553 26.56 65.658 26.528C65.8713 26.496 66.0527 26.4587 66.202 26.416C66.3513 26.3627 66.4793 26.3093 66.586 26.256C66.7033 26.2027 66.81 26.1547 66.906 26.112C67.002 26.0693 67.0927 26.0427 67.178 26.032C67.2953 26.0213 67.4127 26.048 67.53 26.112C67.6473 26.176 67.7433 26.288 67.818 26.448C67.882 26.5547 67.9247 26.656 67.946 26.752C67.978 26.8373 67.994 26.9227 67.994 27.008C67.994 27.2213 67.866 27.424 67.61 27.616C67.354 27.7973 66.9913 27.9467 66.522 28.064C66.0633 28.192 65.5193 28.256 64.89 28.256ZM62.746 23.664H66.026C66.2073 23.664 66.346 23.6373 66.442 23.584C66.538 23.52 66.586 23.392 66.586 23.2C66.586 22.9547 66.5113 22.736 66.362 22.544C66.2127 22.3413 66.01 22.1867 65.754 22.08C65.498 21.9627 65.1993 21.904 64.858 21.904C64.4633 21.904 64.106 21.984 63.786 22.144C63.466 22.2933 63.21 22.5013 63.018 22.768C62.8367 23.0347 62.746 23.3333 62.746 23.664ZM72.1026 28.144C71.8893 28.144 71.7186 28.1013 71.5906 28.016C71.4733 27.9413 71.3826 27.8453 71.3186 27.728C71.2653 27.6107 71.2173 27.504 71.1746 27.408L68.8226 21.456C68.7586 21.2533 68.7266 21.0827 68.7266 20.944C68.7373 20.8053 68.7906 20.688 68.8866 20.592C68.9933 20.4853 69.148 20.3947 69.3506 20.32C69.692 20.1813 69.9586 20.144 70.1506 20.208C70.3533 20.272 70.5026 20.4533 70.5986 20.752L72.1186 24.784L73.4946 20.928C73.5266 20.832 73.5746 20.7307 73.6386 20.624C73.7026 20.5173 73.7933 20.4267 73.9106 20.352C74.0386 20.2667 74.2093 20.224 74.4226 20.224C74.6466 20.224 74.8226 20.2667 74.9506 20.352C75.0786 20.4267 75.1746 20.5173 75.2386 20.624C75.3133 20.7307 75.3613 20.832 75.3826 20.928L76.7586 24.816L78.2146 20.896C78.3426 20.5653 78.5026 20.3467 78.6946 20.24C78.8866 20.1333 79.148 20.144 79.4786 20.272C79.7773 20.4 79.98 20.56 80.0866 20.752C80.1933 20.9333 80.1826 21.1733 80.0546 21.472L77.6866 27.408C77.644 27.5147 77.5906 27.6267 77.5266 27.744C77.4733 27.8507 77.3826 27.9413 77.2546 28.016C77.1373 28.1013 76.9773 28.144 76.7746 28.144C76.5613 28.144 76.3906 28.1067 76.2626 28.032C76.1453 27.968 76.0546 27.8773 75.9906 27.76C75.9266 27.6427 75.8733 27.52 75.8306 27.392L74.4386 23.44L73.0466 27.392C72.9826 27.5413 72.924 27.6747 72.8706 27.792C72.8173 27.9093 72.732 27.9947 72.6146 28.048C72.4973 28.112 72.3266 28.144 72.1026 28.144ZM90.7095 28.224C90.1868 28.224 89.6588 28.1493 89.1255 28C88.5922 27.84 88.0802 27.6053 87.5895 27.296C87.0988 26.976 86.6615 26.5867 86.2775 26.128C85.9042 25.6587 85.6055 25.12 85.3815 24.512C85.1575 23.8933 85.0455 23.2107 85.0455 22.464C85.0455 21.728 85.1575 21.0667 85.3815 20.48C85.6055 19.8827 85.9042 19.36 86.2775 18.912C86.6615 18.464 87.0935 18.0907 87.5735 17.792C88.0642 17.4933 88.5762 17.2693 89.1095 17.12C89.6535 16.96 90.1922 16.8747 90.7255 16.864C91.2695 16.864 91.7388 16.9227 92.1335 17.04C92.5282 17.1573 92.8482 17.2853 93.0935 17.424C93.3388 17.552 93.5042 17.6427 93.5895 17.696C93.7602 17.8027 93.9202 17.9253 94.0695 18.064C94.2295 18.192 94.3148 18.352 94.3255 18.544C94.3362 18.672 94.3202 18.7893 94.2775 18.896C94.2348 18.992 94.1762 19.0933 94.1015 19.2C93.9735 19.3813 93.8455 19.5147 93.7175 19.6C93.5895 19.6853 93.4615 19.728 93.3335 19.728C93.2162 19.728 93.1042 19.696 92.9975 19.632C92.9015 19.568 92.7788 19.488 92.6295 19.392C92.5655 19.3493 92.4482 19.2853 92.2775 19.2C92.1175 19.104 91.8988 19.0187 91.6215 18.944C91.3548 18.8693 91.0295 18.832 90.6455 18.832C90.1868 18.832 89.7388 18.912 89.3015 19.072C88.8642 19.232 88.4695 19.472 88.1175 19.792C87.7762 20.1013 87.5042 20.4907 87.3015 20.96C87.0988 21.4187 86.9975 21.9467 86.9975 22.544C86.9975 23.1413 87.0988 23.6747 87.3015 24.144C87.5042 24.6027 87.7762 24.992 88.1175 25.312C88.4695 25.6213 88.8642 25.856 89.3015 26.016C89.7388 26.176 90.1868 26.256 90.6455 26.256C91.0082 26.256 91.3175 26.224 91.5735 26.16C91.8402 26.0853 92.0642 26 92.2455 25.904C92.4375 25.7973 92.5815 25.7173 92.6775 25.664C92.7948 25.5893 92.9068 25.52 93.0135 25.456C93.1202 25.392 93.2322 25.36 93.3495 25.36C93.4775 25.36 93.6002 25.4027 93.7175 25.488C93.8455 25.5733 93.9682 25.712 94.0855 25.904C94.1602 26.0213 94.2188 26.1333 94.2615 26.24C94.3042 26.3467 94.3202 26.4587 94.3095 26.576C94.2988 26.768 94.2135 26.9333 94.0535 27.072C93.9042 27.2 93.7442 27.312 93.5735 27.408C93.4882 27.4613 93.3228 27.5573 93.0775 27.696C92.8428 27.824 92.5282 27.9413 92.1335 28.048C91.7388 28.1653 91.2642 28.224 90.7095 28.224ZM99.4339 28.256C98.9219 28.256 98.4205 28.16 97.9299 27.968C97.4499 27.7653 97.0125 27.4827 96.6179 27.12C96.2339 26.7573 95.9245 26.3307 95.6899 25.84C95.4659 25.3493 95.3539 24.8107 95.3539 24.224C95.3539 23.6587 95.4605 23.1307 95.6739 22.64C95.8872 22.1493 96.1805 21.7173 96.5539 21.344C96.9272 20.9707 97.3539 20.6827 97.8339 20.48C98.3245 20.2667 98.8472 20.16 99.4019 20.16C100.149 20.16 100.826 20.3413 101.434 20.704C102.042 21.056 102.527 21.536 102.89 22.144C103.253 22.752 103.434 23.44 103.434 24.208C103.434 24.816 103.322 25.3707 103.098 25.872C102.874 26.3627 102.57 26.7893 102.186 27.152C101.802 27.504 101.37 27.776 100.89 27.968C100.421 28.16 99.9352 28.256 99.4339 28.256ZM99.4019 26.368C99.7539 26.368 100.09 26.2827 100.41 26.112C100.741 25.9307 101.007 25.6747 101.21 25.344C101.423 25.0133 101.53 24.624 101.53 24.176C101.53 23.76 101.434 23.392 101.242 23.072C101.061 22.752 100.81 22.5013 100.49 22.32C100.17 22.1387 99.8019 22.048 99.3859 22.048C98.9912 22.048 98.6339 22.144 98.3139 22.336C97.9939 22.5173 97.7379 22.7733 97.5459 23.104C97.3645 23.424 97.2739 23.7867 97.2739 24.192C97.2739 24.64 97.3752 25.0293 97.5779 25.36C97.7805 25.68 98.0419 25.9307 98.3619 26.112C98.6925 26.2827 99.0392 26.368 99.4019 26.368ZM107.955 28.144C107.465 28.144 107.011 28.0587 106.595 27.888C106.19 27.7067 105.833 27.4507 105.523 27.12C105.214 26.7893 104.974 26.3947 104.803 25.936C104.633 25.4773 104.547 24.9707 104.547 24.416V21.232C104.547 21.0507 104.563 20.8907 104.595 20.752C104.627 20.6027 104.713 20.4853 104.851 20.4C104.99 20.3147 105.203 20.272 105.491 20.272C105.801 20.272 106.019 20.3147 106.147 20.4C106.286 20.4853 106.371 20.6027 106.403 20.752C106.435 20.9013 106.451 21.0667 106.451 21.248V24.416C106.451 24.8 106.515 25.1307 106.643 25.408C106.782 25.6853 106.979 25.904 107.235 26.064C107.491 26.2133 107.806 26.288 108.179 26.288C108.563 26.288 108.889 26.2133 109.155 26.064C109.433 25.904 109.646 25.6853 109.795 25.408C109.945 25.12 110.019 24.7893 110.019 24.416V21.216C110.019 21.0347 110.035 20.8747 110.067 20.736C110.099 20.5867 110.185 20.4747 110.323 20.4C110.462 20.3147 110.681 20.272 110.979 20.272C111.278 20.272 111.491 20.3147 111.619 20.4C111.747 20.4853 111.827 20.6027 111.859 20.752C111.902 20.9013 111.923 21.0613 111.923 21.232V27.232C111.923 27.392 111.902 27.5413 111.859 27.68C111.827 27.8187 111.742 27.9307 111.603 28.016C111.475 28.1013 111.262 28.144 110.963 28.144C110.75 28.144 110.579 28.1173 110.451 28.064C110.334 28.0213 110.243 27.9627 110.179 27.888C110.126 27.8027 110.089 27.7173 110.067 27.632C110.057 27.5467 110.051 27.4613 110.051 27.376L110.179 26.944C110.115 27.04 110.019 27.1573 109.891 27.296C109.763 27.424 109.603 27.5573 109.411 27.696C109.23 27.824 109.017 27.9307 108.771 28.016C108.526 28.1013 108.254 28.144 107.955 28.144ZM114.448 28.16C114.16 28.16 113.947 28.112 113.808 28.016C113.68 27.9307 113.6 27.8133 113.568 27.664C113.536 27.5147 113.52 27.3493 113.52 27.168V21.232C113.52 21.04 113.536 20.8747 113.568 20.736C113.6 20.5867 113.68 20.4747 113.808 20.4C113.947 20.3147 114.165 20.272 114.464 20.272C114.752 20.272 114.96 20.3093 115.088 20.384C115.227 20.4587 115.312 20.5547 115.344 20.672C115.387 20.7787 115.408 20.8853 115.408 20.992L115.28 21.28C115.333 21.1947 115.408 21.0933 115.504 20.976C115.6 20.848 115.728 20.7253 115.888 20.608C116.048 20.48 116.24 20.3787 116.464 20.304C116.688 20.2187 116.955 20.176 117.264 20.176C117.392 20.176 117.525 20.192 117.664 20.224C117.813 20.2453 117.957 20.2827 118.096 20.336C118.245 20.3787 118.379 20.4373 118.496 20.512C118.613 20.5867 118.704 20.6773 118.768 20.784C118.832 20.88 118.864 20.992 118.864 21.12C118.864 21.4613 118.779 21.7493 118.608 21.984C118.437 22.2187 118.235 22.336 118 22.336C117.84 22.336 117.723 22.32 117.648 22.288C117.573 22.256 117.509 22.2187 117.456 22.176C117.413 22.1333 117.344 22.096 117.248 22.064C117.163 22.032 117.024 22.016 116.832 22.016C116.672 22.016 116.507 22.0427 116.336 22.096C116.176 22.1493 116.027 22.2293 115.888 22.336C115.749 22.4427 115.637 22.5813 115.552 22.752C115.467 22.912 115.424 23.0987 115.424 23.312V27.2C115.424 27.3813 115.408 27.5467 115.376 27.696C115.344 27.8347 115.259 27.9467 115.12 28.032C114.981 28.1173 114.757 28.16 114.448 28.16ZM122.474 28.256C122.197 28.256 121.904 28.224 121.594 28.16C121.285 28.1067 120.986 28.0267 120.698 27.92C120.41 27.8027 120.16 27.6693 119.946 27.52C119.744 27.36 119.616 27.184 119.562 26.992C119.52 26.8853 119.504 26.784 119.514 26.688C119.525 26.5813 119.557 26.4747 119.61 26.368C119.664 26.2507 119.744 26.1333 119.85 26.016C119.946 25.8987 120.042 25.8347 120.138 25.824C120.245 25.8027 120.378 25.8347 120.538 25.92C120.677 25.9733 120.826 26.0427 120.986 26.128C121.157 26.2133 121.328 26.2987 121.498 26.384C121.68 26.4693 121.861 26.5387 122.042 26.592C122.234 26.6453 122.421 26.672 122.602 26.672C122.997 26.672 123.312 26.608 123.546 26.48C123.781 26.3413 123.898 26.1493 123.898 25.904C123.898 25.7653 123.861 25.6427 123.786 25.536C123.712 25.4293 123.61 25.344 123.482 25.28C123.365 25.2053 123.221 25.1413 123.05 25.088C122.89 25.024 122.714 24.9707 122.522 24.928C122.341 24.8747 122.149 24.816 121.946 24.752C121.68 24.6773 121.413 24.5867 121.146 24.48C120.88 24.3733 120.64 24.2347 120.426 24.064C120.224 23.8933 120.058 23.68 119.93 23.424C119.802 23.168 119.738 22.848 119.738 22.464C119.738 21.984 119.85 21.5787 120.074 21.248C120.309 20.9067 120.645 20.6453 121.082 20.464C121.52 20.2827 122.048 20.192 122.666 20.192C122.88 20.192 123.082 20.208 123.274 20.24C123.477 20.272 123.669 20.32 123.85 20.384C124.042 20.4373 124.224 20.5067 124.394 20.592C124.576 20.6773 124.746 20.7733 124.906 20.88C125.173 21.0293 125.312 21.2053 125.322 21.408C125.333 21.6 125.258 21.808 125.098 22.032C124.981 22.1813 124.864 22.288 124.746 22.352C124.629 22.4053 124.506 22.4053 124.378 22.352C124.208 22.2667 124.021 22.176 123.818 22.08C123.626 21.9733 123.424 21.8827 123.21 21.808C123.008 21.7333 122.794 21.696 122.57 21.696C122.357 21.696 122.165 21.728 121.994 21.792C121.824 21.856 121.696 21.9467 121.61 22.064C121.525 22.1813 121.482 22.32 121.482 22.48C121.482 22.6293 121.525 22.752 121.61 22.848C121.696 22.944 121.808 23.024 121.946 23.088C122.085 23.152 122.25 23.2107 122.442 23.264C122.634 23.3067 122.837 23.3493 123.05 23.392C123.349 23.456 123.653 23.536 123.962 23.632C124.272 23.728 124.554 23.8613 124.81 24.032C125.077 24.2027 125.29 24.432 125.45 24.72C125.61 24.9973 125.69 25.36 125.69 25.808C125.69 26.5867 125.402 27.1893 124.826 27.616C124.261 28.0427 123.477 28.256 122.474 28.256ZM130.89 28.256C130.197 28.256 129.589 28.144 129.066 27.92C128.554 27.696 128.122 27.392 127.77 27.008C127.429 26.6133 127.167 26.176 126.986 25.696C126.815 25.2053 126.73 24.6987 126.73 24.176C126.73 23.408 126.906 22.7253 127.258 22.128C127.61 21.5307 128.095 21.0613 128.714 20.72C129.343 20.3787 130.063 20.208 130.874 20.208C131.45 20.208 131.957 20.2987 132.394 20.48C132.831 20.6613 133.194 20.9013 133.482 21.2C133.781 21.488 134.005 21.808 134.154 22.16C134.314 22.512 134.394 22.8533 134.394 23.184C134.394 23.7493 134.255 24.16 133.978 24.416C133.711 24.672 133.375 24.8 132.97 24.8H128.746C128.757 25.1627 128.869 25.4773 129.082 25.744C129.306 26.0107 129.583 26.2187 129.914 26.368C130.255 26.5067 130.602 26.576 130.954 26.576C131.221 26.576 131.455 26.56 131.658 26.528C131.871 26.496 132.053 26.4587 132.202 26.416C132.351 26.3627 132.479 26.3093 132.586 26.256C132.703 26.2027 132.81 26.1547 132.906 26.112C133.002 26.0693 133.093 26.0427 133.178 26.032C133.295 26.0213 133.413 26.048 133.53 26.112C133.647 26.176 133.743 26.288 133.818 26.448C133.882 26.5547 133.925 26.656 133.946 26.752C133.978 26.8373 133.994 26.9227 133.994 27.008C133.994 27.2213 133.866 27.424 133.61 27.616C133.354 27.7973 132.991 27.9467 132.522 28.064C132.063 28.192 131.519 28.256 130.89 28.256ZM128.746 23.664H132.026C132.207 23.664 132.346 23.6373 132.442 23.584C132.538 23.52 132.586 23.392 132.586 23.2C132.586 22.9547 132.511 22.736 132.362 22.544C132.213 22.3413 132.01 22.1867 131.754 22.08C131.498 21.9627 131.199 21.904 130.858 21.904C130.463 21.904 130.106 21.984 129.786 22.144C129.466 22.2933 129.21 22.5013 129.018 22.768C128.837 23.0347 128.746 23.3333 128.746 23.664Z" fill="#1EA4FF"/>
<defs>
<clipPath id="clip0_17223_123211">
<rect width="24" height="24" fill="white" transform="translate(15 10.5)"/>
</clipPath>
</defs>
</svg>
