<svg width="156" height="45" viewBox="0 0 156 45" fill="none" xmlns="http://www.w3.org/2000/svg">
<rect width="156" height="45" rx="5" fill="#EBF3FE"/>
<g clip-path="url(#clip0_17224_123218)">
<path d="M27 15.5V29.5" stroke="#1EA4FF" stroke-width="2" stroke-linecap="round" stroke-linejoin="round"/>
<path d="M20 22.5H34" stroke="#1EA4FF" stroke-width="2" stroke-linecap="round" stroke-linejoin="round"/>
</g>
<path d="M51.2061 28.144C50.9181 28.144 50.7047 28.096 50.5661 28C50.4381 27.9147 50.3527 27.7973 50.3101 27.648C50.2781 27.4987 50.2621 27.3387 50.2621 27.168V17.888C50.2621 17.728 50.2834 17.5787 50.3261 17.44C50.3687 17.3013 50.4594 17.1893 50.5981 17.104C50.7474 17.0187 50.9661 16.976 51.2541 16.976C51.5741 16.976 51.7927 17.0133 51.9101 17.088C52.0381 17.152 52.1554 17.248 52.2621 17.376L57.6061 24.848V17.888C57.6061 17.728 57.6274 17.5787 57.6701 17.44C57.7127 17.3013 57.8034 17.1893 57.9421 17.104C58.0807 17.0187 58.2941 16.976 58.5821 16.976C58.8807 16.976 59.0941 17.024 59.2221 17.12C59.3607 17.2053 59.4461 17.3227 59.4781 17.472C59.5207 17.6213 59.5421 17.7867 59.5421 17.968V27.184C59.5421 27.3547 59.5154 27.5147 59.4621 27.664C59.4194 27.8027 59.3234 27.9147 59.1741 28C59.0354 28.096 58.8167 28.144 58.5181 28.144C58.2834 28.144 58.0967 28.1227 57.9581 28.08C57.8301 28.0373 57.7127 27.9467 57.6061 27.808L52.1821 20.352V27.184C52.1821 27.3547 52.1607 27.5147 52.1181 27.664C52.0861 27.8027 52.0007 27.9147 51.8621 28C51.7234 28.096 51.5047 28.144 51.2061 28.144ZM65.1791 28.256C64.4857 28.256 63.8777 28.144 63.3551 27.92C62.8431 27.696 62.4111 27.392 62.0591 27.008C61.7177 26.6133 61.4564 26.176 61.2751 25.696C61.1044 25.2053 61.0191 24.6987 61.0191 24.176C61.0191 23.408 61.1951 22.7253 61.5471 22.128C61.8991 21.5307 62.3844 21.0613 63.0031 20.72C63.6324 20.3787 64.3524 20.208 65.1631 20.208C65.7391 20.208 66.2457 20.2987 66.6831 20.48C67.1204 20.6613 67.4831 20.9013 67.7711 21.2C68.0697 21.488 68.2937 21.808 68.4431 22.16C68.6031 22.512 68.6831 22.8533 68.6831 23.184C68.6831 23.7493 68.5444 24.16 68.2671 24.416C68.0004 24.672 67.6644 24.8 67.2591 24.8H63.0351C63.0457 25.1627 63.1577 25.4773 63.3711 25.744C63.5951 26.0107 63.8724 26.2187 64.2031 26.368C64.5444 26.5067 64.8911 26.576 65.2431 26.576C65.5097 26.576 65.7444 26.56 65.9471 26.528C66.1604 26.496 66.3417 26.4587 66.4911 26.416C66.6404 26.3627 66.7684 26.3093 66.8751 26.256C66.9924 26.2027 67.0991 26.1547 67.1951 26.112C67.2911 26.0693 67.3817 26.0427 67.4671 26.032C67.5844 26.0213 67.7017 26.048 67.8191 26.112C67.9364 26.176 68.0324 26.288 68.1071 26.448C68.1711 26.5547 68.2137 26.656 68.2351 26.752C68.2671 26.8373 68.2831 26.9227 68.2831 27.008C68.2831 27.2213 68.1551 27.424 67.8991 27.616C67.6431 27.7973 67.2804 27.9467 66.8111 28.064C66.3524 28.192 65.8084 28.256 65.1791 28.256ZM63.0351 23.664H66.3151C66.4964 23.664 66.6351 23.6373 66.7311 23.584C66.8271 23.52 66.8751 23.392 66.8751 23.2C66.8751 22.9547 66.8004 22.736 66.6511 22.544C66.5017 22.3413 66.2991 22.1867 66.0431 22.08C65.7871 21.9627 65.4884 21.904 65.1471 21.904C64.7524 21.904 64.3951 21.984 64.0751 22.144C63.7551 22.2933 63.4991 22.5013 63.3071 22.768C63.1257 23.0347 63.0351 23.3333 63.0351 23.664ZM72.3917 28.144C72.1784 28.144 72.0077 28.1013 71.8797 28.016C71.7624 27.9413 71.6717 27.8453 71.6077 27.728C71.5544 27.6107 71.5064 27.504 71.4637 27.408L69.1117 21.456C69.0477 21.2533 69.0157 21.0827 69.0157 20.944C69.0264 20.8053 69.0797 20.688 69.1757 20.592C69.2824 20.4853 69.437 20.3947 69.6397 20.32C69.981 20.1813 70.2477 20.144 70.4397 20.208C70.6424 20.272 70.7917 20.4533 70.8877 20.752L72.4077 24.784L73.7837 20.928C73.8157 20.832 73.8637 20.7307 73.9277 20.624C73.9917 20.5173 74.0824 20.4267 74.1997 20.352C74.3277 20.2667 74.4984 20.224 74.7117 20.224C74.9357 20.224 75.1117 20.2667 75.2397 20.352C75.3677 20.4267 75.4637 20.5173 75.5277 20.624C75.6024 20.7307 75.6504 20.832 75.6717 20.928L77.0477 24.816L78.5037 20.896C78.6317 20.5653 78.7917 20.3467 78.9837 20.24C79.1757 20.1333 79.437 20.144 79.7677 20.272C80.0664 20.4 80.269 20.56 80.3757 20.752C80.4824 20.9333 80.4717 21.1733 80.3437 21.472L77.9757 27.408C77.933 27.5147 77.8797 27.6267 77.8157 27.744C77.7624 27.8507 77.6717 27.9413 77.5437 28.016C77.4264 28.1013 77.2664 28.144 77.0637 28.144C76.8504 28.144 76.6797 28.1067 76.5517 28.032C76.4344 27.968 76.3437 27.8773 76.2797 27.76C76.2157 27.6427 76.1624 27.52 76.1197 27.392L74.7277 23.44L73.3357 27.392C73.2717 27.5413 73.213 27.6747 73.1597 27.792C73.1064 27.9093 73.021 27.9947 72.9037 28.048C72.7864 28.112 72.6157 28.144 72.3917 28.144ZM95.4682 26.8C95.5749 27.0027 95.6282 27.184 95.6282 27.344C95.6389 27.4933 95.5962 27.6267 95.5002 27.744C95.4042 27.8507 95.2442 27.9627 95.0202 28.08C94.6789 28.24 94.4122 28.2827 94.2202 28.208C94.0389 28.1333 93.8682 27.9253 93.7082 27.584L90.1402 20.048L86.5882 27.584C86.4282 27.9147 86.2522 28.112 86.0602 28.176C85.8682 28.2507 85.6015 28.2133 85.2602 28.064C85.0469 27.9573 84.8869 27.8453 84.7802 27.728C84.6842 27.6107 84.6415 27.472 84.6522 27.312C84.6735 27.1413 84.7429 26.9387 84.8602 26.704L89.2602 17.536C89.3455 17.3653 89.4682 17.232 89.6282 17.136C89.7989 17.0293 89.9749 16.976 90.1562 16.976C90.2842 16.976 90.4015 16.9973 90.5082 17.04C90.6149 17.0827 90.7109 17.1467 90.7962 17.232C90.8922 17.3173 90.9722 17.424 91.0362 17.552L95.4682 26.8ZM87.2922 25.248L88.0602 23.6H92.2362L93.0042 25.248H87.2922ZM100.101 28.192C99.5889 28.192 99.0876 28.1067 98.5969 27.936C98.1169 27.7547 97.6796 27.4933 97.2849 27.152C96.9009 26.8107 96.5916 26.3947 96.3569 25.904C96.1329 25.4027 96.0209 24.8373 96.0209 24.208C96.0209 23.5787 96.1329 23.0187 96.3569 22.528C96.5916 22.0373 96.9009 21.6213 97.2849 21.28C97.6689 20.9387 98.1009 20.6773 98.5809 20.496C99.0609 20.3147 99.5569 20.224 100.069 20.224C100.442 20.224 100.794 20.2773 101.125 20.384C101.466 20.4907 101.76 20.6187 102.005 20.768C102.25 20.9173 102.426 21.0667 102.533 21.216C102.672 21.344 102.789 21.4667 102.885 21.584C102.981 21.7013 103.013 21.8453 102.981 22.016C102.949 22.1227 102.901 22.224 102.837 22.32C102.773 22.4053 102.693 22.496 102.597 22.592C102.341 22.88 102.09 22.9867 101.845 22.912C101.706 22.8373 101.568 22.7573 101.429 22.672C101.29 22.5867 101.146 22.5067 100.997 22.432C100.858 22.3467 100.714 22.2773 100.565 22.224C100.416 22.1707 100.25 22.144 100.069 22.144C99.6636 22.144 99.3009 22.2347 98.9809 22.416C98.6716 22.5867 98.4263 22.8267 98.2449 23.136C98.0743 23.4453 97.9889 23.8027 97.9889 24.208C97.9889 24.6133 98.0743 24.976 98.2449 25.296C98.4263 25.6053 98.6716 25.8507 98.9809 26.032C99.2903 26.2027 99.6423 26.288 100.037 26.288C100.229 26.288 100.41 26.2667 100.581 26.224C100.762 26.1707 100.922 26.1067 101.061 26.032C101.2 25.9467 101.312 25.8613 101.397 25.776C101.514 25.7013 101.621 25.632 101.717 25.568C101.813 25.504 101.914 25.472 102.021 25.472C102.149 25.472 102.272 25.52 102.389 25.616C102.517 25.7013 102.656 25.84 102.805 26.032C102.944 26.192 103.018 26.3467 103.029 26.496C103.05 26.6453 103.018 26.7893 102.933 26.928C102.858 27.0667 102.73 27.1947 102.549 27.312C102.421 27.44 102.229 27.5733 101.973 27.712C101.728 27.84 101.44 27.952 101.109 28.048C100.789 28.144 100.453 28.192 100.101 28.192ZM108.134 28.16C107.611 28.16 107.163 28.1067 106.79 28C106.417 27.8933 106.113 27.728 105.878 27.504C105.643 27.28 105.467 26.992 105.35 26.64C105.243 26.2773 105.19 25.8507 105.19 25.36V18.576C105.19 18.384 105.206 18.2187 105.238 18.08C105.281 17.9413 105.366 17.8347 105.494 17.76C105.633 17.6747 105.846 17.632 106.134 17.632C106.433 17.632 106.646 17.6747 106.774 17.76C106.913 17.8453 106.998 17.9627 107.03 18.112C107.073 18.2507 107.094 18.4053 107.094 18.576V25.296C107.094 25.52 107.11 25.7013 107.142 25.84C107.185 25.9787 107.243 26.0853 107.318 26.16C107.403 26.224 107.51 26.272 107.638 26.304C107.777 26.3253 107.942 26.336 108.134 26.336C108.337 26.336 108.507 26.352 108.646 26.384C108.795 26.416 108.907 26.496 108.982 26.624C109.057 26.7413 109.094 26.9387 109.094 27.216C109.094 27.5147 109.046 27.7333 108.95 27.872C108.865 28 108.747 28.08 108.598 28.112C108.459 28.144 108.305 28.16 108.134 28.16ZM104.534 20.432L106.182 20.448L108.39 20.384C108.571 20.384 108.731 20.4053 108.87 20.448C109.019 20.48 109.137 20.5653 109.222 20.704C109.307 20.832 109.35 21.0453 109.35 21.344C109.35 21.6213 109.307 21.8293 109.222 21.968C109.137 22.1067 109.025 22.1973 108.886 22.24C108.747 22.272 108.587 22.288 108.406 22.288L106.262 22.256L104.486 22.272C104.219 22.2613 104.033 22.1867 103.926 22.048C103.83 21.8987 103.782 21.6587 103.782 21.328C103.782 21.0187 103.841 20.7947 103.958 20.656C104.086 20.5067 104.278 20.432 104.534 20.432ZM111.567 28.16C111.279 28.16 111.066 28.112 110.927 28.016C110.788 27.9307 110.703 27.8187 110.671 27.68C110.639 27.5307 110.623 27.3653 110.623 27.184V21.232C110.623 21.0613 110.639 20.9067 110.671 20.768C110.714 20.6187 110.799 20.5013 110.927 20.416C111.066 20.3307 111.284 20.288 111.583 20.288C111.882 20.288 112.095 20.3307 112.223 20.416C112.362 20.5013 112.447 20.6187 112.479 20.768C112.511 20.9173 112.527 21.0827 112.527 21.264V27.2C112.527 27.3813 112.511 27.5467 112.479 27.696C112.447 27.8347 112.362 27.9467 112.223 28.032C112.095 28.1173 111.876 28.16 111.567 28.16ZM111.567 18.736C111.258 18.736 111.028 18.6933 110.879 18.608C110.74 18.512 110.65 18.384 110.607 18.224C110.575 18.064 110.559 17.888 110.559 17.696C110.559 17.4933 110.575 17.3173 110.607 17.168C110.65 17.0187 110.746 16.9013 110.895 16.816C111.044 16.72 111.274 16.672 111.583 16.672C111.903 16.672 112.132 16.72 112.271 16.816C112.41 16.912 112.5 17.04 112.543 17.2C112.586 17.3493 112.607 17.5253 112.607 17.728C112.607 17.9093 112.586 18.08 112.543 18.24C112.5 18.4 112.41 18.5227 112.271 18.608C112.132 18.6933 111.898 18.736 111.567 18.736ZM117.845 28.192C117.621 28.192 117.435 28.1547 117.285 28.08C117.136 28.0053 117.019 27.8827 116.933 27.712L114.021 21.616C113.861 21.296 113.819 21.04 113.893 20.848C113.968 20.656 114.16 20.4853 114.469 20.336C114.789 20.176 115.045 20.1227 115.237 20.176C115.429 20.2293 115.6 20.4267 115.749 20.768L117.845 25.68L119.909 20.864C120.059 20.512 120.229 20.2933 120.421 20.208C120.613 20.112 120.891 20.1547 121.253 20.336C121.616 20.5173 121.808 20.72 121.829 20.944C121.851 21.1573 121.792 21.4027 121.653 21.68L118.757 27.712C118.672 27.872 118.555 27.9893 118.405 28.064C118.256 28.1493 118.069 28.192 117.845 28.192ZM124.114 28.16C123.826 28.16 123.612 28.112 123.474 28.016C123.335 27.9307 123.25 27.8187 123.218 27.68C123.186 27.5307 123.17 27.3653 123.17 27.184V21.232C123.17 21.0613 123.186 20.9067 123.218 20.768C123.26 20.6187 123.346 20.5013 123.474 20.416C123.612 20.3307 123.831 20.288 124.13 20.288C124.428 20.288 124.642 20.3307 124.77 20.416C124.908 20.5013 124.994 20.6187 125.026 20.768C125.058 20.9173 125.074 21.0827 125.074 21.264V27.2C125.074 27.3813 125.058 27.5467 125.026 27.696C124.994 27.8347 124.908 27.9467 124.77 28.032C124.642 28.1173 124.423 28.16 124.114 28.16ZM124.114 18.736C123.804 18.736 123.575 18.6933 123.426 18.608C123.287 18.512 123.196 18.384 123.154 18.224C123.122 18.064 123.106 17.888 123.106 17.696C123.106 17.4933 123.122 17.3173 123.154 17.168C123.196 17.0187 123.292 16.9013 123.442 16.816C123.591 16.72 123.82 16.672 124.13 16.672C124.45 16.672 124.679 16.72 124.818 16.816C124.956 16.912 125.047 17.04 125.09 17.2C125.132 17.3493 125.154 17.5253 125.154 17.728C125.154 17.9093 125.132 18.08 125.09 18.24C125.047 18.4 124.956 18.5227 124.818 18.608C124.679 18.6933 124.444 18.736 124.114 18.736ZM130.509 28.16C129.986 28.16 129.538 28.1067 129.165 28C128.792 27.8933 128.488 27.728 128.253 27.504C128.018 27.28 127.842 26.992 127.725 26.64C127.618 26.2773 127.565 25.8507 127.565 25.36V18.576C127.565 18.384 127.581 18.2187 127.613 18.08C127.656 17.9413 127.741 17.8347 127.869 17.76C128.008 17.6747 128.221 17.632 128.509 17.632C128.808 17.632 129.021 17.6747 129.149 17.76C129.288 17.8453 129.373 17.9627 129.405 18.112C129.448 18.2507 129.469 18.4053 129.469 18.576V25.296C129.469 25.52 129.485 25.7013 129.517 25.84C129.56 25.9787 129.618 26.0853 129.693 26.16C129.778 26.224 129.885 26.272 130.013 26.304C130.152 26.3253 130.317 26.336 130.509 26.336C130.712 26.336 130.882 26.352 131.021 26.384C131.17 26.416 131.282 26.496 131.357 26.624C131.432 26.7413 131.469 26.9387 131.469 27.216C131.469 27.5147 131.421 27.7333 131.325 27.872C131.24 28 131.122 28.08 130.973 28.112C130.834 28.144 130.68 28.16 130.509 28.16ZM126.909 20.432L128.557 20.448L130.765 20.384C130.946 20.384 131.106 20.4053 131.245 20.448C131.394 20.48 131.512 20.5653 131.597 20.704C131.682 20.832 131.725 21.0453 131.725 21.344C131.725 21.6213 131.682 21.8293 131.597 21.968C131.512 22.1067 131.4 22.1973 131.261 22.24C131.122 22.272 130.962 22.288 130.781 22.288L128.637 22.256L126.861 22.272C126.594 22.2613 126.408 22.1867 126.301 22.048C126.205 21.8987 126.157 21.6587 126.157 21.328C126.157 21.0187 126.216 20.7947 126.333 20.656C126.461 20.5067 126.653 20.432 126.909 20.432ZM134.714 31.312C134.373 31.1627 134.176 30.992 134.122 30.8C134.069 30.6187 134.117 30.3733 134.266 30.064L138.394 20.816C138.544 20.4747 138.704 20.272 138.874 20.208C139.045 20.1333 139.306 20.1707 139.658 20.32C139.989 20.4693 140.181 20.6347 140.234 20.816C140.298 20.9973 140.261 21.2427 140.122 21.552L135.962 30.848C135.824 31.1893 135.669 31.3867 135.498 31.44C135.328 31.504 135.066 31.4613 134.714 31.312ZM136.202 27.392L132.506 21.712C132.314 21.424 132.234 21.184 132.266 20.992C132.309 20.8 132.48 20.6133 132.778 20.432C133.109 20.2293 133.365 20.1493 133.546 20.192C133.738 20.2347 133.93 20.4053 134.122 20.704L137.05 25.264L136.202 27.392Z" fill="#1EA4FF"/>
<defs>
<clipPath id="clip0_17224_123218">
<rect width="24" height="24" fill="white" transform="translate(15 10.5)"/>
</clipPath>
</defs>
</svg>
