<svg width="141" height="45" viewBox="0 0 141 45" fill="none" xmlns="http://www.w3.org/2000/svg">
<rect width="141" height="45" rx="5" fill="#EBF3FE"/>
<g clip-path="url(#clip0_16792_123289)">
<path d="M27 15.5V29.5" stroke="#1EA4FF" stroke-width="2" stroke-linecap="round" stroke-linejoin="round"/>
<path d="M20 22.5H34" stroke="#1EA4FF" stroke-width="2" stroke-linecap="round" stroke-linejoin="round"/>
</g>
<path d="M51.1514 28.144C50.8634 28.144 50.65 28.096 50.5114 28C50.3834 27.9147 50.298 27.7973 50.2554 27.648C50.2234 27.4987 50.2074 27.3387 50.2074 27.168V17.888C50.2074 17.728 50.2287 17.5787 50.2714 17.44C50.314 17.3013 50.4047 17.1893 50.5434 17.104C50.6927 17.0187 50.9114 16.976 51.1994 16.976C51.5194 16.976 51.738 17.0133 51.8554 17.088C51.9834 17.152 52.1007 17.248 52.2074 17.376L57.5514 24.848V17.888C57.5514 17.728 57.5727 17.5787 57.6154 17.44C57.658 17.3013 57.7487 17.1893 57.8874 17.104C58.026 17.0187 58.2394 16.976 58.5274 16.976C58.826 16.976 59.0394 17.024 59.1674 17.12C59.306 17.2053 59.3914 17.3227 59.4234 17.472C59.466 17.6213 59.4874 17.7867 59.4874 17.968V27.184C59.4874 27.3547 59.4607 27.5147 59.4074 27.664C59.3647 27.8027 59.2687 27.9147 59.1194 28C58.9807 28.096 58.762 28.144 58.4634 28.144C58.2287 28.144 58.042 28.1227 57.9034 28.08C57.7754 28.0373 57.658 27.9467 57.5514 27.808L52.1274 20.352V27.184C52.1274 27.3547 52.106 27.5147 52.0634 27.664C52.0314 27.8027 51.946 27.9147 51.8074 28C51.6687 28.096 51.45 28.144 51.1514 28.144ZM65.1244 28.256C64.431 28.256 63.823 28.144 63.3004 27.92C62.7884 27.696 62.3564 27.392 62.0044 27.008C61.663 26.6133 61.4017 26.176 61.2204 25.696C61.0497 25.2053 60.9644 24.6987 60.9644 24.176C60.9644 23.408 61.1404 22.7253 61.4924 22.128C61.8444 21.5307 62.3297 21.0613 62.9484 20.72C63.5777 20.3787 64.2977 20.208 65.1084 20.208C65.6844 20.208 66.191 20.2987 66.6284 20.48C67.0657 20.6613 67.4284 20.9013 67.7164 21.2C68.015 21.488 68.239 21.808 68.3884 22.16C68.5484 22.512 68.6284 22.8533 68.6284 23.184C68.6284 23.7493 68.4897 24.16 68.2124 24.416C67.9457 24.672 67.6097 24.8 67.2044 24.8H62.9804C62.991 25.1627 63.103 25.4773 63.3164 25.744C63.5404 26.0107 63.8177 26.2187 64.1484 26.368C64.4897 26.5067 64.8364 26.576 65.1884 26.576C65.455 26.576 65.6897 26.56 65.8924 26.528C66.1057 26.496 66.287 26.4587 66.4364 26.416C66.5857 26.3627 66.7137 26.3093 66.8204 26.256C66.9377 26.2027 67.0444 26.1547 67.1404 26.112C67.2364 26.0693 67.327 26.0427 67.4124 26.032C67.5297 26.0213 67.647 26.048 67.7644 26.112C67.8817 26.176 67.9777 26.288 68.0524 26.448C68.1164 26.5547 68.159 26.656 68.1804 26.752C68.2124 26.8373 68.2284 26.9227 68.2284 27.008C68.2284 27.2213 68.1004 27.424 67.8444 27.616C67.5884 27.7973 67.2257 27.9467 66.7564 28.064C66.2977 28.192 65.7537 28.256 65.1244 28.256ZM62.9804 23.664H66.2604C66.4417 23.664 66.5804 23.6373 66.6764 23.584C66.7724 23.52 66.8204 23.392 66.8204 23.2C66.8204 22.9547 66.7457 22.736 66.5964 22.544C66.447 22.3413 66.2444 22.1867 65.9884 22.08C65.7324 21.9627 65.4337 21.904 65.0924 21.904C64.6977 21.904 64.3404 21.984 64.0204 22.144C63.7004 22.2933 63.4444 22.5013 63.2524 22.768C63.071 23.0347 62.9804 23.3333 62.9804 23.664ZM72.337 28.144C72.1237 28.144 71.953 28.1013 71.825 28.016C71.7077 27.9413 71.617 27.8453 71.553 27.728C71.4997 27.6107 71.4517 27.504 71.409 27.408L69.057 21.456C68.993 21.2533 68.961 21.0827 68.961 20.944C68.9717 20.8053 69.025 20.688 69.121 20.592C69.2277 20.4853 69.3823 20.3947 69.585 20.32C69.9263 20.1813 70.193 20.144 70.385 20.208C70.5877 20.272 70.737 20.4533 70.833 20.752L72.353 24.784L73.729 20.928C73.761 20.832 73.809 20.7307 73.873 20.624C73.937 20.5173 74.0277 20.4267 74.145 20.352C74.273 20.2667 74.4437 20.224 74.657 20.224C74.881 20.224 75.057 20.2667 75.185 20.352C75.313 20.4267 75.409 20.5173 75.473 20.624C75.5477 20.7307 75.5957 20.832 75.617 20.928L76.993 24.816L78.449 20.896C78.577 20.5653 78.737 20.3467 78.929 20.24C79.121 20.1333 79.3823 20.144 79.713 20.272C80.0117 20.4 80.2143 20.56 80.321 20.752C80.4277 20.9333 80.417 21.1733 80.289 21.472L77.921 27.408C77.8783 27.5147 77.825 27.6267 77.761 27.744C77.7077 27.8507 77.617 27.9413 77.489 28.016C77.3717 28.1013 77.2117 28.144 77.009 28.144C76.7957 28.144 76.625 28.1067 76.497 28.032C76.3797 27.968 76.289 27.8773 76.225 27.76C76.161 27.6427 76.1077 27.52 76.065 27.392L74.673 23.44L73.281 27.392C73.217 27.5413 73.1583 27.6747 73.105 27.792C73.0517 27.9093 72.9663 27.9947 72.849 28.048C72.7317 28.112 72.561 28.144 72.337 28.144ZM86.6559 28.16C86.3572 28.16 86.1385 28.112 85.9999 28.016C85.8612 27.9307 85.7759 27.8133 85.7439 27.664C85.7119 27.5147 85.6959 27.3493 85.6959 27.168V17.936C85.6959 17.5733 85.7652 17.3227 85.9039 17.184C86.0532 17.0453 86.3199 16.976 86.7039 16.976H92.9439C93.1252 16.976 93.2852 16.9973 93.4239 17.04C93.5732 17.072 93.6905 17.1573 93.7759 17.296C93.8612 17.424 93.9039 17.6427 93.9039 17.952C93.9039 18.2507 93.8559 18.4693 93.7599 18.608C93.6745 18.7467 93.5572 18.832 93.4079 18.864C93.2692 18.896 93.1092 18.912 92.9279 18.912H87.6319V21.6H91.2799C91.4612 21.6 91.6159 21.6213 91.7439 21.664C91.8719 21.696 91.9732 21.7707 92.0479 21.888C92.1225 22.0053 92.1599 22.2027 92.1599 22.48C92.1599 22.7467 92.1225 22.944 92.0479 23.072C91.9732 23.1893 91.8665 23.264 91.7279 23.296C91.5892 23.3173 91.4292 23.328 91.2479 23.328H87.6319V26.208H92.9439C93.1252 26.208 93.2852 26.2293 93.4239 26.272C93.5732 26.304 93.6905 26.3893 93.7759 26.528C93.8612 26.6667 93.9039 26.8853 93.9039 27.184C93.9039 27.4827 93.8559 27.7013 93.7599 27.84C93.6745 27.9787 93.5572 28.064 93.4079 28.096C93.2692 28.1387 93.1092 28.16 92.9279 28.16H86.6559ZM97.9938 28.192C97.7698 28.192 97.5831 28.1547 97.4338 28.08C97.2844 28.0053 97.1671 27.8827 97.0818 27.712L94.1698 21.616C94.0098 21.296 93.9671 21.04 94.0418 20.848C94.1164 20.656 94.3084 20.4853 94.6178 20.336C94.9378 20.176 95.1938 20.1227 95.3858 20.176C95.5778 20.2293 95.7484 20.4267 95.8978 20.768L97.9938 25.68L100.058 20.864C100.207 20.512 100.378 20.2933 100.57 20.208C100.762 20.112 101.039 20.1547 101.402 20.336C101.764 20.5173 101.956 20.72 101.978 20.944C101.999 21.1573 101.94 21.4027 101.802 21.68L98.9058 27.712C98.8204 27.872 98.7031 27.9893 98.5538 28.064C98.4044 28.1493 98.2178 28.192 97.9938 28.192ZM106.562 28.256C105.869 28.256 105.261 28.144 104.738 27.92C104.226 27.696 103.794 27.392 103.442 27.008C103.101 26.6133 102.839 26.176 102.658 25.696C102.487 25.2053 102.402 24.6987 102.402 24.176C102.402 23.408 102.578 22.7253 102.93 22.128C103.282 21.5307 103.767 21.0613 104.386 20.72C105.015 20.3787 105.735 20.208 106.546 20.208C107.122 20.208 107.629 20.2987 108.066 20.48C108.503 20.6613 108.866 20.9013 109.154 21.2C109.453 21.488 109.677 21.808 109.826 22.16C109.986 22.512 110.066 22.8533 110.066 23.184C110.066 23.7493 109.927 24.16 109.65 24.416C109.383 24.672 109.047 24.8 108.642 24.8H104.418C104.429 25.1627 104.541 25.4773 104.754 25.744C104.978 26.0107 105.255 26.2187 105.586 26.368C105.927 26.5067 106.274 26.576 106.626 26.576C106.893 26.576 107.127 26.56 107.33 26.528C107.543 26.496 107.725 26.4587 107.874 26.416C108.023 26.3627 108.151 26.3093 108.258 26.256C108.375 26.2027 108.482 26.1547 108.578 26.112C108.674 26.0693 108.765 26.0427 108.85 26.032C108.967 26.0213 109.085 26.048 109.202 26.112C109.319 26.176 109.415 26.288 109.49 26.448C109.554 26.5547 109.597 26.656 109.618 26.752C109.65 26.8373 109.666 26.9227 109.666 27.008C109.666 27.2213 109.538 27.424 109.282 27.616C109.026 27.7973 108.663 27.9467 108.194 28.064C107.735 28.192 107.191 28.256 106.562 28.256ZM104.418 23.664H107.698C107.879 23.664 108.018 23.6373 108.114 23.584C108.21 23.52 108.258 23.392 108.258 23.2C108.258 22.9547 108.183 22.736 108.034 22.544C107.885 22.3413 107.682 22.1867 107.426 22.08C107.17 21.9627 106.871 21.904 106.53 21.904C106.135 21.904 105.778 21.984 105.458 22.144C105.138 22.2933 104.882 22.5013 104.69 22.768C104.509 23.0347 104.418 23.3333 104.418 23.664ZM112.323 28.144C112.035 28.144 111.822 28.096 111.683 28C111.555 27.9147 111.475 27.8027 111.443 27.664C111.411 27.5147 111.395 27.3493 111.395 27.168V21.184C111.395 21.0133 111.411 20.8587 111.443 20.72C111.475 20.5813 111.56 20.4747 111.699 20.4C111.838 20.3147 112.051 20.272 112.339 20.272C112.595 20.272 112.787 20.304 112.915 20.368C113.043 20.432 113.128 20.512 113.171 20.608C113.214 20.704 113.235 20.8 113.235 20.896C113.246 20.992 113.256 21.0667 113.267 21.12L113.203 21.632C113.267 21.4613 113.374 21.296 113.523 21.136C113.672 20.976 113.854 20.832 114.067 20.704C114.28 20.5653 114.51 20.4587 114.755 20.384C115.011 20.2987 115.272 20.256 115.539 20.256C116.04 20.256 116.488 20.3467 116.883 20.528C117.278 20.7093 117.614 20.9653 117.891 21.296C118.179 21.6267 118.398 22.0213 118.547 22.48C118.696 22.928 118.771 23.4347 118.771 24V27.184C118.771 27.3653 118.75 27.5307 118.707 27.68C118.675 27.8187 118.595 27.9307 118.467 28.016C118.339 28.1013 118.12 28.144 117.811 28.144C117.512 28.144 117.294 28.096 117.155 28C117.016 27.9147 116.931 27.8027 116.899 27.664C116.867 27.5147 116.851 27.3493 116.851 27.168V23.984C116.851 23.6 116.782 23.2693 116.643 22.992C116.515 22.7147 116.323 22.5013 116.067 22.352C115.822 22.2027 115.507 22.128 115.123 22.128C114.75 22.128 114.424 22.208 114.147 22.368C113.87 22.5173 113.656 22.7307 113.507 23.008C113.358 23.2853 113.283 23.6107 113.283 23.984V27.184C113.283 27.3653 113.267 27.5307 113.235 27.68C113.203 27.8187 113.118 27.9307 112.979 28.016C112.851 28.1013 112.632 28.144 112.323 28.144ZM124.064 28.16C123.541 28.16 123.093 28.1067 122.72 28C122.346 27.8933 122.042 27.728 121.808 27.504C121.573 27.28 121.397 26.992 121.28 26.64C121.173 26.2773 121.12 25.8507 121.12 25.36V18.576C121.12 18.384 121.136 18.2187 121.168 18.08C121.21 17.9413 121.296 17.8347 121.424 17.76C121.562 17.6747 121.776 17.632 122.064 17.632C122.362 17.632 122.576 17.6747 122.704 17.76C122.842 17.8453 122.928 17.9627 122.96 18.112C123.002 18.2507 123.024 18.4053 123.024 18.576V25.296C123.024 25.52 123.04 25.7013 123.072 25.84C123.114 25.9787 123.173 26.0853 123.248 26.16C123.333 26.224 123.44 26.272 123.568 26.304C123.706 26.3253 123.872 26.336 124.064 26.336C124.266 26.336 124.437 26.352 124.576 26.384C124.725 26.416 124.837 26.496 124.912 26.624C124.986 26.7413 125.024 26.9387 125.024 27.216C125.024 27.5147 124.976 27.7333 124.88 27.872C124.794 28 124.677 28.08 124.528 28.112C124.389 28.144 124.234 28.16 124.064 28.16ZM120.464 20.432L122.112 20.448L124.32 20.384C124.501 20.384 124.661 20.4053 124.8 20.448C124.949 20.48 125.066 20.5653 125.152 20.704C125.237 20.832 125.28 21.0453 125.28 21.344C125.28 21.6213 125.237 21.8293 125.152 21.968C125.066 22.1067 124.954 22.1973 124.816 22.24C124.677 22.272 124.517 22.288 124.336 22.288L122.192 22.256L120.416 22.272C120.149 22.2613 119.962 22.1867 119.856 22.048C119.76 21.8987 119.712 21.6587 119.712 21.328C119.712 21.0187 119.77 20.7947 119.888 20.656C120.016 20.5067 120.208 20.432 120.464 20.432Z" fill="#1EA4FF"/>
<defs>
<clipPath id="clip0_16792_123289">
<rect width="24" height="24" fill="white" transform="translate(15 10.5)"/>
</clipPath>
</defs>
</svg>
