<svg width="154" height="45" viewBox="0 0 154 45" fill="none" xmlns="http://www.w3.org/2000/svg">
<rect width="154" height="45" rx="5" fill="#EBF3FE"/>
<g clip-path="url(#clip0_17174_123211)">
<path d="M27 15.5V29.5" stroke="#1EA4FF" stroke-width="2" stroke-linecap="round" stroke-linejoin="round"/>
<path d="M20 22.5H34" stroke="#1EA4FF" stroke-width="2" stroke-linecap="round" stroke-linejoin="round"/>
</g>
<path d="M51.2373 28.144C50.9493 28.144 50.736 28.096 50.5973 28C50.4693 27.9147 50.384 27.7973 50.3413 27.648C50.3093 27.4987 50.2933 27.3387 50.2933 27.168V17.888C50.2933 17.728 50.3146 17.5787 50.3573 17.44C50.4 17.3013 50.4906 17.1893 50.6293 17.104C50.7786 17.0187 50.9973 16.976 51.2853 16.976C51.6053 16.976 51.824 17.0133 51.9413 17.088C52.0693 17.152 52.1866 17.248 52.2933 17.376L57.6373 24.848V17.888C57.6373 17.728 57.6586 17.5787 57.7013 17.44C57.744 17.3013 57.8346 17.1893 57.9733 17.104C58.112 17.0187 58.3253 16.976 58.6133 16.976C58.912 16.976 59.1253 17.024 59.2533 17.12C59.392 17.2053 59.4773 17.3227 59.5093 17.472C59.552 17.6213 59.5733 17.7867 59.5733 17.968V27.184C59.5733 27.3547 59.5466 27.5147 59.4933 27.664C59.4506 27.8027 59.3546 27.9147 59.2053 28C59.0666 28.096 58.848 28.144 58.5493 28.144C58.3146 28.144 58.128 28.1227 57.9893 28.08C57.8613 28.0373 57.744 27.9467 57.6373 27.808L52.2133 20.352V27.184C52.2133 27.3547 52.192 27.5147 52.1493 27.664C52.1173 27.8027 52.032 27.9147 51.8933 28C51.7546 28.096 51.536 28.144 51.2373 28.144ZM65.2103 28.256C64.517 28.256 63.909 28.144 63.3863 27.92C62.8743 27.696 62.4423 27.392 62.0903 27.008C61.749 26.6133 61.4876 26.176 61.3063 25.696C61.1356 25.2053 61.0503 24.6987 61.0503 24.176C61.0503 23.408 61.2263 22.7253 61.5783 22.128C61.9303 21.5307 62.4156 21.0613 63.0343 20.72C63.6636 20.3787 64.3836 20.208 65.1943 20.208C65.7703 20.208 66.277 20.2987 66.7143 20.48C67.1516 20.6613 67.5143 20.9013 67.8023 21.2C68.101 21.488 68.325 21.808 68.4743 22.16C68.6343 22.512 68.7143 22.8533 68.7143 23.184C68.7143 23.7493 68.5756 24.16 68.2983 24.416C68.0316 24.672 67.6956 24.8 67.2903 24.8H63.0663C63.077 25.1627 63.189 25.4773 63.4023 25.744C63.6263 26.0107 63.9036 26.2187 64.2343 26.368C64.5756 26.5067 64.9223 26.576 65.2743 26.576C65.541 26.576 65.7756 26.56 65.9783 26.528C66.1916 26.496 66.373 26.4587 66.5223 26.416C66.6716 26.3627 66.7996 26.3093 66.9063 26.256C67.0236 26.2027 67.1303 26.1547 67.2263 26.112C67.3223 26.0693 67.413 26.0427 67.4983 26.032C67.6156 26.0213 67.733 26.048 67.8503 26.112C67.9676 26.176 68.0636 26.288 68.1383 26.448C68.2023 26.5547 68.245 26.656 68.2663 26.752C68.2983 26.8373 68.3143 26.9227 68.3143 27.008C68.3143 27.2213 68.1863 27.424 67.9303 27.616C67.6743 27.7973 67.3116 27.9467 66.8423 28.064C66.3836 28.192 65.8396 28.256 65.2103 28.256ZM63.0663 23.664H66.3463C66.5276 23.664 66.6663 23.6373 66.7623 23.584C66.8583 23.52 66.9063 23.392 66.9063 23.2C66.9063 22.9547 66.8316 22.736 66.6823 22.544C66.533 22.3413 66.3303 22.1867 66.0743 22.08C65.8183 21.9627 65.5196 21.904 65.1783 21.904C64.7836 21.904 64.4263 21.984 64.1063 22.144C63.7863 22.2933 63.5303 22.5013 63.3383 22.768C63.157 23.0347 63.0663 23.3333 63.0663 23.664ZM72.4229 28.144C72.2096 28.144 72.0389 28.1013 71.9109 28.016C71.7936 27.9413 71.7029 27.8453 71.6389 27.728C71.5856 27.6107 71.5376 27.504 71.4949 27.408L69.1429 21.456C69.0789 21.2533 69.0469 21.0827 69.0469 20.944C69.0576 20.8053 69.1109 20.688 69.2069 20.592C69.3136 20.4853 69.4683 20.3947 69.6709 20.32C70.0123 20.1813 70.2789 20.144 70.4709 20.208C70.6736 20.272 70.8229 20.4533 70.9189 20.752L72.4389 24.784L73.8149 20.928C73.8469 20.832 73.8949 20.7307 73.9589 20.624C74.0229 20.5173 74.1136 20.4267 74.2309 20.352C74.3589 20.2667 74.5296 20.224 74.7429 20.224C74.9669 20.224 75.1429 20.2667 75.2709 20.352C75.3989 20.4267 75.4949 20.5173 75.5589 20.624C75.6336 20.7307 75.6816 20.832 75.7029 20.928L77.0789 24.816L78.5349 20.896C78.6629 20.5653 78.8229 20.3467 79.0149 20.24C79.2069 20.1333 79.4683 20.144 79.7989 20.272C80.0976 20.4 80.3003 20.56 80.4069 20.752C80.5136 20.9333 80.5029 21.1733 80.3749 21.472L78.0069 27.408C77.9643 27.5147 77.9109 27.6267 77.8469 27.744C77.7936 27.8507 77.7029 27.9413 77.5749 28.016C77.4576 28.1013 77.2976 28.144 77.0949 28.144C76.8816 28.144 76.7109 28.1067 76.5829 28.032C76.4656 27.968 76.3749 27.8773 76.3109 27.76C76.2469 27.6427 76.1936 27.52 76.1509 27.392L74.7589 23.44L73.3669 27.392C73.3029 27.5413 73.2443 27.6747 73.1909 27.792C73.1376 27.9093 73.0523 27.9947 72.9349 28.048C72.8176 28.112 72.6469 28.144 72.4229 28.144ZM86.7098 28.144C86.4111 28.144 86.1925 28.1013 86.0538 28.016C85.9258 27.9307 85.8405 27.8133 85.7978 27.664C85.7658 27.504 85.7498 27.3387 85.7498 27.168V17.936C85.7498 17.7653 85.7711 17.6107 85.8138 17.472C85.8565 17.3227 85.9418 17.2053 86.0698 17.12C86.2085 17.024 86.4271 16.976 86.7258 16.976H90.1498C90.6405 16.976 91.1045 17.056 91.5418 17.216C91.9898 17.3653 92.3898 17.6 92.7418 17.92C93.0938 18.2293 93.3711 18.624 93.5738 19.104C93.7871 19.5733 93.8938 20.1227 93.8938 20.752C93.8938 21.168 93.8298 21.584 93.7018 22C93.5738 22.4053 93.3818 22.784 93.1258 23.136C92.8805 23.4773 92.5658 23.7707 92.1818 24.016C91.7978 24.2613 91.3445 24.4213 90.8218 24.496H87.6858V27.184C87.6858 27.3547 87.6645 27.5147 87.6218 27.664C87.5898 27.8133 87.5045 27.9307 87.3658 28.016C87.2378 28.1013 87.0191 28.144 86.7098 28.144ZM93.5258 27.904C93.2165 28.1173 92.9605 28.1973 92.7578 28.144C92.5658 28.0907 92.3738 27.92 92.1818 27.632L89.4938 23.568L91.6538 23.28L93.7818 26.512C93.9311 26.7253 94.0218 26.9067 94.0538 27.056C94.0858 27.2053 94.0591 27.344 93.9738 27.472C93.8885 27.6 93.7391 27.744 93.5258 27.904ZM87.6858 22.576H90.3898C90.5818 22.576 90.7685 22.544 90.9498 22.48C91.1418 22.4053 91.3125 22.2933 91.4618 22.144C91.6111 21.984 91.7285 21.792 91.8138 21.568C91.9098 21.3333 91.9578 21.056 91.9578 20.736C91.9578 20.352 91.8831 20.0267 91.7338 19.76C91.5845 19.4827 91.3711 19.2747 91.0938 19.136C90.8271 18.9867 90.5018 18.912 90.1178 18.912H87.6858V22.576ZM98.9759 28.256C98.2826 28.256 97.6746 28.144 97.1519 27.92C96.6399 27.696 96.2079 27.392 95.8559 27.008C95.5146 26.6133 95.2533 26.176 95.0719 25.696C94.9013 25.2053 94.8159 24.6987 94.8159 24.176C94.8159 23.408 94.9919 22.7253 95.3439 22.128C95.6959 21.5307 96.1813 21.0613 96.7999 20.72C97.4293 20.3787 98.1493 20.208 98.9599 20.208C99.5359 20.208 100.043 20.2987 100.48 20.48C100.917 20.6613 101.28 20.9013 101.568 21.2C101.867 21.488 102.091 21.808 102.24 22.16C102.4 22.512 102.48 22.8533 102.48 23.184C102.48 23.7493 102.341 24.16 102.064 24.416C101.797 24.672 101.461 24.8 101.056 24.8H96.8319C96.8426 25.1627 96.9546 25.4773 97.1679 25.744C97.3919 26.0107 97.6693 26.2187 97.9999 26.368C98.3413 26.5067 98.6879 26.576 99.0399 26.576C99.3066 26.576 99.5413 26.56 99.7439 26.528C99.9573 26.496 100.139 26.4587 100.288 26.416C100.437 26.3627 100.565 26.3093 100.672 26.256C100.789 26.2027 100.896 26.1547 100.992 26.112C101.088 26.0693 101.179 26.0427 101.264 26.032C101.381 26.0213 101.499 26.048 101.616 26.112C101.733 26.176 101.829 26.288 101.904 26.448C101.968 26.5547 102.011 26.656 102.032 26.752C102.064 26.8373 102.08 26.9227 102.08 27.008C102.08 27.2213 101.952 27.424 101.696 27.616C101.44 27.7973 101.077 27.9467 100.608 28.064C100.149 28.192 99.6053 28.256 98.9759 28.256ZM96.8319 23.664H100.112C100.293 23.664 100.432 23.6373 100.528 23.584C100.624 23.52 100.672 23.392 100.672 23.2C100.672 22.9547 100.597 22.736 100.448 22.544C100.299 22.3413 100.096 22.1867 99.8399 22.08C99.5839 21.9627 99.2853 21.904 98.9439 21.904C98.5493 21.904 98.1919 21.984 97.8719 22.144C97.5519 22.2933 97.2959 22.5013 97.1039 22.768C96.9226 23.0347 96.8319 23.3333 96.8319 23.664ZM106.189 28.144C105.975 28.144 105.805 28.1013 105.677 28.016C105.559 27.9413 105.469 27.8453 105.405 27.728C105.351 27.6107 105.303 27.504 105.261 27.408L102.909 21.456C102.845 21.2533 102.813 21.0827 102.813 20.944C102.823 20.8053 102.877 20.688 102.973 20.592C103.079 20.4853 103.234 20.3947 103.437 20.32C103.778 20.1813 104.045 20.144 104.237 20.208C104.439 20.272 104.589 20.4533 104.685 20.752L106.205 24.784L107.581 20.928C107.613 20.832 107.661 20.7307 107.725 20.624C107.789 20.5173 107.879 20.4267 107.997 20.352C108.125 20.2667 108.295 20.224 108.509 20.224C108.733 20.224 108.909 20.2667 109.037 20.352C109.165 20.4267 109.261 20.5173 109.325 20.624C109.399 20.7307 109.447 20.832 109.469 20.928L110.845 24.816L112.301 20.896C112.429 20.5653 112.589 20.3467 112.781 20.24C112.973 20.1333 113.234 20.144 113.565 20.272C113.863 20.4 114.066 20.56 114.173 20.752C114.279 20.9333 114.269 21.1733 114.141 21.472L111.773 27.408C111.73 27.5147 111.677 27.6267 111.613 27.744C111.559 27.8507 111.469 27.9413 111.341 28.016C111.223 28.1013 111.063 28.144 110.861 28.144C110.647 28.144 110.477 28.1067 110.349 28.032C110.231 27.968 110.141 27.8773 110.077 27.76C110.013 27.6427 109.959 27.52 109.917 27.392L108.525 23.44L107.133 27.392C107.069 27.5413 107.01 27.6747 106.957 27.792C106.903 27.9093 106.818 27.9947 106.701 28.048C106.583 28.112 106.413 28.144 106.189 28.144ZM121.478 28.128C121.169 28.128 120.939 28.0693 120.79 27.952C120.641 27.8347 120.566 27.6747 120.566 27.472L120.678 26.944C120.593 27.0827 120.449 27.248 120.246 27.44C120.043 27.6213 119.777 27.7867 119.446 27.936C119.115 28.0747 118.715 28.144 118.246 28.144C117.745 28.144 117.27 28.0427 116.822 27.84C116.385 27.6267 115.995 27.3387 115.654 26.976C115.323 26.6027 115.057 26.1813 114.854 25.712C114.662 25.232 114.566 24.72 114.566 24.176C114.566 23.6533 114.662 23.1627 114.854 22.704C115.057 22.2347 115.329 21.8187 115.67 21.456C116.011 21.0933 116.401 20.8107 116.838 20.608C117.286 20.3947 117.755 20.288 118.246 20.288C118.683 20.288 119.051 20.3467 119.35 20.464C119.659 20.5813 119.921 20.7307 120.134 20.912C120.347 21.0827 120.523 21.264 120.662 21.456L120.566 20.992C120.566 20.7573 120.641 20.5813 120.79 20.464C120.939 20.336 121.174 20.272 121.494 20.272C121.793 20.272 122.006 20.32 122.134 20.416C122.262 20.5013 122.342 20.624 122.374 20.784C122.406 20.9333 122.422 21.104 122.422 21.296V27.152C122.422 27.3333 122.406 27.4987 122.374 27.648C122.342 27.7973 122.257 27.9147 122.118 28C121.99 28.0853 121.777 28.128 121.478 28.128ZM118.534 26.272C118.897 26.272 119.222 26.1813 119.51 26C119.798 25.8187 120.027 25.5733 120.198 25.264C120.379 24.944 120.47 24.592 120.47 24.208C120.47 23.792 120.379 23.4293 120.198 23.12C120.017 22.8107 119.777 22.5707 119.478 22.4C119.19 22.2187 118.865 22.128 118.502 22.128C118.107 22.128 117.755 22.224 117.446 22.416C117.137 22.5973 116.891 22.848 116.71 23.168C116.539 23.4773 116.454 23.8293 116.454 24.224C116.454 24.608 116.545 24.9547 116.726 25.264C116.907 25.5733 117.153 25.8187 117.462 26C117.782 26.1813 118.139 26.272 118.534 26.272ZM124.971 28.16C124.683 28.16 124.47 28.112 124.331 28.016C124.203 27.9307 124.123 27.8133 124.091 27.664C124.059 27.5147 124.043 27.3493 124.043 27.168V21.232C124.043 21.04 124.059 20.8747 124.091 20.736C124.123 20.5867 124.203 20.4747 124.331 20.4C124.47 20.3147 124.689 20.272 124.987 20.272C125.275 20.272 125.483 20.3093 125.611 20.384C125.75 20.4587 125.835 20.5547 125.867 20.672C125.91 20.7787 125.931 20.8853 125.931 20.992L125.803 21.28C125.857 21.1947 125.931 21.0933 126.027 20.976C126.123 20.848 126.251 20.7253 126.411 20.608C126.571 20.48 126.763 20.3787 126.987 20.304C127.211 20.2187 127.478 20.176 127.787 20.176C127.915 20.176 128.049 20.192 128.187 20.224C128.337 20.2453 128.481 20.2827 128.619 20.336C128.769 20.3787 128.902 20.4373 129.019 20.512C129.137 20.5867 129.227 20.6773 129.291 20.784C129.355 20.88 129.387 20.992 129.387 21.12C129.387 21.4613 129.302 21.7493 129.131 21.984C128.961 22.2187 128.758 22.336 128.523 22.336C128.363 22.336 128.246 22.32 128.171 22.288C128.097 22.256 128.033 22.2187 127.979 22.176C127.937 22.1333 127.867 22.096 127.771 22.064C127.686 22.032 127.547 22.016 127.355 22.016C127.195 22.016 127.03 22.0427 126.859 22.096C126.699 22.1493 126.55 22.2293 126.411 22.336C126.273 22.4427 126.161 22.5813 126.075 22.752C125.99 22.912 125.947 23.0987 125.947 23.312V27.2C125.947 27.3813 125.931 27.5467 125.899 27.696C125.867 27.8347 125.782 27.9467 125.643 28.032C125.505 28.1173 125.281 28.16 124.971 28.16ZM133.576 28.144C133.085 28.144 132.621 28.0427 132.184 27.84C131.746 27.6373 131.362 27.36 131.032 27.008C130.701 26.6453 130.44 26.224 130.248 25.744C130.056 25.2533 129.96 24.7307 129.96 24.176C129.96 23.6427 130.056 23.1413 130.248 22.672C130.44 22.192 130.701 21.776 131.032 21.424C131.373 21.0613 131.762 20.7787 132.2 20.576C132.637 20.3733 133.096 20.272 133.576 20.272C134.088 20.272 134.546 20.3733 134.952 20.576C135.357 20.7787 135.698 21.0613 135.976 21.424C136.264 21.776 136.482 22.192 136.632 22.672C136.781 23.1413 136.861 23.648 136.872 24.192C136.872 24.736 136.797 25.248 136.648 25.728C136.509 26.1973 136.296 26.6133 136.008 26.976C135.73 27.3387 135.384 27.6267 134.968 27.84C134.562 28.0427 134.098 28.144 133.576 28.144ZM133.832 26.272C134.205 26.272 134.536 26.1867 134.824 26.016C135.122 25.8347 135.357 25.5893 135.528 25.28C135.709 24.9707 135.8 24.6187 135.8 24.224C135.8 23.8187 135.709 23.4613 135.528 23.152C135.357 22.8427 135.122 22.5973 134.824 22.416C134.536 22.2347 134.205 22.144 133.832 22.144C133.458 22.144 133.122 22.2347 132.824 22.416C132.525 22.5867 132.285 22.832 132.104 23.152C131.933 23.4613 131.848 23.8187 131.848 24.224C131.848 24.6187 131.933 24.9707 132.104 25.28C132.285 25.5893 132.525 25.8347 132.824 26.016C133.133 26.1867 133.469 26.272 133.832 26.272ZM136.792 28.144C136.493 28.144 136.274 28.096 136.136 28C135.997 27.8933 135.906 27.728 135.864 27.504V17.648C135.864 17.4667 135.874 17.3067 135.896 17.168C135.928 17.0187 136.008 16.9013 136.136 16.816C136.274 16.72 136.488 16.672 136.776 16.672C137.085 16.672 137.304 16.7147 137.432 16.8C137.56 16.8853 137.64 17.0027 137.672 17.152C137.714 17.2907 137.736 17.4507 137.736 17.632V27.168C137.736 27.3493 137.72 27.5147 137.688 27.664C137.656 27.8133 137.57 27.9307 137.432 28.016C137.304 28.1013 137.09 28.144 136.792 28.144Z" fill="#1EA4FF"/>
<defs>
<clipPath id="clip0_17174_123211">
<rect width="24" height="24" fill="white" transform="translate(15 10.5)"/>
</clipPath>
</defs>
</svg>
