<svg width="175" height="45" viewBox="0 0 175 45" fill="none" xmlns="http://www.w3.org/2000/svg">
<rect width="175" height="45" rx="5" fill="#1EA4FF"/>
<g clip-path="url(#clip0_16806_123359)">
<path d="M27 15.5V29.5" stroke="white" stroke-width="2" stroke-linecap="round" stroke-linejoin="round"/>
<path d="M20 22.5H34" stroke="white" stroke-width="2" stroke-linecap="round" stroke-linejoin="round"/>
</g>
<path d="M51.0186 28.144C50.7306 28.144 50.5172 28.096 50.3786 28C50.2506 27.9147 50.1652 27.7973 50.1226 27.648C50.0906 27.4987 50.0746 27.3387 50.0746 27.168V17.888C50.0746 17.728 50.0959 17.5787 50.1386 17.44C50.1812 17.3013 50.2719 17.1893 50.4106 17.104C50.5599 17.0187 50.7786 16.976 51.0666 16.976C51.3866 16.976 51.6052 17.0133 51.7226 17.088C51.8506 17.152 51.9679 17.248 52.0746 17.376L57.4186 24.848V17.888C57.4186 17.728 57.4399 17.5787 57.4826 17.44C57.5252 17.3013 57.6159 17.1893 57.7546 17.104C57.8932 17.0187 58.1066 16.976 58.3946 16.976C58.6932 16.976 58.9066 17.024 59.0346 17.12C59.1732 17.2053 59.2586 17.3227 59.2906 17.472C59.3332 17.6213 59.3546 17.7867 59.3546 17.968V27.184C59.3546 27.3547 59.3279 27.5147 59.2746 27.664C59.2319 27.8027 59.1359 27.9147 58.9866 28C58.8479 28.096 58.6292 28.144 58.3306 28.144C58.0959 28.144 57.9092 28.1227 57.7706 28.08C57.6426 28.0373 57.5252 27.9467 57.4186 27.808L51.9946 20.352V27.184C51.9946 27.3547 51.9732 27.5147 51.9306 27.664C51.8986 27.8027 51.8132 27.9147 51.6746 28C51.5359 28.096 51.3172 28.144 51.0186 28.144ZM64.9916 28.256C64.2982 28.256 63.6902 28.144 63.1676 27.92C62.6556 27.696 62.2236 27.392 61.8716 27.008C61.5302 26.6133 61.2689 26.176 61.0876 25.696C60.9169 25.2053 60.8316 24.6987 60.8316 24.176C60.8316 23.408 61.0076 22.7253 61.3596 22.128C61.7116 21.5307 62.1969 21.0613 62.8156 20.72C63.4449 20.3787 64.1649 20.208 64.9756 20.208C65.5516 20.208 66.0582 20.2987 66.4956 20.48C66.9329 20.6613 67.2956 20.9013 67.5836 21.2C67.8822 21.488 68.1062 21.808 68.2556 22.16C68.4156 22.512 68.4956 22.8533 68.4956 23.184C68.4956 23.7493 68.3569 24.16 68.0796 24.416C67.8129 24.672 67.4769 24.8 67.0716 24.8H62.8476C62.8582 25.1627 62.9702 25.4773 63.1836 25.744C63.4076 26.0107 63.6849 26.2187 64.0156 26.368C64.3569 26.5067 64.7036 26.576 65.0556 26.576C65.3222 26.576 65.5569 26.56 65.7596 26.528C65.9729 26.496 66.1542 26.4587 66.3036 26.416C66.4529 26.3627 66.5809 26.3093 66.6876 26.256C66.8049 26.2027 66.9116 26.1547 67.0076 26.112C67.1036 26.0693 67.1942 26.0427 67.2796 26.032C67.3969 26.0213 67.5142 26.048 67.6316 26.112C67.7489 26.176 67.8449 26.288 67.9196 26.448C67.9836 26.5547 68.0262 26.656 68.0476 26.752C68.0796 26.8373 68.0956 26.9227 68.0956 27.008C68.0956 27.2213 67.9676 27.424 67.7116 27.616C67.4556 27.7973 67.0929 27.9467 66.6236 28.064C66.1649 28.192 65.6209 28.256 64.9916 28.256ZM62.8476 23.664H66.1276C66.3089 23.664 66.4476 23.6373 66.5436 23.584C66.6396 23.52 66.6876 23.392 66.6876 23.2C66.6876 22.9547 66.6129 22.736 66.4636 22.544C66.3142 22.3413 66.1116 22.1867 65.8556 22.08C65.5996 21.9627 65.3009 21.904 64.9596 21.904C64.5649 21.904 64.2076 21.984 63.8876 22.144C63.5676 22.2933 63.3116 22.5013 63.1196 22.768C62.9382 23.0347 62.8476 23.3333 62.8476 23.664ZM72.2042 28.144C71.9909 28.144 71.8202 28.1013 71.6922 28.016C71.5749 27.9413 71.4842 27.8453 71.4202 27.728C71.3669 27.6107 71.3189 27.504 71.2762 27.408L68.9242 21.456C68.8602 21.2533 68.8282 21.0827 68.8282 20.944C68.8389 20.8053 68.8922 20.688 68.9882 20.592C69.0949 20.4853 69.2495 20.3947 69.4522 20.32C69.7935 20.1813 70.0602 20.144 70.2522 20.208C70.4549 20.272 70.6042 20.4533 70.7002 20.752L72.2202 24.784L73.5962 20.928C73.6282 20.832 73.6762 20.7307 73.7402 20.624C73.8042 20.5173 73.8949 20.4267 74.0122 20.352C74.1402 20.2667 74.3109 20.224 74.5242 20.224C74.7482 20.224 74.9242 20.2667 75.0522 20.352C75.1802 20.4267 75.2762 20.5173 75.3402 20.624C75.4149 20.7307 75.4629 20.832 75.4842 20.928L76.8602 24.816L78.3162 20.896C78.4442 20.5653 78.6042 20.3467 78.7962 20.24C78.9882 20.1333 79.2495 20.144 79.5802 20.272C79.8789 20.4 80.0815 20.56 80.1882 20.752C80.2949 20.9333 80.2842 21.1733 80.1562 21.472L77.7882 27.408C77.7455 27.5147 77.6922 27.6267 77.6282 27.744C77.5749 27.8507 77.4842 27.9413 77.3562 28.016C77.2389 28.1013 77.0789 28.144 76.8762 28.144C76.6629 28.144 76.4922 28.1067 76.3642 28.032C76.2469 27.968 76.1562 27.8773 76.0922 27.76C76.0282 27.6427 75.9749 27.52 75.9322 27.392L74.5402 23.44L73.1482 27.392C73.0842 27.5413 73.0255 27.6747 72.9722 27.792C72.9189 27.9093 72.8335 27.9947 72.7162 28.048C72.5989 28.112 72.4282 28.144 72.2042 28.144ZM88.8751 28.304C88.3951 28.304 87.9577 28.2453 87.5631 28.128C87.1791 28.0107 86.8377 27.8613 86.5391 27.68C86.2511 27.4987 86.0057 27.312 85.8031 27.12C85.6004 26.928 85.4511 26.752 85.3551 26.592C85.2164 26.4 85.1257 26.2293 85.0831 26.08C85.0404 25.9307 85.0511 25.7867 85.1151 25.648C85.1897 25.4987 85.3231 25.344 85.5151 25.184C85.7071 25.0133 85.8831 24.928 86.0431 24.928C86.2137 24.9173 86.3737 24.9653 86.5231 25.072C86.6831 25.1787 86.8377 25.328 86.9871 25.52C87.2431 25.8613 87.5311 26.1067 87.8511 26.256C88.1711 26.3947 88.4911 26.464 88.8111 26.464C89.2271 26.464 89.5897 26.4107 89.8991 26.304C90.2084 26.1867 90.4484 26.016 90.6191 25.792C90.8004 25.568 90.8911 25.28 90.8911 24.928C90.8911 24.64 90.8004 24.4053 90.6191 24.224C90.4484 24.032 90.2191 23.872 89.9311 23.744C89.6431 23.6053 89.3177 23.4827 88.9551 23.376C88.6031 23.2587 88.2457 23.1307 87.8831 22.992C87.6271 22.9067 87.3711 22.8053 87.1151 22.688C86.8591 22.56 86.6191 22.416 86.3951 22.256C86.1817 22.096 85.9897 21.9093 85.8191 21.696C85.6591 21.472 85.5311 21.216 85.4351 20.928C85.3391 20.64 85.2911 20.304 85.2911 19.92C85.2911 19.312 85.4404 18.7787 85.7391 18.32C86.0377 17.8507 86.4537 17.4827 86.9871 17.216C87.5204 16.9387 88.1284 16.8 88.8111 16.8C89.2484 16.8 89.6377 16.8427 89.9791 16.928C90.3311 17.0027 90.6297 17.104 90.8751 17.232C91.1311 17.3493 91.3391 17.472 91.4991 17.6C91.6697 17.7173 91.7924 17.8187 91.8671 17.904C92.1124 18.1493 92.2457 18.3573 92.2671 18.528C92.2991 18.688 92.2031 18.9067 91.9791 19.184C91.7551 19.472 91.5364 19.632 91.3231 19.664C91.1204 19.6853 90.8911 19.6 90.6351 19.408C90.4644 19.2267 90.2937 19.0827 90.1231 18.976C89.9524 18.8587 89.7604 18.7733 89.5471 18.72C89.3444 18.6667 89.0937 18.64 88.7951 18.64C88.5817 18.64 88.3737 18.672 88.1711 18.736C87.9791 18.7893 87.8137 18.8747 87.6751 18.992C87.5364 19.0987 87.4244 19.232 87.3391 19.392C87.2644 19.552 87.2271 19.7333 87.2271 19.936C87.2271 20.2133 87.3017 20.4427 87.4511 20.624C87.6111 20.7947 87.8244 20.9387 88.0911 21.056C88.3577 21.1627 88.6564 21.264 88.9871 21.36C89.3177 21.456 89.6537 21.5573 89.9951 21.664C90.3471 21.7813 90.6937 21.92 91.0351 22.08C91.3764 22.24 91.6804 22.4427 91.9471 22.688C92.2137 22.9227 92.4271 23.2213 92.5871 23.584C92.7471 23.936 92.8271 24.368 92.8271 24.88C92.8271 25.4667 92.7151 25.9787 92.4911 26.416C92.2671 26.8533 91.9631 27.2107 91.5791 27.488C91.1951 27.7653 90.7684 27.968 90.2991 28.096C89.8297 28.2347 89.3551 28.304 88.8751 28.304ZM97.4319 28.144C96.9413 28.144 96.4879 28.0587 96.0719 27.888C95.6666 27.7067 95.3093 27.4507 94.9999 27.12C94.6906 26.7893 94.4506 26.3947 94.2799 25.936C94.1093 25.4773 94.0239 24.9707 94.0239 24.416V21.232C94.0239 21.0507 94.0399 20.8907 94.0719 20.752C94.1039 20.6027 94.1893 20.4853 94.3279 20.4C94.4666 20.3147 94.6799 20.272 94.9679 20.272C95.2773 20.272 95.4959 20.3147 95.6239 20.4C95.7626 20.4853 95.8479 20.6027 95.8799 20.752C95.9119 20.9013 95.9279 21.0667 95.9279 21.248V24.416C95.9279 24.8 95.9919 25.1307 96.1199 25.408C96.2586 25.6853 96.4559 25.904 96.7119 26.064C96.9679 26.2133 97.2826 26.288 97.6559 26.288C98.0399 26.288 98.3653 26.2133 98.6319 26.064C98.9093 25.904 99.1226 25.6853 99.2719 25.408C99.4213 25.12 99.4959 24.7893 99.4959 24.416V21.216C99.4959 21.0347 99.5119 20.8747 99.5439 20.736C99.5759 20.5867 99.6613 20.4747 99.7999 20.4C99.9386 20.3147 100.157 20.272 100.456 20.272C100.755 20.272 100.968 20.3147 101.096 20.4C101.224 20.4853 101.304 20.6027 101.336 20.752C101.379 20.9013 101.4 21.0613 101.4 21.232V27.232C101.4 27.392 101.379 27.5413 101.336 27.68C101.304 27.8187 101.219 27.9307 101.08 28.016C100.952 28.1013 100.739 28.144 100.44 28.144C100.227 28.144 100.056 28.1173 99.9279 28.064C99.8106 28.0213 99.7199 27.9627 99.6559 27.888C99.6026 27.8027 99.5653 27.7173 99.5439 27.632C99.5333 27.5467 99.5279 27.4613 99.5279 27.376L99.6559 26.944C99.5919 27.04 99.4959 27.1573 99.3679 27.296C99.2399 27.424 99.0799 27.5573 98.8879 27.696C98.7066 27.824 98.4933 27.9307 98.2479 28.016C98.0026 28.1013 97.7306 28.144 97.4319 28.144ZM107.092 28.144C106.57 28.144 106.1 28.0427 105.684 27.84C105.279 27.6267 104.932 27.3387 104.644 26.976C104.367 26.6133 104.154 26.1973 104.004 25.728C103.866 25.248 103.796 24.736 103.796 24.192C103.807 23.648 103.887 23.1413 104.036 22.672C104.186 22.192 104.399 21.776 104.676 21.424C104.964 21.0613 105.311 20.7787 105.716 20.576C106.122 20.3733 106.58 20.272 107.092 20.272C107.583 20.272 108.042 20.3733 108.468 20.576C108.906 20.7787 109.29 21.0613 109.62 21.424C109.962 21.776 110.228 22.192 110.42 22.672C110.612 23.1413 110.708 23.6427 110.708 24.176C110.708 24.7307 110.612 25.2533 110.42 25.744C110.228 26.224 109.967 26.6453 109.636 27.008C109.306 27.36 108.922 27.6373 108.484 27.84C108.047 28.0427 107.583 28.144 107.092 28.144ZM106.836 26.272C107.21 26.272 107.546 26.1867 107.844 26.016C108.143 25.8347 108.378 25.5893 108.548 25.28C108.73 24.9707 108.82 24.6187 108.82 24.224C108.82 23.8187 108.73 23.4613 108.548 23.152C108.378 22.832 108.143 22.5867 107.844 22.416C107.546 22.2347 107.21 22.144 106.836 22.144C106.474 22.144 106.143 22.2347 105.844 22.416C105.546 22.5973 105.306 22.8427 105.124 23.152C104.954 23.4613 104.868 23.8187 104.868 24.224C104.868 24.6187 104.954 24.9707 105.124 25.28C105.306 25.5893 105.546 25.8347 105.844 26.016C106.143 26.1867 106.474 26.272 106.836 26.272ZM103.876 28.16C103.588 28.16 103.375 28.112 103.236 28.016C103.098 27.9307 103.012 27.8187 102.98 27.68C102.948 27.5307 102.932 27.3653 102.932 27.184V17.648C102.932 17.4667 102.948 17.3067 102.98 17.168C103.012 17.0187 103.098 16.9013 103.236 16.816C103.375 16.7307 103.588 16.688 103.876 16.688C104.175 16.688 104.388 16.7307 104.516 16.816C104.644 16.9013 104.724 17.0187 104.756 17.168C104.788 17.3173 104.804 17.4773 104.804 17.648V27.504C104.762 27.7387 104.671 27.904 104.532 28C104.404 28.1067 104.186 28.16 103.876 28.16ZM121.561 28.224C120.761 28.224 120.025 28.0853 119.353 27.808C118.681 27.52 118.1 27.1147 117.609 26.592C117.118 26.0693 116.74 25.456 116.473 24.752C116.206 24.0373 116.073 23.248 116.073 22.384C116.073 21.5733 116.212 20.832 116.489 20.16C116.766 19.488 117.156 18.9067 117.657 18.416C118.158 17.9147 118.75 17.5253 119.433 17.248C120.126 16.9707 120.884 16.832 121.705 16.832C122.046 16.832 122.398 16.864 122.761 16.928C123.124 16.9813 123.476 17.072 123.817 17.2C124.158 17.3173 124.457 17.4667 124.713 17.648C124.916 17.776 125.086 17.9093 125.225 18.048C125.374 18.176 125.454 18.3253 125.465 18.496C125.476 18.592 125.46 18.6987 125.417 18.816C125.374 18.9227 125.31 19.0347 125.225 19.152C125.108 19.3333 124.98 19.4667 124.841 19.552C124.713 19.6373 124.585 19.68 124.457 19.68C124.382 19.68 124.292 19.6533 124.185 19.6C124.078 19.536 123.934 19.4507 123.753 19.344C123.614 19.248 123.433 19.1573 123.209 19.072C122.985 18.9867 122.74 18.9173 122.473 18.864C122.206 18.8107 121.929 18.784 121.641 18.784C120.926 18.784 120.297 18.9333 119.753 19.232C119.209 19.5307 118.782 19.9573 118.473 20.512C118.174 21.056 118.025 21.696 118.025 22.432C118.025 23.1893 118.18 23.856 118.489 24.432C118.798 25.008 119.22 25.4613 119.753 25.792C120.297 26.112 120.921 26.272 121.625 26.272C121.87 26.272 122.116 26.256 122.361 26.224C122.617 26.192 122.862 26.144 123.097 26.08C123.342 26.016 123.566 25.936 123.769 25.84V23.312H121.497C121.348 23.312 121.209 23.296 121.081 23.264C120.964 23.232 120.868 23.1573 120.793 23.04C120.729 22.9227 120.697 22.7307 120.697 22.464C120.697 22.1867 120.734 21.9893 120.809 21.872C120.884 21.7547 120.98 21.68 121.097 21.648C121.225 21.616 121.364 21.6 121.513 21.6H124.777C125.054 21.6 125.257 21.648 125.385 21.744C125.513 21.84 125.598 21.9627 125.641 22.112C125.684 22.2507 125.705 22.4107 125.705 22.592V26.32C125.705 26.5333 125.598 26.752 125.385 26.976C125.182 27.2 124.894 27.408 124.521 27.6C124.276 27.728 123.993 27.84 123.673 27.936C123.364 28.0213 123.028 28.0907 122.665 28.144C122.313 28.1973 121.945 28.224 121.561 28.224ZM128.456 28.16C128.168 28.16 127.954 28.112 127.816 28.016C127.688 27.9307 127.608 27.8133 127.576 27.664C127.544 27.5147 127.528 27.3493 127.528 27.168V21.232C127.528 21.04 127.544 20.8747 127.576 20.736C127.608 20.5867 127.688 20.4747 127.816 20.4C127.954 20.3147 128.173 20.272 128.472 20.272C128.76 20.272 128.968 20.3093 129.096 20.384C129.234 20.4587 129.32 20.5547 129.352 20.672C129.394 20.7787 129.416 20.8853 129.416 20.992L129.288 21.28C129.341 21.1947 129.416 21.0933 129.512 20.976C129.608 20.848 129.736 20.7253 129.896 20.608C130.056 20.48 130.248 20.3787 130.472 20.304C130.696 20.2187 130.962 20.176 131.272 20.176C131.4 20.176 131.533 20.192 131.672 20.224C131.821 20.2453 131.965 20.2827 132.104 20.336C132.253 20.3787 132.386 20.4373 132.504 20.512C132.621 20.5867 132.712 20.6773 132.776 20.784C132.84 20.88 132.872 20.992 132.872 21.12C132.872 21.4613 132.786 21.7493 132.616 21.984C132.445 22.2187 132.242 22.336 132.008 22.336C131.848 22.336 131.73 22.32 131.656 22.288C131.581 22.256 131.517 22.2187 131.464 22.176C131.421 22.1333 131.352 22.096 131.256 22.064C131.17 22.032 131.032 22.016 130.84 22.016C130.68 22.016 130.514 22.0427 130.344 22.096C130.184 22.1493 130.034 22.2293 129.896 22.336C129.757 22.4427 129.645 22.5813 129.56 22.752C129.474 22.912 129.432 23.0987 129.432 23.312V27.2C129.432 27.3813 129.416 27.5467 129.384 27.696C129.352 27.8347 129.266 27.9467 129.128 28.032C128.989 28.1173 128.765 28.16 128.456 28.16ZM137.52 28.256C137.008 28.256 136.506 28.16 136.016 27.968C135.536 27.7653 135.098 27.4827 134.704 27.12C134.32 26.7573 134.01 26.3307 133.776 25.84C133.552 25.3493 133.44 24.8107 133.44 24.224C133.44 23.6587 133.546 23.1307 133.76 22.64C133.973 22.1493 134.266 21.7173 134.64 21.344C135.013 20.9707 135.44 20.6827 135.92 20.48C136.41 20.2667 136.933 20.16 137.488 20.16C138.234 20.16 138.912 20.3413 139.52 20.704C140.128 21.056 140.613 21.536 140.976 22.144C141.338 22.752 141.52 23.44 141.52 24.208C141.52 24.816 141.408 25.3707 141.184 25.872C140.96 26.3627 140.656 26.7893 140.272 27.152C139.888 27.504 139.456 27.776 138.976 27.968C138.506 28.16 138.021 28.256 137.52 28.256ZM137.488 26.368C137.84 26.368 138.176 26.2827 138.496 26.112C138.826 25.9307 139.093 25.6747 139.296 25.344C139.509 25.0133 139.616 24.624 139.616 24.176C139.616 23.76 139.52 23.392 139.328 23.072C139.146 22.752 138.896 22.5013 138.576 22.32C138.256 22.1387 137.888 22.048 137.472 22.048C137.077 22.048 136.72 22.144 136.4 22.336C136.08 22.5173 135.824 22.7733 135.632 23.104C135.45 23.424 135.36 23.7867 135.36 24.192C135.36 24.64 135.461 25.0293 135.664 25.36C135.866 25.68 136.128 25.9307 136.448 26.112C136.778 26.2827 137.125 26.368 137.488 26.368ZM146.041 28.144C145.551 28.144 145.097 28.0587 144.681 27.888C144.276 27.7067 143.919 27.4507 143.609 27.12C143.3 26.7893 143.06 26.3947 142.889 25.936C142.719 25.4773 142.633 24.9707 142.633 24.416V21.232C142.633 21.0507 142.649 20.8907 142.681 20.752C142.713 20.6027 142.799 20.4853 142.937 20.4C143.076 20.3147 143.289 20.272 143.577 20.272C143.887 20.272 144.105 20.3147 144.233 20.4C144.372 20.4853 144.457 20.6027 144.489 20.752C144.521 20.9013 144.537 21.0667 144.537 21.248V24.416C144.537 24.8 144.601 25.1307 144.729 25.408C144.868 25.6853 145.065 25.904 145.321 26.064C145.577 26.2133 145.892 26.288 146.265 26.288C146.649 26.288 146.975 26.2133 147.241 26.064C147.519 25.904 147.732 25.6853 147.881 25.408C148.031 25.12 148.105 24.7893 148.105 24.416V21.216C148.105 21.0347 148.121 20.8747 148.153 20.736C148.185 20.5867 148.271 20.4747 148.409 20.4C148.548 20.3147 148.767 20.272 149.065 20.272C149.364 20.272 149.577 20.3147 149.705 20.4C149.833 20.4853 149.913 20.6027 149.945 20.752C149.988 20.9013 150.009 21.0613 150.009 21.232V27.232C150.009 27.392 149.988 27.5413 149.945 27.68C149.913 27.8187 149.828 27.9307 149.689 28.016C149.561 28.1013 149.348 28.144 149.049 28.144C148.836 28.144 148.665 28.1173 148.537 28.064C148.42 28.0213 148.329 27.9627 148.265 27.888C148.212 27.8027 148.175 27.7173 148.153 27.632C148.143 27.5467 148.137 27.4613 148.137 27.376L148.265 26.944C148.201 27.04 148.105 27.1573 147.977 27.296C147.849 27.424 147.689 27.5573 147.497 27.696C147.316 27.824 147.103 27.9307 146.857 28.016C146.612 28.1013 146.34 28.144 146.041 28.144ZM155.638 28.048C155.115 28.048 154.646 27.952 154.23 27.76C153.824 27.5573 153.478 27.28 153.19 26.928C152.912 26.5653 152.699 26.1493 152.55 25.68C152.411 25.2107 152.342 24.704 152.342 24.16C152.352 23.616 152.432 23.1093 152.582 22.64C152.731 22.16 152.944 21.744 153.222 21.392C153.51 21.04 153.856 20.7627 154.262 20.56C154.667 20.3573 155.126 20.256 155.638 20.256C156.128 20.256 156.587 20.3573 157.014 20.56C157.451 20.7627 157.835 21.0453 158.166 21.408C158.507 21.7707 158.774 22.192 158.966 22.672C159.158 23.1413 159.254 23.648 159.254 24.192C159.254 24.7467 159.158 25.2587 158.966 25.728C158.774 26.1973 158.512 26.608 158.182 26.96C157.851 27.3013 157.467 27.568 157.03 27.76C156.592 27.952 156.128 28.048 155.638 28.048ZM152.438 31.376C152.15 31.376 151.936 31.3333 151.798 31.248C151.659 31.1627 151.574 31.0507 151.542 30.912C151.51 30.7733 151.494 30.6133 151.494 30.432V21.232C151.494 21.0507 151.51 20.8907 151.542 20.752C151.574 20.6133 151.654 20.5013 151.782 20.416C151.92 20.32 152.134 20.272 152.422 20.272C152.699 20.272 152.918 20.3147 153.078 20.4C153.238 20.4853 153.344 20.6293 153.398 20.832V30.416C153.408 30.5973 153.392 30.7573 153.35 30.896C153.318 31.0453 153.232 31.1627 153.094 31.248C152.955 31.3333 152.736 31.376 152.438 31.376ZM155.382 26.256C155.755 26.256 156.091 26.1707 156.39 26C156.688 25.8187 156.923 25.5733 157.094 25.264C157.275 24.944 157.366 24.5867 157.366 24.192C157.366 23.7867 157.275 23.4293 157.094 23.12C156.923 22.8107 156.688 22.5707 156.39 22.4C156.091 22.2187 155.755 22.128 155.382 22.128C155.019 22.128 154.688 22.2187 154.39 22.4C154.091 22.5813 153.851 22.8267 153.67 23.136C153.499 23.4347 153.414 23.7867 153.414 24.192C153.414 24.5867 153.499 24.944 153.67 25.264C153.851 25.5733 154.091 25.8187 154.39 26C154.688 26.1707 155.019 26.256 155.382 26.256Z" fill="white"/>
<defs>
<clipPath id="clip0_16806_123359">
<rect width="24" height="24" fill="white" transform="translate(15 10.5)"/>
</clipPath>
</defs>
</svg>
