<svg width="144" height="45" viewBox="0 0 144 45" fill="none" xmlns="http://www.w3.org/2000/svg">
<rect width="144" height="45" rx="5" fill="#EBF3FE"/>
<g clip-path="url(#clip0_16792_123296)">
<path d="M27 15.5V29.5" stroke="#1EA4FF" stroke-width="2" stroke-linecap="round" stroke-linejoin="round"/>
<path d="M20 22.5H34" stroke="#1EA4FF" stroke-width="2" stroke-linecap="round" stroke-linejoin="round"/>
</g>
<path d="M50.8936 28.144C50.6056 28.144 50.3922 28.096 50.2536 28C50.1256 27.9147 50.0402 27.7973 49.9976 27.648C49.9656 27.4987 49.9496 27.3387 49.9496 27.168V17.888C49.9496 17.728 49.9709 17.5787 50.0136 17.44C50.0562 17.3013 50.1469 17.1893 50.2856 17.104C50.4349 17.0187 50.6536 16.976 50.9416 16.976C51.2616 16.976 51.4802 17.0133 51.5976 17.088C51.7256 17.152 51.8429 17.248 51.9496 17.376L57.2936 24.848V17.888C57.2936 17.728 57.3149 17.5787 57.3576 17.44C57.4002 17.3013 57.4909 17.1893 57.6296 17.104C57.7682 17.0187 57.9816 16.976 58.2696 16.976C58.5682 16.976 58.7816 17.024 58.9096 17.12C59.0482 17.2053 59.1336 17.3227 59.1656 17.472C59.2082 17.6213 59.2296 17.7867 59.2296 17.968V27.184C59.2296 27.3547 59.2029 27.5147 59.1496 27.664C59.1069 27.8027 59.0109 27.9147 58.8616 28C58.7229 28.096 58.5042 28.144 58.2056 28.144C57.9709 28.144 57.7842 28.1227 57.6456 28.08C57.5176 28.0373 57.4002 27.9467 57.2936 27.808L51.8696 20.352V27.184C51.8696 27.3547 51.8482 27.5147 51.8056 27.664C51.7736 27.8027 51.6882 27.9147 51.5496 28C51.4109 28.096 51.1922 28.144 50.8936 28.144ZM64.8666 28.256C64.1732 28.256 63.5652 28.144 63.0426 27.92C62.5306 27.696 62.0986 27.392 61.7466 27.008C61.4052 26.6133 61.1439 26.176 60.9626 25.696C60.7919 25.2053 60.7066 24.6987 60.7066 24.176C60.7066 23.408 60.8826 22.7253 61.2346 22.128C61.5866 21.5307 62.0719 21.0613 62.6906 20.72C63.3199 20.3787 64.0399 20.208 64.8506 20.208C65.4266 20.208 65.9332 20.2987 66.3706 20.48C66.8079 20.6613 67.1706 20.9013 67.4586 21.2C67.7572 21.488 67.9812 21.808 68.1306 22.16C68.2906 22.512 68.3706 22.8533 68.3706 23.184C68.3706 23.7493 68.2319 24.16 67.9546 24.416C67.6879 24.672 67.3519 24.8 66.9466 24.8H62.7226C62.7332 25.1627 62.8452 25.4773 63.0586 25.744C63.2826 26.0107 63.5599 26.2187 63.8906 26.368C64.2319 26.5067 64.5786 26.576 64.9306 26.576C65.1972 26.576 65.4319 26.56 65.6346 26.528C65.8479 26.496 66.0292 26.4587 66.1786 26.416C66.3279 26.3627 66.4559 26.3093 66.5626 26.256C66.6799 26.2027 66.7866 26.1547 66.8826 26.112C66.9786 26.0693 67.0692 26.0427 67.1546 26.032C67.2719 26.0213 67.3892 26.048 67.5066 26.112C67.6239 26.176 67.7199 26.288 67.7946 26.448C67.8586 26.5547 67.9012 26.656 67.9226 26.752C67.9546 26.8373 67.9706 26.9227 67.9706 27.008C67.9706 27.2213 67.8426 27.424 67.5866 27.616C67.3306 27.7973 66.9679 27.9467 66.4986 28.064C66.0399 28.192 65.4959 28.256 64.8666 28.256ZM62.7226 23.664H66.0026C66.1839 23.664 66.3226 23.6373 66.4186 23.584C66.5146 23.52 66.5626 23.392 66.5626 23.2C66.5626 22.9547 66.4879 22.736 66.3386 22.544C66.1892 22.3413 65.9866 22.1867 65.7306 22.08C65.4746 21.9627 65.1759 21.904 64.8346 21.904C64.4399 21.904 64.0826 21.984 63.7626 22.144C63.4426 22.2933 63.1866 22.5013 62.9946 22.768C62.8132 23.0347 62.7226 23.3333 62.7226 23.664ZM72.0792 28.144C71.8659 28.144 71.6952 28.1013 71.5672 28.016C71.4499 27.9413 71.3592 27.8453 71.2952 27.728C71.2419 27.6107 71.1939 27.504 71.1512 27.408L68.7992 21.456C68.7352 21.2533 68.7032 21.0827 68.7032 20.944C68.7139 20.8053 68.7672 20.688 68.8632 20.592C68.9699 20.4853 69.1245 20.3947 69.3272 20.32C69.6685 20.1813 69.9352 20.144 70.1272 20.208C70.3299 20.272 70.4792 20.4533 70.5752 20.752L72.0952 24.784L73.4712 20.928C73.5032 20.832 73.5512 20.7307 73.6152 20.624C73.6792 20.5173 73.7699 20.4267 73.8872 20.352C74.0152 20.2667 74.1859 20.224 74.3992 20.224C74.6232 20.224 74.7992 20.2667 74.9272 20.352C75.0552 20.4267 75.1512 20.5173 75.2152 20.624C75.2899 20.7307 75.3379 20.832 75.3592 20.928L76.7352 24.816L78.1912 20.896C78.3192 20.5653 78.4792 20.3467 78.6712 20.24C78.8632 20.1333 79.1245 20.144 79.4552 20.272C79.7539 20.4 79.9565 20.56 80.0632 20.752C80.1699 20.9333 80.1592 21.1733 80.0312 21.472L77.6632 27.408C77.6205 27.5147 77.5672 27.6267 77.5032 27.744C77.4499 27.8507 77.3592 27.9413 77.2312 28.016C77.1139 28.1013 76.9539 28.144 76.7512 28.144C76.5379 28.144 76.3672 28.1067 76.2392 28.032C76.1219 27.968 76.0312 27.8773 75.9672 27.76C75.9032 27.6427 75.8499 27.52 75.8072 27.392L74.4152 23.44L73.0232 27.392C72.9592 27.5413 72.9005 27.6747 72.8472 27.792C72.7939 27.9093 72.7085 27.9947 72.5912 28.048C72.4739 28.112 72.3032 28.144 72.0792 28.144ZM90.6861 28.224C89.8861 28.224 89.1501 28.0853 88.4781 27.808C87.8061 27.52 87.2247 27.1147 86.7341 26.592C86.2434 26.0693 85.8647 25.456 85.5981 24.752C85.3314 24.0373 85.1981 23.248 85.1981 22.384C85.1981 21.5733 85.3367 20.832 85.6141 20.16C85.8914 19.488 86.2807 18.9067 86.7821 18.416C87.2834 17.9147 87.8754 17.5253 88.5581 17.248C89.2514 16.9707 90.0087 16.832 90.8301 16.832C91.1714 16.832 91.5234 16.864 91.8861 16.928C92.2487 16.9813 92.6007 17.072 92.9421 17.2C93.2834 17.3173 93.5821 17.4667 93.8381 17.648C94.0407 17.776 94.2114 17.9093 94.3501 18.048C94.4994 18.176 94.5794 18.3253 94.5901 18.496C94.6007 18.592 94.5847 18.6987 94.5421 18.816C94.4994 18.9227 94.4354 19.0347 94.3501 19.152C94.2327 19.3333 94.1047 19.4667 93.9661 19.552C93.8381 19.6373 93.7101 19.68 93.5821 19.68C93.5074 19.68 93.4167 19.6533 93.3101 19.6C93.2034 19.536 93.0594 19.4507 92.8781 19.344C92.7394 19.248 92.5581 19.1573 92.3341 19.072C92.1101 18.9867 91.8647 18.9173 91.5981 18.864C91.3314 18.8107 91.0541 18.784 90.7661 18.784C90.0514 18.784 89.4221 18.9333 88.8781 19.232C88.3341 19.5307 87.9074 19.9573 87.5981 20.512C87.2994 21.056 87.1501 21.696 87.1501 22.432C87.1501 23.1893 87.3047 23.856 87.6141 24.432C87.9234 25.008 88.3447 25.4613 88.8781 25.792C89.4221 26.112 90.0461 26.272 90.7501 26.272C90.9954 26.272 91.2407 26.256 91.4861 26.224C91.7421 26.192 91.9874 26.144 92.2221 26.08C92.4674 26.016 92.6914 25.936 92.8941 25.84V23.312H90.6221C90.4727 23.312 90.3341 23.296 90.2061 23.264C90.0887 23.232 89.9927 23.1573 89.9181 23.04C89.8541 22.9227 89.8221 22.7307 89.8221 22.464C89.8221 22.1867 89.8594 21.9893 89.9341 21.872C90.0087 21.7547 90.1047 21.68 90.2221 21.648C90.3501 21.616 90.4887 21.6 90.6381 21.6H93.9021C94.1794 21.6 94.3821 21.648 94.5101 21.744C94.6381 21.84 94.7234 21.9627 94.7661 22.112C94.8087 22.2507 94.8301 22.4107 94.8301 22.592V26.32C94.8301 26.5333 94.7234 26.752 94.5101 26.976C94.3074 27.2 94.0194 27.408 93.6461 27.6C93.4007 27.728 93.1181 27.84 92.7981 27.936C92.4887 28.0213 92.1527 28.0907 91.7901 28.144C91.4381 28.1973 91.0701 28.224 90.6861 28.224ZM97.5807 28.16C97.2927 28.16 97.0794 28.112 96.9407 28.016C96.8127 27.9307 96.7327 27.8133 96.7007 27.664C96.6687 27.5147 96.6527 27.3493 96.6527 27.168V21.232C96.6527 21.04 96.6687 20.8747 96.7007 20.736C96.7327 20.5867 96.8127 20.4747 96.9407 20.4C97.0794 20.3147 97.298 20.272 97.5967 20.272C97.8847 20.272 98.0927 20.3093 98.2207 20.384C98.3594 20.4587 98.4447 20.5547 98.4767 20.672C98.5194 20.7787 98.5407 20.8853 98.5407 20.992L98.4127 21.28C98.466 21.1947 98.5407 21.0933 98.6367 20.976C98.7327 20.848 98.8607 20.7253 99.0207 20.608C99.1807 20.48 99.3727 20.3787 99.5967 20.304C99.8207 20.2187 100.087 20.176 100.397 20.176C100.525 20.176 100.658 20.192 100.797 20.224C100.946 20.2453 101.09 20.2827 101.229 20.336C101.378 20.3787 101.511 20.4373 101.629 20.512C101.746 20.5867 101.837 20.6773 101.901 20.784C101.965 20.88 101.997 20.992 101.997 21.12C101.997 21.4613 101.911 21.7493 101.741 21.984C101.57 22.2187 101.367 22.336 101.133 22.336C100.973 22.336 100.855 22.32 100.781 22.288C100.706 22.256 100.642 22.2187 100.589 22.176C100.546 22.1333 100.477 22.096 100.381 22.064C100.295 22.032 100.157 22.016 99.9647 22.016C99.8047 22.016 99.6394 22.0427 99.4687 22.096C99.3087 22.1493 99.1594 22.2293 99.0207 22.336C98.882 22.4427 98.77 22.5813 98.6847 22.752C98.5994 22.912 98.5567 23.0987 98.5567 23.312V27.2C98.5567 27.3813 98.5407 27.5467 98.5087 27.696C98.4767 27.8347 98.3914 27.9467 98.2527 28.032C98.114 28.1173 97.89 28.16 97.5807 28.16ZM106.645 28.256C106.133 28.256 105.631 28.16 105.141 27.968C104.661 27.7653 104.223 27.4827 103.829 27.12C103.445 26.7573 103.135 26.3307 102.901 25.84C102.677 25.3493 102.565 24.8107 102.565 24.224C102.565 23.6587 102.671 23.1307 102.885 22.64C103.098 22.1493 103.391 21.7173 103.765 21.344C104.138 20.9707 104.565 20.6827 105.045 20.48C105.535 20.2667 106.058 20.16 106.613 20.16C107.359 20.16 108.037 20.3413 108.645 20.704C109.253 21.056 109.738 21.536 110.101 22.144C110.463 22.752 110.645 23.44 110.645 24.208C110.645 24.816 110.533 25.3707 110.309 25.872C110.085 26.3627 109.781 26.7893 109.397 27.152C109.013 27.504 108.581 27.776 108.101 27.968C107.631 28.16 107.146 28.256 106.645 28.256ZM106.613 26.368C106.965 26.368 107.301 26.2827 107.621 26.112C107.951 25.9307 108.218 25.6747 108.421 25.344C108.634 25.0133 108.741 24.624 108.741 24.176C108.741 23.76 108.645 23.392 108.453 23.072C108.271 22.752 108.021 22.5013 107.701 22.32C107.381 22.1387 107.013 22.048 106.597 22.048C106.202 22.048 105.845 22.144 105.525 22.336C105.205 22.5173 104.949 22.7733 104.757 23.104C104.575 23.424 104.485 23.7867 104.485 24.192C104.485 24.64 104.586 25.0293 104.789 25.36C104.991 25.68 105.253 25.9307 105.573 26.112C105.903 26.2827 106.25 26.368 106.613 26.368ZM115.166 28.144C114.676 28.144 114.222 28.0587 113.806 27.888C113.401 27.7067 113.044 27.4507 112.734 27.12C112.425 26.7893 112.185 26.3947 112.014 25.936C111.844 25.4773 111.758 24.9707 111.758 24.416V21.232C111.758 21.0507 111.774 20.8907 111.806 20.752C111.838 20.6027 111.924 20.4853 112.062 20.4C112.201 20.3147 112.414 20.272 112.702 20.272C113.012 20.272 113.23 20.3147 113.358 20.4C113.497 20.4853 113.582 20.6027 113.614 20.752C113.646 20.9013 113.662 21.0667 113.662 21.248V24.416C113.662 24.8 113.726 25.1307 113.854 25.408C113.993 25.6853 114.19 25.904 114.446 26.064C114.702 26.2133 115.017 26.288 115.39 26.288C115.774 26.288 116.1 26.2133 116.366 26.064C116.644 25.904 116.857 25.6853 117.006 25.408C117.156 25.12 117.23 24.7893 117.23 24.416V21.216C117.23 21.0347 117.246 20.8747 117.278 20.736C117.31 20.5867 117.396 20.4747 117.534 20.4C117.673 20.3147 117.892 20.272 118.19 20.272C118.489 20.272 118.702 20.3147 118.83 20.4C118.958 20.4853 119.038 20.6027 119.07 20.752C119.113 20.9013 119.134 21.0613 119.134 21.232V27.232C119.134 27.392 119.113 27.5413 119.07 27.68C119.038 27.8187 118.953 27.9307 118.814 28.016C118.686 28.1013 118.473 28.144 118.174 28.144C117.961 28.144 117.79 28.1173 117.662 28.064C117.545 28.0213 117.454 27.9627 117.39 27.888C117.337 27.8027 117.3 27.7173 117.278 27.632C117.268 27.5467 117.262 27.4613 117.262 27.376L117.39 26.944C117.326 27.04 117.23 27.1573 117.102 27.296C116.974 27.424 116.814 27.5573 116.622 27.696C116.441 27.824 116.228 27.9307 115.982 28.016C115.737 28.1013 115.465 28.144 115.166 28.144ZM124.763 28.048C124.24 28.048 123.771 27.952 123.355 27.76C122.949 27.5573 122.603 27.28 122.315 26.928C122.037 26.5653 121.824 26.1493 121.675 25.68C121.536 25.2107 121.467 24.704 121.467 24.16C121.477 23.616 121.557 23.1093 121.707 22.64C121.856 22.16 122.069 21.744 122.347 21.392C122.635 21.04 122.981 20.7627 123.387 20.56C123.792 20.3573 124.251 20.256 124.763 20.256C125.253 20.256 125.712 20.3573 126.139 20.56C126.576 20.7627 126.96 21.0453 127.291 21.408C127.632 21.7707 127.899 22.192 128.091 22.672C128.283 23.1413 128.379 23.648 128.379 24.192C128.379 24.7467 128.283 25.2587 128.091 25.728C127.899 26.1973 127.637 26.608 127.307 26.96C126.976 27.3013 126.592 27.568 126.155 27.76C125.717 27.952 125.253 28.048 124.763 28.048ZM121.563 31.376C121.275 31.376 121.061 31.3333 120.923 31.248C120.784 31.1627 120.699 31.0507 120.667 30.912C120.635 30.7733 120.619 30.6133 120.619 30.432V21.232C120.619 21.0507 120.635 20.8907 120.667 20.752C120.699 20.6133 120.779 20.5013 120.907 20.416C121.045 20.32 121.259 20.272 121.547 20.272C121.824 20.272 122.043 20.3147 122.203 20.4C122.363 20.4853 122.469 20.6293 122.523 20.832V30.416C122.533 30.5973 122.517 30.7573 122.475 30.896C122.443 31.0453 122.357 31.1627 122.219 31.248C122.08 31.3333 121.861 31.376 121.563 31.376ZM124.507 26.256C124.88 26.256 125.216 26.1707 125.515 26C125.813 25.8187 126.048 25.5733 126.219 25.264C126.4 24.944 126.491 24.5867 126.491 24.192C126.491 23.7867 126.4 23.4293 126.219 23.12C126.048 22.8107 125.813 22.5707 125.515 22.4C125.216 22.2187 124.88 22.128 124.507 22.128C124.144 22.128 123.813 22.2187 123.515 22.4C123.216 22.5813 122.976 22.8267 122.795 23.136C122.624 23.4347 122.539 23.7867 122.539 24.192C122.539 24.5867 122.624 24.944 122.795 25.264C122.976 25.5733 123.216 25.8187 123.515 26C123.813 26.1707 124.144 26.256 124.507 26.256Z" fill="#1EA4FF"/>
<defs>
<clipPath id="clip0_16792_123296">
<rect width="24" height="24" fill="white" transform="translate(15 10.5)"/>
</clipPath>
</defs>
</svg>
