<svg width="158" height="45" viewBox="0 0 158 45" fill="none" xmlns="http://www.w3.org/2000/svg">
<rect width="158" height="45" rx="5" fill="#EBF3FE"/>
<g clip-path="url(#clip0_16791_123276)">
<path d="M27 15.5V29.5" stroke="#1EA4FF" stroke-width="2" stroke-linecap="round" stroke-linejoin="round"/>
<path d="M20 22.5H34" stroke="#1EA4FF" stroke-width="2" stroke-linecap="round" stroke-linejoin="round"/>
</g>
<path d="M51.0186 28.144C50.7306 28.144 50.5172 28.096 50.3786 28C50.2506 27.9147 50.1652 27.7973 50.1226 27.648C50.0906 27.4987 50.0746 27.3387 50.0746 27.168V17.888C50.0746 17.728 50.0959 17.5787 50.1386 17.44C50.1812 17.3013 50.2719 17.1893 50.4106 17.104C50.5599 17.0187 50.7786 16.976 51.0666 16.976C51.3866 16.976 51.6052 17.0133 51.7226 17.088C51.8506 17.152 51.9679 17.248 52.0746 17.376L57.4186 24.848V17.888C57.4186 17.728 57.4399 17.5787 57.4826 17.44C57.5252 17.3013 57.6159 17.1893 57.7546 17.104C57.8932 17.0187 58.1066 16.976 58.3946 16.976C58.6932 16.976 58.9066 17.024 59.0346 17.12C59.1732 17.2053 59.2586 17.3227 59.2906 17.472C59.3332 17.6213 59.3546 17.7867 59.3546 17.968V27.184C59.3546 27.3547 59.3279 27.5147 59.2746 27.664C59.2319 27.8027 59.1359 27.9147 58.9866 28C58.8479 28.096 58.6292 28.144 58.3306 28.144C58.0959 28.144 57.9092 28.1227 57.7706 28.08C57.6426 28.0373 57.5252 27.9467 57.4186 27.808L51.9946 20.352V27.184C51.9946 27.3547 51.9732 27.5147 51.9306 27.664C51.8986 27.8027 51.8132 27.9147 51.6746 28C51.5359 28.096 51.3172 28.144 51.0186 28.144ZM64.9916 28.256C64.2982 28.256 63.6902 28.144 63.1676 27.92C62.6556 27.696 62.2236 27.392 61.8716 27.008C61.5302 26.6133 61.2689 26.176 61.0876 25.696C60.9169 25.2053 60.8316 24.6987 60.8316 24.176C60.8316 23.408 61.0076 22.7253 61.3596 22.128C61.7116 21.5307 62.1969 21.0613 62.8156 20.72C63.4449 20.3787 64.1649 20.208 64.9756 20.208C65.5516 20.208 66.0582 20.2987 66.4956 20.48C66.9329 20.6613 67.2956 20.9013 67.5836 21.2C67.8822 21.488 68.1062 21.808 68.2556 22.16C68.4156 22.512 68.4956 22.8533 68.4956 23.184C68.4956 23.7493 68.3569 24.16 68.0796 24.416C67.8129 24.672 67.4769 24.8 67.0716 24.8H62.8476C62.8582 25.1627 62.9702 25.4773 63.1836 25.744C63.4076 26.0107 63.6849 26.2187 64.0156 26.368C64.3569 26.5067 64.7036 26.576 65.0556 26.576C65.3222 26.576 65.5569 26.56 65.7596 26.528C65.9729 26.496 66.1542 26.4587 66.3036 26.416C66.4529 26.3627 66.5809 26.3093 66.6876 26.256C66.8049 26.2027 66.9116 26.1547 67.0076 26.112C67.1036 26.0693 67.1942 26.0427 67.2796 26.032C67.3969 26.0213 67.5142 26.048 67.6316 26.112C67.7489 26.176 67.8449 26.288 67.9196 26.448C67.9836 26.5547 68.0262 26.656 68.0476 26.752C68.0796 26.8373 68.0956 26.9227 68.0956 27.008C68.0956 27.2213 67.9676 27.424 67.7116 27.616C67.4556 27.7973 67.0929 27.9467 66.6236 28.064C66.1649 28.192 65.6209 28.256 64.9916 28.256ZM62.8476 23.664H66.1276C66.3089 23.664 66.4476 23.6373 66.5436 23.584C66.6396 23.52 66.6876 23.392 66.6876 23.2C66.6876 22.9547 66.6129 22.736 66.4636 22.544C66.3142 22.3413 66.1116 22.1867 65.8556 22.08C65.5996 21.9627 65.3009 21.904 64.9596 21.904C64.5649 21.904 64.2076 21.984 63.8876 22.144C63.5676 22.2933 63.3116 22.5013 63.1196 22.768C62.9382 23.0347 62.8476 23.3333 62.8476 23.664ZM72.2042 28.144C71.9909 28.144 71.8202 28.1013 71.6922 28.016C71.5749 27.9413 71.4842 27.8453 71.4202 27.728C71.3669 27.6107 71.3189 27.504 71.2762 27.408L68.9242 21.456C68.8602 21.2533 68.8282 21.0827 68.8282 20.944C68.8389 20.8053 68.8922 20.688 68.9882 20.592C69.0949 20.4853 69.2495 20.3947 69.4522 20.32C69.7935 20.1813 70.0602 20.144 70.2522 20.208C70.4549 20.272 70.6042 20.4533 70.7002 20.752L72.2202 24.784L73.5962 20.928C73.6282 20.832 73.6762 20.7307 73.7402 20.624C73.8042 20.5173 73.8949 20.4267 74.0122 20.352C74.1402 20.2667 74.3109 20.224 74.5242 20.224C74.7482 20.224 74.9242 20.2667 75.0522 20.352C75.1802 20.4267 75.2762 20.5173 75.3402 20.624C75.4149 20.7307 75.4629 20.832 75.4842 20.928L76.8602 24.816L78.3162 20.896C78.4442 20.5653 78.6042 20.3467 78.7962 20.24C78.9882 20.1333 79.2495 20.144 79.5802 20.272C79.8789 20.4 80.0815 20.56 80.1882 20.752C80.2949 20.9333 80.2842 21.1733 80.1562 21.472L77.7882 27.408C77.7455 27.5147 77.6922 27.6267 77.6282 27.744C77.5749 27.8507 77.4842 27.9413 77.3562 28.016C77.2389 28.1013 77.0789 28.144 76.8762 28.144C76.6629 28.144 76.4922 28.1067 76.3642 28.032C76.2469 27.968 76.1562 27.8773 76.0922 27.76C76.0282 27.6427 75.9749 27.52 75.9322 27.392L74.5402 23.44L73.1482 27.392C73.0842 27.5413 73.0255 27.6747 72.9722 27.792C72.9189 27.9093 72.8335 27.9947 72.7162 28.048C72.5989 28.112 72.4282 28.144 72.2042 28.144ZM90.8111 28.224C90.2884 28.224 89.7604 28.1493 89.2271 28C88.6937 27.84 88.1817 27.6053 87.6911 27.296C87.2004 26.976 86.7631 26.5867 86.3791 26.128C86.0057 25.6587 85.7071 25.12 85.4831 24.512C85.2591 23.8933 85.1471 23.2107 85.1471 22.464C85.1471 21.728 85.2591 21.0667 85.4831 20.48C85.7071 19.8827 86.0057 19.36 86.3791 18.912C86.7631 18.464 87.1951 18.0907 87.6751 17.792C88.1657 17.4933 88.6777 17.2693 89.2111 17.12C89.7551 16.96 90.2937 16.8747 90.8271 16.864C91.3711 16.864 91.8404 16.9227 92.2351 17.04C92.6297 17.1573 92.9497 17.2853 93.1951 17.424C93.4404 17.552 93.6057 17.6427 93.6911 17.696C93.8617 17.8027 94.0217 17.9253 94.1711 18.064C94.3311 18.192 94.4164 18.352 94.4271 18.544C94.4377 18.672 94.4217 18.7893 94.3791 18.896C94.3364 18.992 94.2777 19.0933 94.2031 19.2C94.0751 19.3813 93.9471 19.5147 93.8191 19.6C93.6911 19.6853 93.5631 19.728 93.4351 19.728C93.3177 19.728 93.2057 19.696 93.0991 19.632C93.0031 19.568 92.8804 19.488 92.7311 19.392C92.6671 19.3493 92.5497 19.2853 92.3791 19.2C92.2191 19.104 92.0004 19.0187 91.7231 18.944C91.4564 18.8693 91.1311 18.832 90.7471 18.832C90.2884 18.832 89.8404 18.912 89.4031 19.072C88.9657 19.232 88.5711 19.472 88.2191 19.792C87.8777 20.1013 87.6057 20.4907 87.4031 20.96C87.2004 21.4187 87.0991 21.9467 87.0991 22.544C87.0991 23.1413 87.2004 23.6747 87.4031 24.144C87.6057 24.6027 87.8777 24.992 88.2191 25.312C88.5711 25.6213 88.9657 25.856 89.4031 26.016C89.8404 26.176 90.2884 26.256 90.7471 26.256C91.1097 26.256 91.4191 26.224 91.6751 26.16C91.9417 26.0853 92.1657 26 92.3471 25.904C92.5391 25.7973 92.6831 25.7173 92.7791 25.664C92.8964 25.5893 93.0084 25.52 93.1151 25.456C93.2217 25.392 93.3337 25.36 93.4511 25.36C93.5791 25.36 93.7017 25.4027 93.8191 25.488C93.9471 25.5733 94.0697 25.712 94.1871 25.904C94.2617 26.0213 94.3204 26.1333 94.3631 26.24C94.4057 26.3467 94.4217 26.4587 94.4111 26.576C94.4004 26.768 94.3151 26.9333 94.1551 27.072C94.0057 27.2 93.8457 27.312 93.6751 27.408C93.5897 27.4613 93.4244 27.5573 93.1791 27.696C92.9444 27.824 92.6297 27.9413 92.2351 28.048C91.8404 28.1653 91.3657 28.224 90.8111 28.224ZM99.5354 28.256C99.0234 28.256 98.5221 28.16 98.0314 27.968C97.5514 27.7653 97.1141 27.4827 96.7194 27.12C96.3354 26.7573 96.0261 26.3307 95.7914 25.84C95.5674 25.3493 95.4554 24.8107 95.4554 24.224C95.4554 23.6587 95.5621 23.1307 95.7754 22.64C95.9888 22.1493 96.2821 21.7173 96.6554 21.344C97.0288 20.9707 97.4554 20.6827 97.9354 20.48C98.4261 20.2667 98.9488 20.16 99.5034 20.16C100.25 20.16 100.927 20.3413 101.535 20.704C102.143 21.056 102.629 21.536 102.991 22.144C103.354 22.752 103.535 23.44 103.535 24.208C103.535 24.816 103.423 25.3707 103.199 25.872C102.975 26.3627 102.671 26.7893 102.287 27.152C101.903 27.504 101.471 27.776 100.991 27.968C100.522 28.16 100.037 28.256 99.5354 28.256ZM99.5034 26.368C99.8554 26.368 100.191 26.2827 100.511 26.112C100.842 25.9307 101.109 25.6747 101.311 25.344C101.525 25.0133 101.631 24.624 101.631 24.176C101.631 23.76 101.535 23.392 101.343 23.072C101.162 22.752 100.911 22.5013 100.591 22.32C100.271 22.1387 99.9034 22.048 99.4874 22.048C99.0928 22.048 98.7354 22.144 98.4154 22.336C98.0954 22.5173 97.8394 22.7733 97.6474 23.104C97.4661 23.424 97.3754 23.7867 97.3754 24.192C97.3754 24.64 97.4768 25.0293 97.6794 25.36C97.8821 25.68 98.1434 25.9307 98.4634 26.112C98.7941 26.2827 99.1408 26.368 99.5034 26.368ZM105.737 28.144C105.449 28.144 105.236 28.096 105.097 28C104.969 27.9147 104.889 27.8027 104.857 27.664C104.825 27.5147 104.809 27.3493 104.809 27.168V21.184C104.809 21.0133 104.825 20.8587 104.857 20.72C104.889 20.5813 104.974 20.4747 105.113 20.4C105.252 20.3147 105.465 20.272 105.753 20.272C106.009 20.272 106.201 20.304 106.329 20.368C106.457 20.432 106.542 20.512 106.585 20.608C106.628 20.704 106.649 20.8 106.649 20.896C106.66 20.992 106.67 21.0667 106.681 21.12L106.617 21.632C106.681 21.4613 106.788 21.296 106.937 21.136C107.086 20.976 107.268 20.832 107.481 20.704C107.694 20.5653 107.924 20.4587 108.169 20.384C108.425 20.2987 108.686 20.256 108.953 20.256C109.454 20.256 109.902 20.3467 110.297 20.528C110.692 20.7093 111.028 20.9653 111.305 21.296C111.593 21.6267 111.812 22.0213 111.961 22.48C112.11 22.928 112.185 23.4347 112.185 24V27.184C112.185 27.3653 112.164 27.5307 112.121 27.68C112.089 27.8187 112.009 27.9307 111.881 28.016C111.753 28.1013 111.534 28.144 111.225 28.144C110.926 28.144 110.708 28.096 110.569 28C110.43 27.9147 110.345 27.8027 110.313 27.664C110.281 27.5147 110.265 27.3493 110.265 27.168V23.984C110.265 23.6 110.196 23.2693 110.057 22.992C109.929 22.7147 109.737 22.5013 109.481 22.352C109.236 22.2027 108.921 22.128 108.537 22.128C108.164 22.128 107.838 22.208 107.561 22.368C107.284 22.5173 107.07 22.7307 106.921 23.008C106.772 23.2853 106.697 23.6107 106.697 23.984V27.184C106.697 27.3653 106.681 27.5307 106.649 27.68C106.617 27.8187 106.532 27.9307 106.393 28.016C106.265 28.1013 106.046 28.144 105.737 28.144ZM117.478 28.16C116.955 28.16 116.507 28.1067 116.134 28C115.76 27.8933 115.456 27.728 115.222 27.504C114.987 27.28 114.811 26.992 114.694 26.64C114.587 26.2773 114.534 25.8507 114.534 25.36V18.576C114.534 18.384 114.55 18.2187 114.582 18.08C114.624 17.9413 114.71 17.8347 114.838 17.76C114.976 17.6747 115.19 17.632 115.478 17.632C115.776 17.632 115.99 17.6747 116.118 17.76C116.256 17.8453 116.342 17.9627 116.374 18.112C116.416 18.2507 116.438 18.4053 116.438 18.576V25.296C116.438 25.52 116.454 25.7013 116.486 25.84C116.528 25.9787 116.587 26.0853 116.662 26.16C116.747 26.224 116.854 26.272 116.982 26.304C117.12 26.3253 117.286 26.336 117.478 26.336C117.68 26.336 117.851 26.352 117.99 26.384C118.139 26.416 118.251 26.496 118.326 26.624C118.4 26.7413 118.438 26.9387 118.438 27.216C118.438 27.5147 118.39 27.7333 118.294 27.872C118.208 28 118.091 28.08 117.942 28.112C117.803 28.144 117.648 28.16 117.478 28.16ZM113.878 20.432L115.526 20.448L117.734 20.384C117.915 20.384 118.075 20.4053 118.214 20.448C118.363 20.48 118.48 20.5653 118.566 20.704C118.651 20.832 118.694 21.0453 118.694 21.344C118.694 21.6213 118.651 21.8293 118.566 21.968C118.48 22.1067 118.368 22.1973 118.23 22.24C118.091 22.272 117.931 22.288 117.75 22.288L115.606 22.256L113.83 22.272C113.563 22.2613 113.376 22.1867 113.27 22.048C113.174 21.8987 113.126 21.6587 113.126 21.328C113.126 21.0187 113.184 20.7947 113.302 20.656C113.43 20.5067 113.622 20.432 113.878 20.432ZM123.695 28.256C123.001 28.256 122.393 28.144 121.871 27.92C121.359 27.696 120.927 27.392 120.575 27.008C120.233 26.6133 119.972 26.176 119.791 25.696C119.62 25.2053 119.535 24.6987 119.535 24.176C119.535 23.408 119.711 22.7253 120.063 22.128C120.415 21.5307 120.9 21.0613 121.519 20.72C122.148 20.3787 122.868 20.208 123.679 20.208C124.255 20.208 124.761 20.2987 125.199 20.48C125.636 20.6613 125.999 20.9013 126.287 21.2C126.585 21.488 126.809 21.808 126.959 22.16C127.119 22.512 127.199 22.8533 127.199 23.184C127.199 23.7493 127.06 24.16 126.783 24.416C126.516 24.672 126.18 24.8 125.775 24.8H121.551C121.561 25.1627 121.673 25.4773 121.887 25.744C122.111 26.0107 122.388 26.2187 122.719 26.368C123.06 26.5067 123.407 26.576 123.759 26.576C124.025 26.576 124.26 26.56 124.463 26.528C124.676 26.496 124.857 26.4587 125.007 26.416C125.156 26.3627 125.284 26.3093 125.391 26.256C125.508 26.2027 125.615 26.1547 125.711 26.112C125.807 26.0693 125.897 26.0427 125.983 26.032C126.1 26.0213 126.217 26.048 126.335 26.112C126.452 26.176 126.548 26.288 126.623 26.448C126.687 26.5547 126.729 26.656 126.751 26.752C126.783 26.8373 126.799 26.9227 126.799 27.008C126.799 27.2213 126.671 27.424 126.415 27.616C126.159 27.7973 125.796 27.9467 125.327 28.064C124.868 28.192 124.324 28.256 123.695 28.256ZM121.551 23.664H124.831C125.012 23.664 125.151 23.6373 125.247 23.584C125.343 23.52 125.391 23.392 125.391 23.2C125.391 22.9547 125.316 22.736 125.167 22.544C125.017 22.3413 124.815 22.1867 124.559 22.08C124.303 21.9627 124.004 21.904 123.663 21.904C123.268 21.904 122.911 21.984 122.591 22.144C122.271 22.2933 122.015 22.5013 121.823 22.768C121.641 23.0347 121.551 23.3333 121.551 23.664ZM129.456 28.144C129.168 28.144 128.954 28.096 128.816 28C128.688 27.9147 128.608 27.8027 128.576 27.664C128.544 27.5147 128.528 27.3493 128.528 27.168V21.184C128.528 21.0133 128.544 20.8587 128.576 20.72C128.608 20.5813 128.693 20.4747 128.832 20.4C128.97 20.3147 129.184 20.272 129.472 20.272C129.728 20.272 129.92 20.304 130.048 20.368C130.176 20.432 130.261 20.512 130.304 20.608C130.346 20.704 130.368 20.8 130.368 20.896C130.378 20.992 130.389 21.0667 130.4 21.12L130.336 21.632C130.4 21.4613 130.506 21.296 130.656 21.136C130.805 20.976 130.986 20.832 131.2 20.704C131.413 20.5653 131.642 20.4587 131.888 20.384C132.144 20.2987 132.405 20.256 132.672 20.256C133.173 20.256 133.621 20.3467 134.016 20.528C134.41 20.7093 134.746 20.9653 135.024 21.296C135.312 21.6267 135.53 22.0213 135.68 22.48C135.829 22.928 135.904 23.4347 135.904 24V27.184C135.904 27.3653 135.882 27.5307 135.84 27.68C135.808 27.8187 135.728 27.9307 135.6 28.016C135.472 28.1013 135.253 28.144 134.944 28.144C134.645 28.144 134.426 28.096 134.288 28C134.149 27.9147 134.064 27.8027 134.032 27.664C134 27.5147 133.984 27.3493 133.984 27.168V23.984C133.984 23.6 133.914 23.2693 133.776 22.992C133.648 22.7147 133.456 22.5013 133.2 22.352C132.954 22.2027 132.64 22.128 132.256 22.128C131.882 22.128 131.557 22.208 131.28 22.368C131.002 22.5173 130.789 22.7307 130.64 23.008C130.49 23.2853 130.416 23.6107 130.416 23.984V27.184C130.416 27.3653 130.4 27.5307 130.368 27.68C130.336 27.8187 130.25 27.9307 130.112 28.016C129.984 28.1013 129.765 28.144 129.456 28.144ZM141.197 28.16C140.674 28.16 140.226 28.1067 139.853 28C139.479 27.8933 139.175 27.728 138.941 27.504C138.706 27.28 138.53 26.992 138.413 26.64C138.306 26.2773 138.253 25.8507 138.253 25.36V18.576C138.253 18.384 138.269 18.2187 138.301 18.08C138.343 17.9413 138.429 17.8347 138.557 17.76C138.695 17.6747 138.909 17.632 139.197 17.632C139.495 17.632 139.709 17.6747 139.837 17.76C139.975 17.8453 140.061 17.9627 140.093 18.112C140.135 18.2507 140.157 18.4053 140.157 18.576V25.296C140.157 25.52 140.173 25.7013 140.205 25.84C140.247 25.9787 140.306 26.0853 140.381 26.16C140.466 26.224 140.573 26.272 140.701 26.304C140.839 26.3253 141.005 26.336 141.197 26.336C141.399 26.336 141.57 26.352 141.709 26.384C141.858 26.416 141.97 26.496 142.045 26.624C142.119 26.7413 142.157 26.9387 142.157 27.216C142.157 27.5147 142.109 27.7333 142.013 27.872C141.927 28 141.81 28.08 141.661 28.112C141.522 28.144 141.367 28.16 141.197 28.16ZM137.597 20.432L139.245 20.448L141.453 20.384C141.634 20.384 141.794 20.4053 141.933 20.448C142.082 20.48 142.199 20.5653 142.285 20.704C142.37 20.832 142.413 21.0453 142.413 21.344C142.413 21.6213 142.37 21.8293 142.285 21.968C142.199 22.1067 142.087 22.1973 141.949 22.24C141.81 22.272 141.65 22.288 141.469 22.288L139.325 22.256L137.549 22.272C137.282 22.2613 137.095 22.1867 136.989 22.048C136.893 21.8987 136.845 21.6587 136.845 21.328C136.845 21.0187 136.903 20.7947 137.021 20.656C137.149 20.5067 137.341 20.432 137.597 20.432Z" fill="#1EA4FF"/>
<defs>
<clipPath id="clip0_16791_123276">
<rect width="24" height="24" fill="white" transform="translate(15 10.5)"/>
</clipPath>
</defs>
</svg>
