<svg width="142" height="45" viewBox="0 0 142 45" fill="none" xmlns="http://www.w3.org/2000/svg">
<rect x="0.5" y="0.5" width="141" height="44" rx="4.5" fill="white"/>
<rect x="0.5" y="0.5" width="141" height="44" rx="4.5" stroke="#F1F1F4"/>
<g clip-path="url(#clip0_16806_123335)">
<path d="M23.5709 13.0703C24.4185 13.0703 25.2471 13.3217 25.9519 13.7926C26.6567 14.2635 27.206 14.9328 27.5304 15.716C27.8547 16.4991 27.9396 17.3608 27.7742 18.1921C27.6089 19.0235 27.2007 19.7871 26.6013 20.3865C26.002 20.9858 25.2383 21.394 24.407 21.5594C23.5756 21.7248 22.7139 21.6399 21.9308 21.3155C21.1477 20.9911 20.4783 20.4418 20.0074 19.737C19.5365 19.0323 19.2852 18.2037 19.2852 17.356L19.2894 17.17C19.3374 16.0667 19.8094 15.0244 20.6071 14.2606C21.4047 13.4968 22.4665 13.0704 23.5709 13.0703Z" fill="#99A1B7"/>
<path d="M25.7738 23.3555C27.2352 23.3555 28.6368 23.8634 29.6701 24.7676C30.7035 25.6718 31.284 26.8982 31.284 28.1769V29.1412C31.284 29.6527 31.0518 30.1432 30.6385 30.5049C30.2251 30.8666 29.6645 31.0698 29.08 31.0698H18.0596C17.475 31.0698 16.9144 30.8666 16.501 30.5049C16.0877 30.1432 15.8555 29.6527 15.8555 29.1412V28.1769C15.8555 26.8982 16.436 25.6718 17.4694 24.7676C18.5027 23.8634 19.9043 23.3555 21.3657 23.3555H25.7738Z" fill="#99A1B7"/>
<path d="M33.8555 17.3555V20.784V24.2126" stroke="#99A1B7" stroke-width="2" stroke-linecap="round"/>
<path d="M37.2852 20.7852L33.4476 20.7852L30.428 20.7852" stroke="#99A1B7" stroke-width="2" stroke-linecap="round"/>
</g>
<path d="M51.0443 28.144C50.7456 28.144 50.5269 28.1013 50.3883 28.016C50.2496 27.9307 50.1643 27.8133 50.1323 27.664C50.1003 27.504 50.0843 27.3387 50.0843 27.168V17.936C50.0843 17.7653 50.1003 17.6107 50.1323 17.472C50.1749 17.3227 50.2656 17.2053 50.4043 17.12C50.5429 17.024 50.7616 16.976 51.0603 16.976H54.4523C54.9216 16.976 55.3803 17.056 55.8283 17.216C56.2763 17.376 56.6763 17.616 57.0283 17.936C57.3909 18.256 57.6736 18.6507 57.8763 19.12C58.0896 19.5893 58.1962 20.1387 58.1962 20.768C58.1962 21.3867 58.0896 21.9307 57.8763 22.4C57.6736 22.8587 57.3909 23.248 57.0283 23.568C56.6656 23.888 56.2603 24.128 55.8123 24.288C55.3749 24.448 54.9163 24.528 54.4363 24.528H52.0203V27.184C52.0203 27.3547 51.9989 27.5147 51.9563 27.664C51.9243 27.8133 51.8389 27.9307 51.7003 28.016C51.5723 28.1013 51.3536 28.144 51.0443 28.144ZM52.0203 22.576H54.4523C54.7829 22.576 55.0816 22.512 55.3483 22.384C55.6256 22.2453 55.8496 22.0427 56.0203 21.776C56.1909 21.4987 56.2763 21.152 56.2763 20.736C56.2763 20.3627 56.1963 20.0427 56.0363 19.776C55.8869 19.4987 55.6736 19.2853 55.3963 19.136C55.1296 18.9867 54.8096 18.912 54.4363 18.912H52.0203V22.576ZM63.3744 28.256C62.681 28.256 62.073 28.144 61.5504 27.92C61.0384 27.696 60.6064 27.392 60.2544 27.008C59.913 26.6133 59.6517 26.176 59.4704 25.696C59.2997 25.2053 59.2144 24.6987 59.2144 24.176C59.2144 23.408 59.3904 22.7253 59.7424 22.128C60.0944 21.5307 60.5797 21.0613 61.1984 20.72C61.8277 20.3787 62.5477 20.208 63.3584 20.208C63.9344 20.208 64.441 20.2987 64.8784 20.48C65.3157 20.6613 65.6784 20.9013 65.9664 21.2C66.265 21.488 66.489 21.808 66.6384 22.16C66.7984 22.512 66.8784 22.8533 66.8784 23.184C66.8784 23.7493 66.7397 24.16 66.4624 24.416C66.1957 24.672 65.8597 24.8 65.4544 24.8H61.2304C61.241 25.1627 61.353 25.4773 61.5664 25.744C61.7904 26.0107 62.0677 26.2187 62.3984 26.368C62.7397 26.5067 63.0864 26.576 63.4384 26.576C63.705 26.576 63.9397 26.56 64.1424 26.528C64.3557 26.496 64.537 26.4587 64.6864 26.416C64.8357 26.3627 64.9637 26.3093 65.0704 26.256C65.1877 26.2027 65.2944 26.1547 65.3904 26.112C65.4864 26.0693 65.577 26.0427 65.6624 26.032C65.7797 26.0213 65.897 26.048 66.0144 26.112C66.1317 26.176 66.2277 26.288 66.3024 26.448C66.3664 26.5547 66.409 26.656 66.4304 26.752C66.4624 26.8373 66.4784 26.9227 66.4784 27.008C66.4784 27.2213 66.3504 27.424 66.0944 27.616C65.8384 27.7973 65.4757 27.9467 65.0064 28.064C64.5477 28.192 64.0037 28.256 63.3744 28.256ZM61.2304 23.664H64.5104C64.6917 23.664 64.8304 23.6373 64.9264 23.584C65.0224 23.52 65.0704 23.392 65.0704 23.2C65.0704 22.9547 64.9957 22.736 64.8464 22.544C64.697 22.3413 64.4944 22.1867 64.2384 22.08C63.9824 21.9627 63.6837 21.904 63.3424 21.904C62.9477 21.904 62.5904 21.984 62.2704 22.144C61.9504 22.2933 61.6944 22.5013 61.5024 22.768C61.321 23.0347 61.2304 23.3333 61.2304 23.664ZM69.1354 28.16C68.8474 28.16 68.634 28.112 68.4954 28.016C68.3674 27.9307 68.2874 27.8133 68.2554 27.664C68.2234 27.5147 68.2074 27.3493 68.2074 27.168V21.232C68.2074 21.04 68.2234 20.8747 68.2554 20.736C68.2874 20.5867 68.3674 20.4747 68.4954 20.4C68.634 20.3147 68.8527 20.272 69.1514 20.272C69.4394 20.272 69.6474 20.3093 69.7754 20.384C69.914 20.4587 69.9994 20.5547 70.0314 20.672C70.074 20.7787 70.0954 20.8853 70.0954 20.992L69.9674 21.28C70.0207 21.1947 70.0954 21.0933 70.1914 20.976C70.2874 20.848 70.4154 20.7253 70.5754 20.608C70.7354 20.48 70.9274 20.3787 71.1514 20.304C71.3754 20.2187 71.642 20.176 71.9514 20.176C72.0794 20.176 72.2127 20.192 72.3514 20.224C72.5007 20.2453 72.6447 20.2827 72.7834 20.336C72.9327 20.3787 73.066 20.4373 73.1834 20.512C73.3007 20.5867 73.3914 20.6773 73.4554 20.784C73.5194 20.88 73.5514 20.992 73.5514 21.12C73.5514 21.4613 73.466 21.7493 73.2954 21.984C73.1247 22.2187 72.922 22.336 72.6874 22.336C72.5274 22.336 72.41 22.32 72.3354 22.288C72.2607 22.256 72.1967 22.2187 72.1434 22.176C72.1007 22.1333 72.0314 22.096 71.9354 22.064C71.85 22.032 71.7114 22.016 71.5194 22.016C71.3594 22.016 71.194 22.0427 71.0234 22.096C70.8634 22.1493 70.714 22.2293 70.5754 22.336C70.4367 22.4427 70.3247 22.5813 70.2394 22.752C70.154 22.912 70.1114 23.0987 70.1114 23.312V27.2C70.1114 27.3813 70.0954 27.5467 70.0634 27.696C70.0314 27.8347 69.946 27.9467 69.8074 28.032C69.6687 28.1173 69.4447 28.16 69.1354 28.16ZM75.76 28.144C75.472 28.144 75.2587 28.1013 75.12 28.016C74.992 27.9307 74.912 27.8133 74.88 27.664C74.848 27.5147 74.832 27.3547 74.832 27.184V21.2C74.832 21.0293 74.848 20.8747 74.88 20.736C74.912 20.5973 74.9973 20.4853 75.136 20.4C75.2747 20.3147 75.4933 20.272 75.792 20.272C76.1013 20.272 76.3253 20.336 76.464 20.464C76.6133 20.592 76.688 20.7947 76.688 21.072L76.544 21.52C76.5973 21.4027 76.688 21.2747 76.816 21.136C76.944 20.9973 77.0987 20.8587 77.28 20.72C77.472 20.5813 77.6853 20.4693 77.92 20.384C78.1547 20.2987 78.4 20.256 78.656 20.256C79.008 20.256 79.328 20.3147 79.616 20.432C79.9147 20.5493 80.176 20.72 80.4 20.944C80.6347 21.168 80.8373 21.44 81.008 21.76C81.1893 21.4827 81.392 21.232 81.616 21.008C81.84 20.7733 82.1013 20.592 82.4 20.464C82.6987 20.3253 83.0347 20.256 83.408 20.256C84.0267 20.256 84.544 20.4107 84.96 20.72C85.3867 21.0293 85.7067 21.472 85.92 22.048C86.144 22.6133 86.256 23.2907 86.256 24.08V27.184C86.256 27.3653 86.2347 27.5307 86.192 27.68C86.16 27.8187 86.0747 27.9307 85.936 28.016C85.808 28.1013 85.5947 28.144 85.296 28.144C84.9973 28.144 84.7787 28.096 84.64 28C84.5013 27.9147 84.416 27.8027 84.384 27.664C84.352 27.5147 84.336 27.3493 84.336 27.168V24.064C84.336 23.6693 84.288 23.328 84.192 23.04C84.096 22.752 83.952 22.528 83.76 22.368C83.5787 22.208 83.3387 22.128 83.04 22.128C82.72 22.128 82.4427 22.208 82.208 22.368C81.984 22.5173 81.808 22.736 81.68 23.024C81.552 23.312 81.488 23.664 81.488 24.08V27.2C81.488 27.3813 81.4613 27.552 81.408 27.712C81.3547 27.8613 81.248 27.9733 81.088 28.048C80.9387 28.1333 80.72 28.1653 80.432 28.144C80.1653 28.1333 79.968 28.08 79.84 27.984C79.7227 27.888 79.648 27.7707 79.616 27.632C79.5947 27.4827 79.584 27.328 79.584 27.168V24.064C79.584 23.6693 79.536 23.328 79.44 23.04C79.344 22.7413 79.2 22.5173 79.008 22.368C78.8267 22.208 78.5813 22.128 78.272 22.128C77.9413 22.128 77.6587 22.2133 77.424 22.384C77.2 22.5547 77.0293 22.784 76.912 23.072C76.7947 23.36 76.736 23.6907 76.736 24.064V27.2C76.736 27.3707 76.7147 27.5307 76.672 27.68C76.64 27.8293 76.5547 27.9413 76.416 28.016C76.288 28.1013 76.0693 28.144 75.76 28.144ZM88.8873 28.16C88.5993 28.16 88.3859 28.112 88.2473 28.016C88.1086 27.9307 88.0233 27.8187 87.9913 27.68C87.9593 27.5307 87.9433 27.3653 87.9433 27.184V21.232C87.9433 21.0613 87.9593 20.9067 87.9913 20.768C88.0339 20.6187 88.1193 20.5013 88.2473 20.416C88.3859 20.3307 88.6046 20.288 88.9033 20.288C89.2019 20.288 89.4153 20.3307 89.5433 20.416C89.6819 20.5013 89.7673 20.6187 89.7993 20.768C89.8313 20.9173 89.8473 21.0827 89.8473 21.264V27.2C89.8473 27.3813 89.8313 27.5467 89.7993 27.696C89.7673 27.8347 89.6819 27.9467 89.5433 28.032C89.4153 28.1173 89.1966 28.16 88.8873 28.16ZM88.8873 18.736C88.5779 18.736 88.3486 18.6933 88.1993 18.608C88.0606 18.512 87.9699 18.384 87.9273 18.224C87.8953 18.064 87.8793 17.888 87.8793 17.696C87.8793 17.4933 87.8953 17.3173 87.9273 17.168C87.9699 17.0187 88.0659 16.9013 88.2153 16.816C88.3646 16.72 88.5939 16.672 88.9033 16.672C89.2233 16.672 89.4526 16.72 89.5913 16.816C89.7299 16.912 89.8206 17.04 89.8633 17.2C89.9059 17.3493 89.9273 17.5253 89.9273 17.728C89.9273 17.9093 89.9059 18.08 89.8633 18.24C89.8206 18.4 89.7299 18.5227 89.5913 18.608C89.4526 18.6933 89.2179 18.736 88.8873 18.736ZM94.3336 28.256C94.0563 28.256 93.763 28.224 93.4536 28.16C93.1443 28.1067 92.8456 28.0267 92.5576 27.92C92.2696 27.8027 92.019 27.6693 91.8056 27.52C91.603 27.36 91.475 27.184 91.4216 26.992C91.379 26.8853 91.363 26.784 91.3736 26.688C91.3843 26.5813 91.4163 26.4747 91.4696 26.368C91.523 26.2507 91.603 26.1333 91.7096 26.016C91.8056 25.8987 91.9016 25.8347 91.9976 25.824C92.1043 25.8027 92.2376 25.8347 92.3976 25.92C92.5363 25.9733 92.6856 26.0427 92.8456 26.128C93.0163 26.2133 93.187 26.2987 93.3576 26.384C93.539 26.4693 93.7203 26.5387 93.9016 26.592C94.0936 26.6453 94.2803 26.672 94.4616 26.672C94.8563 26.672 95.171 26.608 95.4056 26.48C95.6403 26.3413 95.7576 26.1493 95.7576 25.904C95.7576 25.7653 95.7203 25.6427 95.6456 25.536C95.571 25.4293 95.4696 25.344 95.3416 25.28C95.2243 25.2053 95.0803 25.1413 94.9096 25.088C94.7496 25.024 94.5736 24.9707 94.3816 24.928C94.2003 24.8747 94.0083 24.816 93.8056 24.752C93.539 24.6773 93.2723 24.5867 93.0056 24.48C92.739 24.3733 92.499 24.2347 92.2856 24.064C92.083 23.8933 91.9176 23.68 91.7896 23.424C91.6616 23.168 91.5976 22.848 91.5976 22.464C91.5976 21.984 91.7096 21.5787 91.9336 21.248C92.1683 20.9067 92.5043 20.6453 92.9416 20.464C93.379 20.2827 93.907 20.192 94.5256 20.192C94.739 20.192 94.9416 20.208 95.1336 20.24C95.3363 20.272 95.5283 20.32 95.7096 20.384C95.9016 20.4373 96.083 20.5067 96.2536 20.592C96.435 20.6773 96.6056 20.7733 96.7656 20.88C97.0323 21.0293 97.171 21.2053 97.1816 21.408C97.1923 21.6 97.1176 21.808 96.9576 22.032C96.8403 22.1813 96.723 22.288 96.6056 22.352C96.4883 22.4053 96.3656 22.4053 96.2376 22.352C96.067 22.2667 95.8803 22.176 95.6776 22.08C95.4856 21.9733 95.283 21.8827 95.0696 21.808C94.867 21.7333 94.6536 21.696 94.4296 21.696C94.2163 21.696 94.0243 21.728 93.8536 21.792C93.683 21.856 93.555 21.9467 93.4696 22.064C93.3843 22.1813 93.3416 22.32 93.3416 22.48C93.3416 22.6293 93.3843 22.752 93.4696 22.848C93.555 22.944 93.667 23.024 93.8056 23.088C93.9443 23.152 94.1096 23.2107 94.3016 23.264C94.4936 23.3067 94.6963 23.3493 94.9096 23.392C95.2083 23.456 95.5123 23.536 95.8216 23.632C96.131 23.728 96.4136 23.8613 96.6696 24.032C96.9363 24.2027 97.1496 24.432 97.3096 24.72C97.4696 24.9973 97.5496 25.36 97.5496 25.808C97.5496 26.5867 97.2616 27.1893 96.6856 27.616C96.1203 28.0427 95.3363 28.256 94.3336 28.256ZM101.521 28.256C101.244 28.256 100.95 28.224 100.641 28.16C100.332 28.1067 100.033 28.0267 99.7451 27.92C99.4571 27.8027 99.2065 27.6693 98.9931 27.52C98.7905 27.36 98.6625 27.184 98.6091 26.992C98.5665 26.8853 98.5505 26.784 98.5611 26.688C98.5718 26.5813 98.6038 26.4747 98.6571 26.368C98.7105 26.2507 98.7905 26.1333 98.8971 26.016C98.9931 25.8987 99.0891 25.8347 99.1851 25.824C99.2918 25.8027 99.4251 25.8347 99.5851 25.92C99.7238 25.9733 99.8731 26.0427 100.033 26.128C100.204 26.2133 100.374 26.2987 100.545 26.384C100.726 26.4693 100.908 26.5387 101.089 26.592C101.281 26.6453 101.468 26.672 101.649 26.672C102.044 26.672 102.358 26.608 102.593 26.48C102.828 26.3413 102.945 26.1493 102.945 25.904C102.945 25.7653 102.908 25.6427 102.833 25.536C102.758 25.4293 102.657 25.344 102.529 25.28C102.412 25.2053 102.268 25.1413 102.097 25.088C101.937 25.024 101.761 24.9707 101.569 24.928C101.388 24.8747 101.196 24.816 100.993 24.752C100.726 24.6773 100.46 24.5867 100.193 24.48C99.9265 24.3733 99.6865 24.2347 99.4731 24.064C99.2705 23.8933 99.1051 23.68 98.9771 23.424C98.8491 23.168 98.7851 22.848 98.7851 22.464C98.7851 21.984 98.8971 21.5787 99.1211 21.248C99.3558 20.9067 99.6918 20.6453 100.129 20.464C100.566 20.2827 101.094 20.192 101.713 20.192C101.926 20.192 102.129 20.208 102.321 20.24C102.524 20.272 102.716 20.32 102.897 20.384C103.089 20.4373 103.27 20.5067 103.441 20.592C103.622 20.6773 103.793 20.7733 103.953 20.88C104.22 21.0293 104.358 21.2053 104.369 21.408C104.38 21.6 104.305 21.808 104.145 22.032C104.028 22.1813 103.91 22.288 103.793 22.352C103.676 22.4053 103.553 22.4053 103.425 22.352C103.254 22.2667 103.068 22.176 102.865 22.08C102.673 21.9733 102.47 21.8827 102.257 21.808C102.054 21.7333 101.841 21.696 101.617 21.696C101.404 21.696 101.212 21.728 101.041 21.792C100.87 21.856 100.742 21.9467 100.657 22.064C100.572 22.1813 100.529 22.32 100.529 22.48C100.529 22.6293 100.572 22.752 100.657 22.848C100.742 22.944 100.854 23.024 100.993 23.088C101.132 23.152 101.297 23.2107 101.489 23.264C101.681 23.3067 101.884 23.3493 102.097 23.392C102.396 23.456 102.7 23.536 103.009 23.632C103.318 23.728 103.601 23.8613 103.857 24.032C104.124 24.2027 104.337 24.432 104.497 24.72C104.657 24.9973 104.737 25.36 104.737 25.808C104.737 26.5867 104.449 27.1893 103.873 27.616C103.308 28.0427 102.524 28.256 101.521 28.256ZM107.153 28.16C106.865 28.16 106.652 28.112 106.513 28.016C106.374 27.9307 106.289 27.8187 106.257 27.68C106.225 27.5307 106.209 27.3653 106.209 27.184V21.232C106.209 21.0613 106.225 20.9067 106.257 20.768C106.3 20.6187 106.385 20.5013 106.513 20.416C106.652 20.3307 106.87 20.288 107.169 20.288C107.468 20.288 107.681 20.3307 107.809 20.416C107.948 20.5013 108.033 20.6187 108.065 20.768C108.097 20.9173 108.113 21.0827 108.113 21.264V27.2C108.113 27.3813 108.097 27.5467 108.065 27.696C108.033 27.8347 107.948 27.9467 107.809 28.032C107.681 28.1173 107.462 28.16 107.153 28.16ZM107.153 18.736C106.844 18.736 106.614 18.6933 106.465 18.608C106.326 18.512 106.236 18.384 106.193 18.224C106.161 18.064 106.145 17.888 106.145 17.696C106.145 17.4933 106.161 17.3173 106.193 17.168C106.236 17.0187 106.332 16.9013 106.481 16.816C106.63 16.72 106.86 16.672 107.169 16.672C107.489 16.672 107.718 16.72 107.857 16.816C107.996 16.912 108.086 17.04 108.129 17.2C108.172 17.3493 108.193 17.5253 108.193 17.728C108.193 17.9093 108.172 18.08 108.129 18.24C108.086 18.4 107.996 18.5227 107.857 18.608C107.718 18.6933 107.484 18.736 107.153 18.736ZM113.465 28.256C112.953 28.256 112.452 28.16 111.961 27.968C111.481 27.7653 111.044 27.4827 110.649 27.12C110.265 26.7573 109.956 26.3307 109.721 25.84C109.497 25.3493 109.385 24.8107 109.385 24.224C109.385 23.6587 109.492 23.1307 109.705 22.64C109.918 22.1493 110.212 21.7173 110.585 21.344C110.958 20.9707 111.385 20.6827 111.865 20.48C112.356 20.2667 112.878 20.16 113.433 20.16C114.18 20.16 114.857 20.3413 115.465 20.704C116.073 21.056 116.558 21.536 116.921 22.144C117.284 22.752 117.465 23.44 117.465 24.208C117.465 24.816 117.353 25.3707 117.129 25.872C116.905 26.3627 116.601 26.7893 116.217 27.152C115.833 27.504 115.401 27.776 114.921 27.968C114.452 28.16 113.966 28.256 113.465 28.256ZM113.433 26.368C113.785 26.368 114.121 26.2827 114.441 26.112C114.772 25.9307 115.038 25.6747 115.241 25.344C115.454 25.0133 115.561 24.624 115.561 24.176C115.561 23.76 115.465 23.392 115.273 23.072C115.092 22.752 114.841 22.5013 114.521 22.32C114.201 22.1387 113.833 22.048 113.417 22.048C113.022 22.048 112.665 22.144 112.345 22.336C112.025 22.5173 111.769 22.7733 111.577 23.104C111.396 23.424 111.305 23.7867 111.305 24.192C111.305 24.64 111.406 25.0293 111.609 25.36C111.812 25.68 112.073 25.9307 112.393 26.112C112.724 26.2827 113.07 26.368 113.433 26.368ZM119.667 28.144C119.379 28.144 119.165 28.096 119.027 28C118.899 27.9147 118.819 27.8027 118.787 27.664C118.755 27.5147 118.739 27.3493 118.739 27.168V21.184C118.739 21.0133 118.755 20.8587 118.787 20.72C118.819 20.5813 118.904 20.4747 119.043 20.4C119.181 20.3147 119.395 20.272 119.683 20.272C119.939 20.272 120.131 20.304 120.259 20.368C120.387 20.432 120.472 20.512 120.515 20.608C120.557 20.704 120.579 20.8 120.579 20.896C120.589 20.992 120.6 21.0667 120.611 21.12L120.547 21.632C120.611 21.4613 120.717 21.296 120.867 21.136C121.016 20.976 121.197 20.832 121.411 20.704C121.624 20.5653 121.853 20.4587 122.099 20.384C122.355 20.2987 122.616 20.256 122.883 20.256C123.384 20.256 123.832 20.3467 124.227 20.528C124.621 20.7093 124.957 20.9653 125.235 21.296C125.523 21.6267 125.741 22.0213 125.891 22.48C126.04 22.928 126.115 23.4347 126.115 24V27.184C126.115 27.3653 126.093 27.5307 126.051 27.68C126.019 27.8187 125.939 27.9307 125.811 28.016C125.683 28.1013 125.464 28.144 125.155 28.144C124.856 28.144 124.637 28.096 124.499 28C124.36 27.9147 124.275 27.8027 124.243 27.664C124.211 27.5147 124.195 27.3493 124.195 27.168V23.984C124.195 23.6 124.125 23.2693 123.987 22.992C123.859 22.7147 123.667 22.5013 123.411 22.352C123.165 22.2027 122.851 22.128 122.467 22.128C122.093 22.128 121.768 22.208 121.491 22.368C121.213 22.5173 121 22.7307 120.851 23.008C120.701 23.2853 120.627 23.6107 120.627 23.984V27.184C120.627 27.3653 120.611 27.5307 120.579 27.68C120.547 27.8187 120.461 27.9307 120.323 28.016C120.195 28.1013 119.976 28.144 119.667 28.144Z" fill="#252F4A"/>
<defs>
<clipPath id="clip0_16806_123335">
<rect width="24" height="24" fill="white" transform="translate(15 10.5)"/>
</clipPath>
</defs>
</svg>
