<svg width="65" height="45" viewBox="0 0 65 45" fill="none" xmlns="http://www.w3.org/2000/svg">
<rect width="65" height="45" rx="5" fill="#1EA4FF"/>
<path d="M19.5235 28.304C19.0435 28.304 18.6062 28.2453 18.2115 28.128C17.8275 28.0107 17.4862 27.8613 17.1875 27.68C16.8995 27.4987 16.6542 27.312 16.4515 27.12C16.2488 26.928 16.0995 26.752 16.0035 26.592C15.8648 26.4 15.7742 26.2293 15.7315 26.08C15.6888 25.9307 15.6995 25.7867 15.7635 25.648C15.8382 25.4987 15.9715 25.344 16.1635 25.184C16.3555 25.0133 16.5315 24.928 16.6915 24.928C16.8622 24.9173 17.0222 24.9653 17.1715 25.072C17.3315 25.1787 17.4862 25.328 17.6355 25.52C17.8915 25.8613 18.1795 26.1067 18.4995 26.256C18.8195 26.3947 19.1395 26.464 19.4595 26.464C19.8755 26.464 20.2382 26.4107 20.5475 26.304C20.8568 26.1867 21.0968 26.016 21.2675 25.792C21.4488 25.568 21.5395 25.28 21.5395 24.928C21.5395 24.64 21.4488 24.4053 21.2675 24.224C21.0968 24.032 20.8675 23.872 20.5795 23.744C20.2915 23.6053 19.9662 23.4827 19.6035 23.376C19.2515 23.2587 18.8942 23.1307 18.5315 22.992C18.2755 22.9067 18.0195 22.8053 17.7635 22.688C17.5075 22.56 17.2675 22.416 17.0435 22.256C16.8302 22.096 16.6382 21.9093 16.4675 21.696C16.3075 21.472 16.1795 21.216 16.0835 20.928C15.9875 20.64 15.9395 20.304 15.9395 19.92C15.9395 19.312 16.0888 18.7787 16.3875 18.32C16.6862 17.8507 17.1022 17.4827 17.6355 17.216C18.1688 16.9387 18.7768 16.8 19.4595 16.8C19.8968 16.8 20.2862 16.8427 20.6275 16.928C20.9795 17.0027 21.2782 17.104 21.5235 17.232C21.7795 17.3493 21.9875 17.472 22.1475 17.6C22.3182 17.7173 22.4408 17.8187 22.5155 17.904C22.7608 18.1493 22.8942 18.3573 22.9155 18.528C22.9475 18.688 22.8515 18.9067 22.6275 19.184C22.4035 19.472 22.1848 19.632 21.9715 19.664C21.7688 19.6853 21.5395 19.6 21.2835 19.408C21.1128 19.2267 20.9422 19.0827 20.7715 18.976C20.6008 18.8587 20.4088 18.7733 20.1955 18.72C19.9928 18.6667 19.7422 18.64 19.4435 18.64C19.2302 18.64 19.0222 18.672 18.8195 18.736C18.6275 18.7893 18.4622 18.8747 18.3235 18.992C18.1848 19.0987 18.0728 19.232 17.9875 19.392C17.9128 19.552 17.8755 19.7333 17.8755 19.936C17.8755 20.2133 17.9502 20.4427 18.0995 20.624C18.2595 20.7947 18.4728 20.9387 18.7395 21.056C19.0062 21.1627 19.3048 21.264 19.6355 21.36C19.9662 21.456 20.3022 21.5573 20.6435 21.664C20.9955 21.7813 21.3422 21.92 21.6835 22.08C22.0248 22.24 22.3288 22.4427 22.5955 22.688C22.8622 22.9227 23.0755 23.2213 23.2355 23.584C23.3955 23.936 23.4755 24.368 23.4755 24.88C23.4755 25.4667 23.3635 25.9787 23.1395 26.416C22.9155 26.8533 22.6115 27.2107 22.2275 27.488C21.8435 27.7653 21.4168 27.968 20.9475 28.096C20.4782 28.2347 20.0035 28.304 19.5235 28.304ZM31.3764 28.128C31.067 28.128 30.8377 28.0693 30.6884 27.952C30.539 27.8347 30.4644 27.6747 30.4644 27.472L30.5764 26.944C30.491 27.0827 30.347 27.248 30.1444 27.44C29.9417 27.6213 29.675 27.7867 29.3444 27.936C29.0137 28.0747 28.6137 28.144 28.1444 28.144C27.643 28.144 27.1684 28.0427 26.7204 27.84C26.283 27.6267 25.8937 27.3387 25.5524 26.976C25.2217 26.6027 24.955 26.1813 24.7524 25.712C24.5604 25.232 24.4644 24.72 24.4644 24.176C24.4644 23.6533 24.5604 23.1627 24.7524 22.704C24.955 22.2347 25.227 21.8187 25.5684 21.456C25.9097 21.0933 26.299 20.8107 26.7364 20.608C27.1844 20.3947 27.6537 20.288 28.1444 20.288C28.5817 20.288 28.9497 20.3467 29.2484 20.464C29.5577 20.5813 29.819 20.7307 30.0324 20.912C30.2457 21.0827 30.4217 21.264 30.5604 21.456L30.4644 20.992C30.4644 20.7573 30.539 20.5813 30.6884 20.464C30.8377 20.336 31.0724 20.272 31.3924 20.272C31.691 20.272 31.9044 20.32 32.0324 20.416C32.1604 20.5013 32.2404 20.624 32.2724 20.784C32.3044 20.9333 32.3204 21.104 32.3204 21.296V27.152C32.3204 27.3333 32.3044 27.4987 32.2724 27.648C32.2404 27.7973 32.155 27.9147 32.0164 28C31.8884 28.0853 31.675 28.128 31.3764 28.128ZM28.4324 26.272C28.795 26.272 29.1204 26.1813 29.4084 26C29.6964 25.8187 29.9257 25.5733 30.0964 25.264C30.2777 24.944 30.3684 24.592 30.3684 24.208C30.3684 23.792 30.2777 23.4293 30.0964 23.12C29.915 22.8107 29.675 22.5707 29.3764 22.4C29.0884 22.2187 28.763 22.128 28.4004 22.128C28.0057 22.128 27.6537 22.224 27.3444 22.416C27.035 22.5973 26.7897 22.848 26.6084 23.168C26.4377 23.4773 26.3524 23.8293 26.3524 24.224C26.3524 24.608 26.443 24.9547 26.6244 25.264C26.8057 25.5733 27.051 25.8187 27.3604 26C27.6804 26.1813 28.0377 26.272 28.4324 26.272ZM37.2594 28.192C37.0354 28.192 36.8487 28.1547 36.6994 28.08C36.55 28.0053 36.4327 27.8827 36.3474 27.712L33.4354 21.616C33.2754 21.296 33.2327 21.04 33.3074 20.848C33.382 20.656 33.574 20.4853 33.8834 20.336C34.2034 20.176 34.4594 20.1227 34.6514 20.176C34.8434 20.2293 35.014 20.4267 35.1634 20.768L37.2594 25.68L39.3234 20.864C39.4727 20.512 39.6434 20.2933 39.8354 20.208C40.0274 20.112 40.3047 20.1547 40.6674 20.336C41.03 20.5173 41.222 20.72 41.2434 20.944C41.2647 21.1573 41.206 21.4027 41.0674 21.68L38.1714 27.712C38.086 27.872 37.9687 27.9893 37.8194 28.064C37.67 28.1493 37.4834 28.192 37.2594 28.192ZM45.8275 28.256C45.1342 28.256 44.5262 28.144 44.0035 27.92C43.4915 27.696 43.0595 27.392 42.7075 27.008C42.3662 26.6133 42.1048 26.176 41.9235 25.696C41.7528 25.2053 41.6675 24.6987 41.6675 24.176C41.6675 23.408 41.8435 22.7253 42.1955 22.128C42.5475 21.5307 43.0328 21.0613 43.6515 20.72C44.2808 20.3787 45.0008 20.208 45.8115 20.208C46.3875 20.208 46.8942 20.2987 47.3315 20.48C47.7688 20.6613 48.1315 20.9013 48.4195 21.2C48.7182 21.488 48.9422 21.808 49.0915 22.16C49.2515 22.512 49.3315 22.8533 49.3315 23.184C49.3315 23.7493 49.1928 24.16 48.9155 24.416C48.6488 24.672 48.3128 24.8 47.9075 24.8H43.6835C43.6942 25.1627 43.8062 25.4773 44.0195 25.744C44.2435 26.0107 44.5208 26.2187 44.8515 26.368C45.1928 26.5067 45.5395 26.576 45.8915 26.576C46.1582 26.576 46.3928 26.56 46.5955 26.528C46.8088 26.496 46.9902 26.4587 47.1395 26.416C47.2888 26.3627 47.4168 26.3093 47.5235 26.256C47.6408 26.2027 47.7475 26.1547 47.8435 26.112C47.9395 26.0693 48.0302 26.0427 48.1155 26.032C48.2328 26.0213 48.3502 26.048 48.4675 26.112C48.5848 26.176 48.6808 26.288 48.7555 26.448C48.8195 26.5547 48.8622 26.656 48.8835 26.752C48.9155 26.8373 48.9315 26.9227 48.9315 27.008C48.9315 27.2213 48.8035 27.424 48.5475 27.616C48.2915 27.7973 47.9288 27.9467 47.4595 28.064C47.0008 28.192 46.4568 28.256 45.8275 28.256ZM43.6835 23.664H46.9635C47.1448 23.664 47.2835 23.6373 47.3795 23.584C47.4755 23.52 47.5235 23.392 47.5235 23.2C47.5235 22.9547 47.4488 22.736 47.2995 22.544C47.1502 22.3413 46.9475 22.1867 46.6915 22.08C46.4355 21.9627 46.1368 21.904 45.7955 21.904C45.4008 21.904 45.0435 21.984 44.7235 22.144C44.4035 22.2933 44.1475 22.5013 43.9555 22.768C43.7742 23.0347 43.6835 23.3333 43.6835 23.664Z" fill="white"/>
</svg>
