<svg width="132" height="45" viewBox="0 0 132 45" fill="none" xmlns="http://www.w3.org/2000/svg">
<rect width="132" height="45" rx="5" fill="#1EA4FF"/>
<path d="M19.5938 28.304C19.1138 28.304 18.6765 28.2453 18.2818 28.128C17.8978 28.0107 17.5565 27.8613 17.2578 27.68C16.9698 27.4987 16.7245 27.312 16.5218 27.12C16.3191 26.928 16.1698 26.752 16.0738 26.592C15.9351 26.4 15.8445 26.2293 15.8018 26.08C15.7591 25.9307 15.7698 25.7867 15.8338 25.648C15.9085 25.4987 16.0418 25.344 16.2338 25.184C16.4258 25.0133 16.6018 24.928 16.7618 24.928C16.9325 24.9173 17.0925 24.9653 17.2418 25.072C17.4018 25.1787 17.5565 25.328 17.7058 25.52C17.9618 25.8613 18.2498 26.1067 18.5698 26.256C18.8898 26.3947 19.2098 26.464 19.5298 26.464C19.9458 26.464 20.3085 26.4107 20.6178 26.304C20.9271 26.1867 21.1671 26.016 21.3378 25.792C21.5191 25.568 21.6098 25.28 21.6098 24.928C21.6098 24.64 21.5191 24.4053 21.3378 24.224C21.1671 24.032 20.9378 23.872 20.6498 23.744C20.3618 23.6053 20.0365 23.4827 19.6738 23.376C19.3218 23.2587 18.9645 23.1307 18.6018 22.992C18.3458 22.9067 18.0898 22.8053 17.8338 22.688C17.5778 22.56 17.3378 22.416 17.1138 22.256C16.9005 22.096 16.7085 21.9093 16.5378 21.696C16.3778 21.472 16.2498 21.216 16.1538 20.928C16.0578 20.64 16.0098 20.304 16.0098 19.92C16.0098 19.312 16.1591 18.7787 16.4578 18.32C16.7565 17.8507 17.1725 17.4827 17.7058 17.216C18.2391 16.9387 18.8471 16.8 19.5298 16.8C19.9671 16.8 20.3565 16.8427 20.6978 16.928C21.0498 17.0027 21.3485 17.104 21.5938 17.232C21.8498 17.3493 22.0578 17.472 22.2178 17.6C22.3885 17.7173 22.5111 17.8187 22.5858 17.904C22.8311 18.1493 22.9645 18.3573 22.9858 18.528C23.0178 18.688 22.9218 18.9067 22.6978 19.184C22.4738 19.472 22.2551 19.632 22.0418 19.664C21.8391 19.6853 21.6098 19.6 21.3538 19.408C21.1831 19.2267 21.0125 19.0827 20.8418 18.976C20.6711 18.8587 20.4791 18.7733 20.2658 18.72C20.0631 18.6667 19.8125 18.64 19.5138 18.64C19.3005 18.64 19.0925 18.672 18.8898 18.736C18.6978 18.7893 18.5325 18.8747 18.3938 18.992C18.2551 19.0987 18.1431 19.232 18.0578 19.392C17.9831 19.552 17.9458 19.7333 17.9458 19.936C17.9458 20.2133 18.0205 20.4427 18.1698 20.624C18.3298 20.7947 18.5431 20.9387 18.8098 21.056C19.0765 21.1627 19.3751 21.264 19.7058 21.36C20.0365 21.456 20.3725 21.5573 20.7138 21.664C21.0658 21.7813 21.4125 21.92 21.7538 22.08C22.0951 22.24 22.3991 22.4427 22.6658 22.688C22.9325 22.9227 23.1458 23.2213 23.3058 23.584C23.4658 23.936 23.5458 24.368 23.5458 24.88C23.5458 25.4667 23.4338 25.9787 23.2098 26.416C22.9858 26.8533 22.6818 27.2107 22.2978 27.488C21.9138 27.7653 21.4871 27.968 21.0178 28.096C20.5485 28.2347 20.0738 28.304 19.5938 28.304ZM31.4467 28.128C31.1374 28.128 30.908 28.0693 30.7587 27.952C30.6094 27.8347 30.5347 27.6747 30.5347 27.472L30.6467 26.944C30.5614 27.0827 30.4174 27.248 30.2147 27.44C30.012 27.6213 29.7454 27.7867 29.4147 27.936C29.084 28.0747 28.684 28.144 28.2147 28.144C27.7134 28.144 27.2387 28.0427 26.7907 27.84C26.3534 27.6267 25.964 27.3387 25.6227 26.976C25.292 26.6027 25.0254 26.1813 24.8227 25.712C24.6307 25.232 24.5347 24.72 24.5347 24.176C24.5347 23.6533 24.6307 23.1627 24.8227 22.704C25.0254 22.2347 25.2974 21.8187 25.6387 21.456C25.98 21.0933 26.3694 20.8107 26.8067 20.608C27.2547 20.3947 27.724 20.288 28.2147 20.288C28.652 20.288 29.02 20.3467 29.3187 20.464C29.628 20.5813 29.8894 20.7307 30.1027 20.912C30.316 21.0827 30.492 21.264 30.6307 21.456L30.5347 20.992C30.5347 20.7573 30.6094 20.5813 30.7587 20.464C30.908 20.336 31.1427 20.272 31.4627 20.272C31.7614 20.272 31.9747 20.32 32.1027 20.416C32.2307 20.5013 32.3107 20.624 32.3427 20.784C32.3747 20.9333 32.3907 21.104 32.3907 21.296V27.152C32.3907 27.3333 32.3747 27.4987 32.3427 27.648C32.3107 27.7973 32.2254 27.9147 32.0867 28C31.9587 28.0853 31.7454 28.128 31.4467 28.128ZM28.5027 26.272C28.8654 26.272 29.1907 26.1813 29.4787 26C29.7667 25.8187 29.996 25.5733 30.1667 25.264C30.348 24.944 30.4387 24.592 30.4387 24.208C30.4387 23.792 30.348 23.4293 30.1667 23.12C29.9854 22.8107 29.7454 22.5707 29.4467 22.4C29.1587 22.2187 28.8334 22.128 28.4707 22.128C28.076 22.128 27.724 22.224 27.4147 22.416C27.1054 22.5973 26.86 22.848 26.6787 23.168C26.508 23.4773 26.4227 23.8293 26.4227 24.224C26.4227 24.608 26.5134 24.9547 26.6947 25.264C26.876 25.5733 27.1214 25.8187 27.4307 26C27.7507 26.1813 28.108 26.272 28.5027 26.272ZM37.3297 28.192C37.1057 28.192 36.919 28.1547 36.7697 28.08C36.6204 28.0053 36.503 27.8827 36.4177 27.712L33.5057 21.616C33.3457 21.296 33.303 21.04 33.3777 20.848C33.4524 20.656 33.6444 20.4853 33.9537 20.336C34.2737 20.176 34.5297 20.1227 34.7217 20.176C34.9137 20.2293 35.0844 20.4267 35.2337 20.768L37.3297 25.68L39.3937 20.864C39.543 20.512 39.7137 20.2933 39.9057 20.208C40.0977 20.112 40.375 20.1547 40.7377 20.336C41.1004 20.5173 41.2924 20.72 41.3137 20.944C41.335 21.1573 41.2764 21.4027 41.1377 21.68L38.2417 27.712C38.1564 27.872 38.039 27.9893 37.8897 28.064C37.7404 28.1493 37.5537 28.192 37.3297 28.192ZM45.8978 28.256C45.2045 28.256 44.5965 28.144 44.0738 27.92C43.5618 27.696 43.1298 27.392 42.7778 27.008C42.4365 26.6133 42.1751 26.176 41.9938 25.696C41.8231 25.2053 41.7378 24.6987 41.7378 24.176C41.7378 23.408 41.9138 22.7253 42.2658 22.128C42.6178 21.5307 43.1031 21.0613 43.7218 20.72C44.3511 20.3787 45.0711 20.208 45.8818 20.208C46.4578 20.208 46.9645 20.2987 47.4018 20.48C47.8391 20.6613 48.2018 20.9013 48.4898 21.2C48.7885 21.488 49.0125 21.808 49.1618 22.16C49.3218 22.512 49.4018 22.8533 49.4018 23.184C49.4018 23.7493 49.2631 24.16 48.9858 24.416C48.7191 24.672 48.3831 24.8 47.9778 24.8H43.7538C43.7645 25.1627 43.8765 25.4773 44.0898 25.744C44.3138 26.0107 44.5911 26.2187 44.9218 26.368C45.2631 26.5067 45.6098 26.576 45.9618 26.576C46.2285 26.576 46.4631 26.56 46.6658 26.528C46.8791 26.496 47.0605 26.4587 47.2098 26.416C47.3591 26.3627 47.4871 26.3093 47.5938 26.256C47.7111 26.2027 47.8178 26.1547 47.9138 26.112C48.0098 26.0693 48.1005 26.0427 48.1858 26.032C48.3031 26.0213 48.4205 26.048 48.5378 26.112C48.6551 26.176 48.7511 26.288 48.8258 26.448C48.8898 26.5547 48.9325 26.656 48.9538 26.752C48.9858 26.8373 49.0018 26.9227 49.0018 27.008C49.0018 27.2213 48.8738 27.424 48.6178 27.616C48.3618 27.7973 47.9991 27.9467 47.5298 28.064C47.0711 28.192 46.5271 28.256 45.8978 28.256ZM43.7538 23.664H47.0338C47.2151 23.664 47.3538 23.6373 47.4498 23.584C47.5458 23.52 47.5938 23.392 47.5938 23.2C47.5938 22.9547 47.5191 22.736 47.3698 22.544C47.2205 22.3413 47.0178 22.1867 46.7618 22.08C46.5058 21.9627 46.2071 21.904 45.8658 21.904C45.4711 21.904 45.1138 21.984 44.7938 22.144C44.4738 22.2933 44.2178 22.5013 44.0258 22.768C43.8445 23.0347 43.7538 23.3333 43.7538 23.664ZM61.0873 28.128C60.778 28.128 60.5486 28.0693 60.3993 27.952C60.25 27.8347 60.1753 27.6747 60.1753 27.472L60.2873 26.944C60.202 27.0827 60.058 27.248 59.8553 27.44C59.6526 27.6213 59.386 27.7867 59.0553 27.936C58.7246 28.0747 58.3246 28.144 57.8553 28.144C57.354 28.144 56.8793 28.0427 56.4313 27.84C55.994 27.6267 55.6046 27.3387 55.2633 26.976C54.9326 26.6027 54.666 26.1813 54.4633 25.712C54.2713 25.232 54.1753 24.72 54.1753 24.176C54.1753 23.6533 54.2713 23.1627 54.4633 22.704C54.666 22.2347 54.938 21.8187 55.2793 21.456C55.6206 21.0933 56.01 20.8107 56.4473 20.608C56.8953 20.3947 57.3646 20.288 57.8553 20.288C58.2926 20.288 58.6606 20.3467 58.9593 20.464C59.2686 20.5813 59.53 20.7307 59.7433 20.912C59.9566 21.0827 60.1326 21.264 60.2713 21.456L60.1753 20.992C60.1753 20.7573 60.25 20.5813 60.3993 20.464C60.5486 20.336 60.7833 20.272 61.1033 20.272C61.402 20.272 61.6153 20.32 61.7433 20.416C61.8713 20.5013 61.9513 20.624 61.9833 20.784C62.0153 20.9333 62.0313 21.104 62.0313 21.296V27.152C62.0313 27.3333 62.0153 27.4987 61.9833 27.648C61.9513 27.7973 61.866 27.9147 61.7273 28C61.5993 28.0853 61.386 28.128 61.0873 28.128ZM58.1433 26.272C58.506 26.272 58.8313 26.1813 59.1193 26C59.4073 25.8187 59.6366 25.5733 59.8073 25.264C59.9886 24.944 60.0793 24.592 60.0793 24.208C60.0793 23.792 59.9886 23.4293 59.8073 23.12C59.626 22.8107 59.386 22.5707 59.0873 22.4C58.7993 22.2187 58.474 22.128 58.1113 22.128C57.7166 22.128 57.3646 22.224 57.0553 22.416C56.746 22.5973 56.5006 22.848 56.3193 23.168C56.1486 23.4773 56.0633 23.8293 56.0633 24.224C56.0633 24.608 56.154 24.9547 56.3353 25.264C56.5166 25.5733 56.762 25.8187 57.0713 26C57.3913 26.1813 57.7486 26.272 58.1433 26.272ZM64.5807 28.144C64.2927 28.144 64.0794 28.096 63.9407 28C63.8127 27.9147 63.7327 27.8027 63.7007 27.664C63.6687 27.5147 63.6527 27.3493 63.6527 27.168V21.184C63.6527 21.0133 63.6687 20.8587 63.7007 20.72C63.7327 20.5813 63.818 20.4747 63.9567 20.4C64.0954 20.3147 64.3087 20.272 64.5967 20.272C64.8527 20.272 65.0447 20.304 65.1727 20.368C65.3007 20.432 65.386 20.512 65.4287 20.608C65.4714 20.704 65.4927 20.8 65.4927 20.896C65.5034 20.992 65.514 21.0667 65.5247 21.12L65.4607 21.632C65.5247 21.4613 65.6314 21.296 65.7807 21.136C65.93 20.976 66.1114 20.832 66.3247 20.704C66.538 20.5653 66.7674 20.4587 67.0127 20.384C67.2687 20.2987 67.53 20.256 67.7967 20.256C68.298 20.256 68.746 20.3467 69.1407 20.528C69.5354 20.7093 69.8714 20.9653 70.1487 21.296C70.4367 21.6267 70.6554 22.0213 70.8047 22.48C70.954 22.928 71.0287 23.4347 71.0287 24V27.184C71.0287 27.3653 71.0074 27.5307 70.9647 27.68C70.9327 27.8187 70.8527 27.9307 70.7247 28.016C70.5967 28.1013 70.378 28.144 70.0687 28.144C69.77 28.144 69.5514 28.096 69.4127 28C69.274 27.9147 69.1887 27.8027 69.1567 27.664C69.1247 27.5147 69.1087 27.3493 69.1087 27.168V23.984C69.1087 23.6 69.0394 23.2693 68.9007 22.992C68.7727 22.7147 68.5807 22.5013 68.3247 22.352C68.0794 22.2027 67.7647 22.128 67.3807 22.128C67.0074 22.128 66.682 22.208 66.4047 22.368C66.1274 22.5173 65.914 22.7307 65.7647 23.008C65.6154 23.2853 65.5407 23.6107 65.5407 23.984V27.184C65.5407 27.3653 65.5247 27.5307 65.4927 27.68C65.4607 27.8187 65.3754 27.9307 65.2367 28.016C65.1087 28.1013 64.89 28.144 64.5807 28.144ZM75.9818 28.144C75.4911 28.144 75.0271 28.0427 74.5898 27.84C74.1525 27.6373 73.7685 27.36 73.4378 27.008C73.1071 26.6453 72.8458 26.224 72.6538 25.744C72.4618 25.2533 72.3658 24.7307 72.3658 24.176C72.3658 23.6427 72.4618 23.1413 72.6538 22.672C72.8458 22.192 73.1071 21.776 73.4378 21.424C73.7791 21.0613 74.1685 20.7787 74.6058 20.576C75.0431 20.3733 75.5018 20.272 75.9818 20.272C76.4938 20.272 76.9525 20.3733 77.3578 20.576C77.7631 20.7787 78.1045 21.0613 78.3818 21.424C78.6698 21.776 78.8885 22.192 79.0378 22.672C79.1871 23.1413 79.2671 23.648 79.2778 24.192C79.2778 24.736 79.2031 25.248 79.0538 25.728C78.9151 26.1973 78.7018 26.6133 78.4138 26.976C78.1365 27.3387 77.7898 27.6267 77.3738 27.84C76.9685 28.0427 76.5045 28.144 75.9818 28.144ZM76.2378 26.272C76.6111 26.272 76.9418 26.1867 77.2298 26.016C77.5285 25.8347 77.7631 25.5893 77.9338 25.28C78.1151 24.9707 78.2058 24.6187 78.2058 24.224C78.2058 23.8187 78.1151 23.4613 77.9338 23.152C77.7631 22.8427 77.5285 22.5973 77.2298 22.416C76.9418 22.2347 76.6111 22.144 76.2378 22.144C75.8645 22.144 75.5285 22.2347 75.2298 22.416C74.9311 22.5867 74.6911 22.832 74.5098 23.152C74.3391 23.4613 74.2538 23.8187 74.2538 24.224C74.2538 24.6187 74.3391 24.9707 74.5098 25.28C74.6911 25.5893 74.9311 25.8347 75.2298 26.016C75.5391 26.1867 75.8751 26.272 76.2378 26.272ZM79.1978 28.144C78.8991 28.144 78.6805 28.096 78.5418 28C78.4031 27.8933 78.3125 27.728 78.2698 27.504V17.648C78.2698 17.4667 78.2805 17.3067 78.3018 17.168C78.3338 17.0187 78.4138 16.9013 78.5418 16.816C78.6805 16.72 78.8938 16.672 79.1818 16.672C79.4911 16.672 79.7098 16.7147 79.8378 16.8C79.9658 16.8853 80.0458 17.0027 80.0778 17.152C80.1205 17.2907 80.1418 17.4507 80.1418 17.632V27.168C80.1418 27.3493 80.1258 27.5147 80.0938 27.664C80.0618 27.8133 79.9765 27.9307 79.8378 28.016C79.7098 28.1013 79.4965 28.144 79.1978 28.144ZM86.7057 28.144C86.4177 28.144 86.2044 28.096 86.0657 28C85.9377 27.9147 85.8577 27.8027 85.8257 27.664C85.7937 27.5147 85.7777 27.3493 85.7777 27.168V21.184C85.7777 21.0133 85.7937 20.8587 85.8257 20.72C85.8577 20.5813 85.943 20.4747 86.0817 20.4C86.2204 20.3147 86.4337 20.272 86.7217 20.272C86.9777 20.272 87.1697 20.304 87.2977 20.368C87.4257 20.432 87.511 20.512 87.5537 20.608C87.5964 20.704 87.6177 20.8 87.6177 20.896C87.6284 20.992 87.639 21.0667 87.6497 21.12L87.5857 21.632C87.6497 21.4613 87.7564 21.296 87.9057 21.136C88.055 20.976 88.2364 20.832 88.4497 20.704C88.663 20.5653 88.8924 20.4587 89.1377 20.384C89.3937 20.2987 89.655 20.256 89.9217 20.256C90.423 20.256 90.871 20.3467 91.2657 20.528C91.6604 20.7093 91.9964 20.9653 92.2737 21.296C92.5617 21.6267 92.7804 22.0213 92.9297 22.48C93.079 22.928 93.1537 23.4347 93.1537 24V27.184C93.1537 27.3653 93.1324 27.5307 93.0897 27.68C93.0577 27.8187 92.9777 27.9307 92.8497 28.016C92.7217 28.1013 92.503 28.144 92.1937 28.144C91.895 28.144 91.6764 28.096 91.5377 28C91.399 27.9147 91.3137 27.8027 91.2817 27.664C91.2497 27.5147 91.2337 27.3493 91.2337 27.168V23.984C91.2337 23.6 91.1644 23.2693 91.0257 22.992C90.8977 22.7147 90.7057 22.5013 90.4497 22.352C90.2044 22.2027 89.8897 22.128 89.5057 22.128C89.1324 22.128 88.807 22.208 88.5297 22.368C88.2524 22.5173 88.039 22.7307 87.8897 23.008C87.7404 23.2853 87.6657 23.6107 87.6657 23.984V27.184C87.6657 27.3653 87.6497 27.5307 87.6177 27.68C87.5857 27.8187 87.5004 27.9307 87.3617 28.016C87.2337 28.1013 87.015 28.144 86.7057 28.144ZM98.5228 28.256C97.8295 28.256 97.2215 28.144 96.6988 27.92C96.1868 27.696 95.7548 27.392 95.4028 27.008C95.0615 26.6133 94.8001 26.176 94.6188 25.696C94.4481 25.2053 94.3628 24.6987 94.3628 24.176C94.3628 23.408 94.5388 22.7253 94.8908 22.128C95.2428 21.5307 95.7281 21.0613 96.3468 20.72C96.9761 20.3787 97.6961 20.208 98.5068 20.208C99.0828 20.208 99.5895 20.2987 100.027 20.48C100.464 20.6613 100.827 20.9013 101.115 21.2C101.413 21.488 101.637 21.808 101.787 22.16C101.947 22.512 102.027 22.8533 102.027 23.184C102.027 23.7493 101.888 24.16 101.611 24.416C101.344 24.672 101.008 24.8 100.603 24.8H96.3788C96.3895 25.1627 96.5015 25.4773 96.7148 25.744C96.9388 26.0107 97.2161 26.2187 97.5468 26.368C97.8881 26.5067 98.2348 26.576 98.5868 26.576C98.8535 26.576 99.0881 26.56 99.2908 26.528C99.5041 26.496 99.6855 26.4587 99.8348 26.416C99.9841 26.3627 100.112 26.3093 100.219 26.256C100.336 26.2027 100.443 26.1547 100.539 26.112C100.635 26.0693 100.725 26.0427 100.811 26.032C100.928 26.0213 101.045 26.048 101.163 26.112C101.28 26.176 101.376 26.288 101.451 26.448C101.515 26.5547 101.557 26.656 101.579 26.752C101.611 26.8373 101.627 26.9227 101.627 27.008C101.627 27.2213 101.499 27.424 101.243 27.616C100.987 27.7973 100.624 27.9467 100.155 28.064C99.6961 28.192 99.1521 28.256 98.5228 28.256ZM96.3788 23.664H99.6588C99.8401 23.664 99.9788 23.6373 100.075 23.584C100.171 23.52 100.219 23.392 100.219 23.2C100.219 22.9547 100.144 22.736 99.9948 22.544C99.8455 22.3413 99.6428 22.1867 99.3868 22.08C99.1308 21.9627 98.8321 21.904 98.4908 21.904C98.0961 21.904 97.7388 21.984 97.4188 22.144C97.0988 22.2933 96.8428 22.5013 96.6508 22.768C96.4695 23.0347 96.3788 23.3333 96.3788 23.664ZM109.772 20.496C109.974 20.6773 110.102 20.8373 110.156 20.976C110.22 21.1147 110.22 21.2587 110.156 21.408C110.102 21.5467 109.985 21.7173 109.804 21.92L104.732 27.792C104.55 27.984 104.39 28.112 104.252 28.176C104.113 28.2507 103.974 28.2613 103.836 28.208C103.708 28.1547 103.553 28.0533 103.372 27.904C103.19 27.7227 103.068 27.568 103.004 27.44C102.94 27.3013 102.94 27.1573 103.004 27.008C103.078 26.8587 103.201 26.688 103.372 26.496L108.444 20.624C108.71 20.336 108.929 20.1813 109.1 20.16C109.281 20.1387 109.505 20.2507 109.772 20.496ZM103.388 20.496C103.569 20.336 103.724 20.2347 103.852 20.192C103.99 20.1493 104.124 20.1653 104.252 20.24C104.39 20.304 104.545 20.432 104.716 20.624L109.788 26.496C109.969 26.688 110.092 26.8587 110.156 27.008C110.22 27.1573 110.225 27.3013 110.172 27.44C110.118 27.568 109.99 27.7227 109.788 27.904C109.606 28.064 109.446 28.1653 109.308 28.208C109.18 28.2613 109.046 28.2507 108.908 28.176C108.78 28.112 108.62 27.984 108.428 27.792L103.356 21.92C103.185 21.728 103.068 21.5573 103.004 21.408C102.94 21.2587 102.94 21.1147 103.004 20.976C103.068 20.8267 103.196 20.6667 103.388 20.496ZM115.165 28.16C114.643 28.16 114.195 28.1067 113.821 28C113.448 27.8933 113.144 27.728 112.909 27.504C112.675 27.28 112.499 26.992 112.381 26.64C112.275 26.2773 112.221 25.8507 112.221 25.36V18.576C112.221 18.384 112.237 18.2187 112.269 18.08C112.312 17.9413 112.397 17.8347 112.525 17.76C112.664 17.6747 112.877 17.632 113.165 17.632C113.464 17.632 113.677 17.6747 113.805 17.76C113.944 17.8453 114.029 17.9627 114.061 18.112C114.104 18.2507 114.125 18.4053 114.125 18.576V25.296C114.125 25.52 114.141 25.7013 114.173 25.84C114.216 25.9787 114.275 26.0853 114.349 26.16C114.435 26.224 114.541 26.272 114.669 26.304C114.808 26.3253 114.973 26.336 115.165 26.336C115.368 26.336 115.539 26.352 115.677 26.384C115.827 26.416 115.939 26.496 116.013 26.624C116.088 26.7413 116.125 26.9387 116.125 27.216C116.125 27.5147 116.077 27.7333 115.981 27.872C115.896 28 115.779 28.08 115.629 28.112C115.491 28.144 115.336 28.16 115.165 28.16ZM111.565 20.432L113.213 20.448L115.421 20.384C115.603 20.384 115.763 20.4053 115.901 20.448C116.051 20.48 116.168 20.5653 116.253 20.704C116.339 20.832 116.381 21.0453 116.381 21.344C116.381 21.6213 116.339 21.8293 116.253 21.968C116.168 22.1067 116.056 22.1973 115.917 22.24C115.779 22.272 115.619 22.288 115.437 22.288L113.293 22.256L111.517 22.272C111.251 22.2613 111.064 22.1867 110.957 22.048C110.861 21.8987 110.813 21.6587 110.813 21.328C110.813 21.0187 110.872 20.7947 110.989 20.656C111.117 20.5067 111.309 20.432 111.565 20.432Z" fill="white"/>
</svg>
