<svg width="114" height="45" viewBox="0 0 114 45" fill="none" xmlns="http://www.w3.org/2000/svg">
<rect width="114" height="45" rx="5" fill="#EBF3FE"/>
<g clip-path="url(#clip0_13614_113090)">
<path d="M25 27.5C28.866 27.5 32 24.366 32 20.5C32 16.634 28.866 13.5 25 13.5C21.134 13.5 18 16.634 18 20.5C18 24.366 21.134 27.5 25 27.5Z" stroke="#1EA4FF" stroke-width="2" stroke-linecap="round" stroke-linejoin="round"/>
<path d="M36 31.5L30 25.5" stroke="#1EA4FF" stroke-width="2" stroke-linecap="round" stroke-linejoin="round"/>
</g>
<path d="M53.7891 28.304C53.3091 28.304 52.8718 28.2453 52.4771 28.128C52.0931 28.0107 51.7518 27.8613 51.4531 27.68C51.1651 27.4987 50.9198 27.312 50.7171 27.12C50.5145 26.928 50.3651 26.752 50.2691 26.592C50.1305 26.4 50.0398 26.2293 49.9971 26.08C49.9545 25.9307 49.9651 25.7867 50.0291 25.648C50.1038 25.4987 50.2371 25.344 50.4291 25.184C50.6211 25.0133 50.7971 24.928 50.9571 24.928C51.1278 24.9173 51.2878 24.9653 51.4371 25.072C51.5971 25.1787 51.7518 25.328 51.9011 25.52C52.1571 25.8613 52.4451 26.1067 52.7651 26.256C53.0851 26.3947 53.4051 26.464 53.7251 26.464C54.1411 26.464 54.5038 26.4107 54.8131 26.304C55.1225 26.1867 55.3625 26.016 55.5331 25.792C55.7145 25.568 55.8051 25.28 55.8051 24.928C55.8051 24.64 55.7145 24.4053 55.5331 24.224C55.3625 24.032 55.1331 23.872 54.8451 23.744C54.5571 23.6053 54.2318 23.4827 53.8691 23.376C53.5171 23.2587 53.1598 23.1307 52.7971 22.992C52.5411 22.9067 52.2851 22.8053 52.0291 22.688C51.7731 22.56 51.5331 22.416 51.3091 22.256C51.0958 22.096 50.9038 21.9093 50.7331 21.696C50.5731 21.472 50.4451 21.216 50.3491 20.928C50.2531 20.64 50.2051 20.304 50.2051 19.92C50.2051 19.312 50.3545 18.7787 50.6531 18.32C50.9518 17.8507 51.3678 17.4827 51.9011 17.216C52.4345 16.9387 53.0425 16.8 53.7251 16.8C54.1625 16.8 54.5518 16.8427 54.8931 16.928C55.2451 17.0027 55.5438 17.104 55.7891 17.232C56.0451 17.3493 56.2531 17.472 56.4131 17.6C56.5838 17.7173 56.7065 17.8187 56.7811 17.904C57.0265 18.1493 57.1598 18.3573 57.1811 18.528C57.2131 18.688 57.1171 18.9067 56.8931 19.184C56.6691 19.472 56.4505 19.632 56.2371 19.664C56.0345 19.6853 55.8051 19.6 55.5491 19.408C55.3785 19.2267 55.2078 19.0827 55.0371 18.976C54.8665 18.8587 54.6745 18.7733 54.4611 18.72C54.2585 18.6667 54.0078 18.64 53.7091 18.64C53.4958 18.64 53.2878 18.672 53.0851 18.736C52.8931 18.7893 52.7278 18.8747 52.5891 18.992C52.4505 19.0987 52.3385 19.232 52.2531 19.392C52.1785 19.552 52.1411 19.7333 52.1411 19.936C52.1411 20.2133 52.2158 20.4427 52.3651 20.624C52.5251 20.7947 52.7385 20.9387 53.0051 21.056C53.2718 21.1627 53.5705 21.264 53.9011 21.36C54.2318 21.456 54.5678 21.5573 54.9091 21.664C55.2611 21.7813 55.6078 21.92 55.9491 22.08C56.2905 22.24 56.5945 22.4427 56.8611 22.688C57.1278 22.9227 57.3411 23.2213 57.5011 23.584C57.6611 23.936 57.7411 24.368 57.7411 24.88C57.7411 25.4667 57.6291 25.9787 57.4051 26.416C57.1811 26.8533 56.8771 27.2107 56.4931 27.488C56.1091 27.7653 55.6825 27.968 55.2131 28.096C54.7438 28.2347 54.2691 28.304 53.7891 28.304ZM62.89 28.256C62.1967 28.256 61.5887 28.144 61.066 27.92C60.554 27.696 60.122 27.392 59.77 27.008C59.4287 26.6133 59.1673 26.176 58.986 25.696C58.8153 25.2053 58.73 24.6987 58.73 24.176C58.73 23.408 58.906 22.7253 59.258 22.128C59.61 21.5307 60.0953 21.0613 60.714 20.72C61.3433 20.3787 62.0633 20.208 62.874 20.208C63.45 20.208 63.9567 20.2987 64.394 20.48C64.8313 20.6613 65.194 20.9013 65.482 21.2C65.7807 21.488 66.0047 21.808 66.154 22.16C66.314 22.512 66.394 22.8533 66.394 23.184C66.394 23.7493 66.2553 24.16 65.978 24.416C65.7113 24.672 65.3753 24.8 64.97 24.8H60.746C60.7567 25.1627 60.8687 25.4773 61.082 25.744C61.306 26.0107 61.5833 26.2187 61.914 26.368C62.2553 26.5067 62.602 26.576 62.954 26.576C63.2207 26.576 63.4553 26.56 63.658 26.528C63.8713 26.496 64.0527 26.4587 64.202 26.416C64.3513 26.3627 64.4793 26.3093 64.586 26.256C64.7033 26.2027 64.81 26.1547 64.906 26.112C65.002 26.0693 65.0927 26.0427 65.178 26.032C65.2953 26.0213 65.4127 26.048 65.53 26.112C65.6473 26.176 65.7433 26.288 65.818 26.448C65.882 26.5547 65.9247 26.656 65.946 26.752C65.978 26.8373 65.994 26.9227 65.994 27.008C65.994 27.2213 65.866 27.424 65.61 27.616C65.354 27.7973 64.9913 27.9467 64.522 28.064C64.0633 28.192 63.5193 28.256 62.89 28.256ZM60.746 23.664H64.026C64.2073 23.664 64.346 23.6373 64.442 23.584C64.538 23.52 64.586 23.392 64.586 23.2C64.586 22.9547 64.5113 22.736 64.362 22.544C64.2127 22.3413 64.01 22.1867 63.754 22.08C63.498 21.9627 63.1993 21.904 62.858 21.904C62.4633 21.904 62.106 21.984 61.786 22.144C61.466 22.2933 61.21 22.5013 61.018 22.768C60.8367 23.0347 60.746 23.3333 60.746 23.664ZM74.267 28.128C73.9577 28.128 73.7283 28.0693 73.579 27.952C73.4297 27.8347 73.355 27.6747 73.355 27.472L73.467 26.944C73.3817 27.0827 73.2377 27.248 73.035 27.44C72.8323 27.6213 72.5657 27.7867 72.235 27.936C71.9043 28.0747 71.5043 28.144 71.035 28.144C70.5337 28.144 70.059 28.0427 69.611 27.84C69.1737 27.6267 68.7843 27.3387 68.443 26.976C68.1123 26.6027 67.8457 26.1813 67.643 25.712C67.451 25.232 67.355 24.72 67.355 24.176C67.355 23.6533 67.451 23.1627 67.643 22.704C67.8457 22.2347 68.1177 21.8187 68.459 21.456C68.8003 21.0933 69.1897 20.8107 69.627 20.608C70.075 20.3947 70.5443 20.288 71.035 20.288C71.4723 20.288 71.8403 20.3467 72.139 20.464C72.4483 20.5813 72.7097 20.7307 72.923 20.912C73.1363 21.0827 73.3123 21.264 73.451 21.456L73.355 20.992C73.355 20.7573 73.4297 20.5813 73.579 20.464C73.7283 20.336 73.963 20.272 74.283 20.272C74.5817 20.272 74.795 20.32 74.923 20.416C75.051 20.5013 75.131 20.624 75.163 20.784C75.195 20.9333 75.211 21.104 75.211 21.296V27.152C75.211 27.3333 75.195 27.4987 75.163 27.648C75.131 27.7973 75.0457 27.9147 74.907 28C74.779 28.0853 74.5657 28.128 74.267 28.128ZM71.323 26.272C71.6857 26.272 72.011 26.1813 72.299 26C72.587 25.8187 72.8163 25.5733 72.987 25.264C73.1683 24.944 73.259 24.592 73.259 24.208C73.259 23.792 73.1683 23.4293 72.987 23.12C72.8057 22.8107 72.5657 22.5707 72.267 22.4C71.979 22.2187 71.6537 22.128 71.291 22.128C70.8963 22.128 70.5443 22.224 70.235 22.416C69.9257 22.5973 69.6803 22.848 69.499 23.168C69.3283 23.4773 69.243 23.8293 69.243 24.224C69.243 24.608 69.3337 24.9547 69.515 25.264C69.6963 25.5733 69.9417 25.8187 70.251 26C70.571 26.1813 70.9283 26.272 71.323 26.272ZM77.7604 28.16C77.4724 28.16 77.259 28.112 77.1204 28.016C76.9924 27.9307 76.9124 27.8133 76.8804 27.664C76.8484 27.5147 76.8324 27.3493 76.8324 27.168V21.232C76.8324 21.04 76.8484 20.8747 76.8804 20.736C76.9124 20.5867 76.9924 20.4747 77.1204 20.4C77.259 20.3147 77.4777 20.272 77.7764 20.272C78.0644 20.272 78.2724 20.3093 78.4004 20.384C78.539 20.4587 78.6244 20.5547 78.6564 20.672C78.699 20.7787 78.7204 20.8853 78.7204 20.992L78.5924 21.28C78.6457 21.1947 78.7204 21.0933 78.8164 20.976C78.9124 20.848 79.0404 20.7253 79.2004 20.608C79.3604 20.48 79.5524 20.3787 79.7764 20.304C80.0004 20.2187 80.267 20.176 80.5764 20.176C80.7044 20.176 80.8377 20.192 80.9764 20.224C81.1257 20.2453 81.2697 20.2827 81.4084 20.336C81.5577 20.3787 81.691 20.4373 81.8084 20.512C81.9257 20.5867 82.0164 20.6773 82.0804 20.784C82.1444 20.88 82.1764 20.992 82.1764 21.12C82.1764 21.4613 82.091 21.7493 81.9204 21.984C81.7497 22.2187 81.547 22.336 81.3124 22.336C81.1524 22.336 81.035 22.32 80.9604 22.288C80.8857 22.256 80.8217 22.2187 80.7684 22.176C80.7257 22.1333 80.6564 22.096 80.5604 22.064C80.475 22.032 80.3364 22.016 80.1444 22.016C79.9844 22.016 79.819 22.0427 79.6484 22.096C79.4884 22.1493 79.339 22.2293 79.2004 22.336C79.0617 22.4427 78.9497 22.5813 78.8644 22.752C78.779 22.912 78.7364 23.0987 78.7364 23.312V27.2C78.7364 27.3813 78.7204 27.5467 78.6884 27.696C78.6564 27.8347 78.571 27.9467 78.4324 28.032C78.2937 28.1173 78.0697 28.16 77.7604 28.16ZM86.4525 28.192C85.9405 28.192 85.4392 28.1067 84.9485 27.936C84.4685 27.7547 84.0312 27.4933 83.6365 27.152C83.2525 26.8107 82.9432 26.3947 82.7085 25.904C82.4845 25.4027 82.3725 24.8373 82.3725 24.208C82.3725 23.5787 82.4845 23.0187 82.7085 22.528C82.9432 22.0373 83.2525 21.6213 83.6365 21.28C84.0205 20.9387 84.4525 20.6773 84.9325 20.496C85.4125 20.3147 85.9085 20.224 86.4205 20.224C86.7938 20.224 87.1458 20.2773 87.4765 20.384C87.8178 20.4907 88.1112 20.6187 88.3565 20.768C88.6018 20.9173 88.7778 21.0667 88.8845 21.216C89.0232 21.344 89.1405 21.4667 89.2365 21.584C89.3325 21.7013 89.3645 21.8453 89.3325 22.016C89.3005 22.1227 89.2525 22.224 89.1885 22.32C89.1245 22.4053 89.0445 22.496 88.9485 22.592C88.6925 22.88 88.4418 22.9867 88.1965 22.912C88.0578 22.8373 87.9192 22.7573 87.7805 22.672C87.6418 22.5867 87.4978 22.5067 87.3485 22.432C87.2098 22.3467 87.0658 22.2773 86.9165 22.224C86.7672 22.1707 86.6018 22.144 86.4205 22.144C86.0152 22.144 85.6525 22.2347 85.3325 22.416C85.0232 22.5867 84.7778 22.8267 84.5965 23.136C84.4258 23.4453 84.3405 23.8027 84.3405 24.208C84.3405 24.6133 84.4258 24.976 84.5965 25.296C84.7778 25.6053 85.0232 25.8507 85.3325 26.032C85.6418 26.2027 85.9938 26.288 86.3885 26.288C86.5805 26.288 86.7618 26.2667 86.9325 26.224C87.1138 26.1707 87.2738 26.1067 87.4125 26.032C87.5512 25.9467 87.6632 25.8613 87.7485 25.776C87.8658 25.7013 87.9725 25.632 88.0685 25.568C88.1645 25.504 88.2658 25.472 88.3725 25.472C88.5005 25.472 88.6232 25.52 88.7405 25.616C88.8685 25.7013 89.0072 25.84 89.1565 26.032C89.2952 26.192 89.3698 26.3467 89.3805 26.496C89.4018 26.6453 89.3698 26.7893 89.2845 26.928C89.2098 27.0667 89.0818 27.1947 88.9005 27.312C88.7725 27.44 88.5805 27.5733 88.3245 27.712C88.0792 27.84 87.7912 27.952 87.4605 28.048C87.1405 28.144 86.8045 28.192 86.4525 28.192ZM91.5241 28.16C91.2255 28.16 91.0068 28.112 90.8681 28.016C90.7401 27.9307 90.6601 27.8133 90.6281 27.664C90.5961 27.5147 90.5801 27.3547 90.5801 27.184V17.632C90.5801 17.4507 90.5961 17.2907 90.6281 17.152C90.6708 17.0027 90.7561 16.8853 90.8841 16.8C91.0228 16.7147 91.2415 16.672 91.5401 16.672C91.8388 16.672 92.0521 16.72 92.1801 16.816C92.3188 16.9013 92.4041 17.0187 92.4361 17.168C92.4788 17.3067 92.5001 17.4667 92.5001 17.648V21.264C92.7135 21.0187 92.9855 20.7947 93.3161 20.592C93.6575 20.3787 94.0681 20.272 94.5481 20.272C95.1988 20.272 95.7801 20.432 96.2921 20.752C96.8041 21.0613 97.2095 21.4933 97.5081 22.048C97.8068 22.6027 97.9561 23.2533 97.9561 24V27.2C97.9561 27.3707 97.9401 27.5307 97.9081 27.68C97.8761 27.8187 97.7908 27.9307 97.6521 28.016C97.5241 28.1013 97.3108 28.144 97.0121 28.144C96.7135 28.144 96.4948 28.1013 96.3561 28.016C96.2175 27.9307 96.1321 27.8187 96.1001 27.68C96.0681 27.5307 96.0521 27.36 96.0521 27.168V23.984C96.0521 23.6107 95.9881 23.2853 95.8601 23.008C95.7321 22.7307 95.5401 22.5173 95.2841 22.368C95.0388 22.208 94.7295 22.128 94.3561 22.128C93.8548 22.128 93.4335 22.2773 93.0921 22.576C92.7508 22.864 92.5535 23.2373 92.5001 23.696V27.2C92.5001 27.3707 92.4788 27.5307 92.4361 27.68C92.4041 27.8293 92.3188 27.9467 92.1801 28.032C92.0521 28.1173 91.8335 28.16 91.5241 28.16Z" fill="#1EA4FF"/>
<defs>
<clipPath id="clip0_13614_113090">
<rect width="24" height="24" fill="white" transform="translate(15 10.5)"/>
</clipPath>
</defs>
</svg>
