<svg width="147" height="45" viewBox="0 0 147 45" fill="none" xmlns="http://www.w3.org/2000/svg">
<rect width="147" height="45" rx="5" fill="#EBF3FE"/>
<g clip-path="url(#clip0_17224_123260)">
<path d="M24 22.5H30" stroke="#1EA4FF" stroke-width="2" stroke-linecap="round" stroke-linejoin="round"/>
<path d="M27 19.5V25.5" stroke="#1EA4FF" stroke-width="2" stroke-linecap="round" stroke-linejoin="round"/>
<path d="M18 15.5C18 14.9696 18.2107 14.4609 18.5858 14.0858C18.9609 13.7107 19.4696 13.5 20 13.5H34C34.5304 13.5 35.0391 13.7107 35.4142 14.0858C35.7893 14.4609 36 14.9696 36 15.5V29.5C36 30.0304 35.7893 30.5391 35.4142 30.9142C35.0391 31.2893 34.5304 31.5 34 31.5H20C19.4696 31.5 18.9609 31.2893 18.5858 30.9142C18.2107 30.5391 18 30.0304 18 29.5V15.5Z" stroke="#1EA4FF" stroke-width="2" stroke-linecap="round" stroke-linejoin="round"/>
</g>
<path d="M53.6485 28.304C53.1685 28.304 52.7312 28.2453 52.3365 28.128C51.9525 28.0107 51.6112 27.8613 51.3125 27.68C51.0245 27.4987 50.7792 27.312 50.5765 27.12C50.3738 26.928 50.2245 26.752 50.1285 26.592C49.9898 26.4 49.8992 26.2293 49.8565 26.08C49.8138 25.9307 49.8245 25.7867 49.8885 25.648C49.9632 25.4987 50.0965 25.344 50.2885 25.184C50.4805 25.0133 50.6565 24.928 50.8165 24.928C50.9872 24.9173 51.1472 24.9653 51.2965 25.072C51.4565 25.1787 51.6112 25.328 51.7605 25.52C52.0165 25.8613 52.3045 26.1067 52.6245 26.256C52.9445 26.3947 53.2645 26.464 53.5845 26.464C54.0005 26.464 54.3632 26.4107 54.6725 26.304C54.9818 26.1867 55.2218 26.016 55.3925 25.792C55.5738 25.568 55.6645 25.28 55.6645 24.928C55.6645 24.64 55.5738 24.4053 55.3925 24.224C55.2218 24.032 54.9925 23.872 54.7045 23.744C54.4165 23.6053 54.0912 23.4827 53.7285 23.376C53.3765 23.2587 53.0192 23.1307 52.6565 22.992C52.4005 22.9067 52.1445 22.8053 51.8885 22.688C51.6325 22.56 51.3925 22.416 51.1685 22.256C50.9552 22.096 50.7632 21.9093 50.5925 21.696C50.4325 21.472 50.3045 21.216 50.2085 20.928C50.1125 20.64 50.0645 20.304 50.0645 19.92C50.0645 19.312 50.2138 18.7787 50.5125 18.32C50.8112 17.8507 51.2272 17.4827 51.7605 17.216C52.2938 16.9387 52.9018 16.8 53.5845 16.8C54.0218 16.8 54.4112 16.8427 54.7525 16.928C55.1045 17.0027 55.4032 17.104 55.6485 17.232C55.9045 17.3493 56.1125 17.472 56.2725 17.6C56.4432 17.7173 56.5658 17.8187 56.6405 17.904C56.8858 18.1493 57.0192 18.3573 57.0405 18.528C57.0725 18.688 56.9765 18.9067 56.7525 19.184C56.5285 19.472 56.3098 19.632 56.0965 19.664C55.8938 19.6853 55.6645 19.6 55.4085 19.408C55.2378 19.2267 55.0672 19.0827 54.8965 18.976C54.7258 18.8587 54.5338 18.7733 54.3205 18.72C54.1178 18.6667 53.8672 18.64 53.5685 18.64C53.3552 18.64 53.1472 18.672 52.9445 18.736C52.7525 18.7893 52.5872 18.8747 52.4485 18.992C52.3098 19.0987 52.1978 19.232 52.1125 19.392C52.0378 19.552 52.0005 19.7333 52.0005 19.936C52.0005 20.2133 52.0752 20.4427 52.2245 20.624C52.3845 20.7947 52.5978 20.9387 52.8645 21.056C53.1312 21.1627 53.4298 21.264 53.7605 21.36C54.0912 21.456 54.4272 21.5573 54.7685 21.664C55.1205 21.7813 55.4672 21.92 55.8085 22.08C56.1498 22.24 56.4538 22.4427 56.7205 22.688C56.9872 22.9227 57.2005 23.2213 57.3605 23.584C57.5205 23.936 57.6005 24.368 57.6005 24.88C57.6005 25.4667 57.4885 25.9787 57.2645 26.416C57.0405 26.8533 56.7365 27.2107 56.3525 27.488C55.9685 27.7653 55.5418 27.968 55.0725 28.096C54.6032 28.2347 54.1285 28.304 53.6485 28.304ZM62.7494 28.256C62.056 28.256 61.448 28.144 60.9254 27.92C60.4134 27.696 59.9814 27.392 59.6294 27.008C59.288 26.6133 59.0267 26.176 58.8454 25.696C58.6747 25.2053 58.5894 24.6987 58.5894 24.176C58.5894 23.408 58.7654 22.7253 59.1174 22.128C59.4694 21.5307 59.9547 21.0613 60.5734 20.72C61.2027 20.3787 61.9227 20.208 62.7334 20.208C63.3094 20.208 63.816 20.2987 64.2534 20.48C64.6907 20.6613 65.0534 20.9013 65.3414 21.2C65.64 21.488 65.864 21.808 66.0134 22.16C66.1734 22.512 66.2534 22.8533 66.2534 23.184C66.2534 23.7493 66.1147 24.16 65.8374 24.416C65.5707 24.672 65.2347 24.8 64.8294 24.8H60.6054C60.616 25.1627 60.728 25.4773 60.9414 25.744C61.1654 26.0107 61.4427 26.2187 61.7734 26.368C62.1147 26.5067 62.4614 26.576 62.8134 26.576C63.08 26.576 63.3147 26.56 63.5174 26.528C63.7307 26.496 63.912 26.4587 64.0614 26.416C64.2107 26.3627 64.3387 26.3093 64.4454 26.256C64.5627 26.2027 64.6694 26.1547 64.7654 26.112C64.8614 26.0693 64.952 26.0427 65.0374 26.032C65.1547 26.0213 65.272 26.048 65.3894 26.112C65.5067 26.176 65.6027 26.288 65.6774 26.448C65.7414 26.5547 65.784 26.656 65.8054 26.752C65.8374 26.8373 65.8534 26.9227 65.8534 27.008C65.8534 27.2213 65.7254 27.424 65.4694 27.616C65.2134 27.7973 64.8507 27.9467 64.3814 28.064C63.9227 28.192 63.3787 28.256 62.7494 28.256ZM60.6054 23.664H63.8854C64.0667 23.664 64.2054 23.6373 64.3014 23.584C64.3974 23.52 64.4454 23.392 64.4454 23.2C64.4454 22.9547 64.3707 22.736 64.2214 22.544C64.072 22.3413 63.8694 22.1867 63.6134 22.08C63.3574 21.9627 63.0587 21.904 62.7174 21.904C62.3227 21.904 61.9654 21.984 61.6454 22.144C61.3254 22.2933 61.0694 22.5013 60.8774 22.768C60.696 23.0347 60.6054 23.3333 60.6054 23.664ZM70.3184 28.16C69.9237 28.16 69.5717 28.1333 69.2624 28.08C68.9637 28.0267 68.7024 27.936 68.4784 27.808C68.265 27.68 68.089 27.5093 67.9504 27.296C67.8117 27.072 67.705 26.8 67.6304 26.48C67.5664 26.16 67.5344 25.776 67.5344 25.328V17.616C67.5344 17.4347 67.5504 17.2747 67.5824 17.136C67.625 16.9867 67.7104 16.8693 67.8384 16.784C67.977 16.688 68.1957 16.64 68.4944 16.64C68.793 16.64 69.0064 16.6827 69.1344 16.768C69.273 16.8533 69.3584 16.9707 69.3904 17.12C69.433 17.2587 69.4544 17.4187 69.4544 17.6V25.248C69.4544 25.4507 69.465 25.6213 69.4864 25.76C69.5184 25.888 69.5664 25.9947 69.6304 26.08C69.705 26.1547 69.7957 26.208 69.9024 26.24C70.0197 26.272 70.1584 26.288 70.3184 26.288C70.457 26.288 70.5797 26.304 70.6864 26.336C70.8037 26.368 70.8944 26.448 70.9584 26.576C71.033 26.704 71.0704 26.912 71.0704 27.2C71.0704 27.4987 71.033 27.7173 70.9584 27.856C70.8944 27.9947 70.8037 28.08 70.6864 28.112C70.569 28.144 70.4464 28.16 70.3184 28.16ZM76.0306 28.256C75.3373 28.256 74.7293 28.144 74.2066 27.92C73.6946 27.696 73.2626 27.392 72.9106 27.008C72.5693 26.6133 72.308 26.176 72.1266 25.696C71.956 25.2053 71.8706 24.6987 71.8706 24.176C71.8706 23.408 72.0466 22.7253 72.3986 22.128C72.7506 21.5307 73.236 21.0613 73.8546 20.72C74.484 20.3787 75.204 20.208 76.0146 20.208C76.5906 20.208 77.0973 20.2987 77.5346 20.48C77.972 20.6613 78.3346 20.9013 78.6226 21.2C78.9213 21.488 79.1453 21.808 79.2946 22.16C79.4546 22.512 79.5346 22.8533 79.5346 23.184C79.5346 23.7493 79.396 24.16 79.1186 24.416C78.852 24.672 78.516 24.8 78.1106 24.8H73.8866C73.8973 25.1627 74.0093 25.4773 74.2226 25.744C74.4466 26.0107 74.724 26.2187 75.0546 26.368C75.396 26.5067 75.7426 26.576 76.0946 26.576C76.3613 26.576 76.596 26.56 76.7986 26.528C77.012 26.496 77.1933 26.4587 77.3426 26.416C77.492 26.3627 77.62 26.3093 77.7266 26.256C77.844 26.2027 77.9506 26.1547 78.0466 26.112C78.1426 26.0693 78.2333 26.0427 78.3186 26.032C78.436 26.0213 78.5533 26.048 78.6706 26.112C78.788 26.176 78.884 26.288 78.9586 26.448C79.0226 26.5547 79.0653 26.656 79.0866 26.752C79.1186 26.8373 79.1346 26.9227 79.1346 27.008C79.1346 27.2213 79.0066 27.424 78.7506 27.616C78.4946 27.7973 78.132 27.9467 77.6626 28.064C77.204 28.192 76.66 28.256 76.0306 28.256ZM73.8866 23.664H77.1666C77.348 23.664 77.4866 23.6373 77.5826 23.584C77.6786 23.52 77.7266 23.392 77.7266 23.2C77.7266 22.9547 77.652 22.736 77.5026 22.544C77.3533 22.3413 77.1506 22.1867 76.8946 22.08C76.6386 21.9627 76.34 21.904 75.9986 21.904C75.604 21.904 75.2466 21.984 74.9266 22.144C74.6066 22.2933 74.3506 22.5013 74.1586 22.768C73.9773 23.0347 73.8866 23.3333 73.8866 23.664ZM84.6556 28.192C84.1436 28.192 83.6423 28.1067 83.1516 27.936C82.6716 27.7547 82.2343 27.4933 81.8396 27.152C81.4556 26.8107 81.1463 26.3947 80.9116 25.904C80.6876 25.4027 80.5756 24.8373 80.5756 24.208C80.5756 23.5787 80.6876 23.0187 80.9116 22.528C81.1463 22.0373 81.4556 21.6213 81.8396 21.28C82.2236 20.9387 82.6556 20.6773 83.1356 20.496C83.6156 20.3147 84.1116 20.224 84.6236 20.224C84.997 20.224 85.349 20.2773 85.6796 20.384C86.021 20.4907 86.3143 20.6187 86.5596 20.768C86.805 20.9173 86.981 21.0667 87.0876 21.216C87.2263 21.344 87.3436 21.4667 87.4396 21.584C87.5356 21.7013 87.5676 21.8453 87.5356 22.016C87.5036 22.1227 87.4556 22.224 87.3916 22.32C87.3276 22.4053 87.2476 22.496 87.1516 22.592C86.8956 22.88 86.645 22.9867 86.3996 22.912C86.261 22.8373 86.1223 22.7573 85.9836 22.672C85.845 22.5867 85.701 22.5067 85.5516 22.432C85.413 22.3467 85.269 22.2773 85.1196 22.224C84.9703 22.1707 84.805 22.144 84.6236 22.144C84.2183 22.144 83.8556 22.2347 83.5356 22.416C83.2263 22.5867 82.981 22.8267 82.7996 23.136C82.629 23.4453 82.5436 23.8027 82.5436 24.208C82.5436 24.6133 82.629 24.976 82.7996 25.296C82.981 25.6053 83.2263 25.8507 83.5356 26.032C83.845 26.2027 84.197 26.288 84.5916 26.288C84.7836 26.288 84.965 26.2667 85.1356 26.224C85.317 26.1707 85.477 26.1067 85.6156 26.032C85.7543 25.9467 85.8663 25.8613 85.9516 25.776C86.069 25.7013 86.1756 25.632 86.2716 25.568C86.3676 25.504 86.469 25.472 86.5756 25.472C86.7036 25.472 86.8263 25.52 86.9436 25.616C87.0716 25.7013 87.2103 25.84 87.3596 26.032C87.4983 26.192 87.573 26.3467 87.5836 26.496C87.605 26.6453 87.573 26.7893 87.4876 26.928C87.413 27.0667 87.285 27.1947 87.1036 27.312C86.9756 27.44 86.7836 27.5733 86.5276 27.712C86.2823 27.84 85.9943 27.952 85.6636 28.048C85.3436 28.144 85.0076 28.192 84.6556 28.192ZM92.6888 28.16C92.1661 28.16 91.7181 28.1067 91.3448 28C90.9714 27.8933 90.6674 27.728 90.4328 27.504C90.1981 27.28 90.0221 26.992 89.9048 26.64C89.7981 26.2773 89.7448 25.8507 89.7448 25.36V18.576C89.7448 18.384 89.7608 18.2187 89.7928 18.08C89.8354 17.9413 89.9208 17.8347 90.0488 17.76C90.1874 17.6747 90.4008 17.632 90.6888 17.632C90.9874 17.632 91.2008 17.6747 91.3288 17.76C91.4674 17.8453 91.5528 17.9627 91.5848 18.112C91.6274 18.2507 91.6488 18.4053 91.6488 18.576V25.296C91.6488 25.52 91.6648 25.7013 91.6968 25.84C91.7394 25.9787 91.7981 26.0853 91.8728 26.16C91.9581 26.224 92.0648 26.272 92.1927 26.304C92.3314 26.3253 92.4968 26.336 92.6888 26.336C92.8914 26.336 93.0621 26.352 93.2008 26.384C93.3501 26.416 93.4621 26.496 93.5368 26.624C93.6114 26.7413 93.6488 26.9387 93.6488 27.216C93.6488 27.5147 93.6008 27.7333 93.5048 27.872C93.4194 28 93.3021 28.08 93.1528 28.112C93.0141 28.144 92.8594 28.16 92.6888 28.16ZM89.0888 20.432L90.7368 20.448L92.9448 20.384C93.1261 20.384 93.2861 20.4053 93.4248 20.448C93.5741 20.48 93.6914 20.5653 93.7768 20.704C93.8621 20.832 93.9048 21.0453 93.9048 21.344C93.9048 21.6213 93.8621 21.8293 93.7768 21.968C93.6914 22.1067 93.5794 22.1973 93.4408 22.24C93.3021 22.272 93.1421 22.288 92.9608 22.288L90.8168 22.256L89.0408 22.272C88.7741 22.2613 88.5874 22.1867 88.4808 22.048C88.3848 21.8987 88.3368 21.6587 88.3368 21.328C88.3368 21.0187 88.3954 20.7947 88.5128 20.656C88.6408 20.5067 88.8328 20.432 89.0888 20.432ZM110.17 26.304C110.48 26.5067 110.65 26.704 110.682 26.896C110.714 27.088 110.624 27.3387 110.41 27.648C110.261 27.8613 110.122 28.0053 109.994 28.08C109.866 28.1547 109.728 28.1707 109.578 28.128C109.44 28.096 109.269 28.016 109.066 27.888L107.594 26.896C107.136 27.3227 106.608 27.664 106.01 27.92C105.424 28.1653 104.8 28.288 104.138 28.288C103.37 28.288 102.65 28.144 101.978 27.856C101.317 27.5573 100.73 27.152 100.218 26.64C99.7064 26.1173 99.3064 25.52 99.0184 24.848C98.7304 24.1653 98.5864 23.4347 98.5864 22.656C98.5864 21.856 98.725 21.1093 99.0024 20.416C99.2904 19.712 99.6797 19.0987 100.17 18.576C100.672 18.0427 101.248 17.6267 101.898 17.328C102.56 17.0293 103.264 16.88 104.01 16.88C104.778 16.88 105.493 17.0293 106.154 17.328C106.826 17.616 107.413 18.0213 107.914 18.544C108.426 19.056 108.821 19.6587 109.098 20.352C109.386 21.0453 109.53 21.792 109.53 22.592C109.53 23.0933 109.466 23.5787 109.338 24.048C109.221 24.5173 109.045 24.96 108.81 25.376L110.17 26.304ZM104.058 26.336C104.549 26.336 105.008 26.24 105.434 26.048C105.861 25.856 106.234 25.5893 106.554 25.248C106.885 24.9067 107.141 24.512 107.322 24.064C107.504 23.6053 107.594 23.1147 107.594 22.592C107.594 22.0693 107.498 21.584 107.306 21.136C107.125 20.6773 106.869 20.2773 106.538 19.936C106.218 19.584 105.845 19.312 105.418 19.12C105.002 18.928 104.554 18.832 104.074 18.832C103.584 18.832 103.125 18.928 102.698 19.12C102.272 19.312 101.893 19.584 101.562 19.936C101.242 20.2773 100.992 20.6773 100.81 21.136C100.629 21.584 100.538 22.0693 100.538 22.592C100.538 23.1147 100.629 23.6053 100.81 24.064C101.002 24.512 101.258 24.9067 101.578 25.248C101.898 25.5893 102.272 25.856 102.698 26.048C103.125 26.24 103.578 26.336 104.058 26.336ZM114.659 28.144C114.168 28.144 113.715 28.0587 113.299 27.888C112.893 27.7067 112.536 27.4507 112.227 27.12C111.917 26.7893 111.677 26.3947 111.507 25.936C111.336 25.4773 111.251 24.9707 111.251 24.416V21.232C111.251 21.0507 111.267 20.8907 111.299 20.752C111.331 20.6027 111.416 20.4853 111.555 20.4C111.693 20.3147 111.907 20.272 112.195 20.272C112.504 20.272 112.723 20.3147 112.851 20.4C112.989 20.4853 113.075 20.6027 113.107 20.752C113.139 20.9013 113.155 21.0667 113.155 21.248V24.416C113.155 24.8 113.219 25.1307 113.347 25.408C113.485 25.6853 113.683 25.904 113.939 26.064C114.195 26.2133 114.509 26.288 114.883 26.288C115.267 26.288 115.592 26.2133 115.859 26.064C116.136 25.904 116.349 25.6853 116.499 25.408C116.648 25.12 116.723 24.7893 116.723 24.416V21.216C116.723 21.0347 116.739 20.8747 116.771 20.736C116.803 20.5867 116.888 20.4747 117.027 20.4C117.165 20.3147 117.384 20.272 117.683 20.272C117.981 20.272 118.195 20.3147 118.323 20.4C118.451 20.4853 118.531 20.6027 118.562 20.752C118.605 20.9013 118.627 21.0613 118.627 21.232V27.232C118.627 27.392 118.605 27.5413 118.562 27.68C118.531 27.8187 118.445 27.9307 118.307 28.016C118.179 28.1013 117.965 28.144 117.667 28.144C117.453 28.144 117.283 28.1173 117.155 28.064C117.037 28.0213 116.947 27.9627 116.883 27.888C116.829 27.8027 116.792 27.7173 116.771 27.632C116.76 27.5467 116.755 27.4613 116.755 27.376L116.883 26.944C116.819 27.04 116.723 27.1573 116.595 27.296C116.467 27.424 116.307 27.5573 116.115 27.696C115.933 27.824 115.72 27.9307 115.475 28.016C115.229 28.1013 114.957 28.144 114.659 28.144ZM121.231 28.16C120.943 28.16 120.73 28.112 120.591 28.016C120.452 27.9307 120.367 27.8187 120.335 27.68C120.303 27.5307 120.287 27.3653 120.287 27.184V21.232C120.287 21.0613 120.303 20.9067 120.335 20.768C120.378 20.6187 120.463 20.5013 120.591 20.416C120.73 20.3307 120.948 20.288 121.247 20.288C121.546 20.288 121.759 20.3307 121.887 20.416C122.026 20.5013 122.111 20.6187 122.143 20.768C122.175 20.9173 122.191 21.0827 122.191 21.264V27.2C122.191 27.3813 122.175 27.5467 122.143 27.696C122.111 27.8347 122.026 27.9467 121.887 28.032C121.759 28.1173 121.54 28.16 121.231 28.16ZM121.231 18.736C120.922 18.736 120.692 18.6933 120.543 18.608C120.404 18.512 120.314 18.384 120.271 18.224C120.239 18.064 120.223 17.888 120.223 17.696C120.223 17.4933 120.239 17.3173 120.271 17.168C120.314 17.0187 120.41 16.9013 120.559 16.816C120.708 16.72 120.938 16.672 121.247 16.672C121.567 16.672 121.796 16.72 121.935 16.816C122.074 16.912 122.164 17.04 122.207 17.2C122.25 17.3493 122.271 17.5253 122.271 17.728C122.271 17.9093 122.25 18.08 122.207 18.24C122.164 18.4 122.074 18.5227 121.935 18.608C121.796 18.6933 121.562 18.736 121.231 18.736ZM124.533 28.16C124.245 28.16 124.016 28.0747 123.845 27.904C123.675 27.7227 123.589 27.4933 123.589 27.216C123.589 27.0667 123.611 26.9333 123.653 26.816C123.707 26.6987 123.781 26.592 123.877 26.496L128.053 22.192H124.901C124.731 22.192 124.571 22.176 124.421 22.144C124.272 22.1013 124.149 22.016 124.053 21.888C123.968 21.7493 123.925 21.5307 123.925 21.232C123.925 20.9333 123.968 20.72 124.053 20.592C124.149 20.4533 124.272 20.368 124.421 20.336C124.571 20.2933 124.731 20.272 124.901 20.272H130.069C130.347 20.272 130.571 20.3573 130.741 20.528C130.923 20.6987 131.013 20.9227 131.013 21.2C131.013 21.3387 130.987 21.472 130.933 21.6C130.891 21.7173 130.832 21.8133 130.757 21.888L126.629 26.24H130.261C130.443 26.24 130.603 26.2613 130.741 26.304C130.891 26.336 131.008 26.4213 131.093 26.56C131.179 26.6987 131.221 26.9173 131.221 27.216C131.221 27.504 131.173 27.7173 131.077 27.856C130.992 27.9947 130.875 28.08 130.725 28.112C130.587 28.144 130.427 28.16 130.245 28.16H124.533Z" fill="#1EA4FF"/>
<defs>
<clipPath id="clip0_17224_123260">
<rect width="24" height="24" fill="white" transform="translate(15 10.5)"/>
</clipPath>
</defs>
</svg>
