<svg width="172" height="45" viewBox="0 0 172 45" fill="none" xmlns="http://www.w3.org/2000/svg">
<rect width="172" height="45" rx="5" fill="#EBF3FE"/>
<g clip-path="url(#clip0_17224_123225)">
<path d="M24 22.5H30" stroke="#1EA4FF" stroke-width="2" stroke-linecap="round" stroke-linejoin="round"/>
<path d="M27 19.5V25.5" stroke="#1EA4FF" stroke-width="2" stroke-linecap="round" stroke-linejoin="round"/>
<path d="M18 15.5C18 14.9696 18.2107 14.4609 18.5858 14.0858C18.9609 13.7107 19.4696 13.5 20 13.5H34C34.5304 13.5 35.0391 13.7107 35.4142 14.0858C35.7893 14.4609 36 14.9696 36 15.5V29.5C36 30.0304 35.7893 30.5391 35.4142 30.9142C35.0391 31.2893 34.5304 31.5 34 31.5H20C19.4696 31.5 18.9609 31.2893 18.5858 30.9142C18.2107 30.5391 18 30.0304 18 29.5V15.5Z" stroke="#1EA4FF" stroke-width="2" stroke-linecap="round" stroke-linejoin="round"/>
</g>
<path d="M53.7579 28.304C53.2779 28.304 52.8405 28.2453 52.4459 28.128C52.0619 28.0107 51.7205 27.8613 51.4219 27.68C51.1339 27.4987 50.8885 27.312 50.6859 27.12C50.4832 26.928 50.3339 26.752 50.2379 26.592C50.0992 26.4 50.0085 26.2293 49.9659 26.08C49.9232 25.9307 49.9339 25.7867 49.9979 25.648C50.0725 25.4987 50.2059 25.344 50.3979 25.184C50.5899 25.0133 50.7659 24.928 50.9259 24.928C51.0965 24.9173 51.2565 24.9653 51.4059 25.072C51.5659 25.1787 51.7205 25.328 51.8699 25.52C52.1259 25.8613 52.4139 26.1067 52.7339 26.256C53.0539 26.3947 53.3739 26.464 53.6939 26.464C54.1099 26.464 54.4725 26.4107 54.7819 26.304C55.0912 26.1867 55.3312 26.016 55.5019 25.792C55.6832 25.568 55.7739 25.28 55.7739 24.928C55.7739 24.64 55.6832 24.4053 55.5019 24.224C55.3312 24.032 55.1019 23.872 54.8139 23.744C54.5259 23.6053 54.2005 23.4827 53.8379 23.376C53.4859 23.2587 53.1285 23.1307 52.7659 22.992C52.5099 22.9067 52.2539 22.8053 51.9979 22.688C51.7419 22.56 51.5019 22.416 51.2779 22.256C51.0645 22.096 50.8725 21.9093 50.7019 21.696C50.5419 21.472 50.4139 21.216 50.3179 20.928C50.2219 20.64 50.1739 20.304 50.1739 19.92C50.1739 19.312 50.3232 18.7787 50.6219 18.32C50.9205 17.8507 51.3365 17.4827 51.8699 17.216C52.4032 16.9387 53.0112 16.8 53.6939 16.8C54.1312 16.8 54.5205 16.8427 54.8619 16.928C55.2139 17.0027 55.5125 17.104 55.7579 17.232C56.0139 17.3493 56.2219 17.472 56.3819 17.6C56.5525 17.7173 56.6752 17.8187 56.7499 17.904C56.9952 18.1493 57.1285 18.3573 57.1499 18.528C57.1819 18.688 57.0859 18.9067 56.8619 19.184C56.6379 19.472 56.4192 19.632 56.2059 19.664C56.0032 19.6853 55.7739 19.6 55.5179 19.408C55.3472 19.2267 55.1765 19.0827 55.0059 18.976C54.8352 18.8587 54.6432 18.7733 54.4299 18.72C54.2272 18.6667 53.9765 18.64 53.6779 18.64C53.4645 18.64 53.2565 18.672 53.0539 18.736C52.8619 18.7893 52.6965 18.8747 52.5579 18.992C52.4192 19.0987 52.3072 19.232 52.2219 19.392C52.1472 19.552 52.1099 19.7333 52.1099 19.936C52.1099 20.2133 52.1845 20.4427 52.3339 20.624C52.4939 20.7947 52.7072 20.9387 52.9739 21.056C53.2405 21.1627 53.5392 21.264 53.8699 21.36C54.2005 21.456 54.5365 21.5573 54.8779 21.664C55.2299 21.7813 55.5765 21.92 55.9179 22.08C56.2592 22.24 56.5632 22.4427 56.8299 22.688C57.0965 22.9227 57.3099 23.2213 57.4699 23.584C57.6299 23.936 57.7099 24.368 57.7099 24.88C57.7099 25.4667 57.5979 25.9787 57.3739 26.416C57.1499 26.8533 56.8459 27.2107 56.4619 27.488C56.0779 27.7653 55.6512 27.968 55.1819 28.096C54.7125 28.2347 54.2379 28.304 53.7579 28.304ZM62.8588 28.256C62.1654 28.256 61.5574 28.144 61.0348 27.92C60.5228 27.696 60.0908 27.392 59.7388 27.008C59.3974 26.6133 59.1361 26.176 58.9548 25.696C58.7841 25.2053 58.6988 24.6987 58.6988 24.176C58.6988 23.408 58.8748 22.7253 59.2268 22.128C59.5788 21.5307 60.0641 21.0613 60.6828 20.72C61.3121 20.3787 62.0321 20.208 62.8428 20.208C63.4188 20.208 63.9254 20.2987 64.3628 20.48C64.8001 20.6613 65.1628 20.9013 65.4508 21.2C65.7494 21.488 65.9734 21.808 66.1228 22.16C66.2828 22.512 66.3628 22.8533 66.3628 23.184C66.3628 23.7493 66.2241 24.16 65.9468 24.416C65.6801 24.672 65.3441 24.8 64.9388 24.8H60.7148C60.7254 25.1627 60.8374 25.4773 61.0508 25.744C61.2748 26.0107 61.5521 26.2187 61.8828 26.368C62.2241 26.5067 62.5708 26.576 62.9227 26.576C63.1894 26.576 63.4241 26.56 63.6268 26.528C63.8401 26.496 64.0214 26.4587 64.1708 26.416C64.3201 26.3627 64.4481 26.3093 64.5548 26.256C64.6721 26.2027 64.7788 26.1547 64.8748 26.112C64.9708 26.0693 65.0614 26.0427 65.1468 26.032C65.2641 26.0213 65.3814 26.048 65.4988 26.112C65.6161 26.176 65.7121 26.288 65.7868 26.448C65.8508 26.5547 65.8934 26.656 65.9148 26.752C65.9468 26.8373 65.9628 26.9227 65.9628 27.008C65.9628 27.2213 65.8348 27.424 65.5788 27.616C65.3228 27.7973 64.9601 27.9467 64.4908 28.064C64.0321 28.192 63.4881 28.256 62.8588 28.256ZM60.7148 23.664H63.9948C64.1761 23.664 64.3148 23.6373 64.4108 23.584C64.5068 23.52 64.5548 23.392 64.5548 23.2C64.5548 22.9547 64.4801 22.736 64.3308 22.544C64.1814 22.3413 63.9788 22.1867 63.7228 22.08C63.4668 21.9627 63.1681 21.904 62.8268 21.904C62.4321 21.904 62.0748 21.984 61.7548 22.144C61.4348 22.2933 61.1788 22.5013 60.9868 22.768C60.8054 23.0347 60.7148 23.3333 60.7148 23.664ZM70.4278 28.16C70.0331 28.16 69.6811 28.1333 69.3718 28.08C69.0731 28.0267 68.8118 27.936 68.5878 27.808C68.3744 27.68 68.1984 27.5093 68.0598 27.296C67.9211 27.072 67.8144 26.8 67.7398 26.48C67.6758 26.16 67.6438 25.776 67.6438 25.328V17.616C67.6438 17.4347 67.6598 17.2747 67.6918 17.136C67.7344 16.9867 67.8198 16.8693 67.9478 16.784C68.0864 16.688 68.3051 16.64 68.6038 16.64C68.9024 16.64 69.1158 16.6827 69.2438 16.768C69.3824 16.8533 69.4678 16.9707 69.4998 17.12C69.5424 17.2587 69.5638 17.4187 69.5638 17.6V25.248C69.5638 25.4507 69.5744 25.6213 69.5958 25.76C69.6278 25.888 69.6758 25.9947 69.7398 26.08C69.8144 26.1547 69.9051 26.208 70.0118 26.24C70.1291 26.272 70.2678 26.288 70.4278 26.288C70.5664 26.288 70.6891 26.304 70.7958 26.336C70.9131 26.368 71.0038 26.448 71.0677 26.576C71.1424 26.704 71.1798 26.912 71.1798 27.2C71.1798 27.4987 71.1424 27.7173 71.0677 27.856C71.0038 27.9947 70.9131 28.08 70.7958 28.112C70.6784 28.144 70.5558 28.16 70.4278 28.16ZM76.14 28.256C75.4467 28.256 74.8387 28.144 74.316 27.92C73.804 27.696 73.372 27.392 73.02 27.008C72.6787 26.6133 72.4173 26.176 72.236 25.696C72.0653 25.2053 71.98 24.6987 71.98 24.176C71.98 23.408 72.156 22.7253 72.508 22.128C72.86 21.5307 73.3453 21.0613 73.964 20.72C74.5933 20.3787 75.3133 20.208 76.124 20.208C76.7 20.208 77.2067 20.2987 77.644 20.48C78.0813 20.6613 78.444 20.9013 78.732 21.2C79.0307 21.488 79.2547 21.808 79.404 22.16C79.564 22.512 79.644 22.8533 79.644 23.184C79.644 23.7493 79.5053 24.16 79.228 24.416C78.9613 24.672 78.6253 24.8 78.22 24.8H73.996C74.0067 25.1627 74.1187 25.4773 74.332 25.744C74.556 26.0107 74.8333 26.2187 75.164 26.368C75.5053 26.5067 75.852 26.576 76.204 26.576C76.4707 26.576 76.7053 26.56 76.908 26.528C77.1213 26.496 77.3027 26.4587 77.452 26.416C77.6013 26.3627 77.7293 26.3093 77.836 26.256C77.9533 26.2027 78.06 26.1547 78.156 26.112C78.252 26.0693 78.3427 26.0427 78.428 26.032C78.5453 26.0213 78.6627 26.048 78.78 26.112C78.8973 26.176 78.9933 26.288 79.068 26.448C79.132 26.5547 79.1747 26.656 79.196 26.752C79.228 26.8373 79.244 26.9227 79.244 27.008C79.244 27.2213 79.116 27.424 78.86 27.616C78.604 27.7973 78.2413 27.9467 77.772 28.064C77.3133 28.192 76.7693 28.256 76.14 28.256ZM73.996 23.664H77.276C77.4573 23.664 77.596 23.6373 77.692 23.584C77.788 23.52 77.836 23.392 77.836 23.2C77.836 22.9547 77.7613 22.736 77.612 22.544C77.4627 22.3413 77.26 22.1867 77.004 22.08C76.748 21.9627 76.4493 21.904 76.108 21.904C75.7133 21.904 75.356 21.984 75.036 22.144C74.716 22.2933 74.46 22.5013 74.268 22.768C74.0867 23.0347 73.996 23.3333 73.996 23.664ZM84.765 28.192C84.253 28.192 83.7517 28.1067 83.261 27.936C82.781 27.7547 82.3437 27.4933 81.949 27.152C81.565 26.8107 81.2557 26.3947 81.021 25.904C80.797 25.4027 80.685 24.8373 80.685 24.208C80.685 23.5787 80.797 23.0187 81.021 22.528C81.2557 22.0373 81.565 21.6213 81.949 21.28C82.333 20.9387 82.765 20.6773 83.245 20.496C83.725 20.3147 84.221 20.224 84.733 20.224C85.1063 20.224 85.4583 20.2773 85.789 20.384C86.1303 20.4907 86.4237 20.6187 86.669 20.768C86.9143 20.9173 87.0903 21.0667 87.197 21.216C87.3357 21.344 87.453 21.4667 87.549 21.584C87.645 21.7013 87.677 21.8453 87.645 22.016C87.613 22.1227 87.565 22.224 87.501 22.32C87.437 22.4053 87.357 22.496 87.261 22.592C87.005 22.88 86.7543 22.9867 86.509 22.912C86.3703 22.8373 86.2317 22.7573 86.093 22.672C85.9543 22.5867 85.8103 22.5067 85.661 22.432C85.5223 22.3467 85.3783 22.2773 85.229 22.224C85.0797 22.1707 84.9143 22.144 84.733 22.144C84.3277 22.144 83.965 22.2347 83.645 22.416C83.3357 22.5867 83.0903 22.8267 82.909 23.136C82.7383 23.4453 82.653 23.8027 82.653 24.208C82.653 24.6133 82.7383 24.976 82.909 25.296C83.0903 25.6053 83.3357 25.8507 83.645 26.032C83.9543 26.2027 84.3063 26.288 84.701 26.288C84.893 26.288 85.0743 26.2667 85.245 26.224C85.4263 26.1707 85.5863 26.1067 85.725 26.032C85.8637 25.9467 85.9757 25.8613 86.061 25.776C86.1783 25.7013 86.285 25.632 86.381 25.568C86.477 25.504 86.5783 25.472 86.685 25.472C86.813 25.472 86.9357 25.52 87.053 25.616C87.181 25.7013 87.3197 25.84 87.469 26.032C87.6077 26.192 87.6823 26.3467 87.693 26.496C87.7143 26.6453 87.6823 26.7893 87.597 26.928C87.5223 27.0667 87.3943 27.1947 87.213 27.312C87.085 27.44 86.893 27.5733 86.637 27.712C86.3917 27.84 86.1037 27.952 85.773 28.048C85.453 28.144 85.117 28.192 84.765 28.192ZM92.7981 28.16C92.2755 28.16 91.8275 28.1067 91.4541 28C91.0808 27.8933 90.7768 27.728 90.5421 27.504C90.3075 27.28 90.1315 26.992 90.0141 26.64C89.9075 26.2773 89.8541 25.8507 89.8541 25.36V18.576C89.8541 18.384 89.8701 18.2187 89.9021 18.08C89.9448 17.9413 90.0301 17.8347 90.1581 17.76C90.2968 17.6747 90.5101 17.632 90.7981 17.632C91.0968 17.632 91.3101 17.6747 91.4381 17.76C91.5768 17.8453 91.6621 17.9627 91.6941 18.112C91.7368 18.2507 91.7581 18.4053 91.7581 18.576V25.296C91.7581 25.52 91.7741 25.7013 91.8061 25.84C91.8488 25.9787 91.9075 26.0853 91.9821 26.16C92.0675 26.224 92.1741 26.272 92.3021 26.304C92.4408 26.3253 92.6061 26.336 92.7981 26.336C93.0008 26.336 93.1715 26.352 93.3101 26.384C93.4595 26.416 93.5715 26.496 93.6461 26.624C93.7208 26.7413 93.7581 26.9387 93.7581 27.216C93.7581 27.5147 93.7101 27.7333 93.6141 27.872C93.5288 28 93.4115 28.08 93.2621 28.112C93.1235 28.144 92.9688 28.16 92.7981 28.16ZM89.1981 20.432L90.8461 20.448L93.0541 20.384C93.2355 20.384 93.3955 20.4053 93.5341 20.448C93.6835 20.48 93.8008 20.5653 93.8861 20.704C93.9715 20.832 94.0141 21.0453 94.0141 21.344C94.0141 21.6213 93.9715 21.8293 93.8861 21.968C93.8008 22.1067 93.6888 22.1973 93.5501 22.24C93.4115 22.272 93.2515 22.288 93.0701 22.288L90.9261 22.256L89.1501 22.272C88.8835 22.2613 88.6968 22.1867 88.5901 22.048C88.4941 21.8987 88.4461 21.6587 88.4461 21.328C88.4461 21.0187 88.5048 20.7947 88.6221 20.656C88.7501 20.5067 88.9421 20.432 89.1981 20.432ZM104.616 28.224C104.093 28.224 103.565 28.1493 103.032 28C102.498 27.84 101.986 27.6053 101.496 27.296C101.005 26.976 100.568 26.5867 100.184 26.128C99.8104 25.6587 99.5118 25.12 99.2878 24.512C99.0638 23.8933 98.9518 23.2107 98.9518 22.464C98.9518 21.728 99.0638 21.0667 99.2878 20.48C99.5118 19.8827 99.8104 19.36 100.184 18.912C100.568 18.464 101 18.0907 101.48 17.792C101.97 17.4933 102.482 17.2693 103.016 17.12C103.56 16.96 104.098 16.8747 104.632 16.864C105.176 16.864 105.645 16.9227 106.04 17.04C106.434 17.1573 106.754 17.2853 107 17.424C107.245 17.552 107.41 17.6427 107.496 17.696C107.666 17.8027 107.826 17.9253 107.976 18.064C108.136 18.192 108.221 18.352 108.232 18.544C108.242 18.672 108.226 18.7893 108.184 18.896C108.141 18.992 108.082 19.0933 108.008 19.2C107.88 19.3813 107.752 19.5147 107.624 19.6C107.496 19.6853 107.368 19.728 107.24 19.728C107.122 19.728 107.01 19.696 106.904 19.632C106.808 19.568 106.685 19.488 106.536 19.392C106.472 19.3493 106.354 19.2853 106.184 19.2C106.024 19.104 105.805 19.0187 105.528 18.944C105.261 18.8693 104.936 18.832 104.552 18.832C104.093 18.832 103.645 18.912 103.208 19.072C102.77 19.232 102.376 19.472 102.024 19.792C101.682 20.1013 101.41 20.4907 101.208 20.96C101.005 21.4187 100.904 21.9467 100.904 22.544C100.904 23.1413 101.005 23.6747 101.208 24.144C101.41 24.6027 101.682 24.992 102.024 25.312C102.376 25.6213 102.77 25.856 103.208 26.016C103.645 26.176 104.093 26.256 104.552 26.256C104.914 26.256 105.224 26.224 105.48 26.16C105.746 26.0853 105.97 26 106.152 25.904C106.344 25.7973 106.488 25.7173 106.584 25.664C106.701 25.5893 106.813 25.52 106.92 25.456C107.026 25.392 107.138 25.36 107.256 25.36C107.384 25.36 107.506 25.4027 107.624 25.488C107.752 25.5733 107.874 25.712 107.992 25.904C108.066 26.0213 108.125 26.1333 108.168 26.24C108.21 26.3467 108.226 26.4587 108.216 26.576C108.205 26.768 108.12 26.9333 107.96 27.072C107.81 27.2 107.65 27.312 107.48 27.408C107.394 27.4613 107.229 27.5573 106.984 27.696C106.749 27.824 106.434 27.9413 106.04 28.048C105.645 28.1653 105.17 28.224 104.616 28.224ZM113.34 28.256C112.828 28.256 112.327 28.16 111.836 27.968C111.356 27.7653 110.919 27.4827 110.524 27.12C110.14 26.7573 109.831 26.3307 109.596 25.84C109.372 25.3493 109.26 24.8107 109.26 24.224C109.26 23.6587 109.367 23.1307 109.58 22.64C109.793 22.1493 110.087 21.7173 110.46 21.344C110.833 20.9707 111.26 20.6827 111.74 20.48C112.231 20.2667 112.753 20.16 113.308 20.16C114.055 20.16 114.732 20.3413 115.34 20.704C115.948 21.056 116.433 21.536 116.796 22.144C117.159 22.752 117.34 23.44 117.34 24.208C117.34 24.816 117.228 25.3707 117.004 25.872C116.78 26.3627 116.476 26.7893 116.092 27.152C115.708 27.504 115.276 27.776 114.796 27.968C114.327 28.16 113.841 28.256 113.34 28.256ZM113.308 26.368C113.66 26.368 113.996 26.2827 114.316 26.112C114.647 25.9307 114.913 25.6747 115.116 25.344C115.329 25.0133 115.436 24.624 115.436 24.176C115.436 23.76 115.34 23.392 115.148 23.072C114.967 22.752 114.716 22.5013 114.396 22.32C114.076 22.1387 113.708 22.048 113.292 22.048C112.897 22.048 112.54 22.144 112.22 22.336C111.9 22.5173 111.644 22.7733 111.452 23.104C111.271 23.424 111.18 23.7867 111.18 24.192C111.18 24.64 111.281 25.0293 111.484 25.36C111.687 25.68 111.948 25.9307 112.268 26.112C112.599 26.2827 112.945 26.368 113.308 26.368ZM119.542 28.144C119.254 28.144 119.04 28.096 118.902 28C118.774 27.9147 118.694 27.8027 118.662 27.664C118.63 27.5147 118.614 27.3493 118.614 27.168V21.184C118.614 21.0133 118.63 20.8587 118.662 20.72C118.694 20.5813 118.779 20.4747 118.918 20.4C119.056 20.3147 119.27 20.272 119.558 20.272C119.814 20.272 120.006 20.304 120.134 20.368C120.262 20.432 120.347 20.512 120.39 20.608C120.432 20.704 120.454 20.8 120.454 20.896C120.464 20.992 120.475 21.0667 120.486 21.12L120.422 21.632C120.486 21.4613 120.592 21.296 120.742 21.136C120.891 20.976 121.072 20.832 121.286 20.704C121.499 20.5653 121.728 20.4587 121.974 20.384C122.23 20.2987 122.491 20.256 122.758 20.256C123.259 20.256 123.707 20.3467 124.102 20.528C124.496 20.7093 124.832 20.9653 125.11 21.296C125.398 21.6267 125.616 22.0213 125.766 22.48C125.915 22.928 125.99 23.4347 125.99 24V27.184C125.99 27.3653 125.968 27.5307 125.926 27.68C125.894 27.8187 125.814 27.9307 125.686 28.016C125.558 28.1013 125.339 28.144 125.03 28.144C124.731 28.144 124.512 28.096 124.374 28C124.235 27.9147 124.15 27.8027 124.118 27.664C124.086 27.5147 124.07 27.3493 124.07 27.168V23.984C124.07 23.6 124 23.2693 123.862 22.992C123.734 22.7147 123.542 22.5013 123.286 22.352C123.04 22.2027 122.726 22.128 122.342 22.128C121.968 22.128 121.643 22.208 121.366 22.368C121.088 22.5173 120.875 22.7307 120.726 23.008C120.576 23.2853 120.502 23.6107 120.502 23.984V27.184C120.502 27.3653 120.486 27.5307 120.454 27.68C120.422 27.8187 120.336 27.9307 120.198 28.016C120.07 28.1013 119.851 28.144 119.542 28.144ZM131.283 28.16C130.76 28.16 130.312 28.1067 129.939 28C129.565 27.8933 129.261 27.728 129.027 27.504C128.792 27.28 128.616 26.992 128.499 26.64C128.392 26.2773 128.339 25.8507 128.339 25.36V18.576C128.339 18.384 128.355 18.2187 128.387 18.08C128.429 17.9413 128.515 17.8347 128.643 17.76C128.781 17.6747 128.995 17.632 129.283 17.632C129.581 17.632 129.795 17.6747 129.923 17.76C130.061 17.8453 130.147 17.9627 130.179 18.112C130.221 18.2507 130.243 18.4053 130.243 18.576V25.296C130.243 25.52 130.259 25.7013 130.291 25.84C130.333 25.9787 130.392 26.0853 130.467 26.16C130.552 26.224 130.659 26.272 130.786 26.304C130.925 26.3253 131.091 26.336 131.283 26.336C131.485 26.336 131.656 26.352 131.795 26.384C131.944 26.416 132.056 26.496 132.131 26.624C132.205 26.7413 132.243 26.9387 132.243 27.216C132.243 27.5147 132.195 27.7333 132.099 27.872C132.013 28 131.896 28.08 131.747 28.112C131.608 28.144 131.453 28.16 131.283 28.16ZM127.683 20.432L129.331 20.448L131.539 20.384C131.72 20.384 131.88 20.4053 132.019 20.448C132.168 20.48 132.285 20.5653 132.371 20.704C132.456 20.832 132.499 21.0453 132.499 21.344C132.499 21.6213 132.456 21.8293 132.371 21.968C132.285 22.1067 132.173 22.1973 132.035 22.24C131.896 22.272 131.736 22.288 131.555 22.288L129.411 22.256L127.635 22.272C127.368 22.2613 127.181 22.1867 127.075 22.048C126.979 21.8987 126.931 21.6587 126.931 21.328C126.931 21.0187 126.989 20.7947 127.107 20.656C127.235 20.5067 127.427 20.432 127.683 20.432ZM137.499 28.256C136.806 28.256 136.198 28.144 135.675 27.92C135.163 27.696 134.731 27.392 134.379 27.008C134.038 26.6133 133.777 26.176 133.595 25.696C133.425 25.2053 133.339 24.6987 133.339 24.176C133.339 23.408 133.515 22.7253 133.867 22.128C134.219 21.5307 134.705 21.0613 135.323 20.72C135.953 20.3787 136.673 20.208 137.483 20.208C138.059 20.208 138.566 20.2987 139.003 20.48C139.441 20.6613 139.803 20.9013 140.091 21.2C140.39 21.488 140.614 21.808 140.763 22.16C140.923 22.512 141.003 22.8533 141.003 23.184C141.003 23.7493 140.865 24.16 140.587 24.416C140.321 24.672 139.985 24.8 139.579 24.8H135.355C135.366 25.1627 135.478 25.4773 135.691 25.744C135.915 26.0107 136.193 26.2187 136.523 26.368C136.865 26.5067 137.211 26.576 137.563 26.576C137.83 26.576 138.065 26.56 138.267 26.528C138.481 26.496 138.662 26.4587 138.811 26.416C138.961 26.3627 139.089 26.3093 139.195 26.256C139.313 26.2027 139.419 26.1547 139.515 26.112C139.611 26.0693 139.702 26.0427 139.787 26.032C139.905 26.0213 140.022 26.048 140.139 26.112C140.257 26.176 140.353 26.288 140.427 26.448C140.491 26.5547 140.534 26.656 140.555 26.752C140.587 26.8373 140.603 26.9227 140.603 27.008C140.603 27.2213 140.475 27.424 140.219 27.616C139.963 27.7973 139.601 27.9467 139.131 28.064C138.673 28.192 138.129 28.256 137.499 28.256ZM135.355 23.664H138.635C138.817 23.664 138.955 23.6373 139.051 23.584C139.147 23.52 139.195 23.392 139.195 23.2C139.195 22.9547 139.121 22.736 138.971 22.544C138.822 22.3413 138.619 22.1867 138.363 22.08C138.107 21.9627 137.809 21.904 137.467 21.904C137.073 21.904 136.715 21.984 136.395 22.144C136.075 22.2933 135.819 22.5013 135.627 22.768C135.446 23.0347 135.355 23.3333 135.355 23.664ZM143.26 28.144C142.972 28.144 142.759 28.096 142.62 28C142.492 27.9147 142.412 27.8027 142.38 27.664C142.348 27.5147 142.332 27.3493 142.332 27.168V21.184C142.332 21.0133 142.348 20.8587 142.38 20.72C142.412 20.5813 142.498 20.4747 142.636 20.4C142.775 20.3147 142.988 20.272 143.276 20.272C143.532 20.272 143.724 20.304 143.852 20.368C143.98 20.432 144.066 20.512 144.108 20.608C144.151 20.704 144.172 20.8 144.172 20.896C144.183 20.992 144.194 21.0667 144.204 21.12L144.14 21.632C144.204 21.4613 144.311 21.296 144.46 21.136C144.61 20.976 144.791 20.832 145.004 20.704C145.218 20.5653 145.447 20.4587 145.692 20.384C145.948 20.2987 146.21 20.256 146.476 20.256C146.978 20.256 147.426 20.3467 147.82 20.528C148.215 20.7093 148.551 20.9653 148.828 21.296C149.116 21.6267 149.335 22.0213 149.484 22.48C149.634 22.928 149.708 23.4347 149.708 24V27.184C149.708 27.3653 149.687 27.5307 149.644 27.68C149.612 27.8187 149.532 27.9307 149.404 28.016C149.276 28.1013 149.058 28.144 148.748 28.144C148.45 28.144 148.231 28.096 148.092 28C147.954 27.9147 147.868 27.8027 147.836 27.664C147.804 27.5147 147.788 27.3493 147.788 27.168V23.984C147.788 23.6 147.719 23.2693 147.58 22.992C147.452 22.7147 147.26 22.5013 147.004 22.352C146.759 22.2027 146.444 22.128 146.06 22.128C145.687 22.128 145.362 22.208 145.084 22.368C144.807 22.5173 144.594 22.7307 144.444 23.008C144.295 23.2853 144.22 23.6107 144.22 23.984V27.184C144.22 27.3653 144.204 27.5307 144.172 27.68C144.14 27.8187 144.055 27.9307 143.916 28.016C143.788 28.1013 143.57 28.144 143.26 28.144ZM155.001 28.16C154.479 28.16 154.031 28.1067 153.657 28C153.284 27.8933 152.98 27.728 152.745 27.504C152.511 27.28 152.335 26.992 152.217 26.64C152.111 26.2773 152.057 25.8507 152.057 25.36V18.576C152.057 18.384 152.073 18.2187 152.105 18.08C152.148 17.9413 152.233 17.8347 152.361 17.76C152.5 17.6747 152.713 17.632 153.001 17.632C153.3 17.632 153.513 17.6747 153.641 17.76C153.78 17.8453 153.865 17.9627 153.897 18.112C153.94 18.2507 153.961 18.4053 153.961 18.576V25.296C153.961 25.52 153.977 25.7013 154.009 25.84C154.052 25.9787 154.111 26.0853 154.185 26.16C154.271 26.224 154.377 26.272 154.505 26.304C154.644 26.3253 154.809 26.336 155.001 26.336C155.204 26.336 155.375 26.352 155.513 26.384C155.663 26.416 155.775 26.496 155.849 26.624C155.924 26.7413 155.961 26.9387 155.961 27.216C155.961 27.5147 155.913 27.7333 155.817 27.872C155.732 28 155.615 28.08 155.465 28.112C155.327 28.144 155.172 28.16 155.001 28.16ZM151.401 20.432L153.049 20.448L155.257 20.384C155.439 20.384 155.599 20.4053 155.737 20.448C155.887 20.48 156.004 20.5653 156.089 20.704C156.175 20.832 156.217 21.0453 156.217 21.344C156.217 21.6213 156.175 21.8293 156.089 21.968C156.004 22.1067 155.892 22.1973 155.753 22.24C155.615 22.272 155.455 22.288 155.273 22.288L153.129 22.256L151.353 22.272C151.087 22.2613 150.9 22.1867 150.793 22.048C150.697 21.8987 150.649 21.6587 150.649 21.328C150.649 21.0187 150.708 20.7947 150.825 20.656C150.953 20.5067 151.145 20.432 151.401 20.432Z" fill="#1EA4FF"/>
<defs>
<clipPath id="clip0_17224_123225">
<rect width="24" height="24" fill="white" transform="translate(15 10.5)"/>
</clipPath>
</defs>
</svg>
