<svg width="163" height="45" viewBox="0 0 163 45" fill="none" xmlns="http://www.w3.org/2000/svg">
<rect width="163" height="45" rx="5" fill="#EBF3FE"/>
<g clip-path="url(#clip0_17224_123252)">
<path d="M24 22.5H30" stroke="#1EA4FF" stroke-width="2" stroke-linecap="round" stroke-linejoin="round"/>
<path d="M27 19.5V25.5" stroke="#1EA4FF" stroke-width="2" stroke-linecap="round" stroke-linejoin="round"/>
<path d="M18 15.5C18 14.9696 18.2107 14.4609 18.5858 14.0858C18.9609 13.7107 19.4696 13.5 20 13.5H34C34.5304 13.5 35.0391 13.7107 35.4142 14.0858C35.7893 14.4609 36 14.9696 36 15.5V29.5C36 30.0304 35.7893 30.5391 35.4142 30.9142C35.0391 31.2893 34.5304 31.5 34 31.5H20C19.4696 31.5 18.9609 31.2893 18.5858 30.9142C18.2107 30.5391 18 30.0304 18 29.5V15.5Z" stroke="#1EA4FF" stroke-width="2" stroke-linecap="round" stroke-linejoin="round"/>
</g>
<path d="M53.6719 28.304C53.1919 28.304 52.7546 28.2453 52.3599 28.128C51.9759 28.0107 51.6346 27.8613 51.3359 27.68C51.0479 27.4987 50.8026 27.312 50.5999 27.12C50.3973 26.928 50.2479 26.752 50.1519 26.592C50.0133 26.4 49.9226 26.2293 49.8799 26.08C49.8373 25.9307 49.8479 25.7867 49.9119 25.648C49.9866 25.4987 50.1199 25.344 50.3119 25.184C50.5039 25.0133 50.6799 24.928 50.8399 24.928C51.0106 24.9173 51.1706 24.9653 51.3199 25.072C51.4799 25.1787 51.6346 25.328 51.7839 25.52C52.0399 25.8613 52.3279 26.1067 52.6479 26.256C52.9679 26.3947 53.2879 26.464 53.6079 26.464C54.0239 26.464 54.3866 26.4107 54.6959 26.304C55.0053 26.1867 55.2453 26.016 55.4159 25.792C55.5973 25.568 55.6879 25.28 55.6879 24.928C55.6879 24.64 55.5973 24.4053 55.4159 24.224C55.2453 24.032 55.0159 23.872 54.7279 23.744C54.4399 23.6053 54.1146 23.4827 53.7519 23.376C53.3999 23.2587 53.0426 23.1307 52.6799 22.992C52.4239 22.9067 52.1679 22.8053 51.9119 22.688C51.6559 22.56 51.4159 22.416 51.1919 22.256C50.9786 22.096 50.7866 21.9093 50.6159 21.696C50.4559 21.472 50.3279 21.216 50.2319 20.928C50.1359 20.64 50.0879 20.304 50.0879 19.92C50.0879 19.312 50.2373 18.7787 50.5359 18.32C50.8346 17.8507 51.2506 17.4827 51.7839 17.216C52.3173 16.9387 52.9253 16.8 53.6079 16.8C54.0453 16.8 54.4346 16.8427 54.7759 16.928C55.1279 17.0027 55.4266 17.104 55.6719 17.232C55.9279 17.3493 56.1359 17.472 56.2959 17.6C56.4666 17.7173 56.5893 17.8187 56.6639 17.904C56.9093 18.1493 57.0426 18.3573 57.0639 18.528C57.0959 18.688 56.9999 18.9067 56.7759 19.184C56.5519 19.472 56.3333 19.632 56.1199 19.664C55.9173 19.6853 55.6879 19.6 55.4319 19.408C55.2613 19.2267 55.0906 19.0827 54.9199 18.976C54.7493 18.8587 54.5573 18.7733 54.3439 18.72C54.1413 18.6667 53.8906 18.64 53.5919 18.64C53.3786 18.64 53.1706 18.672 52.9679 18.736C52.7759 18.7893 52.6106 18.8747 52.4719 18.992C52.3333 19.0987 52.2213 19.232 52.1359 19.392C52.0613 19.552 52.0239 19.7333 52.0239 19.936C52.0239 20.2133 52.0986 20.4427 52.2479 20.624C52.4079 20.7947 52.6213 20.9387 52.8879 21.056C53.1546 21.1627 53.4533 21.264 53.7839 21.36C54.1146 21.456 54.4506 21.5573 54.7919 21.664C55.1439 21.7813 55.4906 21.92 55.8319 22.08C56.1733 22.24 56.4773 22.4427 56.7439 22.688C57.0106 22.9227 57.2239 23.2213 57.3839 23.584C57.5439 23.936 57.6239 24.368 57.6239 24.88C57.6239 25.4667 57.5119 25.9787 57.2879 26.416C57.0639 26.8533 56.7599 27.2107 56.3759 27.488C55.9919 27.7653 55.5653 27.968 55.0959 28.096C54.6266 28.2347 54.1519 28.304 53.6719 28.304ZM62.7728 28.256C62.0795 28.256 61.4715 28.144 60.9488 27.92C60.4368 27.696 60.0048 27.392 59.6528 27.008C59.3115 26.6133 59.0501 26.176 58.8688 25.696C58.6981 25.2053 58.6128 24.6987 58.6128 24.176C58.6128 23.408 58.7888 22.7253 59.1408 22.128C59.4928 21.5307 59.9781 21.0613 60.5968 20.72C61.2261 20.3787 61.9461 20.208 62.7568 20.208C63.3328 20.208 63.8395 20.2987 64.2768 20.48C64.7141 20.6613 65.0768 20.9013 65.3648 21.2C65.6635 21.488 65.8875 21.808 66.0368 22.16C66.1968 22.512 66.2768 22.8533 66.2768 23.184C66.2768 23.7493 66.1381 24.16 65.8608 24.416C65.5941 24.672 65.2581 24.8 64.8528 24.8H60.6288C60.6395 25.1627 60.7515 25.4773 60.9648 25.744C61.1888 26.0107 61.4661 26.2187 61.7968 26.368C62.1381 26.5067 62.4848 26.576 62.8368 26.576C63.1035 26.576 63.3381 26.56 63.5408 26.528C63.7541 26.496 63.9355 26.4587 64.0848 26.416C64.2341 26.3627 64.3621 26.3093 64.4688 26.256C64.5861 26.2027 64.6928 26.1547 64.7888 26.112C64.8848 26.0693 64.9755 26.0427 65.0608 26.032C65.1781 26.0213 65.2955 26.048 65.4128 26.112C65.5301 26.176 65.6261 26.288 65.7008 26.448C65.7648 26.5547 65.8075 26.656 65.8288 26.752C65.8608 26.8373 65.8768 26.9227 65.8768 27.008C65.8768 27.2213 65.7488 27.424 65.4928 27.616C65.2368 27.7973 64.8741 27.9467 64.4048 28.064C63.9461 28.192 63.4021 28.256 62.7728 28.256ZM60.6288 23.664H63.9088C64.0901 23.664 64.2288 23.6373 64.3248 23.584C64.4208 23.52 64.4688 23.392 64.4688 23.2C64.4688 22.9547 64.3941 22.736 64.2448 22.544C64.0955 22.3413 63.8928 22.1867 63.6368 22.08C63.3808 21.9627 63.0821 21.904 62.7408 21.904C62.3461 21.904 61.9888 21.984 61.6688 22.144C61.3488 22.2933 61.0928 22.5013 60.9008 22.768C60.7195 23.0347 60.6288 23.3333 60.6288 23.664ZM70.3418 28.16C69.9471 28.16 69.5951 28.1333 69.2858 28.08C68.9871 28.0267 68.7258 27.936 68.5018 27.808C68.2885 27.68 68.1125 27.5093 67.9738 27.296C67.8351 27.072 67.7285 26.8 67.6538 26.48C67.5898 26.16 67.5578 25.776 67.5578 25.328V17.616C67.5578 17.4347 67.5738 17.2747 67.6058 17.136C67.6485 16.9867 67.7338 16.8693 67.8618 16.784C68.0005 16.688 68.2191 16.64 68.5178 16.64C68.8165 16.64 69.0298 16.6827 69.1578 16.768C69.2965 16.8533 69.3818 16.9707 69.4138 17.12C69.4565 17.2587 69.4778 17.4187 69.4778 17.6V25.248C69.4778 25.4507 69.4885 25.6213 69.5098 25.76C69.5418 25.888 69.5898 25.9947 69.6538 26.08C69.7285 26.1547 69.8191 26.208 69.9258 26.24C70.0431 26.272 70.1818 26.288 70.3418 26.288C70.4805 26.288 70.6031 26.304 70.7098 26.336C70.8271 26.368 70.9178 26.448 70.9818 26.576C71.0565 26.704 71.0938 26.912 71.0938 27.2C71.0938 27.4987 71.0565 27.7173 70.9818 27.856C70.9178 27.9947 70.8271 28.08 70.7098 28.112C70.5925 28.144 70.4698 28.16 70.3418 28.16ZM76.0541 28.256C75.3607 28.256 74.7527 28.144 74.2301 27.92C73.7181 27.696 73.2861 27.392 72.9341 27.008C72.5927 26.6133 72.3314 26.176 72.1501 25.696C71.9794 25.2053 71.8941 24.6987 71.8941 24.176C71.8941 23.408 72.0701 22.7253 72.4221 22.128C72.7741 21.5307 73.2594 21.0613 73.8781 20.72C74.5074 20.3787 75.2274 20.208 76.0381 20.208C76.6141 20.208 77.1207 20.2987 77.5581 20.48C77.9954 20.6613 78.3581 20.9013 78.6461 21.2C78.9447 21.488 79.1687 21.808 79.3181 22.16C79.4781 22.512 79.5581 22.8533 79.5581 23.184C79.5581 23.7493 79.4194 24.16 79.1421 24.416C78.8754 24.672 78.5394 24.8 78.1341 24.8H73.9101C73.9207 25.1627 74.0327 25.4773 74.2461 25.744C74.4701 26.0107 74.7474 26.2187 75.0781 26.368C75.4194 26.5067 75.7661 26.576 76.1181 26.576C76.3847 26.576 76.6194 26.56 76.8221 26.528C77.0354 26.496 77.2167 26.4587 77.3661 26.416C77.5154 26.3627 77.6434 26.3093 77.7501 26.256C77.8674 26.2027 77.9741 26.1547 78.0701 26.112C78.1661 26.0693 78.2567 26.0427 78.3421 26.032C78.4594 26.0213 78.5767 26.048 78.6941 26.112C78.8114 26.176 78.9074 26.288 78.9821 26.448C79.0461 26.5547 79.0887 26.656 79.1101 26.752C79.1421 26.8373 79.1581 26.9227 79.1581 27.008C79.1581 27.2213 79.0301 27.424 78.7741 27.616C78.5181 27.7973 78.1554 27.9467 77.6861 28.064C77.2274 28.192 76.6834 28.256 76.0541 28.256ZM73.9101 23.664H77.1901C77.3714 23.664 77.5101 23.6373 77.6061 23.584C77.7021 23.52 77.7501 23.392 77.7501 23.2C77.7501 22.9547 77.6754 22.736 77.5261 22.544C77.3767 22.3413 77.1741 22.1867 76.9181 22.08C76.6621 21.9627 76.3634 21.904 76.0221 21.904C75.6274 21.904 75.2701 21.984 74.9501 22.144C74.6301 22.2933 74.3741 22.5013 74.1821 22.768C74.0007 23.0347 73.9101 23.3333 73.9101 23.664ZM84.6791 28.192C84.1671 28.192 83.6657 28.1067 83.1751 27.936C82.6951 27.7547 82.2577 27.4933 81.8631 27.152C81.4791 26.8107 81.1697 26.3947 80.9351 25.904C80.7111 25.4027 80.5991 24.8373 80.5991 24.208C80.5991 23.5787 80.7111 23.0187 80.9351 22.528C81.1697 22.0373 81.4791 21.6213 81.8631 21.28C82.2471 20.9387 82.6791 20.6773 83.1591 20.496C83.6391 20.3147 84.1351 20.224 84.6471 20.224C85.0204 20.224 85.3724 20.2773 85.7031 20.384C86.0444 20.4907 86.3377 20.6187 86.5831 20.768C86.8284 20.9173 87.0044 21.0667 87.1111 21.216C87.2497 21.344 87.3671 21.4667 87.4631 21.584C87.5591 21.7013 87.5911 21.8453 87.5591 22.016C87.5271 22.1227 87.4791 22.224 87.4151 22.32C87.3511 22.4053 87.2711 22.496 87.1751 22.592C86.9191 22.88 86.6684 22.9867 86.4231 22.912C86.2844 22.8373 86.1457 22.7573 86.0071 22.672C85.8684 22.5867 85.7244 22.5067 85.5751 22.432C85.4364 22.3467 85.2924 22.2773 85.1431 22.224C84.9937 22.1707 84.8284 22.144 84.6471 22.144C84.2417 22.144 83.8791 22.2347 83.5591 22.416C83.2497 22.5867 83.0044 22.8267 82.8231 23.136C82.6524 23.4453 82.5671 23.8027 82.5671 24.208C82.5671 24.6133 82.6524 24.976 82.8231 25.296C83.0044 25.6053 83.2497 25.8507 83.5591 26.032C83.8684 26.2027 84.2204 26.288 84.6151 26.288C84.8071 26.288 84.9884 26.2667 85.1591 26.224C85.3404 26.1707 85.5004 26.1067 85.6391 26.032C85.7777 25.9467 85.8897 25.8613 85.9751 25.776C86.0924 25.7013 86.1991 25.632 86.2951 25.568C86.3911 25.504 86.4924 25.472 86.5991 25.472C86.7271 25.472 86.8497 25.52 86.9671 25.616C87.0951 25.7013 87.2337 25.84 87.3831 26.032C87.5217 26.192 87.5964 26.3467 87.6071 26.496C87.6284 26.6453 87.5964 26.7893 87.5111 26.928C87.4364 27.0667 87.3084 27.1947 87.1271 27.312C86.9991 27.44 86.8071 27.5733 86.5511 27.712C86.3057 27.84 86.0177 27.952 85.6871 28.048C85.3671 28.144 85.0311 28.192 84.6791 28.192ZM92.7122 28.16C92.1895 28.16 91.7415 28.1067 91.3682 28C90.9949 27.8933 90.6909 27.728 90.4562 27.504C90.2215 27.28 90.0455 26.992 89.9282 26.64C89.8215 26.2773 89.7682 25.8507 89.7682 25.36V18.576C89.7682 18.384 89.7842 18.2187 89.8162 18.08C89.8589 17.9413 89.9442 17.8347 90.0722 17.76C90.2109 17.6747 90.4242 17.632 90.7122 17.632C91.0109 17.632 91.2242 17.6747 91.3522 17.76C91.4909 17.8453 91.5762 17.9627 91.6082 18.112C91.6509 18.2507 91.6722 18.4053 91.6722 18.576V25.296C91.6722 25.52 91.6882 25.7013 91.7202 25.84C91.7629 25.9787 91.8215 26.0853 91.8962 26.16C91.9815 26.224 92.0882 26.272 92.2162 26.304C92.3549 26.3253 92.5202 26.336 92.7122 26.336C92.9149 26.336 93.0855 26.352 93.2242 26.384C93.3735 26.416 93.4855 26.496 93.5602 26.624C93.6349 26.7413 93.6722 26.9387 93.6722 27.216C93.6722 27.5147 93.6242 27.7333 93.5282 27.872C93.4429 28 93.3255 28.08 93.1762 28.112C93.0375 28.144 92.8829 28.16 92.7122 28.16ZM89.1122 20.432L90.7602 20.448L92.9682 20.384C93.1495 20.384 93.3095 20.4053 93.4482 20.448C93.5975 20.48 93.7149 20.5653 93.8002 20.704C93.8855 20.832 93.9282 21.0453 93.9282 21.344C93.9282 21.6213 93.8855 21.8293 93.8002 21.968C93.7149 22.1067 93.6029 22.1973 93.4642 22.24C93.3255 22.272 93.1655 22.288 92.9842 22.288L90.8402 22.256L89.0642 22.272C88.7975 22.2613 88.6109 22.1867 88.5042 22.048C88.4082 21.8987 88.3602 21.6587 88.3602 21.328C88.3602 21.0187 88.4189 20.7947 88.5362 20.656C88.6642 20.5067 88.8562 20.432 89.1122 20.432ZM102.594 28.304C102.114 28.304 101.676 28.2453 101.282 28.128C100.898 28.0107 100.556 27.8613 100.258 27.68C99.9698 27.4987 99.7245 27.312 99.5218 27.12C99.3191 26.928 99.1698 26.752 99.0738 26.592C98.9351 26.4 98.8445 26.2293 98.8018 26.08C98.7591 25.9307 98.7698 25.7867 98.8338 25.648C98.9085 25.4987 99.0418 25.344 99.2338 25.184C99.4258 25.0133 99.6018 24.928 99.7618 24.928C99.9325 24.9173 100.092 24.9653 100.242 25.072C100.402 25.1787 100.556 25.328 100.706 25.52C100.962 25.8613 101.25 26.1067 101.57 26.256C101.89 26.3947 102.21 26.464 102.53 26.464C102.946 26.464 103.308 26.4107 103.618 26.304C103.927 26.1867 104.167 26.016 104.338 25.792C104.519 25.568 104.61 25.28 104.61 24.928C104.61 24.64 104.519 24.4053 104.338 24.224C104.167 24.032 103.938 23.872 103.65 23.744C103.362 23.6053 103.036 23.4827 102.674 23.376C102.322 23.2587 101.964 23.1307 101.602 22.992C101.346 22.9067 101.09 22.8053 100.834 22.688C100.578 22.56 100.338 22.416 100.114 22.256C99.9005 22.096 99.7085 21.9093 99.5378 21.696C99.3778 21.472 99.2498 21.216 99.1538 20.928C99.0578 20.64 99.0098 20.304 99.0098 19.92C99.0098 19.312 99.1591 18.7787 99.4578 18.32C99.7565 17.8507 100.172 17.4827 100.706 17.216C101.239 16.9387 101.847 16.8 102.53 16.8C102.967 16.8 103.356 16.8427 103.698 16.928C104.05 17.0027 104.348 17.104 104.594 17.232C104.85 17.3493 105.058 17.472 105.218 17.6C105.388 17.7173 105.511 17.8187 105.586 17.904C105.831 18.1493 105.964 18.3573 105.986 18.528C106.018 18.688 105.922 18.9067 105.698 19.184C105.474 19.472 105.255 19.632 105.042 19.664C104.839 19.6853 104.61 19.6 104.354 19.408C104.183 19.2267 104.012 19.0827 103.842 18.976C103.671 18.8587 103.479 18.7733 103.266 18.72C103.063 18.6667 102.812 18.64 102.514 18.64C102.3 18.64 102.092 18.672 101.89 18.736C101.698 18.7893 101.532 18.8747 101.394 18.992C101.255 19.0987 101.143 19.232 101.058 19.392C100.983 19.552 100.946 19.7333 100.946 19.936C100.946 20.2133 101.02 20.4427 101.17 20.624C101.33 20.7947 101.543 20.9387 101.81 21.056C102.076 21.1627 102.375 21.264 102.706 21.36C103.036 21.456 103.372 21.5573 103.714 21.664C104.066 21.7813 104.412 21.92 104.754 22.08C105.095 22.24 105.399 22.4427 105.666 22.688C105.932 22.9227 106.146 23.2213 106.306 23.584C106.466 23.936 106.546 24.368 106.546 24.88C106.546 25.4667 106.434 25.9787 106.21 26.416C105.986 26.8533 105.682 27.2107 105.298 27.488C104.914 27.7653 104.487 27.968 104.018 28.096C103.548 28.2347 103.074 28.304 102.594 28.304ZM111.151 28.144C110.66 28.144 110.207 28.0587 109.791 27.888C109.385 27.7067 109.028 27.4507 108.719 27.12C108.409 26.7893 108.169 26.3947 107.999 25.936C107.828 25.4773 107.743 24.9707 107.743 24.416V21.232C107.743 21.0507 107.759 20.8907 107.791 20.752C107.823 20.6027 107.908 20.4853 108.047 20.4C108.185 20.3147 108.399 20.272 108.687 20.272C108.996 20.272 109.215 20.3147 109.343 20.4C109.481 20.4853 109.567 20.6027 109.599 20.752C109.631 20.9013 109.647 21.0667 109.647 21.248V24.416C109.647 24.8 109.711 25.1307 109.839 25.408C109.977 25.6853 110.175 25.904 110.431 26.064C110.687 26.2133 111.001 26.288 111.375 26.288C111.759 26.288 112.084 26.2133 112.351 26.064C112.628 25.904 112.841 25.6853 112.991 25.408C113.14 25.12 113.215 24.7893 113.215 24.416V21.216C113.215 21.0347 113.231 20.8747 113.263 20.736C113.295 20.5867 113.38 20.4747 113.519 20.4C113.657 20.3147 113.876 20.272 114.175 20.272C114.473 20.272 114.687 20.3147 114.815 20.4C114.943 20.4853 115.023 20.6027 115.055 20.752C115.097 20.9013 115.119 21.0613 115.119 21.232V27.232C115.119 27.392 115.097 27.5413 115.055 27.68C115.023 27.8187 114.937 27.9307 114.799 28.016C114.671 28.1013 114.457 28.144 114.159 28.144C113.945 28.144 113.775 28.1173 113.647 28.064C113.529 28.0213 113.439 27.9627 113.375 27.888C113.321 27.8027 113.284 27.7173 113.263 27.632C113.252 27.5467 113.247 27.4613 113.247 27.376L113.375 26.944C113.311 27.04 113.215 27.1573 113.087 27.296C112.959 27.424 112.799 27.5573 112.607 27.696C112.425 27.824 112.212 27.9307 111.967 28.016C111.721 28.1013 111.449 28.144 111.151 28.144ZM117.643 28.16C117.355 28.16 117.142 28.112 117.003 28.016C116.875 27.9307 116.795 27.8133 116.763 27.664C116.731 27.5147 116.715 27.3493 116.715 27.168V21.232C116.715 21.04 116.731 20.8747 116.763 20.736C116.795 20.5867 116.875 20.4747 117.003 20.4C117.142 20.3147 117.361 20.272 117.659 20.272C117.947 20.272 118.155 20.3093 118.283 20.384C118.422 20.4587 118.507 20.5547 118.539 20.672C118.582 20.7787 118.603 20.8853 118.603 20.992L118.475 21.28C118.529 21.1947 118.603 21.0933 118.699 20.976C118.795 20.848 118.923 20.7253 119.083 20.608C119.243 20.48 119.435 20.3787 119.659 20.304C119.883 20.2187 120.15 20.176 120.459 20.176C120.587 20.176 120.721 20.192 120.859 20.224C121.009 20.2453 121.153 20.2827 121.291 20.336C121.441 20.3787 121.574 20.4373 121.691 20.512C121.809 20.5867 121.899 20.6773 121.963 20.784C122.027 20.88 122.059 20.992 122.059 21.12C122.059 21.4613 121.974 21.7493 121.803 21.984C121.633 22.2187 121.43 22.336 121.195 22.336C121.035 22.336 120.918 22.32 120.843 22.288C120.769 22.256 120.705 22.2187 120.651 22.176C120.609 22.1333 120.539 22.096 120.443 22.064C120.358 22.032 120.219 22.016 120.027 22.016C119.867 22.016 119.702 22.0427 119.531 22.096C119.371 22.1493 119.222 22.2293 119.083 22.336C118.945 22.4427 118.833 22.5813 118.747 22.752C118.662 22.912 118.619 23.0987 118.619 23.312V27.2C118.619 27.3813 118.603 27.5467 118.571 27.696C118.539 27.8347 118.454 27.9467 118.315 28.032C118.177 28.1173 117.953 28.16 117.643 28.16ZM126.908 28.192C126.684 28.192 126.497 28.1547 126.348 28.08C126.198 28.0053 126.081 27.8827 125.996 27.712L123.084 21.616C122.924 21.296 122.881 21.04 122.956 20.848C123.03 20.656 123.222 20.4853 123.532 20.336C123.852 20.176 124.108 20.1227 124.3 20.176C124.492 20.2293 124.662 20.4267 124.812 20.768L126.908 25.68L128.972 20.864C129.121 20.512 129.292 20.2933 129.484 20.208C129.676 20.112 129.953 20.1547 130.316 20.336C130.678 20.5173 130.87 20.72 130.892 20.944C130.913 21.1573 130.854 21.4027 130.716 21.68L127.82 27.712C127.734 27.872 127.617 27.9893 127.468 28.064C127.318 28.1493 127.132 28.192 126.908 28.192ZM135.476 28.256C134.783 28.256 134.175 28.144 133.652 27.92C133.14 27.696 132.708 27.392 132.356 27.008C132.015 26.6133 131.753 26.176 131.572 25.696C131.401 25.2053 131.316 24.6987 131.316 24.176C131.316 23.408 131.492 22.7253 131.844 22.128C132.196 21.5307 132.681 21.0613 133.3 20.72C133.929 20.3787 134.649 20.208 135.46 20.208C136.036 20.208 136.543 20.2987 136.98 20.48C137.417 20.6613 137.78 20.9013 138.068 21.2C138.367 21.488 138.591 21.808 138.74 22.16C138.9 22.512 138.98 22.8533 138.98 23.184C138.98 23.7493 138.841 24.16 138.564 24.416C138.297 24.672 137.961 24.8 137.556 24.8H133.332C133.343 25.1627 133.455 25.4773 133.668 25.744C133.892 26.0107 134.169 26.2187 134.5 26.368C134.841 26.5067 135.188 26.576 135.54 26.576C135.807 26.576 136.041 26.56 136.244 26.528C136.457 26.496 136.639 26.4587 136.788 26.416C136.937 26.3627 137.065 26.3093 137.172 26.256C137.289 26.2027 137.396 26.1547 137.492 26.112C137.588 26.0693 137.679 26.0427 137.764 26.032C137.881 26.0213 137.999 26.048 138.116 26.112C138.233 26.176 138.329 26.288 138.404 26.448C138.468 26.5547 138.511 26.656 138.532 26.752C138.564 26.8373 138.58 26.9227 138.58 27.008C138.58 27.2213 138.452 27.424 138.196 27.616C137.94 27.7973 137.577 27.9467 137.108 28.064C136.649 28.192 136.105 28.256 135.476 28.256ZM133.332 23.664H136.612C136.793 23.664 136.932 23.6373 137.028 23.584C137.124 23.52 137.172 23.392 137.172 23.2C137.172 22.9547 137.097 22.736 136.948 22.544C136.799 22.3413 136.596 22.1867 136.34 22.08C136.084 21.9627 135.785 21.904 135.444 21.904C135.049 21.904 134.692 21.984 134.372 22.144C134.052 22.2933 133.796 22.5013 133.604 22.768C133.423 23.0347 133.332 23.3333 133.332 23.664ZM141.793 31.312C141.451 31.1627 141.254 30.992 141.201 30.8C141.147 30.6187 141.195 30.3733 141.345 30.064L145.473 20.816C145.622 20.4747 145.782 20.272 145.953 20.208C146.123 20.1333 146.385 20.1707 146.737 20.32C147.067 20.4693 147.259 20.6347 147.313 20.816C147.377 20.9973 147.339 21.2427 147.201 21.552L143.041 30.848C142.902 31.1893 142.747 31.3867 142.577 31.44C142.406 31.504 142.145 31.4613 141.793 31.312ZM143.281 27.392L139.585 21.712C139.393 21.424 139.313 21.184 139.345 20.992C139.387 20.8 139.558 20.6133 139.857 20.432C140.187 20.2293 140.443 20.1493 140.625 20.192C140.817 20.2347 141.009 20.4053 141.201 20.704L144.129 25.264L143.281 27.392Z" fill="#1EA4FF"/>
<defs>
<clipPath id="clip0_17224_123252">
<rect width="24" height="24" fill="white" transform="translate(15 10.5)"/>
</clipPath>
</defs>
</svg>
