<svg width="80" height="45" viewBox="0 0 80 45" fill="none" xmlns="http://www.w3.org/2000/svg">
<rect width="80" height="45" rx="5" fill="#1EA4FF"/>
<path d="M19.5157 28.304C19.0357 28.304 18.5984 28.2453 18.2037 28.128C17.8197 28.0107 17.4784 27.8613 17.1797 27.68C16.8917 27.4987 16.6464 27.312 16.4437 27.12C16.241 26.928 16.0917 26.752 15.9957 26.592C15.857 26.4 15.7664 26.2293 15.7237 26.08C15.681 25.9307 15.6917 25.7867 15.7557 25.648C15.8304 25.4987 15.9637 25.344 16.1557 25.184C16.3477 25.0133 16.5237 24.928 16.6837 24.928C16.8544 24.9173 17.0144 24.9653 17.1637 25.072C17.3237 25.1787 17.4784 25.328 17.6277 25.52C17.8837 25.8613 18.1717 26.1067 18.4917 26.256C18.8117 26.3947 19.1317 26.464 19.4517 26.464C19.8677 26.464 20.2304 26.4107 20.5397 26.304C20.849 26.1867 21.089 26.016 21.2597 25.792C21.441 25.568 21.5317 25.28 21.5317 24.928C21.5317 24.64 21.441 24.4053 21.2597 24.224C21.089 24.032 20.8597 23.872 20.5717 23.744C20.2837 23.6053 19.9584 23.4827 19.5957 23.376C19.2437 23.2587 18.8864 23.1307 18.5237 22.992C18.2677 22.9067 18.0117 22.8053 17.7557 22.688C17.4997 22.56 17.2597 22.416 17.0357 22.256C16.8224 22.096 16.6304 21.9093 16.4597 21.696C16.2997 21.472 16.1717 21.216 16.0757 20.928C15.9797 20.64 15.9317 20.304 15.9317 19.92C15.9317 19.312 16.081 18.7787 16.3797 18.32C16.6784 17.8507 17.0944 17.4827 17.6277 17.216C18.161 16.9387 18.769 16.8 19.4517 16.8C19.889 16.8 20.2784 16.8427 20.6197 16.928C20.9717 17.0027 21.2704 17.104 21.5157 17.232C21.7717 17.3493 21.9797 17.472 22.1397 17.6C22.3104 17.7173 22.433 17.8187 22.5077 17.904C22.753 18.1493 22.8864 18.3573 22.9077 18.528C22.9397 18.688 22.8437 18.9067 22.6197 19.184C22.3957 19.472 22.177 19.632 21.9637 19.664C21.761 19.6853 21.5317 19.6 21.2757 19.408C21.105 19.2267 20.9344 19.0827 20.7637 18.976C20.593 18.8587 20.401 18.7733 20.1877 18.72C19.985 18.6667 19.7344 18.64 19.4357 18.64C19.2224 18.64 19.0144 18.672 18.8117 18.736C18.6197 18.7893 18.4544 18.8747 18.3157 18.992C18.177 19.0987 18.065 19.232 17.9797 19.392C17.905 19.552 17.8677 19.7333 17.8677 19.936C17.8677 20.2133 17.9424 20.4427 18.0917 20.624C18.2517 20.7947 18.465 20.9387 18.7317 21.056C18.9984 21.1627 19.297 21.264 19.6277 21.36C19.9584 21.456 20.2944 21.5573 20.6357 21.664C20.9877 21.7813 21.3344 21.92 21.6757 22.08C22.017 22.24 22.321 22.4427 22.5877 22.688C22.8544 22.9227 23.0677 23.2213 23.2277 23.584C23.3877 23.936 23.4677 24.368 23.4677 24.88C23.4677 25.4667 23.3557 25.9787 23.1317 26.416C22.9077 26.8533 22.6037 27.2107 22.2197 27.488C21.8357 27.7653 21.409 27.968 20.9397 28.096C20.4704 28.2347 19.9957 28.304 19.5157 28.304ZM28.0726 28.144C27.5819 28.144 27.1286 28.0587 26.7126 27.888C26.3072 27.7067 25.9499 27.4507 25.6406 27.12C25.3312 26.7893 25.0912 26.3947 24.9206 25.936C24.7499 25.4773 24.6646 24.9707 24.6646 24.416V21.232C24.6646 21.0507 24.6806 20.8907 24.7126 20.752C24.7446 20.6027 24.8299 20.4853 24.9686 20.4C25.1072 20.3147 25.3206 20.272 25.6086 20.272C25.9179 20.272 26.1366 20.3147 26.2646 20.4C26.4032 20.4853 26.4886 20.6027 26.5206 20.752C26.5526 20.9013 26.5686 21.0667 26.5686 21.248V24.416C26.5686 24.8 26.6326 25.1307 26.7606 25.408C26.8992 25.6853 27.0966 25.904 27.3526 26.064C27.6086 26.2133 27.9232 26.288 28.2966 26.288C28.6806 26.288 29.0059 26.2133 29.2726 26.064C29.5499 25.904 29.7632 25.6853 29.9126 25.408C30.0619 25.12 30.1366 24.7893 30.1366 24.416V21.216C30.1366 21.0347 30.1526 20.8747 30.1846 20.736C30.2166 20.5867 30.3019 20.4747 30.4406 20.4C30.5792 20.3147 30.7979 20.272 31.0966 20.272C31.3952 20.272 31.6086 20.3147 31.7366 20.4C31.8646 20.4853 31.9446 20.6027 31.9766 20.752C32.0192 20.9013 32.0406 21.0613 32.0406 21.232V27.232C32.0406 27.392 32.0192 27.5413 31.9766 27.68C31.9446 27.8187 31.8592 27.9307 31.7206 28.016C31.5926 28.1013 31.3792 28.144 31.0806 28.144C30.8672 28.144 30.6966 28.1173 30.5686 28.064C30.4512 28.0213 30.3606 27.9627 30.2966 27.888C30.2432 27.8027 30.2059 27.7173 30.1846 27.632C30.1739 27.5467 30.1686 27.4613 30.1686 27.376L30.2966 26.944C30.2326 27.04 30.1366 27.1573 30.0086 27.296C29.8806 27.424 29.7206 27.5573 29.5286 27.696C29.3472 27.824 29.1339 27.9307 28.8886 28.016C28.6432 28.1013 28.3712 28.144 28.0726 28.144ZM37.7331 28.144C37.2104 28.144 36.7411 28.0427 36.3251 27.84C35.9197 27.6267 35.5731 27.3387 35.2851 26.976C35.0077 26.6133 34.7944 26.1973 34.6451 25.728C34.5064 25.248 34.4371 24.736 34.4371 24.192C34.4477 23.648 34.5277 23.1413 34.6771 22.672C34.8264 22.192 35.0397 21.776 35.3171 21.424C35.6051 21.0613 35.9517 20.7787 36.3571 20.576C36.7624 20.3733 37.2211 20.272 37.7331 20.272C38.2237 20.272 38.6824 20.3733 39.1091 20.576C39.5464 20.7787 39.9304 21.0613 40.2611 21.424C40.6024 21.776 40.8691 22.192 41.0611 22.672C41.2531 23.1413 41.3491 23.6427 41.3491 24.176C41.3491 24.7307 41.2531 25.2533 41.0611 25.744C40.8691 26.224 40.6077 26.6453 40.2771 27.008C39.9464 27.36 39.5624 27.6373 39.1251 27.84C38.6877 28.0427 38.2237 28.144 37.7331 28.144ZM37.4771 26.272C37.8504 26.272 38.1864 26.1867 38.4851 26.016C38.7837 25.8347 39.0184 25.5893 39.1891 25.28C39.3704 24.9707 39.4611 24.6187 39.4611 24.224C39.4611 23.8187 39.3704 23.4613 39.1891 23.152C39.0184 22.832 38.7837 22.5867 38.4851 22.416C38.1864 22.2347 37.8504 22.144 37.4771 22.144C37.1144 22.144 36.7837 22.2347 36.4851 22.416C36.1864 22.5973 35.9464 22.8427 35.7651 23.152C35.5944 23.4613 35.5091 23.8187 35.5091 24.224C35.5091 24.6187 35.5944 24.9707 35.7651 25.28C35.9464 25.5893 36.1864 25.8347 36.4851 26.016C36.7837 26.1867 37.1144 26.272 37.4771 26.272ZM34.5171 28.16C34.2291 28.16 34.0157 28.112 33.8771 28.016C33.7384 27.9307 33.6531 27.8187 33.6211 27.68C33.5891 27.5307 33.5731 27.3653 33.5731 27.184V17.648C33.5731 17.4667 33.5891 17.3067 33.6211 17.168C33.6531 17.0187 33.7384 16.9013 33.8771 16.816C34.0157 16.7307 34.2291 16.688 34.5171 16.688C34.8157 16.688 35.0291 16.7307 35.1571 16.816C35.2851 16.9013 35.3651 17.0187 35.3971 17.168C35.4291 17.3173 35.4451 17.4773 35.4451 17.648V27.504C35.4024 27.7387 35.3117 27.904 35.1731 28C35.0451 28.1067 34.8264 28.16 34.5171 28.16ZM43.7209 28.144C43.4329 28.144 43.2196 28.1013 43.0809 28.016C42.9529 27.9307 42.8729 27.8133 42.8409 27.664C42.8089 27.5147 42.7929 27.3547 42.7929 27.184V21.2C42.7929 21.0293 42.8089 20.8747 42.8409 20.736C42.8729 20.5973 42.9583 20.4853 43.0969 20.4C43.2356 20.3147 43.4543 20.272 43.7529 20.272C44.0623 20.272 44.2863 20.336 44.4249 20.464C44.5743 20.592 44.6489 20.7947 44.6489 21.072L44.5049 21.52C44.5583 21.4027 44.6489 21.2747 44.7769 21.136C44.9049 20.9973 45.0596 20.8587 45.2409 20.72C45.4329 20.5813 45.6463 20.4693 45.8809 20.384C46.1156 20.2987 46.3609 20.256 46.6169 20.256C46.9689 20.256 47.2889 20.3147 47.5769 20.432C47.8756 20.5493 48.1369 20.72 48.3609 20.944C48.5956 21.168 48.7983 21.44 48.9689 21.76C49.1503 21.4827 49.3529 21.232 49.5769 21.008C49.8009 20.7733 50.0623 20.592 50.3609 20.464C50.6596 20.3253 50.9956 20.256 51.3689 20.256C51.9876 20.256 52.5049 20.4107 52.9209 20.72C53.3476 21.0293 53.6676 21.472 53.8809 22.048C54.1049 22.6133 54.2169 23.2907 54.2169 24.08V27.184C54.2169 27.3653 54.1956 27.5307 54.1529 27.68C54.1209 27.8187 54.0356 27.9307 53.8969 28.016C53.7689 28.1013 53.5556 28.144 53.2569 28.144C52.9583 28.144 52.7396 28.096 52.6009 28C52.4623 27.9147 52.3769 27.8027 52.3449 27.664C52.3129 27.5147 52.2969 27.3493 52.2969 27.168V24.064C52.2969 23.6693 52.2489 23.328 52.1529 23.04C52.0569 22.752 51.9129 22.528 51.7209 22.368C51.5396 22.208 51.2996 22.128 51.0009 22.128C50.6809 22.128 50.4036 22.208 50.1689 22.368C49.9449 22.5173 49.7689 22.736 49.6409 23.024C49.5129 23.312 49.4489 23.664 49.4489 24.08V27.2C49.4489 27.3813 49.4223 27.552 49.3689 27.712C49.3156 27.8613 49.2089 27.9733 49.0489 28.048C48.8996 28.1333 48.6809 28.1653 48.3929 28.144C48.1263 28.1333 47.9289 28.08 47.8009 27.984C47.6836 27.888 47.6089 27.7707 47.5769 27.632C47.5556 27.4827 47.5449 27.328 47.5449 27.168V24.064C47.5449 23.6693 47.4969 23.328 47.4009 23.04C47.3049 22.7413 47.1609 22.5173 46.9689 22.368C46.7876 22.208 46.5423 22.128 46.2329 22.128C45.9023 22.128 45.6196 22.2133 45.3849 22.384C45.1609 22.5547 44.9903 22.784 44.8729 23.072C44.7556 23.36 44.6969 23.6907 44.6969 24.064V27.2C44.6969 27.3707 44.6756 27.5307 44.6329 27.68C44.6009 27.8293 44.5156 27.9413 44.3769 28.016C44.2489 28.1013 44.0303 28.144 43.7209 28.144ZM56.8482 28.16C56.5602 28.16 56.3469 28.112 56.2082 28.016C56.0695 27.9307 55.9842 27.8187 55.9522 27.68C55.9202 27.5307 55.9042 27.3653 55.9042 27.184V21.232C55.9042 21.0613 55.9202 20.9067 55.9522 20.768C55.9949 20.6187 56.0802 20.5013 56.2082 20.416C56.3469 20.3307 56.5655 20.288 56.8642 20.288C57.1629 20.288 57.3762 20.3307 57.5042 20.416C57.6429 20.5013 57.7282 20.6187 57.7602 20.768C57.7922 20.9173 57.8082 21.0827 57.8082 21.264V27.2C57.8082 27.3813 57.7922 27.5467 57.7602 27.696C57.7282 27.8347 57.6429 27.9467 57.5042 28.032C57.3762 28.1173 57.1575 28.16 56.8482 28.16ZM56.8482 18.736C56.5389 18.736 56.3095 18.6933 56.1602 18.608C56.0215 18.512 55.9309 18.384 55.8882 18.224C55.8562 18.064 55.8402 17.888 55.8402 17.696C55.8402 17.4933 55.8562 17.3173 55.8882 17.168C55.9309 17.0187 56.0269 16.9013 56.1762 16.816C56.3255 16.72 56.5549 16.672 56.8642 16.672C57.1842 16.672 57.4135 16.72 57.5522 16.816C57.6909 16.912 57.7815 17.04 57.8242 17.2C57.8669 17.3493 57.8882 17.5253 57.8882 17.728C57.8882 17.9093 57.8669 18.08 57.8242 18.24C57.7815 18.4 57.6909 18.5227 57.5522 18.608C57.4135 18.6933 57.1789 18.736 56.8482 18.736ZM63.2434 28.16C62.7208 28.16 62.2728 28.1067 61.8994 28C61.5261 27.8933 61.2221 27.728 60.9874 27.504C60.7528 27.28 60.5768 26.992 60.4594 26.64C60.3528 26.2773 60.2994 25.8507 60.2994 25.36V18.576C60.2994 18.384 60.3154 18.2187 60.3474 18.08C60.3901 17.9413 60.4754 17.8347 60.6034 17.76C60.7421 17.6747 60.9554 17.632 61.2434 17.632C61.5421 17.632 61.7554 17.6747 61.8834 17.76C62.0221 17.8453 62.1074 17.9627 62.1394 18.112C62.1821 18.2507 62.2034 18.4053 62.2034 18.576V25.296C62.2034 25.52 62.2194 25.7013 62.2514 25.84C62.2941 25.9787 62.3528 26.0853 62.4274 26.16C62.5128 26.224 62.6194 26.272 62.7474 26.304C62.8861 26.3253 63.0514 26.336 63.2434 26.336C63.4461 26.336 63.6168 26.352 63.7554 26.384C63.9048 26.416 64.0168 26.496 64.0914 26.624C64.1661 26.7413 64.2034 26.9387 64.2034 27.216C64.2034 27.5147 64.1554 27.7333 64.0594 27.872C63.9741 28 63.8568 28.08 63.7074 28.112C63.5688 28.144 63.4141 28.16 63.2434 28.16ZM59.6434 20.432L61.2914 20.448L63.4994 20.384C63.6808 20.384 63.8408 20.4053 63.9794 20.448C64.1288 20.48 64.2461 20.5653 64.3314 20.704C64.4168 20.832 64.4594 21.0453 64.4594 21.344C64.4594 21.6213 64.4168 21.8293 64.3314 21.968C64.2461 22.1067 64.1341 22.1973 63.9954 22.24C63.8568 22.272 63.6968 22.288 63.5154 22.288L61.3714 22.256L59.5954 22.272C59.3288 22.2613 59.1421 22.1867 59.0354 22.048C58.9394 21.8987 58.8914 21.6587 58.8914 21.328C58.8914 21.0187 58.9501 20.7947 59.0674 20.656C59.1954 20.5067 59.3874 20.432 59.6434 20.432Z" fill="white"/>
</svg>
